<?xml version="1.0" encoding="utf-8"?>
<!-- Generator: Adobe Illustrator 16.0.0, SVG Export Plug-In . SVG Version: 6.00 Build 0)  -->
<!DOCTYPE svg PUBLIC "-//W3C//DTD SVG 1.1//EN" "http://www.w3.org/Graphics/SVG/1.1/DTD/svg11.dtd" [
	<!ENTITY ns_extend "http://ns.adobe.com/Extensibility/1.0/">
	<!ENTITY ns_ai "http://ns.adobe.com/AdobeIllustrator/10.0/">
	<!ENTITY ns_graphs "http://ns.adobe.com/Graphs/1.0/">
	<!ENTITY ns_vars "http://ns.adobe.com/Variables/1.0/">
	<!ENTITY ns_imrep "http://ns.adobe.com/ImageReplacement/1.0/">
	<!ENTITY ns_sfw "http://ns.adobe.com/SaveForWeb/1.0/">
	<!ENTITY ns_custom "http://ns.adobe.com/GenericCustomNamespace/1.0/">
	<!ENTITY ns_adobe_xpath "http://ns.adobe.com/XPath/1.0/">
]>
<svg version="1.1" id="Capa_1" xmlns:x="&ns_extend;" xmlns:i="&ns_ai;" xmlns:graph="&ns_graphs;"
	 xmlns="http://www.w3.org/2000/svg" xmlns:xlink="http://www.w3.org/1999/xlink" x="0px" y="0px" width="284px" height="284px"
	 viewBox="0 0 284 284" enable-background="new 0 0 284 284" xml:space="preserve">
<metadata>
	<sfw  xmlns="&ns_sfw;">
		<slices></slices>
		<sliceSourceBounds  height="323.486" width="508.5" bottomLeftOrigin="true" y="169.5" x="123"></sliceSourceBounds>
	</sfw>
</metadata>
<g id="Layer_1" display="none">
	<rect display="inline" fill="#B8E5FA" width="284" height="284"/>
	<path display="inline" fill="#F24B52" d="M149.971,55.73c28.609,3.61,55.141,20.12,71.42,43.87c3.439,5.22,6.949,10.52,9.029,16.45
		c-3.23-2.24-6.561-4.54-10.55-5.12c-7.601-2.94-15.83-2.65-23.81-2.28c-0.592-3.94-1.91-7.98-5.102-10.59
		c-5.87-5.53-16.26-4.57-21.1,1.86c-2.121,2.53-2.711,5.86-3.342,9c-3.529,0.44-6.818,1.85-10,3.35c-1.729-0.52-3.5-0.91-5.27-1.3
		c-0.41-13.28,1.779-27.34-4.23-39.75c1.041-3.48,1.67-7.07,2.271-10.65C150.15,59.07,150.23,57.4,149.971,55.73z"/>
	<g id="Dude" display="inline">
		<path fill="#F3C9A3" d="M169.859,99.92c4.841-6.43,15.229-7.39,21.101-1.86c3.19,2.61,4.511,6.65,5.101,10.59
			c-9.83,0.72-19.699,0.24-29.541,0.27C167.15,105.78,167.74,102.45,169.859,99.92z"/>
		<path fill="#F3C9A3" d="M52.47,221.13c2.73-5.44,8.88-8.5,14.87-7.778c6.47,1.198,11.57,6.83,11.9,13.438
			c0.01,5.61-3.11,10.892-8.21,13.319c-6.5,2.931-14.85,0.301-18.18-6.08C50.66,230.109,50.75,225.2,52.47,221.13z"/>
		<path fill="#F3C9A3" d="M99.71,185.76c0.31-2.189,0.73-4.38,1.81-6.328c2.63,0.67,5.22,1.448,7.84,2.158
			c2.43,0.592,4.89,1.051,7.34,1.54c0.07,0.521,0.22,1.552,0.29,2.07C111.23,185.391,105.47,185.58,99.71,185.76z"/>
		<path fill="#F1B590" d="M51.42,77.48c1.85,0.01,3.71,0.02,5.56,0.02c-1.21,5.07-2.05,10.25-1.91,15.48
			c0.14,10.34-0.09,20.68,0.08,31.02c0.43,11.86,4.29,24.359,13.56,32.29c8.05,8.062,20.17,8.892,30.91,8.892
			c0.48,1.27,0.96,2.549,1.44,3.828c-1.99-0.38-4.22-1.119-6.16-0.119c-2.93,1.42-3.69,6.16-0.94,8.129
			c2.01,1.182,4.35,1.592,6.58,2.17c0.25,0.062,0.74,0.182,0.98,0.242c-1.08,1.948-1.5,4.139-1.81,6.328
			c-9.5,0.36-19,0.521-28.5,0.99c1.11-7.199,2.24-14.398,3.38-21.6c-10.55-0.602-20.94-4.771-28.41-12.34
			c-4.13-4.012-7.12-9.021-9.48-14.23c-0.67-0.23-2.01-0.7-2.68-0.93c-7.52-2.5-11.03-12.11-7.46-19.06
			c1.4-3.15,4.23-5.24,7.18-6.81c0.03,5.54-0.03,11.09,0.06,16.64c1.97-0.72,4.41-1.33,5.16-3.58c1.01-3.41,0.43-7.04,0.51-10.55
			c5.12-0.79,10.08-3.7,11.88-8.8C54.54,96.56,54.16,86.49,51.42,77.48z"/>
		<path fill="#FFC39F" d="M56.98,77.5c25.54-0.01,51.07,0.02,76.6-0.02c-2.74,9.02-3.14,19.11,0.09,28.05
			c1.81,5.09,6.77,7.96,11.88,8.81c-5.69,2.83-10.45,7.42-13.1,13.25c-5.09,10.08-2.59,21.66-3.22,32.479
			c-4.74,2.371-9.84,3.912-15.05,4.791c0.32,2.57,0.65,5.131,1.01,7.701c-0.5-0.121-1.49-0.36-1.99-0.48
			c-3.42-0.721-6.82-1.551-10.17-2.54c-0.49-0.14-1.47-0.399-1.97-0.53c-0.48-1.279-0.96-2.56-1.44-3.828
			c-10.74,0-22.86-0.83-30.91-8.892c-9.27-7.931-13.13-20.43-13.56-32.29c-0.17-10.34,0.06-20.68-0.08-31.02
			C54.93,87.75,55.77,82.57,56.98,77.5z"/>
		<path fill="#5B360A" d="M46.9,51c7.35-14.92,21.74-26.3,38.15-29.44c16.33-3.39,33.79,1.82,46.16,12.85
			c-0.82-2.73-1.63-5.48-2.25-8.27c8.44,4.42,15.608,11.7,18.59,20.88c1.61,4.34,1.44,9.01,1.74,13.55
			c-0.601,3.58-1.229,7.17-2.271,10.65c6.01,12.41,3.819,26.47,4.229,39.75c1.771,0.39,3.54,0.78,5.271,1.3
			c1.799,1.77,3.529,3.96,3.239,6.65c0.021,14.03-0.06,28.07,0.021,42.109c0.091,3.641,0.031,7.531-2.039,10.701
			c-3.08,5.438-9.65,8.18-15.75,7.238l-1.18-0.08c-3.85-1.3-7.42-3.699-9.48-7.279c-2.17-3.43-2.15-7.629-2.1-11.541
			c0.63-10.818-1.87-22.398,3.22-32.479c2.65-5.83,7.41-10.42,13.1-13.25c-5.11-0.85-10.07-3.72-11.88-8.81
			c-3.23-8.94-2.83-19.03-0.09-28.05c-25.53,0.04-51.06,0.01-76.6,0.02c-1.85,0-3.71-0.01-5.56-0.02
			c2.74,9.01,3.12,19.08-0.07,28.01c-1.8,5.1-6.76,8.01-11.88,8.8c-0.08,3.51,0.5,7.14-0.51,10.55c-0.75,2.25-3.19,2.86-5.16,3.58
			c-0.09-5.55-0.03-11.1-0.06-16.64c0.04-11.25-0.04-22.51,0.03-33.76c-0.01-7.5,2.62-15.01,7.62-20.64
			C43.25,55.27,45.79,53.7,46.9,51z"/>
	</g>
	<path display="inline" fill="#FC9000" d="M73.01,85.05c2.85-1.86,7.13,0.64,7.21,3.98c0.27,3.16-2.66,5.08-4.68,6.98
		c-2.31-2.36-4.76-4.56-7.32-6.63C69.73,87.85,71.17,86.2,73.01,85.05z"/>
	<path display="inline" fill="#FC7700" d="M60.91,96.57c2.32-2.52,4.79-4.88,7.31-7.19c2.56,2.07,5.01,4.27,7.32,6.63
		c-2.43,2.55-4.9,5.08-7.53,7.44C65.67,101.13,63.3,98.84,60.91,96.57z"/>
	<path display="inline" fill="#F4D9B7" d="M67.26,92.29c1.6-0.57,2.16-0.02,1.68,1.64C67.33,94.48,66.77,93.94,67.26,92.29z"/>
	<path display="inline" fill="#F4D7B3" d="M64.26,95.26c1.62-0.54,2.17,0,1.64,1.64C64.26,97.43,63.72,96.88,64.26,95.26z"/>
	<path display="inline" fill="#F1FFFF" d="M71.28,95.29c1.46-0.04,1.54,2.44,0.03,2.39C69.91,97.68,69.82,95.26,71.28,95.29z"/>
	<path display="inline" fill="#FC9000" d="M56.52,101.6c0.88-2.1,2.82-3.47,4.39-5.03c2.39,2.27,4.76,4.56,7.1,6.88
		c-2.08,1.83-3.88,4.89-7.05,4.57C57.81,108.12,55.4,104.5,56.52,101.6z"/>
	<path display="inline" fill="#F1FFFF" d="M68.34,98.35c1.32,0.64,1.34,1.32,0.04,2.02C67.06,99.72,67.04,99.05,68.34,98.35z"/>
	<path display="inline" fill="#FC7700" d="M88.21,108.15c2.87-0.17,5.74-0.17,8.61-0.02c0.28,4.52,0.1,9.05,0.29,13.58
		c1.13,1.22,3.31,2.19,2.83,4.2c-0.75,3.69-5.27,2.34-7.97,2.65c-2.23-0.27-5.59,0.74-6.66-1.93c-1.23-2.2,1.25-3.66,2.57-4.96
		C88.09,117.17,87.87,112.65,88.21,108.15z"/>
	<path display="inline" fill="#FC9000" d="M156.52,112.27c3.182-1.5,6.472-2.91,10-3.35c9.842-0.03,19.711,0.45,29.541-0.27
		c7.979-0.37,16.209-0.66,23.811,2.28c5.648,3.16,10.811,7.54,13.68,13.46c2.471,4.8,3.311,10.26,3.221,15.61
		c-0.029,12.23-0.039,24.46,0,36.689c0.819,11-4.609,21.061-8.939,30.811l-0.16-0.359c-0.488-1.109-0.98-2.229-1.47-3.341
		c1-7.899,0.479-15.899,0.5-23.829c-0.021-6.561-4.08-12.631-9.931-15.471c-0.609-1.88-1.439-4.25-3.789-4.34
		c-6.682-0.33-13.4-0.229-20.08-0.051c-1.832-0.119-3.051,1.341-4.271,2.459c-4.55,0.711-9.33,1.992-12.479,5.602
		c-3.61,3.609-5.062,8.811-4.91,13.82c0.16,7.57-0.521,15.21,0.779,22.71c0,6.771-0.51,13.54-0.109,20.3
		c0.271,5.45,2.9,10.529,6.34,14.66c3.09,3.699,7.54,5.8,11.801,7.83c-18.5,11.27-40.541,16.648-62.151,14.89
		c-20.64-1.42-40.72-9.37-56.87-22.271c5.1-2.43,8.22-7.709,8.21-13.319c14.41-0.08,28.82-0.05,43.23,0
		c8.6,0.778,17.46-4.979,19.16-13.649c0.84-6.939,0.16-13.971,0.37-20.951c0-4.408,0-8.81-0.01-13.219
		c6.1,0.939,12.67-1.801,15.75-7.24c2.07-3.17,2.13-7.061,2.04-10.699c-0.08-14.04,0-28.08-0.021-42.11
		C160.05,116.23,158.318,114.04,156.52,112.27z"/>
	<path display="inline" fill="#002E6E" d="M219.87,110.93c3.989,0.58,7.319,2.88,10.55,5.12c8.75,5.34,13.6,15.81,13.35,25.89
		c-0.049,7.4,0.012,14.791-0.02,22.19c0.08,5.03-2.67,9.95-6.98,12.56c-0.039-12.229-0.028-24.459,0-36.688
		c0.092-5.35-0.75-10.81-3.22-15.61C230.682,118.47,225.52,114.09,219.87,110.93z"/>
	<path display="inline" fill="#492A09" d="M69.16,117.06c2.68-1.89,6.91,0.6,6.35,3.92c-0.02,3.4-4.84,5.13-7.07,2.62
		C66.45,121.88,66.88,118.35,69.16,117.06z"/>
	<path display="inline" fill="#492A09" d="M111.28,117.12c2.41-1.73,6.28-0.05,6.48,2.92c0.7,3.22-3.21,5.91-6.02,4.3
		C108.94,123.09,108.67,118.73,111.28,117.12z"/>
	<path display="inline" fill="#002E6E" d="M78.53,131.47c2.46-1.24,3.8,1.38,5.29,2.79c4.5,4.69,12.89,4.7,17.31-0.1
		c1.42-1.37,2.95-4.09,5.25-2.58c2.28,1.77-0.18,4.58-1.68,6.01c-7.05,7.311-20.37,6.33-26.24-1.97
		C77.31,134.39,77.1,132.58,78.53,131.47z"/>
	<path display="inline" fill="#FC7F00" d="M174.279,137.4c3.521-0.77,7.171-0.35,10.75-0.41c11.33,0.03,22.66,0.06,33.99-0.02
		c1.75,0.13,3.67-0.12,5.291,0.71c0.77,1.34,1.338,3.39-0.052,4.57c-1.149,1-2.86,0.63-4.25,0.79
		c-14.67-0.14-29.35,0.12-44.021-0.13C172.8,143.689,171.63,138.41,174.279,137.4z"/>
	<path display="inline" fill="#F24B52" d="M34.02,137.65c0.67,0.23,2.01,0.7,2.68,0.93c2.36,5.21,5.35,10.22,9.48,14.23
		c7.47,7.568,17.86,11.738,28.41,12.34c-1.14,7.199-2.27,14.398-3.38,21.6c-1.3,8.859-2.6,17.73-3.87,26.602
		c-5.99-0.722-12.14,2.338-14.87,7.778C34.85,197.602,27.73,166.432,34.02,137.65z"/>
	<path display="inline" fill="#FC7F00" d="M168.311,145.318c2.51-0.608,5.141-0.408,7.709-0.459
		c13.98,0.181,27.972-0.049,41.951,0.061c3.909,0.09,7.869-0.42,11.739,0.33c2.74,1.279,1.521,6.21-1.681,5.65
		c-15.329,0.279-30.67,0.02-46.01,0.09c-4.601-0.131-9.24,0.34-13.811-0.25C166.4,149.58,166.318,146.21,168.311,145.318z"/>
	<path display="inline" fill="#002E6E" d="M172.35,152.59c1.75-1.29,4.74-0.68,5.562,1.471c1.34,2.449-1.28,5.83-3.979,5.09
		C170.859,158.818,169.818,154.26,172.35,152.59z"/>
	<path display="inline" fill="#002E6E" d="M222.029,152.141c2.5-1,5.619,1.069,4.971,3.879c-0.09,3.23-4.891,4.352-6.52,1.621
		C218.96,155.83,220,153.04,222.029,152.141z"/>
	<path display="inline" fill="#F24B52" d="M114.18,164.859c5.21-0.879,10.31-2.42,15.05-4.791c-0.05,3.912-0.07,8.111,2.1,11.541
		c2.06,3.58,5.63,5.979,9.48,7.279c-7.03,4.812-14.73,8.86-23.31,9.9c-0.17-1.2-0.34-2.4-0.51-3.59c-0.07-0.52-0.22-1.551-0.29-2.07
		c-0.49-3.529-0.96-7.061-1.51-10.568C114.83,169.99,114.5,167.432,114.18,164.859z"/>
	<path display="inline" fill="#002E6E" d="M188.63,162.568c1.22-1.118,2.438-2.578,4.271-2.459c6.681-0.18,13.399-0.279,20.08,0.051
		c2.351,0.09,3.181,2.46,3.789,4.34c-3.01,4.73-7.608,8.09-11.31,12.23c0.14,5.1-0.142,10.199,0.101,15.299
		c0.01,2.061,1.279,4.381,3.521,4.58c3.608,0.41,7.28-0.17,10.89,0.341c2.771,0.22,2.801,5.13,0.041,5.188
		c-5.779,0.021-12.291,1.352-17.221-2.488c-4.811,3.77-11.15,2.52-16.8,2.529c-2.921,0.43-3.36-4.271-0.95-5.07
		c3.91-0.859,7.96,0.051,11.898-0.569c1.961-0.49,2.992-2.63,3.012-4.511c0.21-5.049-0.03-10.1,0.061-15.141
		c-3.271-3.398-6.75-6.578-9.971-10.02C188.8,165.79,188.939,164.029,188.63,162.568z"/>
	<path display="inline" fill="#8097B7" d="M191.682,161.859c6.778-0.141,13.578-0.221,20.358-0.029
		c2.069-0.359,1.778,1.811,2.028,3.15c-7.459,0.51-14.948,0.26-22.408,0.158C191.66,164.318,191.67,162.682,191.682,161.859z"/>
	<path display="inline" fill="#FFCF00" d="M176.15,168.17c3.148-3.609,7.93-4.891,12.479-5.602c0.311,1.461,0.17,3.222,1.41,4.302
		c3.22,3.44,6.699,6.62,9.97,10.021c-0.09,5.041,0.15,10.09-0.06,15.141c-0.02,1.88-1.051,4.02-3.012,4.51
		c-3.938,0.62-7.988-0.29-11.898,0.57c-2.41,0.8-1.971,5.5,0.949,5.07c5.65-0.012,11.99,1.238,16.801-2.531
		c4.93,3.841,11.439,2.511,17.22,2.49c2.761-0.061,2.729-4.971-0.04-5.189c-3.609-0.512-7.279,0.068-10.89-0.34
		c-2.24-0.2-3.511-2.521-3.521-4.58c-0.24-5.1,0.039-10.2-0.101-15.301c3.7-4.141,8.3-7.5,11.31-12.229
		c5.852,2.84,9.912,8.91,9.932,15.47c-0.02,7.932,0.5,15.932-0.5,23.83c-1.92,3.27-5.131,6.07-9.182,5.69
		c-12.33-0.04-24.67,0.12-37-0.07c-3.398,0.12-5.85-2.46-8-4.72c-1.3-7.5-0.619-15.141-0.779-22.71
		C171.09,176.98,172.54,171.779,176.15,168.17z"/>
	<path display="inline" fill="#F1B590" d="M94.9,168.891c1.94-1,4.17-0.261,6.16,0.119c0.5,0.131,1.48,0.391,1.97,0.53
		c-0.92,3.19-1.75,6.41-2.49,9.649c-2.23-0.58-4.57-0.989-6.58-2.17C91.21,175.05,91.97,170.311,94.9,168.891z"/>
	<path display="inline" fill="#FFC39F" d="M103.03,169.54c3.35,0.989,6.75,1.819,10.17,2.54c-0.79,3.33-1.27,6.98-3.84,9.51
		c-2.62-0.71-5.21-1.488-7.84-2.158c-0.24-0.062-0.73-0.182-0.98-0.242C101.28,175.95,102.11,172.73,103.03,169.54z"/>
	<path display="inline" fill="#F1FFFF" d="M104.47,172.09c1.61-0.479,2.16,0.092,1.63,1.729
		C104.48,174.29,103.94,173.71,104.47,172.09z"/>
	<path display="inline" fill="#FFC39F" d="M113.2,172.08c0.5,0.12,1.49,0.359,1.99,0.48c0.55,3.508,1.02,7.039,1.51,10.568
		c-2.45-0.49-4.91-0.949-7.34-1.54C111.93,179.061,112.41,175.41,113.2,172.08z"/>
	<path display="inline" fill="#F1FFFF" d="M108.54,173.16c1.59-0.54,2.13,0.021,1.62,1.689
		C108.58,175.38,108.04,174.811,108.54,173.16z"/>
	<path display="inline" fill="#F1FFFF" d="M103.28,176.529c1.62-0.529,2.18,0.021,1.66,1.65
		C103.31,178.7,102.76,178.15,103.28,176.529z"/>
	<path display="inline" fill="#F4DABA" d="M108.24,177.4c1.29,0.72,1.24,1.369-0.15,1.949C106.79,178.63,106.84,177.98,108.24,177.4
		z"/>
	<path display="inline" fill="#15BBDC" d="M117.5,188.79c8.58-1.04,16.28-5.09,23.31-9.899l1.18,0.08
		c0.01,4.409,0.01,8.811,0.01,13.219c-7.05,4.211-14.83,7.262-23.03,8.262c1.14,8.779,2.34,17.561,3.5,26.34
		c-14.41-0.05-28.82-0.08-43.23,0c-0.33-6.609-5.43-12.24-11.9-13.439c1.27-8.869,2.57-17.74,3.87-26.601
		c9.5-0.47,19-0.63,28.5-0.989c5.76-0.181,11.52-0.371,17.28-0.561C117.16,186.391,117.33,187.59,117.5,188.79z"/>
	<path display="inline" fill="#F24B52" d="M118.97,200.45c8.2-1,15.98-4.05,23.03-8.261c-0.21,6.979,0.47,14.011-0.37,20.949
		c-1.7,8.672-10.56,14.43-19.16,13.65C121.31,218.01,120.11,209.23,118.97,200.45z"/>
	<path display="inline" fill="#FC7F00" d="M226.2,203.8c0.489,1.11,0.979,2.229,1.47,3.341c-8.352,16.67-21.82,30.561-37.62,40.351
		c-4.26-2.03-8.71-4.13-11.8-7.83c-3.439-4.13-6.068-9.21-6.34-14.66c-0.4-6.76,0.109-13.53,0.109-20.3
		c2.149,2.26,4.601,4.84,8,4.72c12.33,0.19,24.67,0.03,37,0.07C221.068,209.87,224.279,207.068,226.2,203.8z"/>
	<path display="inline" fill="#FFC39F" d="M105.838,182.797c0,1.529-1.239,2.77-2.768,2.77l0,0c-1.529,0-2.768-1.239-2.768-2.77
		v-17.459c0-1.529,1.239-2.77,2.768-2.77l0,0c1.529,0,2.768,1.24,2.768,2.77V182.797z"/>
</g>
<g id="Capa_3">
	<circle fill="#B8E5FA" stroke="#FFFFFF" stroke-miterlimit="10" cx="136.761" cy="158.663" r="101.261"/>
</g>
<g id="Capa_2_1_">
	<path fill="#FC9000" d="M234.098,159.396c-0.975-0.364-1.842-0.98-2.415-1.872c-8.337-12.967-23.478-19.836-31-33.5
		c-0.004-0.007-0.007-0.015-0.011-0.022c-1.124-0.336-2.223-0.771-3.282-1.342c-2.485-1.338-4.54-3.068-6.251-5.06
		c-9.218-0.508-18.921-0.516-27.63,1.481c-13.869,3.181-26.98,10.862-39.477,17.478c-8.672,4.591-16.209,10.742-23.606,17.085
		c-0.432,8.443-2.753,16.655-4.067,24.996c0.876,0.793,1.504,1.911,1.642,3.359c0.652,6.875,2.614,15.024,7.68,20.021
		c1.361,1.342,2.693,2.636,3.954,3.952c0.648,0.182,1.291,0.501,1.902,0.992c24.799,19.928,54.983,25.635,85.964,27.535
		c0.832,0.051,1.596,0.293,2.267,0.665c20.431-16.842,34.206-41.466,36.74-69.354C235.802,163.645,234.997,161.501,234.098,159.396z
		"/>
</g>
<g id="Doggy">
	<path display="none" fill="#F24B52" d="M205.585-34.033c0.678,4.034,1.387,8.079,2.559,12c-6.771,13.983-4.303,29.824-4.766,44.787
		c-1.994,0.439-3.99,0.879-5.937,1.464c-3.584-1.69-7.291-3.279-11.268-3.774c-0.711-3.538-1.377-7.29-3.767-10.14
		c-5.452-7.245-17.157-8.327-23.772-2.096c-3.594,2.94-5.082,7.492-5.746,11.931c-8.992-0.416-18.264-0.742-26.827,2.571
		c-4.496,0.652-8.246,3.243-11.888,5.767c2.344-6.682,6.3-12.653,10.177-18.534c18.342-26.76,48.233-45.362,80.47-49.429
		C204.526-37.605,204.616-35.723,205.585-34.033z"/>
	<path fill="#5B360A" d="M193.766,79.16c-0.104,4.101-0.037,8.485,2.297,12.055c3.471,6.13,10.874,9.218,17.747,8.158l1.33-0.091
		c4.338-1.464,8.359-4.169,10.681-8.202c2.444-3.865,2.423-8.597,2.366-13.004c-0.711-12.19,2.108-25.238-3.627-36.595
		c-2.986-6.57-8.349-11.741-14.76-14.93c0.945-0.158,1.883-0.382,2.805-0.663c-3.084-1.246-6.12-2.608-9.213-3.822
		c-0.006,0.23-0.006,0.459-0.014,0.688c-1.994,0.439-3.99,0.879-5.937,1.464c-2.029,1.995-3.979,4.463-3.653,7.493
		C193.768,47.52,193.857,63.338,193.766,79.16z"/>
	<path fill="#FC9000" d="M172.958,167.748c-3.481,4.17-8.495,6.536-13.294,8.826c18.019,10.975,39.02,16.979,60.11,17.127
		c6.353-6.137,7.799-15.08,8.983-23.556c0.802-5.731,1.508-11.449,3.051-16.958c-8.288-0.925-15.94-6.896-17.591-15.322
		c-0.947-7.818-0.182-15.739-0.418-23.604c0-4.968,0-9.927,0.012-14.895c-6.871,1.06-14.275-2.028-17.746-8.158
		c-2.333-3.57-2.4-7.954-2.298-12.055c0.091-15.819,0-31.638,0.021-47.447c-0.326-3.026,1.623-5.494,3.652-7.489
		c-3.584-1.689-7.292-3.279-11.268-3.774c-11.089-0.034-22.209,0.507-33.285-0.305c-8.992-0.417-18.264-0.743-26.827,2.571
		c-6.365,3.559-12.182,8.494-15.412,15.164c-2.783,5.408-3.729,11.56-3.631,17.588c0.034,13.781,0.047,27.559,0,41.338
		c-0.925,12.394,5.195,23.73,10.073,34.714l0.181-0.404c0.553-1.251,1.104-2.513,1.654-3.764c-1.123-8.9-0.541-17.916-0.563-26.851
		c0.021-7.391,4.596-14.23,11.19-17.43c0.688-2.118,1.621-4.788,4.27-4.89c7.527-0.372,15.1-0.259,22.627-0.057
		c2.061-0.134,3.436,1.51,4.811,2.771c5.125,0.801,10.512,2.244,14.061,6.31c4.068,4.068,5.702,9.927,5.531,15.572
		c-0.18,8.529,0.589,17.137-0.877,25.587c0,7.628,0.576,15.257,0.123,22.873C179.797,157.373,176.832,163.096,172.958,167.748z"/>
	<path fill="#002E6E" d="M110.65,37.874c-2.783,5.408-3.73,11.56-3.631,17.588c0.034,13.781,0.047,27.559,0,41.338
		c-4.855-2.94-7.951-8.483-7.865-14.15c-0.033-8.338,0.037-16.665-0.02-25.002c-0.28-11.357,5.182-23.154,15.04-29.171
		c3.642-2.524,7.392-5.115,11.888-5.767C119.697,26.269,113.88,31.204,110.65,37.874z"/>
	<path display="none" fill="#F24B52" d="M314.673,146.874c-3.074-6.131-10.002-9.578-16.75-8.766
		c-1.432-9.995-2.898-19.99-4.363-29.971c-1.252-8.113-2.523-16.224-3.809-24.337c11.889-0.677,23.594-5.375,32.012-13.905
		c4.652-4.519,8.021-10.163,10.68-16.033c0.758-0.259,2.266-0.789,3.021-1.048C342.55,85.242,334.528,120.362,314.673,146.874z"/>
	<path fill="#002E6E" d="M177.823,77.04c-3.043,0.833-5.993-2.975-4.485-5.735c0.926-2.423,4.295-3.111,6.266-1.658
		C182.455,71.53,181.283,76.666,177.823,77.04z"/>
	<path fill="#002E6E" d="M125.375,75.337c-1.838,3.076-7.244,1.815-7.346-1.825c-0.732-3.166,2.781-5.499,5.598-4.371
		C125.916,70.155,127.085,73.299,125.375,75.337z"/>
	<path display="none" fill="#F24B52" d="M244.007,92.15c-0.619,3.954-1.149,7.932-1.701,11.91c-0.08,0.585-0.248,1.747-0.328,2.332
		c-0.19,1.339-0.383,2.693-0.572,4.044c-9.668-1.173-18.344-5.734-26.266-11.155c4.338-1.464,8.36-4.169,10.682-8.202
		c2.445-3.865,2.423-8.597,2.367-13.004c5.34,2.67,11.087,4.407,16.957,5.399C244.784,86.369,244.411,89.253,244.007,92.15z"/>
	<path fill="#8097B7" d="M157.848,83.789c-8.404,0.112-16.844,0.394-25.252-0.18c0.283-1.51-0.041-3.956,2.291-3.55
		c7.637-0.214,15.297-0.124,22.938,0.034C157.834,81.017,157.846,82.863,157.848,83.789z"/>
	<path display="none" fill="#F24B52" d="M235.804,153.25c-9.688,0.879-19.672-5.609-21.586-15.38
		c-0.947-7.818-0.182-15.739-0.418-23.604c7.944,4.744,16.709,8.181,25.948,9.307C238.464,133.466,237.111,143.357,235.804,153.25z"
		/>
	<path fill="#FC7F00" d="M129.273,133.759c13.891-0.045,27.797,0.133,41.69-0.08c3.829,0.136,6.59-2.771,9.012-5.318
		c0,7.628,0.576,15.257,0.125,22.872c-0.305,6.144-3.269,11.867-7.143,16.519c-3.48,4.17-8.495,6.536-13.293,8.826
		c-17.803-11.034-32.981-26.685-42.391-45.466c0.551-1.251,1.104-2.513,1.654-3.764C121.093,131.031,124.71,134.187,129.273,133.759
		z"/>
	<path fill="#873AE2" d="M219.836,143.607c-0.134,0.765-0.464,1.474-0.852,2.14c-0.278,0.187-0.552,0.377-0.822,0.58
		c-0.037,0.082-0.104,0.231-0.142,0.31c-3.313,1.231-6.36,3.072-9.62,4.44c-3.162,1.538-6.486,2.712-9.779,3.935
		c-7.548,2.658-15.268,4.873-23.113,6.453c-2.273-0.316-4.47,0.536-6.686,0.9c-1.072-1.07-2.333-1.905-3.615-2.693
		c-0.689-0.423-0.193-1.311-0.214-1.939c2.09,0.07,4.087-1.623,4.181-3.735c0.25-2.231-1.871-4.396-4.117-4.067
		c-3.793,0.504-7.619,0.827-11.396,1.432c-1.459,0.141-2.514,1.373-2.816,2.746c-0.588,1.977,0.834,4.42,2.934,4.605
		c1.797-0.045,3.588-0.22,5.383-0.313c0.008,0.35,0.01,0.695,0.014,1.049c-0.529,0.236-1.059,0.472-1.592,0.705
		c-2.078,0.787-3.764,2.455-4.615,4.508c-3.861,0.513-7.76,0.48-11.643,0.547c-0.264-0.771-1.174-0.566-1.676-0.164
		c-0.611,0.053-1.221,0.104-1.834,0.105c-2.924-0.162-5.838-0.6-8.769-0.465l0.007-0.09c0.273-0.068,0.819-0.207,1.088-0.279
		c-1.264-0.443-2.801-0.558-3.686-1.688c-1-1.156-1.031-2.773-1.248-4.213c-0.209-2.096-0.676-4.148-1.014-6.217
		c-0.264-0.997,0.559-1.744,1.096-2.455c-0.012-0.141-0.041-0.42-0.053-0.563l0.182-0.104c2.561-0.571,5.258-0.684,7.854-0.354
		c2.547,0.344,5.117,0.075,7.668,0.143c8.754-0.135,17.463-1.191,26.082-2.67c11.088-2.012,22.021-4.994,32.479-9.219
		c1.208-0.506,2.443-0.957,3.563-1.638c1.15-0.714,2.525-0.906,3.718-1.521c2.457-1.132,4.614-3.159,7.405-3.379
		c1.853,0.338,3.771,1.592,4.031,3.597C218.72,137.232,219.509,140.384,219.836,143.607z"/>
	<path fill="#FCC02E" d="M164.995,157.732c-0.11,0.008-0.339,0.027-0.448,0.037c0.178-1.477,0.024-2.996-0.479-4.396
		c-0.728-1.302-2.612-1.022-3.724-0.448c-1.568,1.127-0.992,3.225-1.273,4.866c-1.77,0.269-3.561,0.444-5.291,0.919
		c-2.1-0.184-3.523-2.628-2.934-4.605c0.301-1.373,1.355-2.605,2.816-2.746c3.777-0.605,7.602-0.928,11.395-1.432
		c2.246-0.328,4.369,1.836,4.119,4.067C169.08,156.107,167.083,157.801,164.995,157.732z"/>
	<path fill="#FDD737" d="M164.547,157.77c-0.046,0.678-0.072,1.356-0.085,2.037c-0.106,1.394,0.192,2.809-0.038,4.193
		c-0.209,1.012-0.801,2.24-1.984,2.305c-1.053,0.075-2.432-0.053-2.885-1.182c-0.643-1.51-0.273-3.195-0.223-4.77
		c-0.58-0.078-1.164-0.151-1.75-0.201c0.533-0.233,1.064-0.469,1.592-0.705c-0.004-0.354-0.006-0.699-0.014-1.049
		c-1.795,0.092-3.586,0.268-5.383,0.313c1.732-0.475,3.521-0.65,5.293-0.919c0.279-1.642-0.297-3.739,1.271-4.866
		c1.111-0.574,2.995-0.855,3.725,0.448C164.571,154.773,164.723,156.293,164.547,157.77z"/>
	<path fill="#FCC02C" d="M159.555,165.123c0.453,1.129,1.832,1.257,2.885,1.182c1.184-0.064,1.775-1.293,1.984-2.305
		c0.23-1.385-0.068-2.799,0.038-4.193c1.513,0.649,2.972,1.566,3.89,2.973c1.434,2.015,2.056,4.457,1.896,6.914
		c-0.222,1.779-1.021,3.47-2.139,4.865c-1.523,1.229-3.144,2.588-5.193,2.707c-3.226,0.666-6.614-0.75-8.753-3.164
		c-1.35-1.582-1.736-3.713-1.893-5.723c-0.113-1.277,0.197-2.552,0.695-3.719c0.852-2.053,2.537-3.721,4.617-4.508
		c0.584,0.05,1.17,0.123,1.75,0.201C159.281,161.928,158.91,163.613,159.555,165.123z"/>
	<path fill="#FFCF00" d="M118.928,127.346c2.166,3.683,5.782,6.839,10.346,6.412c13.892-0.045,27.796,0.133,41.691-0.08
		c3.828,0.136,6.59-2.771,9.012-5.318c1.466-8.45,0.697-17.058,0.877-25.587c0.171-5.645-1.463-11.504-5.531-15.572
		c-3.549-4.066-8.936-5.509-14.061-6.31c-0.35,1.647-0.191,3.629-1.59,4.846c-3.627,3.877-7.547,7.459-11.232,11.289
		c0.102,5.68-0.17,11.37,0.068,17.059c0,0.158,0.02,0.317,0.035,0.476c-0.252,0.042-0.508,0.102-0.773,0.182
		c-1.883,0.058-3.762,0.094-5.645,0.096c0.035-0.252,0.061-0.503,0.061-0.753c0.271-5.745-0.043-11.493,0.113-17.238
		c-4.172-4.666-9.352-8.451-12.742-13.781c-6.594,3.2-11.169,10.039-11.19,17.43C118.386,109.432,117.804,118.447,118.928,127.346z"
		/>
	<path display="none" fill="#002E6E" d="M132.451,121.023c4.943-7.36,16.166-8.228,22.104-1.746
		c1.266,1.268,3.336,3.762,1.414,5.327c-1.938,1.343-3.225-1.07-4.42-2.286c-3.727-4.255-10.793-4.248-14.584-0.087
		c-1.254,1.248-2.383,3.571-4.457,2.475C131.307,123.72,131.484,122.113,132.451,121.023z"/>
	<ellipse fill="#002E6E" cx="146.294" cy="119.348" rx="9.425" ry="4.341"/>
	<path display="none" fill="#002E6E" d="M168.264,117.399c-4.945,8.338-16.166,9.325-22.104,1.979
		c-1.264-1.437-3.336-4.261-1.414-6.04c1.938-1.518,3.225,1.217,4.422,2.595c3.723,4.824,10.789,4.812,14.58,0.099
		c1.255-1.418,2.385-4.052,4.458-2.804C169.411,114.345,169.233,116.162,168.264,117.399z"/>
	<path fill="#002E6E" d="M129.557,83.065c3.391,5.33,8.572,9.115,12.744,13.781c-0.158,5.745,0.156,11.493-0.115,17.238
		c0,0.179-0.016,0.36-0.035,0.541c0.104,0.236,0.197,0.481,0.277,0.744c0.486,1.63,1.199,3.103,2.229,4.326
		c0.6-1.767,2.02-3.216,4.248-3.516c-0.25-0.677-0.389-1.399-0.396-2.094c-0.238-5.689,0.035-11.379-0.066-17.059
		c3.684-3.83,7.605-7.413,11.23-11.289c1.4-1.217,1.24-3.199,1.59-4.846c-1.375-1.261-2.75-2.905-4.811-2.771
		c-7.525-0.202-15.1-0.315-22.627,0.057C131.178,78.279,130.242,80.949,129.557,83.065z"/>
	<path fill="#8097B7" d="M157.848,83.789c-8.404,0.112-16.844,0.394-25.252-0.18c0.283-1.51-0.041-3.956,2.291-3.55
		c7.637-0.214,15.297-0.124,22.938,0.034C157.834,81.017,157.846,82.863,157.848,83.789z"/>
</g>
<g id="Mano_x2B_Movil">
	<path fill="#241F1B" d="M78.716,96.843c0.624-0.702,1.356-1.479,2.378-1.451c3.489-0.063,6.982-0.035,10.473-0.016
		c1.103-0.081,1.929,0.694,2.604,1.458C89.021,96.87,83.867,96.906,78.716,96.843z"/>
	<path fill="#37322E" d="M69.857,103.826c-0.078-3.486,2.808-6.587,6.25-6.92l0.082-0.02c0.842-0.027,1.684-0.036,2.527-0.042
		c5.151,0.063,10.305,0.026,15.456-0.008c3.505,0.055,7.011,0.015,10.516,0.028c0.066,0,0.198,0,0.27,0c9.494,0,18.988,0,28.481,0
		h0.102c3.197,0.063,6.4-0.137,9.596,0.102c-1.591-0.02-3.181,0.085-4.755,0.28c2.466,1.251,4.579,3.649,4.39,6.577
		c-0.013,42.758,0.008,85.518-0.013,128.271c0.023,3.029-2.396,5.229-4.938,6.432c-0.1,0.002-0.303,0.006-0.403,0.01
		c-13.042,0.056-26.088-0.004-39.135,0.031c0.979-2.172,2.005-4.324,2.971-6.496c3.356,1.132,7.275,0.578,10.033-1.707
		c4.027-3.192,4.994-9.524,2.019-13.736c-2.515-3.957-7.899-5.639-12.239-3.893c-2.815,1.004-4.967,3.351-6.035,6.104
		c-4.337-1.303-9.409,0.834-11.397,4.925c-2.316,4.932-4.543,9.91-6.832,14.857c-3.524-0.078-6.784-2.939-6.917-6.534
		c-0.085-7.591,0.004-15.188-0.042-22.784c0.016-2.973,0.007-5.943,0.011-8.914c0-1.089,0-2.176,0-3.264
		C69.857,166.023,69.846,134.924,69.857,103.826z"/>
	<path fill="#241F1B" d="M138.381,97.245c1.574-0.195,3.164-0.3,4.756-0.28c3.373,0.326,6.098,3.473,6.057,6.846
		c0.018,11.423,0.015,22.848,0.007,34.272c-0.017,1.471-0.009,2.944,0,4.414c-0.009,2.089,0.044,4.185-0.021,6.272
		c0.012,0.168,0.03,0.506,0.041,0.676c-0.033,3.629-0.006,7.264-0.014,10.893c-0.004,12.268,0,24.533-0.004,36.801
		c0,1.084,0,2.172,0,3.258c0.004,9.535-0.01,19.063,0.007,28.595c-0.022,1.53,0.125,3.103-0.308,4.596
		c-0.736,2.604-3.154,4.683-5.873,4.894c-1.733,0.138-3.475,0.008-5.209,0.045c2.543-1.203,4.961-3.401,4.938-6.432
		c0.021-42.754,0-85.514,0.012-128.271C142.96,100.894,140.848,98.496,138.381,97.245z"/>
	<path fill="#241F1B" d="M77.265,107.44c1.33-0.054,2.683-0.155,3.985,0.191c-0.027,2.479-0.007,4.96-0.016,7.439
		c-0.007,2.449,0.008,4.902-0.004,7.354c-0.132,4.085,0.028,8.18-0.069,12.267c-0.121,2.015-0.063,4.026,0.12,6.036
		c-0.069,1.731-0.046,3.464-0.062,5.196c0,0.97,0.02,1.935,0.027,2.901c-0.027,11.268,0,22.535-0.016,33.805
		c0.032,2.387-0.046,4.775,0.036,7.162c0.039,0.059,0.121,0.171,0.16,0.229c-0.644,3.457-0.227,7.006-0.217,10.494
		c0.045,1.432,0.026,2.862,0.019,4.295c-1.326,0.049-2.652,0.037-3.977-0.041C77.253,172.324,77.227,139.88,77.265,107.44z"/>
	<path fill="#F3FAFE" d="M81.25,107.631c18.283,0.094,36.57,0.016,54.852,0.047c-0.006,2.464,0.021,4.928-0.016,7.392
		c-8.675-0.007-17.346-0.03-26.018,0.017c-2.048-0.056-4.09-0.024-6.137-0.012c-1.342-0.008-2.683-0.008-4.02,0.004
		c-3.642-0.008-7.28-0.004-10.918-0.008c-2.584-0.014-5.174-0.014-7.759,0C81.243,112.591,81.223,110.111,81.25,107.631z"/>
	<path fill="#FED113" d="M83.336,109.378c3.809,0.058,7.623,0.003,11.436,0.031c-0.608,0.608-1.225,1.209-1.824,1.821
		c-0.129-0.078-0.386-0.233-0.515-0.311c0,0.175,0,0.522,0.004,0.697c-0.453,0.563-0.897,1.127-1.333,1.7
		c-2.609,0.043-5.214,0.008-7.821,0.024C83.258,112.018,83.262,110.696,83.336,109.378z"/>
	<path fill="#FEE642" d="M94.772,109.409c3.615,0.012,7.226,0.023,10.839-0.003c-0.308,0.374-0.609,0.756-0.924,1.123
		c-0.246,0.238-0.729,0.714-0.971,0.951c-0.646-0.132-0.795,0.039-0.444,0.516c-0.102,0.081-0.305,0.249-0.406,0.331
		c-0.343,0.313-0.67,0.64-0.982,0.983c-3.595,0.027-7.186,0.019-10.781,0.007c0.437-0.573,0.88-1.138,1.333-1.7
		c0.127-0.097,0.382-0.289,0.511-0.386C93.547,110.618,94.164,110.018,94.772,109.409z"/>
	<path fill="#FED116" d="M105.611,109.406c5.571-0.02,11.144,0.021,16.715-0.02c0.028,1.314,0.03,2.628,0.035,3.946
		c-6.827,0-13.655,0.038-20.478-0.023c0.312-0.343,0.64-0.671,0.982-0.983l0.472-0.098c0.176,0.129,0.526,0.382,0.702,0.511
		c0.238-0.729,0.476-1.462,0.647-2.211C105.002,110.162,105.304,109.78,105.611,109.406z"/>
	<path fill="#873AE2" d="M123.512,109.378c3.35,0.047,6.703,0.011,10.052,0.023c0.021,1.322,0.021,2.644-0.051,3.965
		c-3.346-0.062-6.695-0.003-10.041-0.035C123.458,112.014,123.464,110.696,123.512,109.378z"/>
	<path fill="#37322E" d="M145.117,109.815c0.781-0.417,1.734-0.059,2.136,0.713c0.222,1.256,0.104,2.542,0.121,3.813
		c-0.021,6.246,0.026,12.493-0.021,18.734c0.051,1.077-1.254,1.973-2.211,1.412c-0.8-0.417-0.611-1.458-0.679-2.198
		c0.021-6.895,0.017-13.787,0-20.681C144.486,110.969,144.501,110.197,145.117,109.815z"/>
	<path fill="#B19863" d="M97.198,110.038c0.222,0.354,0.448,0.704,0.674,1.06c0.234-0.356,0.472-0.709,0.71-1.064
		c-0.16,0.737-0.367,1.462-0.601,2.175c-1.376-0.171-2.803-0.195-4.028,0.562c0.059-0.667-0.016-1.373,0.242-2.008
		c0.651-0.289,1.416-0.054,2.113-0.191c0.164,0.059,0.496,0.18,0.664,0.238C97.026,110.618,97.139,110.232,97.198,110.038z"/>
	<path fill="#906D26" d="M84.303,110.771c0.92-0.04,1.84-0.223,2.761-0.105c1.65,0.284,3.443-0.352,4.999,0.265
		c-0.051,0.151-0.148,0.457-0.199,0.604l-0.163,0.074c-0.117-0.152-0.355-0.457-0.476-0.609c-0.04,0.371-0.121,1.12-0.165,1.493
		c-0.183-0.491-0.355-0.982-0.519-1.474c0,0.815-0.371,1.275-1.201,1.186c-0.094-0.324-0.28-0.972-0.375-1.294
		c-0.039,0.327-0.109,0.978-0.147,1.306c-1.521-0.137-3.054,0.015-4.575-0.121C84.264,111.651,84.288,111.21,84.303,110.771z"/>
	<path fill="#B29962" d="M99.88,110.517c0.608,0.102,1.216,0.199,1.829,0.297c-0.285,0.666-0.566,1.337-0.851,2.008
		c-0.721-0.421-1.431-0.866-2.128-1.322C99.112,111.172,99.498,110.844,99.88,110.517z"/>
	<path fill="#704E2E" d="M92.433,110.919c0.129,0.078,0.386,0.233,0.515,0.311c-0.129,0.097-0.383,0.289-0.511,0.386
		C92.433,111.441,92.433,111.094,92.433,110.919z"/>
	<path fill="#38322E" d="M103.716,111.479c0.242-0.237,0.726-0.713,0.971-0.951c-0.172,0.749-0.409,1.481-0.647,2.211
		c-0.175-0.129-0.526-0.382-0.702-0.511l-0.472,0.098c0.101-0.082,0.304-0.25,0.406-0.331l0.319-0.2L103.716,111.479z"/>
	<path fill="#F4D416" d="M86.241,111.227c0.492-0.343,0.78-0.257,0.87,0.253C86.62,111.819,86.331,111.733,86.241,111.227z"/>
	<path fill="#FFEF40" d="M94.772,111.344"/>
	<path fill="#EDDC48" d="M99.841,111.269"/>
	<path fill="#605B58" d="M103.272,111.995c-0.352-0.477-0.203-0.647,0.444-0.516l-0.125,0.316L103.272,111.995z"/>
	<path fill="#C0A95E" d="M101.853,111.729"/>
	<path fill="#873AE2" d="M81.234,115.07c2.585-0.014,5.174-0.014,7.759,0c-2.53,2.601-5.138,5.132-7.763,7.635v-0.28
		C81.243,119.972,81.227,117.52,81.234,115.07z"/>
	<path fill="#B477F0" d="M88.993,115.07c3.638,0.004,7.276,0,10.918,0.008c-2.522,3.318-5.833,5.93-8.434,9.183
		c-0.312,0.171-0.627,0.339-0.939,0.51c-3.349,1.232-6.352,3.186-9.292,5.174c-0.003-2.414,0.008-4.827-0.016-7.241
		C83.855,120.202,86.463,117.671,88.993,115.07z"/>
	<path fill="#873AE2" d="M99.911,115.079c1.337-0.012,2.678-0.012,4.02-0.004c-1.419,0.83-2.897,1.669-3.899,3.014
		c-1.007,1.22-1.47,2.761-1.916,4.25c-2.261,0.472-4.46,1.162-6.64,1.923C94.078,121.009,97.389,118.397,99.911,115.079z"/>
	<path fill="#352213" d="M103.931,115.075c2.047-0.012,4.089-0.043,6.137,0.012c3.005,1.287,5.263,4,5.844,7.237
		c4.367,0.927,8.582,2.549,12.457,4.76c2.758,1.575,5.324,3.469,7.682,5.595c-0.055,3.985,0.161,7.989-0.136,11.967
		c-4.255-6.037-10.368-10.774-17.351-13.214c-8.266-2.936-17.655-2.57-25.66,1.029c-4.39,1.922-8.29,4.839-11.624,8.268
		c-0.183-2.01-0.241-4.021-0.12-6.036c3.146-3.284,6.491-6.396,9.377-9.92c0.312-0.171,0.627-0.339,0.939-0.51
		c2.18-0.761,4.379-1.451,6.64-1.923c0.445-1.489,0.909-3.029,1.916-4.25C101.034,116.744,102.512,115.905,103.931,115.075z"/>
	<path fill="#873AE2" d="M110.068,115.087c8.672-0.047,17.343-0.024,26.018-0.017c-0.055,2.125-0.014,4.25-0.04,6.375
		c-2.476,1.989-5.06,3.841-7.677,5.638c-3.875-2.211-8.09-3.833-12.457-4.76C115.332,119.087,113.074,116.374,110.068,115.087z"/>
	<path fill="#FED116" d="M128.369,127.084c2.617-1.797,5.201-3.649,7.677-5.638c0.022,3.744,0.015,7.486,0.005,11.233
		C133.693,130.553,131.127,128.659,128.369,127.084z"/>
	<path fill="#6F5839" d="M81.23,122.425v0.28c0.023,2.414,0.012,4.827,0.016,7.241c2.94-1.989,5.943-3.942,9.292-5.174
		c-2.886,3.524-6.23,6.636-9.377,9.92C81.258,130.604,81.098,126.51,81.23,122.425z"/>
	<path fill="#F2FAFD" d="M92.904,132.46c8.005-3.599,17.394-3.965,25.66-1.029c6.983,2.44,13.096,7.179,17.351,13.213
		c0.334,1.949,0.069,4.002,0.116,5.985l-0.219-0.403c-3.117-6.016-8.172-11.009-14.244-14.031
		c-5.61-2.816-12.055-3.911-18.282-3.147c-8.722,0.986-16.891,5.801-22.068,12.875c0.015-1.73-0.008-3.465,0.062-5.196
		C84.615,137.299,88.514,134.383,92.904,132.46z"/>
	<path fill="#63422E" d="M81.219,145.924c5.177-7.073,13.347-11.888,22.068-12.875c6.227-0.764,12.672,0.331,18.282,3.147
		c6.071,3.021,11.125,8.016,14.244,14.031c0.319,0.737,0.23,1.569,0.266,2.354c-0.768-0.048-1.35-0.478-1.609-1.199
		c-3.217-6.464-8.804-11.704-15.463-14.492c-6.126-2.601-13.112-3.065-19.547-1.396c-7.501,1.898-14.029,6.866-18.212,13.331
		C81.239,147.857,81.219,146.893,81.219,145.924z"/>
	<path fill="#F2FAFD" d="M99.458,135.494c6.435-1.669,13.42-1.205,19.547,1.396c6.66,2.788,12.247,8.028,15.463,14.492
		c0.261,0.724,0.843,1.151,1.609,1.199c-0.05,9.866-0.009,19.735-0.022,29.604c-0.023,1.349,0.129,2.721-0.188,4.051
		c-4.289-5.723-10.152-10.321-16.937-12.69c-8.214-2.952-17.533-2.711-25.578,0.687c-4.573,1.908-8.702,4.817-12.122,8.397
		c0.016-11.269-0.011-22.536,0.016-33.805C85.43,142.36,91.957,137.393,99.458,135.494z"/>
	<path fill="#37322E" d="M145.479,138.633c1.096-0.413,2.096,0.755,1.896,1.809c-0.021,4.815,0.06,9.64-0.045,14.455
		c0.169,1.724-2.953,1.728-2.804-0.018c-0.114-4.658,0-9.329-0.058-13.997C144.486,140.052,144.411,138.823,145.479,138.633z"/>
	<path fill="#E04B1C" d="M92.063,138.999c1.146-0.034,2.296-0.034,3.446-0.034c0.063,0.17,0.192,0.509,0.258,0.683
		c-0.991,0.042-1.981,0.073-2.967,0.101c0.015,1.169-0.046,2.35-0.367,3.485C91.594,142.001,92.136,140.395,92.063,138.999z"/>
	<path fill="#E04E22" d="M119.098,139.016c1.239-0.204,2.504-0.069,3.755-0.11c-0.011,1.479,0.656,3.317-0.413,4.538
		c-0.164-1.223-0.223-2.463-0.203-3.699c-1.149-0.038-2.296-0.083-3.438-0.126C118.872,139.467,119.024,139.167,119.098,139.016z"/>
	<path fill="#FED116" d="M92.799,139.749c0.986-0.028,1.976-0.06,2.967-0.101c7.673-0.098,15.354-0.047,23.032-0.029
		c1.142,0.043,2.289,0.088,3.438,0.126c-0.02,1.236,0.04,2.477,0.203,3.7c0.187,5.371,0.027,10.754,0.082,16.132
		c-0.036,1.803,0.104,3.62-0.105,5.418c-0.195,1.471-0.203,2.955-0.2,4.437c-1.091-0.004-2.179-0.015-3.267,0.004
		c-7.783-0.021-15.561-0.021-23.34,0c-1.018-0.019-2.035-0.011-3.049-0.004c-0.008-1.384-0.047-2.764-0.195-4.141
		c-0.152-5.794-0.02-11.6-0.063-17.4c0.051-1.553-0.152-3.123,0.129-4.654C92.753,142.099,92.814,140.917,92.799,139.749z"/>
	<path fill="#61412F" d="M93.961,140.991c2.161,0.039,4.324,0.027,6.489,0.008c0.034,2.179,0,4.358,0.031,6.539
		c-2.191,0.046-4.383,0.019-6.57,0.017C93.902,145.365,93.907,143.178,93.961,140.991z"/>
	<path fill="#5C3C2F" d="M106.828,141.942c0.121-0.51,0.402-0.907,0.897-1.095c0.164,0.608,0.339,1.251,1.104,1.267
		c0.011-0.272,0.039-0.822,0.05-1.096c0.227-0.011,0.671-0.03,0.897-0.039c0.027,0.219,0.082,0.656,0.105,0.873
		c-1.291-0.152-0.986,1.08-1.045,1.938c0.85,0.026,2.063-0.296,2.05,0.97c0.574,0,1.143,0,1.717,0
		c0.003-0.93,0.007-1.857,0.015-2.786c-0.635-0.008-1.267-0.016-1.895-0.019c0.012-0.238,0.039-0.71,0.055-0.944
		c0.928,0.004,1.859,0.007,2.792,0.012c-0.054,2.104,0.031,4.215-0.019,6.319c-0.219,0.083-0.647,0.249-0.862,0.336
		c-0.043-0.668-0.074-1.328-0.105-1.992c-1.115-0.053-2.324,0.28-3.357-0.232c-0.617-1.155-2.063-0.602-3.104-0.664
		c-0.09,0.292-0.266,0.882-0.351,1.174c-0.476-0.4-0.64-1.359-1.384-1.244c-0.437,0.84-0.105,1.895-0.188,2.819
		c-0.23,0-0.682-0.005-0.908-0.005c0.004-0.911,0.004-1.827,0-2.736c-0.674-0.031-1.353-0.066-2.024-0.098
		c-0.003-0.668,0.449-0.908,1.045-0.975c0.004-0.168,0.012-0.508,0.016-0.675c-0.53-0.168-1.072-0.36-1.064-1.018
		c0.245-0.032,0.733-0.098,0.979-0.13c0.047-0.206,0.145-0.618,0.191-0.821c1.229-0.554,0.725,1.119,0.842,1.767
		c0.219,0,0.652,0.004,0.871,0.004c0.015-0.229,0.046-0.688,0.062-0.917C105.077,141.946,105.955,141.956,106.828,141.942z"/>
	<path fill="#61412E" d="M114.568,140.988c2.171,0.042,4.347,0.027,6.52,0.015c0.027,2.175-0.008,4.347,0.027,6.522
		c-2.199,0.065-4.397,0.027-6.598,0.035C114.528,145.37,114.463,143.178,114.568,140.988z"/>
	<path fill="#FED316" d="M94.815,142.056c1.556-0.089,3.111-0.073,4.67-0.059c0.007,1.549,0.012,3.097-0.015,4.646
		c-1.548-0.013-3.092-0.013-4.636-0.024C94.85,145.098,94.85,143.577,94.815,142.056z"/>
	<path fill="#FED315" d="M107.109,141.849c1.263-0.109,0.756,1.202,0.822,1.993c-0.627-0.011-1.251-0.02-1.875-0.027
		c-0.003,0.238-0.011,0.715-0.015,0.947c-0.223-0.002-0.663-0.011-0.885-0.02c0-0.612,0-1.221,0.003-1.828
		C105.99,142.82,107.409,143.206,107.109,141.849z"/>
	<path fill="#FED315" d="M115.449,142.014c1.544-0.027,3.087-0.027,4.631-0.017c0.013,1.549,0.016,3.097-0.032,4.646
		c-1.531-0.017-3.063-0.017-4.596-0.017C115.457,145.086,115.457,143.549,115.449,142.014z"/>
	<path fill="#63432E" d="M95.782,142.832c0.94,0.008,1.876,0.012,2.816,0.021c0.007,0.94,0.011,1.885,0.015,2.832
		c-0.948,0.004-1.895,0.008-2.839,0.008C95.773,144.738,95.773,143.783,95.782,142.832z"/>
	<path fill="#63432E" d="M116.369,142.832c0.947,0.008,1.899,0.012,2.851,0.018c0.004,0.941,0.011,1.881,0.022,2.825
		c-0.962,0.015-1.923,0.019-2.885,0.022C116.354,144.742,116.357,143.787,116.369,142.832z"/>
	<path fill="#F8D815" d="M103.381,144.002c0.632-0.215,0.851-0.005,0.655,0.635C103.4,144.852,103.186,144.643,103.381,144.002z"/>
	<path fill="#5F3F2F" d="M101.42,145.663c0.223,0.008,0.663,0.022,0.882,0.034c0.015,0.586,0.03,1.175,0.046,1.762
		c-0.246,0.027-0.737,0.083-0.984,0.107C101.381,146.932,101.401,146.295,101.42,145.663z"/>
	<path fill="#63422E" d="M106.999,145.635c0.608-0.043,1.166,0.086,1.678,0.387c0,0.138-0.009,0.4-0.009,0.539
		c-0.152,0.069-0.452,0.209-0.604,0.28c-0.019,0.202-0.058,0.606-0.077,0.812c0.495-0.149,0.911-0.434,1.251-0.818
		c0.149-0.079,0.449-0.229,0.597-0.305c0.007,0.686,0.007,1.371-0.003,2.059c1.293,0.188,0.804-1.156,0.896-1.953
		c0.253,0.022,0.76,0.073,1.013,0.098c-0.015,0.595-0.027,1.184-0.039,1.772c-0.241,0.015-0.728,0.032-0.974,0.046
		c0.004,0.213,0.012,0.645,0.016,0.86c0.613,0.004,1.228,0.011,1.844,0.021c0.012-0.227,0.035-0.687,0.047-0.912
		c0.64,0,1.282,0.002,1.926,0.01c-0.004,0.23-0.004,0.687-0.004,0.918c0.179-0.004,0.539-0.021,0.718-0.027
		c0.007-0.654,0.331-0.979,0.971-0.971c-0.02,0.662,0.37,1.006,0.974,1.13c0.051-0.651,0.175-1.325,0.967-1.101
		c0.042,0.195,0.125,0.586,0.167,0.776c-0.226,0.07-0.678,0.212-0.904,0.28c-0.067,0.568-0.437,0.891-0.963,1.037
		c-0.058,0.164-0.177,0.488-0.235,0.648c-0.249,0.143-0.743,0.432-0.989,0.57c0.273,0.129,0.817,0.383,1.096,0.508
		c0.011,0.219,0.031,0.655,0.042,0.873c0.214,0.032,0.639,0.086,0.854,0.117c0.136-0.736-0.02-1.264-0.877-1.131
		c-0.017-0.229-0.042-0.689-0.058-0.92c0.253,0.023,0.759,0.074,1.013,0.101c0,0.216,0.004,0.647,0.004,0.862
		c0.616,0.004,1.236,0.012,1.851,0.02c0.008-0.24,0.02-0.725,0.024-0.97c0.226,0.041,0.679,0.119,0.905,0.164
		c0.17,0.657-0.48,0.776-0.851,1.114c-0.09,0.779-0.046,1.563-0.028,2.346c1.086,0,1.225,1.424,0,1.253
		c-0.011,0.882-0.014,1.759-0.014,2.644c0.193,0.008,0.58,0.023,0.775,0.031c0.036,0.686,0.304,1.158,1.096,0.99
		c-0.005,0.615-0.005,1.23-0.005,1.848c-0.585-0.017-1.174-0.029-1.754-0.041c-0.046,0.213-0.141,0.639-0.187,0.853
		c-0.429,0.157-0.816,0.403-1.115,0.75c0.667,0.188,1.396,0.373,1.375,1.233c-0.998,0-1.996,0.004-2.99,0.021
		c-0.031,0.21-0.089,0.635-0.116,0.844c0.908,0.033,1.82,0.053,2.733,0.049c0.246-0.74,1.025-1.093,1.209-1.869
		c0.214,0.004,0.642,0.019,0.861,0.021c0,0.602,0.005,1.201,0.012,1.805c-0.242,0.037-0.729,0.113-0.971,0.148
		c-0.047,0.771,0.277,1.941-0.873,1.961c-0.016,0.191-0.05,0.572-0.067,0.764c-1.888-0.019-3.774,0.057-5.656-0.021
		c-0.203-0.783,0.117-1.111,0.962-0.982c-0.003-0.219-0.007-0.65-0.012-0.865c-0.214,0.004-0.647,0.018-0.861,0.021
		c0.242,1.271-1.318,1.206-1.15-0.021c-0.593,0.004-1.189,0.004-1.782,0.012c0.004-0.577,0.004-1.149,0.004-1.719
		c-0.565-0.066-0.862-0.449-1.009-0.959c-0.773-0.153-0.967-1.039-1.728-1.188c-0.009,0.641-0.012,1.279-0.009,1.918
		c-0.229,0.032-0.686,0.098-0.912,0.128c-0.027,0.201-0.077,0.599-0.102,0.798c0.667,0.023,1.333,0.047,2.004,0.074
		c0.008,0.705-0.351,1.055-1.076,1.053c0.004,0.877,1.174,0.822,1.096,1.742c-1.638,0.031-3.275,0.038-4.909-0.051
		c0.056-0.227,0.159-0.678,0.211-0.91c0.905,0.018,1.806,0.021,2.709,0.021c0-0.191,0-0.576-0.004-0.769
		c-0.644-0.079-1.048-0.409-1.041-1.096c-0.757,0.051-1.915-0.238-1.888,0.903c-0.581,0.027-1.161,0.051-1.743,0.072
		c0.004,0.213,0.012,0.629,0.016,0.84c0.242,0.023,0.722,0.073,0.959,0.1c0,0.224,0,0.677,0,0.896c-0.635,0-1.271,0-1.906,0
		c0.003-1.554,0.003-3.109-0.008-4.664c0.246-0.033,0.74-0.098,0.986-0.134c-0.012,0.64-0.02,1.278-0.027,1.919
		c0.226,0.023,0.675,0.069,0.896,0.094c0.013-0.594,0.021-1.183,0.024-1.771c-0.798-0.145-1.06-1.049-1.871-1.17
		c-0.017-0.568-0.024-1.139-0.027-1.704c-0.636-0.038-1.271-0.081-1.908-0.131c0.32-0.522,1.611-1.334,0.753-1.884
		c-0.869,0.265-1.403,1.183-1.778,1.963c-0.877,0.009-1.754,0.005-2.631,0.014c-0.012-0.971-0.017-1.941-0.004-2.908
		c1.326-0.212,0.847,1.156,0.944,1.969c0.206-0.026,0.612-0.078,0.814-0.104c0.118-0.897,0.074-1.801,0.086-2.702
		c-0.916-0.004-1.835,0.012-2.749-0.058c-0.222-0.647,0.078-0.991,0.896-1.024c0.008-0.57,0.017-1.14,0.024-1.709
		c-0.242-0.009-0.734-0.021-0.976-0.023c0.008,0.668,0.017,1.338,0.023,2.012c-0.222-0.059-0.666-0.172-0.889-0.225
		c-0.116-1.189-0.059-2.387-0.031-3.572c0.503-0.18,0.838-0.577,1.162-0.979c0.495-0.06,0.995-0.082,1.498-0.072
		c0.007,0.627,0.417,0.918,0.983,1.035c0.069,0.527,0.43,0.842,0.901,1.032c0.051-0.622,0.097-1.247,0.14-1.87
		c-0.814,0.004-1.06-0.281-0.736-0.855c1.076-0.582,2.354-0.178,3.524-0.27c-0.004,0.61-0.008,1.229-0.012,1.844
		c0.223-0.006,0.671-0.012,0.893-0.018c0.004-0.919,0.008-1.835,0.004-2.755c-0.987,0-1.973-0.017-2.956-0.063
		c0.09-0.215,0.273-0.641,0.367-0.851c1.524-0.082,3.048-0.008,4.577-0.013c0.035,0.683-0.296,1.025-0.987,1.035
		c0.008,0.58,0.019,1.164,0.027,1.75c0.199,0.008,0.592,0.015,0.791,0.022c0.028-0.25,0.086-0.741,0.114-0.987
		c0.963,0.018,1.922,0.028,2.885,0.041c0.175-1.322-1.15-0.873-1.969-0.959c-0.004-0.933-0.004-1.859,0-2.783
		c0.23,0,0.694,0,0.924,0.002c0.016,0.625,0.032,1.257,0.046,1.884c0.228-0.013,0.671-0.039,0.898-0.052
		C106.999,147.533,106.999,146.583,106.999,145.635z"/>
	<path fill="#38322E" d="M119.344,148.475c0.549-0.435,1.196,0.512,0.647,0.908C119.417,149.869,118.735,148.863,119.344,148.475z"
		/>
	<path fill="#63432E" d="M93.911,148.525c1.567-0.014,3.134-0.018,4.702,0.002c-0.004,0.191-0.012,0.578-0.015,0.77
		c-0.543,0.102-0.995,0.366-1.225,0.887c-1.01,0.517-2.335,0.092-3.47,0.203C93.902,149.764,93.907,149.145,93.911,148.525z"/>
	<path fill="#ECC917" d="M109.055,148.693c0.644-0.207,0.87,0.002,0.682,0.627C109.085,149.521,108.859,149.316,109.055,148.693z"/>
	<path fill="#FCD618" d="M149.18,148.77c0.137,0.072,0.407,0.213,0.547,0.281c-0.125,0.098-0.379,0.297-0.506,0.395
		C149.21,149.275,149.191,148.938,149.18,148.77z"/>
	<path fill="#F6D516" d="M108.063,149.559c0.625-0.211,0.839,0.008,0.644,0.653C108.083,150.424,107.868,150.205,108.063,149.559z"
		/>
	<path fill="#F1CF16" d="M113.792,149.594c0.568-0.156,0.76,0.029,0.561,0.561C113.784,150.307,113.597,150.12,113.792,149.594z"/>
	<path fill="#5C3C2F" d="M120.045,149.469c0.278,0.004,0.831,0.004,1.111,0.006c-0.026,0.229-0.085,0.68-0.112,0.906
		c-0.215,0.008-0.644,0.018-0.862,0.021C120.151,150.171,120.081,149.702,120.045,149.469z"/>
	<path fill="#EECE17" d="M107.241,150.6c0.551-0.16,0.725,0.035,0.534,0.588C107.226,151.344,107.045,151.146,107.241,150.6z"/>
	<path fill="#FED316" d="M108.957,150.393c1.579,0.02,3.154,0.006,4.734,0.006c-0.063,0.691-0.441,1.035-1.139,1.027
		c-0.223,1.23,1.247,0.951,1.153-0.076c0.199-0.014,0.597-0.033,0.8-0.039c0.004,0.229,0.016,0.686,0.023,0.916
		c0.227,0.008,0.682,0.025,0.909,0.033c-0.032,0.238-0.094,0.719-0.125,0.961c-1.501-0.037-2.999-0.037-4.492,0
		c-0.023-0.213-0.07-0.638-0.093-0.849c0.488-0.179,1.268-0.175,1.057-0.915c-0.721-0.292-1.252-0.145-1.167,0.736
		c-0.924,0.012-1.844,0.012-2.764-0.002C107.842,151.266,109.21,151.421,108.957,150.393z"/>
	<path fill="#F2D117" d="M114.712,150.604c0.525-0.188,0.707,0.008,0.541,0.582C114.723,151.367,114.544,151.172,114.712,150.604z"
		/>
	<path fill="#FED515" d="M99.295,151.881c0.273-0.352,0.698-0.48,1.104-0.63c0.015,0.218,0.046,0.653,0.063,0.872
		c0.732-0.027,0.834,0.671,1.235,1.098c0.511,0.047,1.019,0.037,1.529-0.033c0.05-0.271,0.159-0.819,0.21-1.092
		c1.083,0.055,0.896,1.424-0.171,1.193c-0.009,0.207-0.024,0.615-0.037,0.822c-0.616-0.012-1.231-0.016-1.847-0.023
		c0.011-0.227,0.031-0.68,0.042-0.9c-0.246-0.004-0.741-0.004-0.986-0.004c0.012,0.209,0.031,0.612,0.043,0.813
		c-0.823-0.069-1.142,0.269-0.964,1.008c0.226,0.039,0.679,0.11,0.908,0.151c0.009,0.203,0.02,0.611,0.028,0.82
		c-1.244,0.004-2.483,0.006-3.723,0.01c0.011-0.557-0.176-1.17,0.124-1.68c0.667-0.531,0.949,0.254,0.885,0.844
		c0.671,0.01,0.99-0.326,0.963-1.02c0.203-0.004,0.601-0.018,0.8-0.02c0.011-0.202,0.038-0.606,0.05-0.807
		c0.257-0.211,0.775-0.629,1.033-0.84C100.262,152.322,99.615,152.029,99.295,151.881z"/>
	<path fill="#FFDA15" d="M105.152,151.327c0.588-0.011,1.177-0.005,1.769,0.021c0.23,0.588-0.035,0.907-0.791,0.961
		c-0.129,0.242-0.386,0.727-0.519,0.969C104.742,153.087,105.338,151.938,105.152,151.327z"/>
	<path fill="#FED715" d="M94.788,152.307c0.608-0.039,1.221-0.078,1.833-0.113c0.016,0.602,0.184,1.234-0.042,1.822
		c-0.16,0.039-0.476,0.121-0.631,0.162c-0.02-0.709-0.421-1.063-1.1-1.1C94.831,152.885,94.803,152.502,94.788,152.307z"/>
	<path fill="#61412E" d="M120.19,153.152c0.213,0.004,0.643,0.017,0.857,0.023c0.032,0.219,0.09,0.658,0.121,0.877
		c-0.277,0.016-0.839,0.043-1.121,0.055C120.084,153.87,120.155,153.393,120.19,153.152z"/>
	<path fill="#FED216" d="M104.368,153.121c0.581,0.063,0.876,0.398,0.885,1.007c0.194-0.004,0.585-0.013,0.78-0.017
		c0.012,0.229,0.039,0.693,0.051,0.925c-0.25,0.008-0.749,0.026-0.995,0.034c0.016,0.521,0.004,1.047,0.085,1.561
		c0.422,0.331,0.917,0.604,1.025,1.193c-0.677,0.025-1.348,0.039-2.023,0.05c-0.008,0.981-0.012,1.966-0.043,2.942
		c-0.838-0.069-0.834-1.145-1.653-1.246c0.058-1.139-1.166-0.702-1.887-0.822c-0.008-0.684-0.468-0.932-1.084-0.995
		c0-0.192,0-0.589,0-0.782c0.546-0.023,1.093-0.043,1.638-0.063c0.121,0.273,0.362,0.814,0.483,1.089
		c1.346,0.214,0.726-1.597-0.253-1.142c0.015-0.606,0.03-1.211,0.051-1.812c0.225,0.009,0.67,0.026,0.893,0.035
		c0,0.623-0.004,1.248,0,1.876c0.643-0.005,1.29-0.01,1.937-0.012c0.052-0.688-0.265-1.034-0.951-1.039
		c-0.007-0.538-0.015-1.075-0.019-1.61C103.907,154.154,104.392,153.839,104.368,153.121z"/>
	<path fill="#F1D016" d="M106.208,153.419c0.562-0.177,0.757,0.009,0.585,0.541C106.228,154.137,106.033,153.957,106.208,153.419z"
		/>
	<path fill="#F9D914" d="M108.111,153.408c0.546-0.17,0.733,0.021,0.557,0.566C108.115,154.146,107.927,153.96,108.111,153.408z"/>
	<path fill="#FED316" d="M109.874,153.238c0.209-0.004,0.634-0.012,0.845-0.016c-0.003,0.221-0.012,0.662-0.016,0.885
		c1.265,0.023,2.527,0.027,3.79,0.021c0.012,0.235,0.032,0.714,0.042,0.951c0.597-0.004,1.194-0.004,1.792-0.004
		c0.019,0.245,0.058,0.737,0.076,0.979c0.235-0.01,0.699-0.031,0.933-0.041c0-0.932,0-1.854,0-2.783c0.213,0,0.639,0,0.854,0
		c0.003,0.613,0.011,1.226,0.02,1.84c0.295,0.018,0.885,0.056,1.181,0.072c-0.094,0.92-1.322,0.799-1.338,1.754
		c-1.802,0.026-3.602,0.012-5.399,0.002c-0.004-0.178-0.008-0.535-0.012-0.717c0.709-0.033,1.042-0.408,0.999-1.129
		c-0.659-0.004-1.314-0.004-1.969,0c-0.019,0.639-0.019,1.28,0.008,1.926c0.331,0.631,0.849,1.143,1.126,1.811
		c0.57,0.012,1.139,0.018,1.712,0.025c0.016-0.226,0.047-0.678,0.062-0.903c0.906,0,1.814,0,2.718,0.003
		c0.008,0.188,0.019,0.563,0.027,0.749c-0.686,0-1.077,0.364-1.112,1.058c-1.172,0.014-2.346,0.008-3.516-0.021
		c-0.043,0.581-0.086,1.161-0.144,1.747c-0.156,0.05-0.46,0.152-0.616,0.205c-0.09,0.215-0.273,0.64-0.362,0.854
		c-0.214,0.025-0.647,0.073-0.866,0.092c0,0.219,0,0.656,0,0.873c-0.207,0-0.616-0.004-0.819-0.004
		c-0.003-0.219-0.014-0.654-0.019-0.873c-0.253-0.021-0.756-0.055-1.006-0.068c-0.004-0.225-0.012-0.662-0.012-0.879
		c0.847-0.043,1.739,0.138,2.547-0.199c0.452-0.537,0.28-0.834-0.512-0.889c-0.116-0.744-1.184-0.83-1.017-1.646
		c0.191-0.052,0.577-0.149,0.768-0.2c0.023,0.268,0.07,0.803,0.094,1.064c0.261-0.004,0.784-0.014,1.049-0.021
		c-0.104-0.672-0.238-1.341-0.414-1.999c-0.682,0.098-1.529,0.383-1.688-0.561c0.542-0.215,1.318-0.305,1.08-1.098
		c-0.226-0.047-0.678-0.14-0.908-0.188C109.857,155.02,109.865,154.132,109.874,153.238z"/>
	<path fill="#F6D416" d="M107.179,154.244c0.632-0.213,0.85-0.006,0.655,0.641C107.203,155.1,106.984,154.885,107.179,154.244z"/>
	<path fill="#DFBF19" d="M106.172,155.258c0.632-0.222,0.851-0.011,0.648,0.629C106.185,156.104,105.967,155.896,106.172,155.258z"
		/>
	<path fill="#FED116" d="M107.842,156.038c0.124-0.312,0.382-0.938,0.506-1.252c0.152,0.271,0.46,0.812,0.612,1.081
		c0.426,0.167,0.885,0.326,1.039,0.811c-0.655,0.148-1.346,0.318-1.279,1.162c-0.565,0-1.13,0-1.692,0.004
		c0.004-0.615,0.004-1.23,0.008-1.844C107.237,156.012,107.639,156.027,107.842,156.038z"/>
	<path fill="#65442E" d="M93.934,156.896c0.226-0.008,0.683-0.016,0.909-0.021c0.007,1.283,0.007,2.569-0.012,3.853
		c-0.227-0.004-0.678-0.02-0.904-0.027C93.899,159.432,93.899,158.162,93.934,156.896z"/>
	<path fill="#8F6B27" d="M120.031,156.837c0.287,0.009,0.864,0.022,1.152,0.034c-0.007,0.264-0.015,0.792-0.02,1.054
		c-0.268,0.017-0.813,0.039-1.083,0.054C120.069,157.695,120.042,157.121,120.031,156.837z"/>
	<path fill="#FED815" d="M105.136,158.826c1.263-0.008,2.531,0,3.798,0.063c-0.028,0.203-0.09,0.607-0.121,0.812
		c-1.17,0.021-2.344,0.03-3.514,0.063C105.26,159.527,105.174,159.061,105.136,158.826z"/>
	<path fill="#FED715" d="M117.324,158.803c0.674,0.02,1.352,0.047,2.031,0.082c-0.074,0.604-0.397,0.977-1.038,0.943
		c0.005,0.607-0.346,0.916-0.928,0.979C117.36,160.135,117.34,159.471,117.324,158.803z"/>
	<path fill="#FED815" d="M102.274,160.842c0.382-0.576,1.415,0.039,0.939,0.631C102.827,162.007,101.842,161.402,102.274,160.842z"
		/>
	<path fill="#FED316" d="M104.333,160.559c0.842,0.377,1.451,1.135,1.875,1.937c0.582,0.039,0.875,0.36,0.87,0.964
		c-0.604,0-1.204,0.004-1.801,0.004c0.164-1.299-1.193-0.822-1.998-0.917c-0.155-0.662,0.27-0.938,0.847-1.084
		C104.181,161.234,104.282,160.783,104.333,160.559z"/>
	<path fill="#FAD416" d="M106.126,160.788c0.924-0.118,1.86-0.084,2.792-0.079c-0.005,0.576-0.285,0.9-0.847,0.977
		c-0.008,0.729-0.335,1.004-0.979,0.83c-0.03-0.225-0.085-0.666-0.115-0.892c-0.25-0.015-0.75-0.046-1.003-0.062
		C106.013,161.372,106.088,160.984,106.126,160.788z"/>
	<path fill="#FFD516" d="M113.569,160.768c0.936-0.059,1.871-0.054,2.808,0.004c-0.012,0.877-0.012,1.76,0,2.642
		c-0.937,0.039-1.872,0.039-2.802,0.015C113.581,162.538,113.577,161.652,113.569,160.768z"/>
	<path fill="#62412E" d="M93.934,161.605c2.176,0.017,4.355,0.008,6.531,0.012c0.003,2.177-0.008,4.354,0.012,6.535
		c-2.188,0.054-4.375,0.025-6.566,0.022C93.907,165.988,93.887,163.797,93.934,161.605z"/>
	<path fill="#7A582B" d="M114.654,161.629c0.573-0.479,1.184,0.543,0.632,0.934C114.712,163.027,114.108,162.02,114.654,161.629z"/>
	<path fill="#FED315" d="M94.819,162.65c1.553-0.098,3.108-0.072,4.664-0.055c0.011,1.553,0.039,3.107-0.059,4.661
		c-1.528-0.028-3.057-0.028-4.586-0.028C94.85,165.704,94.85,164.176,94.819,162.65z"/>
	<path fill="#63432E" d="M95.778,163.466c0.939,0,1.884,0.009,2.831,0.019c0,0.938,0,1.877,0,2.815c-0.944,0-1.891,0-2.835,0
		C95.773,165.354,95.773,164.408,95.778,163.466z"/>
	<path fill="#F1CC17" d="M110.606,164.365c-0.14-1.283,1.24-0.795,2.031-0.914c-0.01,0.64-0.022,1.281-0.034,1.925
		c-0.212,0-0.635,0.009-0.847,0.009c-0.024-0.234-0.062-0.701-0.086-0.938C111.406,164.425,110.875,164.387,110.606,164.365z"/>
	<path fill="#FED516" d="M113.569,164.439c0.585-0.006,1.17-0.016,1.754-0.027c0.02,0.238,0.059,0.706,0.077,0.939
		c-0.623-0.011-1.242-0.019-1.862-0.026C113.546,165.104,113.562,164.663,113.569,164.439z"/>
	<path fill="#DE4017" d="M122.417,164.994c0.14,0.137,0.428,0.406,0.569,0.542c-0.109,1.524,0.179,3.101-0.16,4.589
		c-1.381,0.105-2.765,0.043-4.146,0.01c0.066-0.178,0.2-0.523,0.27-0.699c1.088-0.02,2.176-0.008,3.267-0.004
		C122.214,167.949,122.222,166.465,122.417,164.994z"/>
	<path fill="#DE4017" d="M91.833,170.156c0.195-1.588-0.608-3.571,0.534-4.866c0.148,1.377,0.188,2.757,0.195,4.142
		c1.014-0.008,2.031-0.016,3.049,0.004c0.079,0.168,0.237,0.506,0.316,0.674C94.562,170.191,93.196,170.18,91.833,170.156z"/>
	<path fill="#FED815" d="M115.48,166.292c0.218,0.017,0.659,0.046,0.88,0.063c0.005,0.213,0.008,0.637,0.012,0.851
		c-0.226,0.015-0.678,0.043-0.901,0.054C115.472,167.018,115.476,166.534,115.48,166.292z"/>
	<path fill="#FED715" d="M118.253,166.35c0.236-0.012,0.717-0.023,0.954-0.029c-0.02,0.242-0.057,0.726-0.081,0.968
		c-0.215-0.021-0.647-0.063-0.862-0.082C118.261,166.99,118.255,166.563,118.253,166.35z"/>
	<path fill="#5C3C2F" d="M109.986,167.186c0.559-0.443,1.17,0.535,0.636,0.928C110.04,168.605,109.401,167.576,109.986,167.186z"/>
	<path fill="#5C3C2F" d="M111.651,167.434c0.37-0.619,1.411,0.018,0.928,0.609C112.197,168.586,111.207,168,111.651,167.434z"/>
	<path fill="#FED116" d="M93.352,174.23c8.045-3.396,17.364-3.637,25.578-0.686c6.785,2.369,12.648,6.969,16.937,12.689
		c-0.133,0.156-0.401,0.47-0.532,0.625c-4.198,5.494-9.979,9.771-16.514,12.056c-7.774,2.753-16.516,2.67-24.236-0.241
		c-4.967-1.844-9.467-4.861-13.16-8.654c-0.039-0.058-0.121-0.17-0.16-0.229c-0.082-2.387-0.004-4.775-0.036-7.162
		C84.65,179.05,88.779,176.141,93.352,174.23z"/>
	<path fill="#E04B1C" d="M94.047,174.926c0.577-0.195,1.201-0.152,1.806-0.178c8.059,0.033,16.115,0.007,24.17,0.018
		c1.369-0.152,2.706,0.95,2.733,2.34c0.133,1.459-1.262,2.683-2.675,2.574c-8.211,0.008-16.422-0.01-24.634,0.008
		c-1.064,0.063-2.266-0.338-2.701-1.394C92.058,177.063,92.768,175.42,94.047,174.926z"/>
	<path fill="#FED116" d="M109.428,175.613c3.269-0.025,6.536,0,9.803-0.021c0.817,0.018,1.875-0.07,2.372,0.746
		c0.735,0.891-0.009,2.471-1.187,2.412c-3.654,0.066-7.314,0.047-10.968-0.008l0.238-0.444c0.41-0.584,0.335-1.358,0.031-1.969
		C109.643,176.148,109.503,175.796,109.428,175.613z"/>
	<path fill="#F3FAFE" d="M103.568,176.255c1.01-0.362,1.474,0.91,2.047,1.483c0.016-0.614,0.219-1.155,0.609-1.633
		c0.354,0.679,0.717,1.351,1.166,1.975c0.031-0.645,0.059-1.284,0.082-1.919c0.573,0.114,1.302,0.017,1.653,0.596
		c0.425,0.687-0.171,1.724-0.991,1.604c-0.924-0.029-1.945-0.688-2.764,0.015c-0.164-0.241-0.328-0.483-0.492-0.726
		c-0.102,1.158-1.263,0.486-1.914,0.556c-0.342,0.046-1.025,0.144-1.368,0.19c0.117-0.762-0.276-1.773,0.429-2.324
		c0.032,0.615,0.054,1.23,0.07,1.848c0.175,0.005,0.531,0.005,0.705,0.005C102.883,177.314,102.782,176.424,103.568,176.255z"/>
	<path fill="#F2FAFD" d="M112.847,176.246c0.446-0.198,0.824,0.139,1.166,0.371c-0.357,0.057-1.079,0.167-1.442,0.222
		c0.024,0.634,0.199,1.181,0.938,1.214l0.075-0.395c-0.176-0.131-0.534-0.393-0.709-0.525c0.37-0.006,1.112-0.017,1.484-0.02
		c-0.136,1.095-1.071,1.511-2.058,1.152C112.259,177.6,111.912,176.439,112.847,176.246z"/>
	<path fill="#F4FCF8" d="M109.717,176.329c0.304,0.61,0.379,1.385-0.031,1.969C109.28,177.76,109.28,176.848,109.717,176.329z"/>
	<path fill="#F3F9EB" d="M110.177,176.109c0.41,0.375,0.819,0.759,1.225,1.14c0.028-0.297,0.078-0.886,0.105-1.183
		c0.729,0.64,0.371,1.662,0.331,2.48c-0.385-0.371-0.76-0.749-1.138-1.123c-0.016,0.232-0.051,0.706-0.071,0.939l-0.505-0.02
		C110.134,177.6,110.15,176.852,110.177,176.109z"/>
	<path fill="#DE4017" d="M103.697,176.75c0.582-0.43,1.162,0.624,0.644,1.018C103.663,178.54,102.703,176.93,103.697,176.75z"/>
	<path fill="#DE4017" d="M108.052,176.878c0.491-0.403,0.842,0.55,0.463,0.853C108.006,178.17,107.701,177.184,108.052,176.878z"/>
	<path fill="#E04B1C" d="M106.11,177.211"/>
	<path fill="#63432E" d="M87.31,182.54c1.282-0.19,2.584-0.083,3.879-0.103c11.045-0.004,22.087,0.012,33.134-0.008
		c0.49,0.116,1.493-0.203,1.568,0.526c0.382,0.745-0.507,1.334-1.174,1.169c-12.231-0.008-24.463,0.018-36.694-0.012
		C87.106,184.333,86.53,183.082,87.31,182.54z"/>
	<path fill="#352213" d="M135.335,186.859c0.159-0.016,0.481-0.049,0.646-0.066c0.181,2.758,0.037,5.525,0.099,8.286
		c-0.047,1.03,0.099,2.125-0.323,3.096c-3.037,2.62-6.395,4.905-10.043,6.579c-10.204,0.107-20.419,0.016-30.631,0.046
		c-2.293-0.087-4.605,0.159-6.885-0.147c-2.493-1.076-4.773-2.577-6.987-4.137c-0.009-3.49-0.426-7.039,0.217-10.494
		c3.692,3.791,8.192,6.811,13.16,8.653c7.72,2.911,16.462,2.994,24.236,0.241C125.356,196.632,131.137,192.355,135.335,186.859z"/>
	<path fill="#63422E" d="M90.889,187.34c10.235-0.117,20.485-0.043,30.721-0.037c0.837-0.123,1.243,0.879,0.768,1.5
		c-0.628,0.207-1.296,0.17-1.938,0.188c-9.756-0.059-19.515,0.041-29.267-0.051C90.218,189.09,90.059,187.594,90.889,187.34z"/>
	<path fill="#FED116" d="M135.755,198.175l0.276-0.237c0.051,2.297,0.02,4.592,0.023,6.891c-3.447-0.041-6.897,0.094-10.344-0.073
		C129.36,203.08,132.718,200.795,135.755,198.175z"/>
	<path fill="#FED116" d="M81.227,204.811c0.007-1.434,0.027-2.865-0.019-4.295c2.214,1.56,4.494,3.061,6.987,4.137
		C85.893,205.033,83.547,204.757,81.227,204.811z"/>
	<path id="Mano_1_" fill="#F9BB8A" d="M60.952,233.245c0.105-8.673,3.209-17.356,8.89-23.945c0.047,7.597-0.043,15.194,0.042,22.785
		c0.133,3.595,3.393,6.456,6.917,6.534c2.289-4.947,4.515-9.926,6.832-14.857c1.988-4.091,7.06-6.228,11.397-4.925
		c0.663,0.229,1.314,0.494,1.949,0.797c1.326,0.767,2.473,1.821,3.366,3.065c0.283,0.43,0.55,0.873,0.803,1.326
		c0.203,0.602,0.406,1.201,0.585,1.813c0.04,0.149,0.113,0.464,0.152,0.616c0.202,1.211,0.202,2.451,0.011,3.664
		c-0.175,0.658-0.394,1.311-0.643,1.949c-0.966,2.17-1.992,4.322-2.971,6.494c13.046-0.033,26.093,0.024,39.135-0.031
		c0.026,6.82-0.039,13.644,0.035,20.468H60.917C60.976,250.415,60.913,241.833,60.952,233.245z"/>
	<path fill="#605B58" d="M101.065,212.732c4.34-1.746,9.724-0.064,12.239,3.893c2.975,4.212,2.008,10.544-2.019,13.736
		c-2.757,2.285-6.676,2.839-10.033,1.707c0.25-0.639,0.468-1.291,0.643-1.948c2.008,0.362,4.164,0.565,6.07-0.328
		c3.283-1.36,5.39-5.079,4.777-8.593c-0.354-2.539-1.949-4.875-4.253-6.02c-2.921-1.589-6.777-1.056-9.21,1.188
		c-1.002,0.904-1.638,2.111-2.301,3.266c-0.635-0.303-1.286-0.566-1.949-0.797C96.098,216.083,98.25,213.736,101.065,212.732z"/>
	<path fill="#37322E" d="M99.279,216.368c2.433-2.243,6.289-2.776,9.21-1.188c2.304,1.146,3.899,3.48,4.253,6.021
		c0.613,3.514-1.494,7.231-4.777,8.593c-1.906,0.895-4.062,0.691-6.07,0.328c0.191-1.213,0.191-2.453-0.011-3.664
		c2.417-0.332,4.862-0.091,7.287-0.215c0.128-2.688,0.203-5.387-0.058-8.068c-2.784,0.04-5.572-0.059-8.356,0.075
		c-0.046,1.487-0.039,2.997-0.413,4.451c-0.893-1.244-2.04-2.3-3.366-3.065C97.641,218.48,98.277,217.271,99.279,216.368z"/>
	<path fill="#605B58" d="M100.757,218.248c2.784-0.135,5.572-0.035,8.356-0.075c0.261,2.683,0.187,5.382,0.058,8.068
		c-2.425,0.124-4.871-0.117-7.287,0.215c-0.039-0.153-0.113-0.466-0.152-0.616c2.332-0.094,4.667-0.084,7.003-0.047
		c0.054-2.344,0.058-4.691,0.027-7.036c-2.504-0.079-5.01-0.075-7.51-0.003c-0.043,1.755-0.125,3.514-0.105,5.271
		c-0.253-0.453-0.52-0.896-0.803-1.326C100.718,221.245,100.711,219.734,100.757,218.248z"/>
	<path fill="#37322E" d="M101.252,218.754c2.5-0.072,5.006-0.076,7.51,0.003c0.031,2.345,0.027,4.692-0.027,7.036
		c-2.336-0.037-4.671-0.047-7.003,0.047c-0.179-0.611-0.382-1.213-0.585-1.814C101.128,222.268,101.209,220.509,101.252,218.754z"/>
</g>
<g id="Capa_2" display="none">
	<g display="inline">
		<g>
			<path fill="#FFFFFF" d="M-46-11v285.469h507.5V-11H-46z M143.784,261.252c-69.78,0-126.347-56.566-126.347-126.346
				S74.004,8.56,143.784,8.56c69.778,0,126.346,56.566,126.346,126.346S213.563,261.252,143.784,261.252z"/>
		</g>
		<g>
			<path fill="none" stroke="#FFFFFF" stroke-miterlimit="10" d="M-46-11v285.469h507.5V-11H-46z M143.784,261.252
				c-69.78,0-126.347-56.566-126.347-126.346S74.004,8.56,143.784,8.56c69.778,0,126.346,56.566,126.346,126.346
				S213.563,261.252,143.784,261.252z"/>
		</g>
	</g>
</g>
<g id="Capa_6">
	<g>
		
			<ellipse transform="matrix(-0.3746 -0.9272 0.9272 -0.3746 -105.9001 354.0111)" display="none" opacity="0.2" fill="#424242" enable-background="new    " cx="66.443" cy="212.721" rx="5.325" ry="20.203"/>
		<path fill="#EF5350" d="M36.507,138.624c-16.348,6.605-24.245,25.21-17.641,41.557s47.578,32.54,47.578,32.54
			s18.223-40.111,11.618-56.457C71.458,139.917,52.851,132.02,36.507,138.624z M55.176,184.83
			c-9.173,3.705-19.612-0.727-23.317-9.896c-3.706-9.172,0.725-19.611,9.898-23.318c9.171-3.705,19.608,0.727,23.314,9.899
			C68.776,170.686,64.347,181.125,55.176,184.83z"/>
		<path fill="#E53935" d="M40.452,148.388c-10.955,4.427-16.248,16.896-11.821,27.851c4.425,10.953,16.893,16.244,27.849,11.817
			c10.951-4.425,16.245-16.892,11.82-27.845C63.873,149.256,51.404,143.963,40.452,148.388z M53.868,181.594
			c-7.385,2.984-15.79-0.584-18.773-7.97c-2.984-7.385,0.584-15.789,7.969-18.772c7.383-2.983,15.789,0.584,18.771,7.969
			C64.819,170.205,61.251,178.611,53.868,181.594z"/>
	</g>
</g>
</svg>
