<?xml version="1.0" encoding="utf-8"?>
<!-- Generator: Adobe Illustrator 16.0.0, SVG Export Plug-In . SVG Version: 6.00 Build 0)  -->
<!DOCTYPE svg PUBLIC "-//W3C//DTD SVG 1.1//EN" "http://www.w3.org/Graphics/SVG/1.1/DTD/svg11.dtd" [
	<!ENTITY ns_extend "http://ns.adobe.com/Extensibility/1.0/">
	<!ENTITY ns_ai "http://ns.adobe.com/AdobeIllustrator/10.0/">
	<!ENTITY ns_graphs "http://ns.adobe.com/Graphs/1.0/">
	<!ENTITY ns_vars "http://ns.adobe.com/Variables/1.0/">
	<!ENTITY ns_imrep "http://ns.adobe.com/ImageReplacement/1.0/">
	<!ENTITY ns_sfw "http://ns.adobe.com/SaveForWeb/1.0/">
	<!ENTITY ns_custom "http://ns.adobe.com/GenericCustomNamespace/1.0/">
	<!ENTITY ns_adobe_xpath "http://ns.adobe.com/XPath/1.0/">
]>
<svg version="1.1" id="Capa_1" xmlns:x="&ns_extend;" xmlns:i="&ns_ai;" xmlns:graph="&ns_graphs;"
	 xmlns="http://www.w3.org/2000/svg" xmlns:xlink="http://www.w3.org/1999/xlink" x="0px" y="0px" width="284px" height="284px"
	 viewBox="0 0 284 284" enable-background="new 0 0 284 284" xml:space="preserve">
<metadata>
	<sfw  xmlns="&ns_sfw;">
		<slices></slices>
		<sliceSourceBounds  width="508.5" height="312.986" x="128" y="169.5" bottomLeftOrigin="true"></sliceSourceBounds>
	</sfw>
</metadata>
<g id="Layer_1" display="none">
	<rect display="inline" fill="#B8E5FA" width="284" height="284"/>
	<path display="inline" fill="#F24B52" d="M149.971,55.73c28.609,3.61,55.141,20.12,71.42,43.87c3.439,5.22,6.949,10.52,9.029,16.45
		c-3.23-2.24-6.561-4.54-10.55-5.12c-7.601-2.94-15.83-2.65-23.81-2.28c-0.593-3.94-1.91-7.98-5.103-10.59
		c-5.87-5.53-16.261-4.57-21.101,1.86c-2.121,2.53-2.711,5.86-3.342,9c-3.529,0.44-6.818,1.85-10,3.35
		c-1.729-0.52-3.5-0.91-5.27-1.3c-0.41-13.28,1.779-27.34-4.23-39.75c1.041-3.48,1.67-7.07,2.271-10.65
		C150.15,59.07,150.23,57.4,149.971,55.73z"/>
	<g id="Dude" display="inline">
		<path fill="#F3C9A3" d="M169.859,99.92c4.841-6.43,15.229-7.39,21.101-1.86c3.19,2.61,4.511,6.65,5.101,10.59
			c-9.83,0.72-19.699,0.24-29.541,0.27C167.15,105.78,167.74,102.45,169.859,99.92z"/>
		<path fill="#F3C9A3" d="M52.47,221.13c2.73-5.44,8.88-8.5,14.87-7.778c6.47,1.198,11.57,6.83,11.9,13.438
			c0.01,5.61-3.11,10.892-8.21,13.319c-6.5,2.931-14.85,0.301-18.18-6.08C50.66,230.109,50.75,225.2,52.47,221.13z"/>
		<path fill="#F3C9A3" d="M99.71,185.76c0.31-2.189,0.73-4.38,1.81-6.328c2.63,0.67,5.22,1.448,7.84,2.158
			c2.43,0.592,4.89,1.051,7.34,1.54c0.07,0.521,0.22,1.552,0.29,2.07C111.23,185.391,105.47,185.58,99.71,185.76z"/>
		<path fill="#F1B590" d="M51.42,77.48c1.85,0.01,3.71,0.02,5.56,0.02c-1.21,5.07-2.05,10.25-1.91,15.48
			c0.14,10.34-0.09,20.68,0.08,31.02c0.43,11.86,4.29,24.359,13.56,32.29c8.05,8.062,20.17,8.892,30.91,8.892
			c0.48,1.271,0.96,2.549,1.44,3.828c-1.99-0.38-4.22-1.119-6.16-0.119c-2.93,1.42-3.69,6.16-0.94,8.129
			c2.01,1.183,4.35,1.592,6.58,2.17c0.25,0.063,0.74,0.183,0.98,0.242c-1.08,1.948-1.5,4.139-1.81,6.328
			c-9.5,0.36-19,0.521-28.5,0.99c1.11-7.199,2.24-14.398,3.38-21.6c-10.55-0.603-20.94-4.771-28.41-12.34
			c-4.13-4.013-7.12-9.021-9.48-14.23c-0.67-0.23-2.01-0.7-2.68-0.93c-7.52-2.5-11.03-12.11-7.46-19.06
			c1.4-3.15,4.23-5.24,7.18-6.81c0.03,5.54-0.03,11.09,0.06,16.64c1.97-0.72,4.41-1.33,5.16-3.58c1.01-3.41,0.43-7.04,0.51-10.55
			c5.12-0.79,10.08-3.7,11.88-8.8C54.54,96.56,54.16,86.49,51.42,77.48z"/>
		<path fill="#FFC39F" d="M56.98,77.5c25.54-0.01,51.07,0.02,76.6-0.02c-2.74,9.02-3.14,19.11,0.09,28.05
			c1.81,5.09,6.77,7.96,11.88,8.81c-5.69,2.83-10.45,7.42-13.1,13.25c-5.09,10.08-2.59,21.66-3.22,32.479
			c-4.74,2.371-9.84,3.912-15.05,4.791c0.32,2.57,0.65,5.131,1.01,7.701c-0.5-0.121-1.49-0.359-1.99-0.479
			c-3.42-0.722-6.82-1.552-10.17-2.54c-0.49-0.141-1.47-0.398-1.97-0.529c-0.48-1.279-0.96-2.561-1.44-3.828
			c-10.74,0-22.86-0.83-30.91-8.893c-9.27-7.932-13.13-20.43-13.56-32.29c-0.17-10.34,0.06-20.68-0.08-31.02
			C54.93,87.75,55.77,82.57,56.98,77.5z"/>
		<path fill="#5B360A" d="M46.9,51c7.35-14.92,21.74-26.3,38.15-29.44c16.33-3.39,33.79,1.82,46.16,12.85
			c-0.82-2.73-1.63-5.48-2.25-8.27c8.44,4.42,15.608,11.7,18.59,20.88c1.61,4.34,1.44,9.01,1.74,13.55
			c-0.601,3.58-1.229,7.17-2.271,10.65c6.01,12.41,3.818,26.47,4.229,39.75c1.771,0.39,3.54,0.78,5.271,1.3
			c1.799,1.77,3.528,3.96,3.238,6.65c0.021,14.03-0.06,28.07,0.021,42.109c0.091,3.641,0.031,7.531-2.039,10.701
			c-3.08,5.438-9.65,8.18-15.75,7.238l-1.18-0.08c-3.85-1.301-7.42-3.699-9.48-7.279c-2.17-3.43-2.15-7.629-2.1-11.541
			c0.63-10.818-1.87-22.398,3.22-32.479c2.65-5.83,7.41-10.42,13.1-13.25c-5.11-0.85-10.07-3.72-11.88-8.81
			c-3.23-8.94-2.83-19.03-0.09-28.05c-25.53,0.04-51.06,0.01-76.6,0.02c-1.85,0-3.71-0.01-5.56-0.02
			c2.74,9.01,3.12,19.08-0.07,28.01c-1.8,5.1-6.76,8.01-11.88,8.8c-0.08,3.51,0.5,7.14-0.51,10.55c-0.75,2.25-3.19,2.86-5.16,3.58
			c-0.09-5.55-0.03-11.1-0.06-16.64c0.04-11.25-0.04-22.51,0.03-33.76c-0.01-7.5,2.62-15.01,7.62-20.64
			C43.25,55.27,45.79,53.7,46.9,51z"/>
	</g>
	<path display="inline" fill="#FC9000" d="M73.01,85.05c2.85-1.86,7.13,0.64,7.21,3.98c0.27,3.16-2.66,5.08-4.68,6.98
		c-2.31-2.36-4.76-4.56-7.32-6.63C69.73,87.85,71.17,86.2,73.01,85.05z"/>
	<path display="inline" fill="#FC7700" d="M60.91,96.57c2.32-2.52,4.79-4.88,7.31-7.19c2.56,2.07,5.01,4.27,7.32,6.63
		c-2.43,2.55-4.9,5.08-7.53,7.44C65.67,101.13,63.3,98.84,60.91,96.57z"/>
	<path display="inline" fill="#F4D9B7" d="M67.26,92.29c1.6-0.57,2.16-0.02,1.68,1.64C67.33,94.48,66.77,93.94,67.26,92.29z"/>
	<path display="inline" fill="#F4D7B3" d="M64.26,95.26c1.62-0.54,2.17,0,1.64,1.64C64.26,97.43,63.72,96.88,64.26,95.26z"/>
	<path display="inline" fill="#F1FFFF" d="M71.28,95.29c1.46-0.04,1.54,2.44,0.03,2.39C69.91,97.68,69.82,95.26,71.28,95.29z"/>
	<path display="inline" fill="#FC9000" d="M56.52,101.6c0.88-2.1,2.82-3.47,4.39-5.03c2.39,2.27,4.76,4.56,7.1,6.88
		c-2.08,1.83-3.88,4.89-7.05,4.57C57.81,108.12,55.4,104.5,56.52,101.6z"/>
	<path display="inline" fill="#F1FFFF" d="M68.34,98.35c1.32,0.64,1.34,1.32,0.04,2.02C67.06,99.72,67.04,99.05,68.34,98.35z"/>
	<path display="inline" fill="#FC7700" d="M88.21,108.15c2.87-0.17,5.74-0.17,8.61-0.02c0.28,4.52,0.1,9.05,0.29,13.58
		c1.13,1.22,3.31,2.19,2.83,4.2c-0.75,3.69-5.27,2.34-7.97,2.65c-2.23-0.27-5.59,0.74-6.66-1.93c-1.23-2.2,1.25-3.66,2.57-4.96
		C88.09,117.17,87.87,112.65,88.21,108.15z"/>
	<path display="inline" fill="#FC9000" d="M156.52,112.27c3.183-1.5,6.473-2.91,10-3.35c9.842-0.03,19.711,0.45,29.541-0.27
		c7.979-0.37,16.209-0.66,23.812,2.28c5.647,3.16,10.812,7.54,13.681,13.46c2.471,4.8,3.311,10.26,3.221,15.61
		c-0.029,12.23-0.039,24.46,0,36.689c0.818,11-4.609,21.061-8.939,30.811l-0.16-0.359c-0.488-1.108-0.98-2.229-1.47-3.341
		c1-7.899,0.479-15.899,0.5-23.829c-0.021-6.561-4.08-12.631-9.931-15.471c-0.609-1.88-1.439-4.25-3.789-4.34
		c-6.683-0.33-13.4-0.229-20.08-0.051c-1.832-0.119-3.051,1.341-4.271,2.459c-4.55,0.711-9.33,1.992-12.479,5.602
		c-3.61,3.609-5.063,8.811-4.91,13.82c0.16,7.57-0.521,15.21,0.779,22.71c0,6.771-0.51,13.54-0.109,20.3
		c0.271,5.45,2.9,10.529,6.34,14.66c3.09,3.699,7.54,5.8,11.801,7.83c-18.5,11.27-40.541,16.648-62.151,14.89
		c-20.64-1.42-40.72-9.37-56.87-22.271c5.1-2.43,8.22-7.709,8.21-13.319c14.41-0.08,28.82-0.05,43.23,0
		c8.6,0.778,17.46-4.979,19.16-13.649c0.84-6.938,0.16-13.971,0.37-20.951c0-4.407,0-8.81-0.01-13.219
		c6.1,0.939,12.67-1.801,15.75-7.24c2.07-3.17,2.13-7.061,2.04-10.698c-0.08-14.04,0-28.08-0.021-42.11
		C160.05,116.23,158.318,114.04,156.52,112.27z"/>
	<path display="inline" fill="#002E6E" d="M219.87,110.93c3.989,0.58,7.319,2.88,10.55,5.12c8.75,5.34,13.6,15.81,13.35,25.89
		c-0.049,7.4,0.013,14.791-0.02,22.19c0.08,5.03-2.67,9.95-6.98,12.56c-0.039-12.229-0.027-24.459,0-36.688
		c0.092-5.35-0.75-10.81-3.22-15.61C230.682,118.47,225.52,114.09,219.87,110.93z"/>
	<path display="inline" fill="#492A09" d="M69.16,117.06c2.68-1.89,6.91,0.6,6.35,3.92c-0.02,3.4-4.84,5.13-7.07,2.62
		C66.45,121.88,66.88,118.35,69.16,117.06z"/>
	<path display="inline" fill="#492A09" d="M111.28,117.12c2.41-1.73,6.28-0.05,6.48,2.92c0.7,3.22-3.21,5.91-6.02,4.3
		C108.94,123.09,108.67,118.73,111.28,117.12z"/>
	<path display="inline" fill="#002E6E" d="M78.53,131.47c2.46-1.24,3.8,1.38,5.29,2.79c4.5,4.69,12.89,4.7,17.31-0.1
		c1.42-1.37,2.95-4.09,5.25-2.58c2.28,1.77-0.18,4.58-1.68,6.01c-7.05,7.311-20.37,6.33-26.24-1.97
		C77.31,134.39,77.1,132.58,78.53,131.47z"/>
	<path display="inline" fill="#FC7F00" d="M174.279,137.4c3.521-0.77,7.171-0.35,10.75-0.41c11.33,0.03,22.66,0.06,33.99-0.02
		c1.75,0.13,3.67-0.12,5.291,0.71c0.77,1.34,1.338,3.39-0.053,4.57c-1.148,1-2.859,0.63-4.25,0.79
		c-14.67-0.14-29.35,0.12-44.021-0.13C172.8,143.689,171.63,138.41,174.279,137.4z"/>
	<path display="inline" fill="#F24B52" d="M34.02,137.65c0.67,0.23,2.01,0.7,2.68,0.93c2.36,5.21,5.35,10.22,9.48,14.23
		c7.47,7.567,17.86,11.737,28.41,12.34c-1.14,7.199-2.27,14.397-3.38,21.6c-1.3,8.859-2.6,17.73-3.87,26.602
		c-5.99-0.722-12.14,2.338-14.87,7.778C34.85,197.602,27.73,166.432,34.02,137.65z"/>
	<path display="inline" fill="#FC7F00" d="M168.311,145.318c2.51-0.608,5.142-0.408,7.709-0.459
		c13.98,0.181,27.973-0.049,41.951,0.061c3.909,0.09,7.869-0.42,11.739,0.33c2.74,1.279,1.521,6.21-1.681,5.65
		c-15.329,0.279-30.67,0.02-46.01,0.09c-4.602-0.131-9.24,0.34-13.812-0.25C166.4,149.58,166.318,146.21,168.311,145.318z"/>
	<path display="inline" fill="#002E6E" d="M172.35,152.59c1.75-1.29,4.74-0.68,5.563,1.471c1.34,2.449-1.28,5.83-3.979,5.09
		C170.859,158.818,169.818,154.26,172.35,152.59z"/>
	<path display="inline" fill="#002E6E" d="M222.029,152.141c2.5-1,5.619,1.069,4.971,3.879c-0.09,3.23-4.891,4.353-6.52,1.621
		C218.96,155.83,220,153.04,222.029,152.141z"/>
	<path display="inline" fill="#F24B52" d="M114.18,164.859c5.21-0.879,10.31-2.42,15.05-4.791c-0.05,3.912-0.07,8.111,2.1,11.541
		c2.06,3.58,5.63,5.979,9.48,7.279c-7.03,4.812-14.73,8.859-23.31,9.899c-0.17-1.2-0.34-2.399-0.51-3.591
		c-0.07-0.52-0.22-1.551-0.29-2.069c-0.49-3.528-0.96-7.062-1.51-10.567C114.83,169.99,114.5,167.432,114.18,164.859z"/>
	<path display="inline" fill="#002E6E" d="M188.63,162.568c1.22-1.118,2.438-2.578,4.271-2.459c6.682-0.18,13.399-0.279,20.08,0.051
		c2.352,0.09,3.182,2.46,3.789,4.34c-3.01,4.73-7.607,8.09-11.31,12.23c0.14,5.1-0.142,10.199,0.101,15.299
		c0.01,2.061,1.279,4.381,3.521,4.58c3.607,0.41,7.279-0.17,10.891,0.341c2.771,0.22,2.801,5.13,0.041,5.188
		c-5.779,0.021-12.291,1.352-17.222-2.488c-4.812,3.77-11.149,2.52-16.8,2.529c-2.922,0.43-3.36-4.271-0.95-5.07
		c3.91-0.859,7.96,0.051,11.897-0.569c1.961-0.49,2.992-2.63,3.013-4.511c0.21-5.049-0.03-10.1,0.062-15.141
		c-3.271-3.398-6.75-6.578-9.972-10.021C188.8,165.79,188.939,164.029,188.63,162.568z"/>
	<path display="inline" fill="#8097B7" d="M191.682,161.859c6.778-0.141,13.578-0.221,20.358-0.029
		c2.069-0.359,1.778,1.811,2.028,3.15c-7.459,0.51-14.948,0.26-22.408,0.158C191.66,164.318,191.67,162.682,191.682,161.859z"/>
	<path display="inline" fill="#FFCF00" d="M176.15,168.17c3.147-3.609,7.93-4.891,12.479-5.602c0.311,1.461,0.17,3.222,1.41,4.302
		c3.22,3.44,6.699,6.62,9.97,10.021c-0.09,5.041,0.15,10.09-0.06,15.141c-0.02,1.881-1.051,4.021-3.012,4.511
		c-3.938,0.62-7.988-0.29-11.898,0.569c-2.41,0.801-1.971,5.5,0.949,5.07c5.65-0.012,11.99,1.238,16.801-2.531
		c4.93,3.842,11.439,2.512,17.22,2.49c2.761-0.061,2.729-4.971-0.04-5.188c-3.609-0.513-7.279,0.067-10.89-0.341
		c-2.24-0.199-3.511-2.521-3.521-4.58c-0.24-5.1,0.039-10.199-0.102-15.301c3.7-4.141,8.3-7.5,11.311-12.229
		c5.852,2.84,9.912,8.91,9.932,15.471c-0.02,7.932,0.5,15.932-0.5,23.83c-1.92,3.27-5.131,6.069-9.182,5.689
		c-12.33-0.04-24.67,0.119-37-0.07c-3.398,0.12-5.851-2.46-8-4.72c-1.301-7.5-0.619-15.142-0.779-22.71
		C171.09,176.98,172.54,171.779,176.15,168.17z"/>
	<path display="inline" fill="#F1B590" d="M94.9,168.891c1.94-1,4.17-0.261,6.16,0.119c0.5,0.131,1.48,0.391,1.97,0.53
		c-0.92,3.19-1.75,6.41-2.49,9.649c-2.23-0.58-4.57-0.989-6.58-2.17C91.21,175.05,91.97,170.311,94.9,168.891z"/>
	<path display="inline" fill="#FFC39F" d="M103.03,169.54c3.35,0.989,6.75,1.819,10.17,2.54c-0.79,3.33-1.27,6.98-3.84,9.51
		c-2.62-0.71-5.21-1.488-7.84-2.158c-0.24-0.062-0.73-0.182-0.98-0.242C101.28,175.95,102.11,172.73,103.03,169.54z"/>
	<path display="inline" fill="#F1FFFF" d="M104.47,172.09c1.61-0.479,2.16,0.092,1.63,1.729
		C104.48,174.29,103.94,173.71,104.47,172.09z"/>
	<path display="inline" fill="#FFC39F" d="M113.2,172.08c0.5,0.12,1.49,0.359,1.99,0.48c0.55,3.508,1.02,7.039,1.51,10.567
		c-2.45-0.489-4.91-0.948-7.34-1.54C111.93,179.061,112.41,175.41,113.2,172.08z"/>
	<path display="inline" fill="#F1FFFF" d="M108.54,173.16c1.59-0.54,2.13,0.021,1.62,1.689
		C108.58,175.38,108.04,174.811,108.54,173.16z"/>
	<path display="inline" fill="#F1FFFF" d="M103.28,176.529c1.62-0.529,2.18,0.021,1.66,1.65
		C103.31,178.7,102.76,178.15,103.28,176.529z"/>
	<path display="inline" fill="#F4DABA" d="M108.24,177.4c1.29,0.72,1.24,1.369-0.15,1.949C106.79,178.63,106.84,177.98,108.24,177.4
		z"/>
	<path display="inline" fill="#15BBDC" d="M117.5,188.79c8.58-1.04,16.28-5.09,23.31-9.899l1.18,0.08
		c0.01,4.409,0.01,8.811,0.01,13.219c-7.05,4.211-14.83,7.263-23.03,8.263c1.14,8.778,2.34,17.562,3.5,26.34
		c-14.41-0.05-28.82-0.08-43.23,0c-0.33-6.608-5.43-12.24-11.9-13.438c1.27-8.869,2.57-17.74,3.87-26.602
		c9.5-0.471,19-0.63,28.5-0.988c5.76-0.182,11.52-0.371,17.28-0.562C117.16,186.391,117.33,187.59,117.5,188.79z"/>
	<path display="inline" fill="#F24B52" d="M118.97,200.45c8.2-1,15.98-4.05,23.03-8.261c-0.21,6.979,0.47,14.011-0.37,20.949
		c-1.7,8.672-10.56,14.43-19.16,13.649C121.31,218.01,120.11,209.23,118.97,200.45z"/>
	<path display="inline" fill="#FC7F00" d="M226.2,203.8c0.489,1.11,0.979,2.229,1.47,3.341c-8.352,16.67-21.82,30.562-37.62,40.352
		c-4.26-2.03-8.71-4.131-11.8-7.83c-3.439-4.131-6.068-9.21-6.34-14.66c-0.4-6.76,0.109-13.529,0.109-20.3
		c2.148,2.26,4.601,4.84,8,4.72c12.33,0.189,24.67,0.03,37,0.07C221.068,209.87,224.279,207.068,226.2,203.8z"/>
	<path display="inline" fill="#FFC39F" d="M105.838,182.797c0,1.529-1.239,2.77-2.768,2.77l0,0c-1.529,0-2.768-1.238-2.768-2.77
		v-17.459c0-1.529,1.239-2.77,2.768-2.77l0,0c1.529,0,2.768,1.24,2.768,2.77V182.797z"/>
</g>
<g id="C-azul">
	<circle fill="#B8E5FA" stroke="#FFFFFF" stroke-miterlimit="10" cx="136.761" cy="158.663" r="101.261"/>
</g>
<g id="c-orange">
	<g id="C-azul_1_">
		<path fill="#FC9000" d="M229.409,157.038c-1.823-0.374-3.483-0.931-5.018-1.622c-0.41-0.099-0.817-0.222-1.225-0.336
			c-2.842-0.343-5.627-0.98-8.35-1.849c-0.562,0.086-1.165,0.08-1.81-0.052c-11.108-2.266-22.108-7.615-28.07-17.705
			c-4.603-7.789-6.063-16.669-5.895-25.559c-1.362-9.73-1.134-19.54,0.686-29.244c0.01-0.051,0.029-0.091,0.039-0.141
			c-0.065-0.705-0.122-1.411-0.154-2.117c-14.164,16.03-31.468,28.739-49.086,40.991c-2.212,1.839-4.445,3.651-6.697,5.442
			c-14.597,15.307-29.852,30.011-45.246,44.585c-0.793,7.305,0.127,14.475,2.126,21.812c1.499,5.5,3.406,11.308,5.92,16.821
			c3.115,3.733,7.023,6.989,11.82,9.573c19.246,10.371,56.128,11.168,61.392,37.413c40.664-11.816,70.388-49.347,70.388-93.823
			c0-1.372-0.03-2.736-0.086-4.094C229.905,157.118,229.661,157.09,229.409,157.038z"/>
	</g>
</g>
<g id="Doggy">
	<path display="none" fill="#F24B52" d="M198.936-23.726c0.653,3.893,1.339,7.795,2.47,11.578
		c-6.534,13.491-4.153,28.775-4.6,43.211c-1.925,0.424-3.849,0.848-5.729,1.413c-3.457-1.631-7.034-3.164-10.872-3.642
		c-0.686-3.414-1.328-7.034-3.634-9.782c-5.26-6.991-16.554-8.035-22.937-2.023c-3.467,2.836-4.901,7.229-5.542,11.512
		c-8.677-0.401-17.623-0.716-25.884,2.48c-4.338,0.629-7.957,3.129-11.47,5.564c2.262-6.447,6.079-12.208,9.819-17.882
		c17.696-25.818,46.536-43.766,77.64-47.69C197.912-27.172,198-25.356,198.936-23.726z"/>
	<path fill="#5B360A" d="M187.531,85.486c-0.101,3.957-0.036,8.187,2.216,11.63c3.35,5.915,10.492,8.894,17.124,7.871l1.284-0.088
		c4.185-1.412,8.063-4.022,10.303-7.913c2.359-3.729,2.339-8.294,2.285-12.547c-0.688-11.761,2.033-24.35-3.501-35.308
		c-2.881-6.339-8.055-11.328-14.24-14.404c0.912-0.153,1.817-0.369,2.706-0.64c-2.975-1.203-5.905-2.517-8.889-3.688
		c-0.005,0.222-0.005,0.443-0.014,0.664c-1.925,0.424-3.849,0.848-5.729,1.413c-1.958,1.924-3.839,4.306-3.523,7.229
		C187.533,54.959,187.62,70.221,187.531,85.486z"/>
	<path fill="#FC9000" d="M167.455,170.958c-3.358,4.023-8.195,6.306-12.826,8.516c17.387,10.588,37.646,16.381,57.995,16.524
		c6.131-5.921,7.524-14.55,8.668-22.729c0.773-5.528,1.455-11.047,2.944-16.36c-7.997-0.893-15.38-6.653-16.974-14.783
		c-0.914-7.543-0.175-15.186-0.403-22.773c0-4.793,0-9.578,0.012-14.372c-6.63,1.023-13.772-1.957-17.122-7.871
		c-2.25-3.444-2.315-7.675-2.216-11.631c0.087-15.262,0-30.525,0.021-45.778c-0.315-2.919,1.564-5.301,3.522-7.226
		c-3.458-1.63-7.034-3.164-10.872-3.641c-10.698-0.033-21.427,0.489-32.113-0.294c-8.677-0.402-17.622-0.717-25.883,2.48
		c-6.142,3.434-11.754,8.196-14.87,14.631c-2.686,5.217-3.598,11.154-3.503,16.969c0.032,13.296,0.045,26.59,0,39.884
		c-0.893,11.958,5.012,22.895,9.718,33.493l0.175-0.39c0.533-1.207,1.065-2.424,1.596-3.631c-1.083-8.587-0.522-17.286-0.543-25.907
		c0.021-7.131,4.435-13.729,10.796-16.816c0.664-2.044,1.564-4.62,4.12-4.718c7.263-0.358,14.569-0.25,21.832-0.055
		c1.988-0.129,3.315,1.457,4.642,2.674c4.945,0.772,10.143,2.165,13.565,6.087c3.926,3.925,5.503,9.579,5.337,15.025
		c-0.173,8.229,0.569,16.534-0.846,24.687c0,7.36,0.556,14.72,0.118,22.069C174.055,160.948,171.193,166.469,167.455,170.958z"/>
	<path display="none" fill="#002E6E" d="M107.339,45.652c-2.685,5.217-3.599,11.154-3.503,16.969c0.033,13.296,0.045,26.59,0,39.884
		c-4.685-2.837-7.672-8.185-7.589-13.652c-0.031-8.044,0.036-16.079-0.019-24.123c-0.27-10.957,5-22.339,14.511-28.145
		c3.514-2.435,7.132-4.936,11.47-5.564C116.068,34.456,110.456,39.217,107.339,45.652z"/>
	<path display="none" fill="#F24B52" d="M304.187,150.818c-2.966-5.915-9.651-9.242-16.161-8.458
		c-1.382-9.644-2.797-19.286-4.21-28.917c-1.207-7.828-2.435-15.653-3.675-23.481c11.472-0.653,22.765-5.186,30.886-13.416
		c4.487-4.36,7.737-9.806,10.305-15.469c0.731-0.25,2.186-0.761,2.915-1.011C331.083,91.354,323.341,125.239,304.187,150.818z"/>
	<path fill="#002E6E" d="M172.149,83.44c-2.938,0.804-5.782-2.87-4.327-5.533c0.893-2.338,4.144-3.001,6.045-1.6
		C176.618,78.124,175.487,83.08,172.149,83.44z"/>
	<path fill="#002E6E" d="M121.546,81.797c-1.773,2.968-6.989,1.751-7.088-1.76c-0.707-3.055,2.684-5.306,5.401-4.217
		C122.068,76.797,123.196,79.831,121.546,81.797z"/>
	<path display="none" fill="#F24B52" d="M236.005,98.019c-0.596,3.815-1.108,7.653-1.64,11.491c-0.077,0.564-0.24,1.686-0.317,2.25
		c-0.184,1.292-0.368,2.599-0.552,3.902c-9.328-1.131-17.698-5.532-25.341-10.762c4.185-1.413,8.064-4.022,10.305-7.914
		c2.359-3.729,2.338-8.294,2.284-12.546c5.152,2.576,10.695,4.252,16.36,5.209C236.756,92.441,236.396,95.224,236.005,98.019z"/>
	<path fill="#8097B7" d="M152.877,89.953c-8.109,0.108-16.251,0.38-24.363-0.174c0.273-1.457-0.04-3.817,2.21-3.425
		c7.367-0.207,14.758-0.12,22.131,0.033C152.863,87.278,152.875,89.059,152.877,89.953z"/>
	<path display="none" fill="#F24B52" d="M228.092,156.97c-9.348,0.848-18.981-5.412-20.828-14.839
		c-0.913-7.543-0.175-15.186-0.403-22.774c7.665,4.578,16.122,7.894,25.036,8.979C230.656,137.881,229.353,147.425,228.092,156.97z"
		/>
	<path fill="#FC7F00" d="M125.307,138.165c13.403-0.043,26.819,0.128,40.224-0.077c3.693,0.131,6.357-2.673,8.694-5.131
		c0,7.36,0.556,14.721,0.12,22.067c-0.293,5.928-3.153,11.449-6.892,15.938c-3.357,4.023-8.195,6.306-12.825,8.516
		c-17.177-10.646-31.82-25.747-40.9-43.867c0.532-1.207,1.065-2.424,1.596-3.631C117.415,135.532,120.905,138.577,125.307,138.165z"
		/>
	<path fill="#873AE2" d="M212.685,147.666c-0.129,0.738-0.448,1.422-0.821,2.064c-0.269,0.181-0.534,0.364-0.794,0.56
		c-0.035,0.08-0.1,0.224-0.138,0.299c-3.195,1.188-6.136,2.965-9.28,4.284c-3.052,1.484-6.259,2.617-9.436,3.797
		c-7.283,2.564-14.73,4.701-22.301,6.226c-2.192-0.305-4.312,0.518-6.45,0.869c-1.034-1.032-2.252-1.839-3.487-2.599
		c-0.666-0.408-0.188-1.265-0.206-1.871c2.016,0.067,3.943-1.566,4.032-3.604c0.242-2.152-1.805-4.242-3.972-3.923
		c-3.659,0.486-7.352,0.797-10.995,1.381c-1.407,0.136-2.426,1.324-2.716,2.649c-0.568,1.907,0.805,4.265,2.831,4.442
		c1.733-0.043,3.461-0.212,5.193-0.303c0.008,0.339,0.01,0.672,0.013,1.014c-0.511,0.227-1.021,0.455-1.536,0.679
		c-2.005,0.76-3.631,2.369-4.452,4.351c-3.726,0.495-7.487,0.463-11.233,0.527c-0.255-0.743-1.133-0.545-1.617-0.158
		c-0.589,0.053-1.178,0.102-1.77,0.102c-2.82-0.157-5.632-0.579-8.46-0.449l0.007-0.087c0.263-0.066,0.79-0.199,1.05-0.27
		c-1.22-0.427-2.703-0.537-3.557-1.628c-0.964-1.115-0.995-2.675-1.204-4.064c-0.202-2.021-0.652-4.003-0.979-5.998
		c-0.254-0.962,0.54-1.683,1.058-2.369c-0.011-0.136-0.04-0.404-0.051-0.542l0.176-0.102c2.471-0.551,5.073-0.66,7.578-0.342
		c2.457,0.332,4.938,0.072,7.398,0.138c8.447-0.13,16.849-1.148,25.165-2.576c10.698-1.94,21.246-4.817,31.336-8.894
		c1.166-0.488,2.358-0.924,3.438-1.581c1.11-0.689,2.437-0.874,3.588-1.467c2.371-1.092,4.451-3.048,7.145-3.261
		c1.787,0.326,3.639,1.536,3.889,3.471C211.608,141.515,212.369,144.557,212.685,147.666z"/>
	<path fill="#FCC02E" d="M159.773,161.295c-0.107,0.008-0.328,0.024-0.433,0.035c0.171-1.426,0.022-2.891-0.463-4.242
		c-0.702-1.257-2.52-0.985-3.593-0.432c-1.514,1.088-0.958,3.111-1.229,4.695c-1.708,0.26-3.436,0.428-5.104,0.886
		c-2.026-0.178-3.399-2.535-2.831-4.442c0.29-1.324,1.308-2.514,2.717-2.649c3.645-0.584,7.335-0.895,10.994-1.381
		c2.167-0.317,4.216,1.771,3.974,3.923C163.715,159.727,161.787,161.36,159.773,161.295z"/>
	<path fill="#FDD737" d="M159.341,161.33c-0.044,0.654-0.07,1.309-0.082,1.966c-0.103,1.346,0.185,2.711-0.037,4.046
		c-0.202,0.977-0.772,2.161-1.914,2.224c-1.017,0.072-2.347-0.051-2.784-1.141c-0.62-1.456-0.263-3.083-0.215-4.601
		c-0.56-0.076-1.123-0.146-1.688-0.195c0.515-0.225,1.027-0.452,1.536-0.68c-0.003-0.342-0.005-0.675-0.013-1.012
		c-1.732,0.088-3.46,0.258-5.193,0.301c1.67-0.457,3.396-0.627,5.106-0.886c0.27-1.585-0.287-3.608,1.226-4.695
		c1.072-0.555,2.89-0.826,3.594,0.432C159.363,158.439,159.51,159.905,159.341,161.33z"/>
	<path fill="#FCC02C" d="M154.523,168.425c0.438,1.09,1.768,1.213,2.784,1.141c1.142-0.062,1.712-1.247,1.914-2.224
		c0.222-1.336-0.065-2.7,0.037-4.046c1.459,0.626,2.866,1.512,3.753,2.867c1.384,1.945,1.983,4.301,1.829,6.671
		c-0.215,1.718-0.985,3.35-2.063,4.695c-1.47,1.186-3.034,2.496-5.011,2.611c-3.112,0.643-6.382-0.724-8.445-3.053
		c-1.303-1.526-1.675-3.582-1.827-5.521c-0.108-1.233,0.191-2.463,0.672-3.588c0.821-1.981,2.447-3.591,4.454-4.351
		c0.563,0.049,1.129,0.119,1.688,0.195C154.26,165.342,153.901,166.969,154.523,168.425z"/>
	<path fill="#FFCF00" d="M115.327,131.977c2.089,3.553,5.578,6.599,9.981,6.186c13.404-0.043,26.818,0.129,40.225-0.077
		c3.692,0.131,6.357-2.674,8.694-5.131c1.415-8.152,0.673-16.457,0.846-24.687c0.166-5.446-1.411-11.1-5.337-15.024
		c-3.424-3.922-8.62-5.315-13.565-6.088c-0.337,1.589-0.185,3.501-1.534,4.675c-3.499,3.741-7.281,7.197-10.837,10.892
		c0.099,5.481-0.164,10.97,0.065,16.459c0,0.153,0.02,0.306,0.033,0.459c-0.242,0.041-0.489,0.099-0.745,0.176
		c-1.816,0.057-3.63,0.091-5.446,0.093c0.034-0.244,0.059-0.486,0.059-0.727c0.262-5.542-0.041-11.088,0.109-16.631
		c-4.024-4.502-9.022-8.154-12.293-13.296c-6.362,3.087-10.776,9.686-10.796,16.816
		C114.804,114.693,114.242,123.391,115.327,131.977z"/>
	<path display="none" fill="#002E6E" d="M128.374,125.876c4.769-7.101,15.597-7.938,21.325-1.685
		c1.222,1.223,3.219,3.629,1.365,5.139c-1.87,1.296-3.111-1.032-4.266-2.206c-3.595-4.105-10.413-4.098-14.07-0.083
		c-1.21,1.204-2.299,3.446-4.3,2.388C127.27,128.479,127.44,126.928,128.374,125.876z"/>
	<ellipse fill="#002E6E" cx="141.73" cy="124.26" rx="9.092" ry="4.188"/>
	<path display="none" fill="#002E6E" d="M162.927,122.38c-4.771,8.044-15.598,8.997-21.326,1.909
		c-1.219-1.386-3.219-4.111-1.365-5.827c1.87-1.465,3.111,1.174,4.267,2.503c3.592,4.654,10.409,4.643,14.066,0.096
		c1.211-1.368,2.301-3.91,4.302-2.705C164.033,119.434,163.861,121.187,162.927,122.38z"/>
	<path fill="#002E6E" d="M125.582,89.254c3.271,5.142,8.27,8.794,12.295,13.296c-0.152,5.543,0.151,11.089-0.111,16.631
		c0,0.173-0.015,0.348-0.034,0.522c0.1,0.228,0.19,0.464,0.268,0.718c0.469,1.572,1.156,2.994,2.15,4.173
		c0.579-1.704,1.949-3.103,4.098-3.392c-0.241-0.654-0.375-1.351-0.382-2.021c-0.229-5.489,0.034-10.978-0.063-16.459
		c3.554-3.695,7.337-7.152,10.834-10.892c1.351-1.174,1.197-3.086,1.535-4.675c-1.326-1.217-2.653-2.803-4.643-2.674
		c-7.26-0.195-14.569-0.304-21.831,0.056C127.146,84.636,126.242,87.212,125.582,89.254z"/>
	<path fill="#8097B7" d="M152.877,89.953c-8.109,0.108-16.251,0.38-24.363-0.174c0.273-1.457-0.04-3.817,2.21-3.425
		c7.367-0.207,14.758-0.12,22.131,0.033C152.863,87.278,152.875,89.059,152.877,89.953z"/>
</g>
<g id="Capa_3">
	
		<line fill="#FC7F00" stroke="#FC7F00" stroke-width="4" stroke-miterlimit="10" x1="176.453" y1="195.998" x2="189.394" y2="239.338"/>
</g>
<g id="Mano_x2B_Movil">
	<path fill="#241F1B" d="M76.528,102.547c0.602-0.677,1.308-1.427,2.295-1.4c3.366-0.061,6.736-0.034,10.104-0.015
		c1.064-0.079,1.861,0.669,2.512,1.407C86.471,102.573,81.499,102.608,76.528,102.547z"/>
	<path fill="#37322E" d="M67.981,109.285c-0.076-3.364,2.709-6.355,6.03-6.677l0.08-0.02c0.812-0.026,1.625-0.035,2.438-0.041
		c4.97,0.061,9.943,0.025,14.913-0.007c3.382,0.053,6.765,0.014,10.146,0.027c0.063,0,0.191,0,0.26,0c9.16,0,18.32,0,27.479,0h0.098
		c3.084,0.061,6.175-0.132,9.258,0.098c-1.535-0.019-3.068,0.083-4.587,0.27c2.379,1.208,4.418,3.521,4.235,6.346
		c-0.012,41.255,0.008,82.51-0.012,123.759c0.021,2.923-2.312,5.044-4.765,6.205c-0.096,0.002-0.292,0.006-0.389,0.011
		c-12.583,0.054-25.17-0.005-37.758,0.029c0.945-2.096,1.935-4.171,2.867-6.268c3.238,1.093,7.019,0.559,9.68-1.647
		c3.885-3.078,4.818-9.188,1.948-13.252c-2.426-3.817-7.621-5.441-11.809-3.756c-2.716,0.968-4.792,3.233-5.823,5.889
		c-4.184-1.256-9.078,0.806-10.996,4.753c-2.234,4.758-4.383,9.562-6.591,14.334c-3.4-0.075-6.545-2.836-6.674-6.305
		c-0.082-7.324,0.004-14.653-0.041-21.982c0.015-2.868,0.007-5.734,0.011-8.601c0-1.051,0-2.1,0-3.148
		C67.981,169.294,67.971,139.288,67.981,109.285z"/>
	<path fill="#241F1B" d="M134.095,102.935c1.519-0.188,3.053-0.29,4.588-0.271c3.255,0.314,5.883,3.351,5.844,6.605
		c0.018,11.021,0.015,22.044,0.007,33.066c-0.017,1.419-0.009,2.84,0,4.259c-0.009,2.015,0.043,4.036-0.021,6.052
		c0.012,0.161,0.029,0.488,0.039,0.651c-0.031,3.502-0.005,7.009-0.013,10.51c-0.004,11.836,0,23.67-0.004,35.506
		c0,1.046,0,2.096,0,3.144c0.004,9.199-0.009,18.394,0.007,27.59c-0.021,1.476,0.121,2.994-0.297,4.435
		c-0.71,2.512-3.043,4.518-5.667,4.722c-1.672,0.133-3.353,0.007-5.026,0.043c2.454-1.161,4.787-3.281,4.765-6.205
		c0.021-41.251,0-82.506,0.011-123.76C138.513,106.456,136.475,104.142,134.095,102.935z"/>
	<path fill="#241F1B" d="M75.129,112.771c1.283-0.052,2.588-0.149,3.845,0.184c-0.026,2.392-0.007,4.786-0.016,7.178
		c-0.007,2.363,0.008,4.73-0.004,7.095c-0.127,3.941,0.027,7.893-0.066,11.835c-0.117,1.944-0.061,3.885,0.116,5.824
		c-0.066,1.67-0.044,3.342-0.06,5.013c0,0.936,0.019,1.866,0.026,2.8c-0.026,10.87,0,21.742-0.016,32.615
		c0.031,2.303-0.044,4.606,0.035,6.91c0.038,0.057,0.117,0.164,0.154,0.221c-0.621,3.335-0.219,6.759-0.209,10.125
		c0.043,1.381,0.025,2.761,0.018,4.144c-1.279,0.047-2.559,0.035-3.837-0.04C75.117,175.373,75.092,144.07,75.129,112.771z"/>
	<path fill="#F3FAFE" d="M78.974,112.955c17.64,0.091,35.283,0.016,52.922,0.046c-0.005,2.377,0.021,4.754-0.016,7.132
		c-8.37-0.007-16.735-0.029-25.103,0.017c-1.976-0.055-3.946-0.023-5.921-0.012c-1.295-0.008-2.588-0.008-3.878,0.004
		c-3.514-0.008-7.024-0.004-10.534-0.008c-2.493-0.014-4.993-0.014-7.486,0C78.967,117.741,78.948,115.348,78.974,112.955z"/>
	<path fill="#FED113" d="M80.986,114.641c3.675,0.057,7.354,0.003,11.034,0.03c-0.587,0.587-1.182,1.167-1.76,1.757
		c-0.125-0.076-0.373-0.225-0.497-0.3c0,0.169,0,0.503,0.004,0.672c-0.438,0.543-0.866,1.087-1.286,1.64
		c-2.517,0.042-5.031,0.007-7.546,0.023C80.911,117.188,80.915,115.913,80.986,114.641z"/>
	<path fill="#FEE642" d="M92.02,114.671c3.488,0.011,6.972,0.022,10.458-0.003c-0.297,0.361-0.587,0.729-0.891,1.083
		c-0.238,0.229-0.704,0.689-0.938,0.918c-0.623-0.127-0.767,0.038-0.428,0.498c-0.099,0.078-0.294,0.24-0.391,0.319
		c-0.332,0.302-0.647,0.617-0.948,0.948c-3.469,0.026-6.934,0.019-10.402,0.007c0.421-0.553,0.849-1.098,1.286-1.64
		c0.122-0.093,0.368-0.279,0.493-0.373C90.838,115.837,91.433,115.259,92.02,114.671z"/>
	<path fill="#FED116" d="M102.478,114.668c5.375-0.019,10.752,0.021,16.127-0.019c0.027,1.268,0.029,2.536,0.034,3.807
		c-6.587,0-13.175,0.037-19.758-0.022c0.301-0.331,0.617-0.647,0.948-0.948l0.455-0.095c0.17,0.125,0.507,0.369,0.677,0.493
		c0.229-0.703,0.459-1.411,0.625-2.133C101.89,115.397,102.182,115.029,102.478,114.668z"/>
	<path fill="#873AE2" d="M119.749,114.641c3.232,0.045,6.467,0.011,9.698,0.022c0.021,1.275,0.021,2.551-0.049,3.826
		c-3.229-0.06-6.46-0.003-9.688-0.034C119.697,117.185,119.702,115.913,119.749,114.641z"/>
	<path fill="#37322E" d="M140.594,115.063c0.753-0.402,1.673-0.057,2.06,0.688c0.214,1.212,0.102,2.453,0.117,3.679
		c-0.02,6.026,0.025,12.054-0.02,18.076c0.049,1.039-1.21,1.903-2.133,1.362c-0.773-0.402-0.59-1.407-0.656-2.12
		c0.021-6.653,0.017-13.302,0-19.954C139.985,116.176,140,115.431,140.594,115.063z"/>
	<path fill="#B19863" d="M94.36,115.278c0.214,0.342,0.433,0.68,0.651,1.023c0.225-0.343,0.456-0.684,0.685-1.027
		c-0.155,0.711-0.354,1.411-0.58,2.099c-1.328-0.165-2.704-0.188-3.887,0.542c0.058-0.643-0.015-1.325,0.233-1.937
		c0.629-0.279,1.366-0.052,2.039-0.185c0.158,0.057,0.479,0.174,0.641,0.23C94.194,115.837,94.304,115.465,94.36,115.278z"/>
	<path fill="#906D26" d="M81.919,115.985c0.888-0.039,1.775-0.215,2.664-0.101c1.592,0.274,3.322-0.339,4.823,0.256
		c-0.049,0.146-0.143,0.441-0.192,0.583l-0.157,0.071c-0.113-0.146-0.342-0.441-0.459-0.587c-0.039,0.358-0.117,1.081-0.159,1.441
		c-0.177-0.475-0.343-0.948-0.501-1.423c0,0.787-0.358,1.23-1.159,1.145c-0.091-0.313-0.27-0.938-0.362-1.249
		c-0.038,0.315-0.105,0.943-0.142,1.26c-1.467-0.132-2.946,0.015-4.414-0.116C81.882,116.834,81.904,116.409,81.919,115.985z"/>
	<path fill="#B29962" d="M96.948,115.74c0.586,0.098,1.173,0.192,1.765,0.286c-0.275,0.643-0.546,1.29-0.821,1.938
		c-0.695-0.406-1.38-0.835-2.053-1.275C96.207,116.372,96.58,116.056,96.948,115.74z"/>
	<path fill="#704E2E" d="M89.763,116.128c0.124,0.075,0.372,0.225,0.497,0.3c-0.125,0.094-0.37,0.279-0.493,0.372
		C89.763,116.631,89.763,116.297,89.763,116.128z"/>
	<path fill="#38322E" d="M100.649,116.668c0.234-0.229,0.701-0.688,0.938-0.918c-0.167,0.723-0.395,1.429-0.625,2.133
		c-0.169-0.125-0.507-0.369-0.677-0.493l-0.455,0.095c0.097-0.079,0.292-0.241,0.391-0.319l0.308-0.193L100.649,116.668z"/>
	<path fill="#F4D416" d="M83.789,116.425c0.474-0.332,0.752-0.248,0.839,0.244C84.154,116.996,83.875,116.913,83.789,116.425z"/>
	<path fill="#FFEF40" d="M92.02,116.538"/>
	<path fill="#EDDC48" d="M96.911,116.466"/>
	<path fill="#605B58" d="M100.221,117.167c-0.339-0.46-0.196-0.625,0.428-0.498l-0.12,0.305L100.221,117.167z"/>
	<path fill="#C0A95E" d="M98.852,116.909"/>
	<path fill="#873AE2" d="M78.958,120.133c2.494-0.013,4.992-0.013,7.486,0c-2.441,2.509-4.958,4.952-7.49,7.367v-0.271
		C78.967,124.863,78.951,122.497,78.958,120.133z"/>
	<path fill="#B477F0" d="M86.444,120.133c3.51,0.003,7.02,0,10.534,0.008c-2.434,3.201-5.628,5.721-8.138,8.86
		c-0.301,0.165-0.605,0.327-0.906,0.492c-3.231,1.188-6.129,3.074-8.965,4.992c-0.003-2.329,0.008-4.657-0.016-6.986
		C81.487,125.084,84.003,122.642,86.444,120.133z"/>
	<path fill="#873AE2" d="M96.979,120.142c1.29-0.012,2.583-0.012,3.878-0.004c-1.369,0.8-2.794,1.61-3.762,2.908
		c-0.972,1.177-1.418,2.665-1.848,4.101c-2.182,0.456-4.304,1.121-6.407,1.856C91.351,125.863,94.545,123.343,96.979,120.142z"/>
	<path fill="#352213" d="M100.856,120.138c1.975-0.012,3.945-0.042,5.921,0.012c2.899,1.241,5.078,3.859,5.638,6.982
		c4.213,0.895,8.28,2.459,12.02,4.593c2.661,1.52,5.136,3.347,7.411,5.398c-0.053,3.845,0.155,7.708-0.131,11.546
		c-4.105-5.825-10.004-10.396-16.741-12.75c-7.975-2.833-17.034-2.48-24.758,0.993c-4.235,1.854-7.999,4.668-11.215,7.978
		c-0.176-1.939-0.232-3.88-0.116-5.824c3.036-3.168,6.263-6.171,9.047-9.571c0.301-0.165,0.605-0.327,0.906-0.492
		c2.103-0.735,4.225-1.4,6.407-1.856c0.429-1.436,0.876-2.922,1.848-4.101C98.062,121.748,99.488,120.938,100.856,120.138z"/>
	<path fill="#873AE2" d="M106.778,120.149c8.367-0.045,16.733-0.023,25.103-0.017c-0.053,2.05-0.014,4.101-0.039,6.15
		c-2.389,1.919-4.882,3.707-7.406,5.44c-3.739-2.133-7.806-3.698-12.02-4.593C111.856,124.008,109.678,121.391,106.778,120.149z"/>
	<path fill="#FED116" d="M124.436,131.724c2.524-1.733,5.018-3.521,7.406-5.44c0.021,3.612,0.015,7.223,0.005,10.838
		C129.571,135.071,127.096,133.244,124.436,131.724z"/>
	<path fill="#6F5839" d="M78.954,127.229v0.271c0.022,2.329,0.012,4.657,0.016,6.986c2.836-1.919,5.734-3.803,8.965-4.992
		c-2.785,3.4-6.011,6.403-9.047,9.571C78.981,135.121,78.827,131.17,78.954,127.229z"/>
	<path fill="#F2FAFD" d="M90.217,136.911c7.724-3.473,16.783-3.825,24.758-0.993c6.737,2.354,12.635,6.926,16.741,12.749
		c0.322,1.88,0.066,3.861,0.111,5.773l-0.211-0.388c-3.007-5.806-7.884-10.622-13.743-13.538
		c-5.413-2.717-11.631-3.773-17.639-3.036c-8.416,0.952-16.296,5.597-21.292,12.422c0.015-1.669-0.007-3.343,0.06-5.013
		C82.22,141.58,85.982,138.766,90.217,136.911z"/>
	<path fill="#63422E" d="M78.944,149.901c4.995-6.824,12.877-11.469,21.292-12.422c6.008-0.737,12.226,0.319,17.639,3.036
		c5.858,2.916,10.734,7.734,13.743,13.538c0.308,0.712,0.222,1.514,0.257,2.271c-0.741-0.046-1.303-0.46-1.552-1.156
		c-3.104-6.237-8.495-11.293-14.919-13.983c-5.911-2.509-12.65-2.957-18.859-1.346c-7.237,1.831-13.536,6.624-17.571,12.862
		C78.962,151.767,78.944,150.836,78.944,149.901z"/>
	<path fill="#F2FAFD" d="M96.541,139.839c6.209-1.611,12.948-1.163,18.859,1.346c6.426,2.69,11.816,7.746,14.919,13.983
		c0.252,0.697,0.813,1.11,1.553,1.156c-0.049,9.52-0.009,19.041-0.021,28.563c-0.022,1.302,0.124,2.625-0.182,3.907
		c-4.138-5.521-9.795-9.957-16.341-12.243c-7.926-2.849-16.917-2.615-24.679,0.662c-4.413,1.842-8.396,4.648-11.696,8.103
		c0.016-10.872-0.011-21.744,0.016-32.615C83.007,146.463,89.304,141.671,96.541,139.839z"/>
	<path fill="#37322E" d="M140.943,142.867c1.058-0.398,2.023,0.729,1.831,1.745c-0.021,4.646,0.058,9.302-0.044,13.946
		c0.163,1.664-2.85,1.668-2.707-0.017c-0.109-4.494,0-9.001-0.055-13.505C139.985,144.236,139.913,143.05,140.943,142.867z"/>
	<path fill="#E04B1C" d="M89.406,143.22c1.106-0.032,2.215-0.032,3.324-0.032c0.061,0.164,0.186,0.491,0.25,0.659
		c-0.956,0.04-1.911,0.07-2.863,0.097c0.014,1.128-0.044,2.268-0.354,3.363C88.954,146.117,89.477,144.567,89.406,143.22z"/>
	<path fill="#E04E22" d="M115.49,143.236c1.195-0.196,2.416-0.066,3.623-0.106c-0.011,1.428,0.632,3.2-0.399,4.379
		c-0.158-1.181-0.215-2.376-0.196-3.569c-1.108-0.036-2.215-0.079-3.317-0.121C115.272,143.671,115.418,143.382,115.49,143.236z"/>
	<path fill="#FED116" d="M90.116,143.943c0.952-0.026,1.907-0.058,2.863-0.097c7.403-0.095,14.814-0.046,22.222-0.028
		c1.102,0.042,2.208,0.085,3.317,0.121c-0.02,1.193,0.039,2.39,0.196,3.571c0.181,5.182,0.026,10.375,0.079,15.563
		c-0.035,1.74,0.101,3.493-0.101,5.228c-0.188,1.419-0.196,2.851-0.193,4.28c-1.052-0.004-2.102-0.015-3.151,0.004
		c-7.509-0.021-15.014-0.021-22.519,0c-0.982-0.019-1.963-0.011-2.942-0.004c-0.007-1.335-0.045-2.666-0.188-3.995
		c-0.147-5.59-0.02-11.191-0.061-16.788c0.049-1.498-0.146-3.013,0.125-4.49C90.072,146.211,90.131,145.07,90.116,143.943z"/>
	<path fill="#61412F" d="M91.237,145.142c2.085,0.038,4.172,0.026,6.261,0.008c0.032,2.102,0,4.205,0.029,6.31
		c-2.114,0.044-4.229,0.018-6.339,0.016C91.181,149.362,91.186,147.251,91.237,145.142z"/>
	<path fill="#5C3C2F" d="M103.652,146.06c0.117-0.492,0.388-0.875,0.865-1.057c0.159,0.587,0.327,1.207,1.065,1.223
		c0.011-0.263,0.038-0.793,0.048-1.058c0.219-0.011,0.647-0.029,0.865-0.037c0.026,0.211,0.079,0.633,0.101,0.843
		c-1.246-0.147-0.951,1.041-1.008,1.869c0.82,0.025,1.99-0.285,1.978,0.936c0.554,0,1.102,0,1.656,0
		c0.003-0.897,0.006-1.792,0.015-2.688c-0.613-0.008-1.222-0.016-1.828-0.019c0.011-0.229,0.038-0.685,0.052-0.911
		c0.896,0.004,1.794,0.007,2.694,0.012c-0.052,2.03,0.03,4.067-0.019,6.097c-0.211,0.08-0.625,0.24-0.832,0.324
		c-0.042-0.645-0.071-1.281-0.101-1.922c-1.076-0.051-2.242,0.27-3.239-0.224c-0.595-1.114-1.99-0.582-2.995-0.641
		c-0.086,0.281-0.257,0.851-0.339,1.132c-0.459-0.385-0.618-1.31-1.335-1.199c-0.421,0.811-0.101,1.828-0.182,2.72
		c-0.222,0-0.658-0.005-0.876-0.005c0.004-0.879,0.004-1.763,0-2.641c-0.65-0.028-1.306-0.063-1.953-0.094
		c-0.003-0.645,0.433-0.876,1.009-0.941c0.003-0.162,0.011-0.489,0.015-0.651c-0.511-0.162-1.034-0.348-1.027-0.981
		c0.237-0.03,0.708-0.095,0.945-0.126c0.045-0.198,0.14-0.596,0.184-0.792c1.186-0.534,0.7,1.08,0.813,1.705
		c0.211,0,0.629,0.004,0.84,0.004c0.015-0.221,0.044-0.664,0.06-0.885C101.962,146.063,102.81,146.073,103.652,146.06z"/>
	<path fill="#61412E" d="M111.119,145.139c2.095,0.041,4.194,0.026,6.291,0.015c0.026,2.098-0.007,4.194,0.026,6.294
		c-2.122,0.062-4.243,0.025-6.366,0.033C111.081,149.367,111.018,147.251,111.119,145.139z"/>
	<path fill="#FED316" d="M92.062,146.17c1.501-0.086,3.001-0.07,4.505-0.057c0.007,1.493,0.012,2.987-0.014,4.481
		c-1.494-0.012-2.983-0.012-4.473-0.022C92.095,149.104,92.095,147.638,92.062,146.17z"/>
	<path fill="#FED315" d="M103.923,145.971c1.219-0.106,0.729,1.158,0.793,1.922c-0.604-0.011-1.207-0.019-1.809-0.026
		c-0.003,0.229-0.011,0.689-0.015,0.914c-0.215-0.002-0.64-0.011-0.854-0.019c0-0.592,0-1.178,0.003-1.765
		C102.844,146.906,104.212,147.279,103.923,145.971z"/>
	<path fill="#FED315" d="M111.97,146.129c1.49-0.025,2.979-0.025,4.468-0.016c0.013,1.493,0.016,2.987-0.031,4.481
		c-1.477-0.016-2.956-0.016-4.434-0.016C111.977,149.093,111.977,147.609,111.97,146.129z"/>
	<path fill="#63432E" d="M92.995,146.918c0.907,0.008,1.81,0.012,2.717,0.021c0.006,0.906,0.01,1.818,0.014,2.732
		c-0.915,0.003-1.829,0.007-2.739,0.007C92.985,148.758,92.985,147.836,92.995,146.918z"/>
	<path fill="#63432E" d="M112.857,146.918c0.914,0.008,1.832,0.012,2.751,0.018c0.003,0.908,0.01,1.814,0.021,2.726
		c-0.928,0.014-1.856,0.018-2.784,0.021C112.842,148.762,112.845,147.84,112.857,146.918z"/>
	<path fill="#F8D815" d="M100.326,148.047c0.61-0.207,0.821-0.005,0.632,0.612C100.344,148.866,100.138,148.665,100.326,148.047z"/>
	<path fill="#5F3F2F" d="M98.434,149.649c0.216,0.008,0.64,0.022,0.852,0.033c0.014,0.565,0.029,1.134,0.044,1.7
		c-0.238,0.025-0.711,0.079-0.95,0.104C98.396,150.874,98.416,150.26,98.434,149.649z"/>
	<path fill="#63422E" d="M103.817,149.623c0.586-0.042,1.125,0.082,1.619,0.372c0,0.134-0.009,0.387-0.009,0.521
		c-0.146,0.067-0.436,0.201-0.583,0.271c-0.019,0.194-0.056,0.585-0.074,0.783c0.477-0.144,0.879-0.419,1.207-0.789
		c0.144-0.076,0.433-0.222,0.576-0.295c0.007,0.663,0.007,1.323-0.003,1.987c1.248,0.183,0.776-1.114,0.865-1.884
		c0.244,0.021,0.733,0.07,0.978,0.095c-0.015,0.573-0.026,1.142-0.038,1.709c-0.232,0.015-0.703,0.031-0.94,0.046
		c0.004,0.205,0.012,0.621,0.016,0.829c0.591,0.003,1.185,0.01,1.779,0.021c0.012-0.22,0.034-0.664,0.045-0.881
		c0.618,0,1.237,0.002,1.859,0.01c-0.003,0.223-0.003,0.663-0.003,0.886c0.172-0.004,0.52-0.021,0.692-0.026
		c0.007-0.631,0.319-0.944,0.937-0.937c-0.019,0.639,0.357,0.97,0.94,1.09c0.049-0.629,0.168-1.278,0.933-1.062
		c0.041,0.188,0.121,0.565,0.161,0.748c-0.218,0.067-0.654,0.205-0.872,0.271c-0.065,0.547-0.422,0.86-0.929,1
		c-0.056,0.158-0.171,0.471-0.227,0.625c-0.24,0.138-0.717,0.417-0.954,0.55c0.264,0.125,0.789,0.37,1.057,0.49
		c0.011,0.211,0.03,0.633,0.041,0.843c0.207,0.031,0.617,0.083,0.824,0.113c0.131-0.71-0.02-1.22-0.846-1.092
		c-0.017-0.221-0.041-0.664-0.056-0.887c0.245,0.021,0.732,0.071,0.978,0.097c0,0.208,0.004,0.624,0.004,0.832
		c0.595,0.003,1.193,0.011,1.786,0.019c0.007-0.231,0.019-0.699,0.023-0.935c0.218,0.039,0.655,0.114,0.874,0.157
		c0.164,0.634-0.463,0.75-0.821,1.075c-0.087,0.752-0.044,1.508-0.027,2.264c1.048,0,1.182,1.373,0,1.209
		c-0.011,0.851-0.013,1.696-0.013,2.55c0.186,0.008,0.56,0.022,0.748,0.03c0.035,0.662,0.293,1.117,1.058,0.955
		c-0.005,0.594-0.005,1.188-0.005,1.783c-0.564-0.017-1.132-0.028-1.692-0.039c-0.044,0.205-0.136,0.616-0.18,0.823
		c-0.414,0.15-0.788,0.388-1.076,0.724c0.644,0.181,1.347,0.359,1.326,1.188c-0.962,0-1.926,0.004-2.884,0.021
		c-0.03,0.202-0.086,0.613-0.112,0.814c0.875,0.031,1.756,0.051,2.637,0.047c0.237-0.714,0.989-1.054,1.167-1.803
		c0.206,0.004,0.619,0.019,0.831,0.02c0,0.581,0.004,1.16,0.012,1.742c-0.234,0.035-0.703,0.109-0.938,0.144
		c-0.045,0.744,0.268,1.872-0.842,1.892c-0.015,0.185-0.048,0.552-0.064,0.736c-1.822-0.018-3.641,0.056-5.457-0.02
		c-0.195-0.756,0.113-1.072,0.929-0.947c-0.003-0.212-0.007-0.627-0.012-0.834c-0.206,0.004-0.624,0.017-0.831,0.02
		c0.233,1.226-1.271,1.163-1.109-0.02c-0.572,0.004-1.147,0.004-1.72,0.011c0.004-0.557,0.004-1.107,0.004-1.658
		c-0.545-0.064-0.831-0.434-0.973-0.926c-0.746-0.146-0.934-1.002-1.667-1.146c-0.008,0.618-0.011,1.232-0.008,1.85
		c-0.221,0.031-0.662,0.096-0.88,0.124c-0.027,0.193-0.074,0.578-0.099,0.771c0.644,0.021,1.286,0.045,1.933,0.071
		c0.008,0.68-0.338,1.018-1.038,1.016c0.004,0.846,1.133,0.793,1.058,1.68c-1.58,0.031-3.159,0.037-4.736-0.049
		c0.054-0.22,0.153-0.654,0.204-0.877c0.874,0.017,1.742,0.019,2.613,0.019c0-0.184,0-0.556-0.003-0.741
		c-0.622-0.076-1.011-0.396-1.004-1.057c-0.73,0.049-1.848-0.23-1.821,0.871c-0.561,0.025-1.12,0.049-1.682,0.07
		c0.004,0.205,0.012,0.606,0.015,0.81c0.233,0.022,0.697,0.07,0.925,0.097c0,0.216,0,0.652,0,0.864c-0.612,0-1.226,0-1.839,0
		c0.003-1.499,0.003-3-0.007-4.5c0.237-0.031,0.713-0.095,0.951-0.13c-0.011,0.618-0.019,1.234-0.026,1.852
		c0.218,0.021,0.651,0.067,0.865,0.092c0.012-0.574,0.02-1.142,0.023-1.709c-0.77-0.14-1.023-1.013-1.806-1.129
		c-0.016-0.549-0.023-1.1-0.026-1.645c-0.613-0.036-1.226-0.078-1.841-0.126c0.309-0.505,1.555-1.288,0.727-1.817
		c-0.838,0.255-1.354,1.141-1.716,1.894c-0.846,0.009-1.692,0.005-2.538,0.014c-0.012-0.938-0.017-1.874-0.004-2.807
		c1.279-0.204,0.817,1.116,0.911,1.9c0.198-0.025,0.59-0.076,0.785-0.101c0.114-0.865,0.072-1.737,0.083-2.607
		c-0.884-0.004-1.771,0.013-2.652-0.056c-0.214-0.623,0.076-0.955,0.864-0.987c0.008-0.55,0.017-1.1,0.023-1.65
		c-0.233-0.007-0.708-0.019-0.941-0.021c0.007,0.645,0.016,1.29,0.022,1.94c-0.214-0.057-0.643-0.165-0.858-0.217
		c-0.112-1.146-0.057-2.303-0.029-3.446c0.485-0.173,0.808-0.557,1.121-0.943c0.478-0.059,0.96-0.08,1.445-0.07
		c0.007,0.604,0.402,0.886,0.948,0.999c0.067,0.507,0.415,0.812,0.87,0.994c0.049-0.599,0.094-1.202,0.135-1.803
		c-0.785,0.004-1.022-0.271-0.71-0.825c1.039-0.562,2.271-0.172,3.4-0.261c-0.003,0.588-0.007,1.186-0.011,1.779
		c0.215-0.006,0.647-0.012,0.862-0.019c0.003-0.886,0.007-1.77,0.003-2.658c-0.952,0-1.903-0.017-2.852-0.06
		c0.086-0.207,0.263-0.619,0.354-0.821c1.471-0.079,2.941-0.008,4.416-0.014c0.034,0.66-0.286,0.989-0.952,0.999
		c0.008,0.56,0.019,1.123,0.026,1.688c0.192,0.008,0.572,0.015,0.764,0.021c0.027-0.241,0.083-0.715,0.11-0.952
		c0.929,0.018,1.854,0.027,2.783,0.039c0.169-1.275-1.109-0.843-1.899-0.925c-0.004-0.9-0.004-1.794,0-2.686
		c0.222,0,0.669,0,0.892,0.002c0.016,0.603,0.03,1.213,0.044,1.818c0.219-0.014,0.647-0.038,0.866-0.051
		C103.817,151.454,103.817,150.538,103.817,149.623z"/>
	<path fill="#38322E" d="M115.728,152.362c0.53-0.419,1.154,0.494,0.625,0.876C115.798,153.708,115.14,152.737,115.728,152.362z"/>
	<path fill="#63432E" d="M91.189,152.411c1.512-0.013,3.024-0.018,4.537,0.002c-0.004,0.185-0.011,0.558-0.014,0.742
		c-0.523,0.099-0.96,0.354-1.182,0.855c-0.975,0.5-2.253,0.089-3.348,0.196C91.181,153.606,91.186,153.009,91.189,152.411z"/>
	<path fill="#ECC917" d="M105.801,152.574c0.621-0.2,0.839,0.002,0.658,0.604C105.83,153.372,105.611,153.175,105.801,152.574z"/>
	<path fill="#FCD618" d="M144.514,152.647c0.132,0.069,0.393,0.205,0.527,0.271c-0.12,0.093-0.365,0.286-0.488,0.38
		C144.543,153.136,144.525,152.809,144.514,152.647z"/>
	<path fill="#F6D516" d="M104.843,153.408c0.603-0.203,0.81,0.008,0.622,0.631C104.862,154.243,104.655,154.032,104.843,153.408z"/>
	<path fill="#F1CF16" d="M110.371,153.441c0.547-0.15,0.733,0.029,0.541,0.542C110.363,154.131,110.183,153.95,110.371,153.441z"/>
	<path fill="#5C3C2F" d="M116.404,153.321c0.268,0.004,0.802,0.004,1.072,0.006c-0.025,0.222-0.082,0.656-0.108,0.875
		c-0.207,0.007-0.622,0.017-0.832,0.02C116.506,153.999,116.438,153.547,116.404,153.321z"/>
	<path fill="#EECE17" d="M104.051,154.413c0.531-0.154,0.699,0.033,0.515,0.566C104.036,155.13,103.861,154.94,104.051,154.413z"/>
	<path fill="#FED316" d="M105.706,154.213c1.524,0.02,3.043,0.006,4.568,0.006c-0.061,0.667-0.425,0.998-1.099,0.991
		c-0.215,1.187,1.202,0.917,1.112-0.074c0.192-0.013,0.576-0.031,0.771-0.037c0.004,0.222,0.016,0.662,0.022,0.884
		c0.219,0.008,0.658,0.024,0.877,0.032c-0.031,0.229-0.091,0.693-0.121,0.928c-1.448-0.037-2.894-0.037-4.334,0
		c-0.022-0.207-0.067-0.616-0.089-0.82c0.471-0.171,1.224-0.168,1.02-0.882c-0.696-0.282-1.208-0.14-1.126,0.711
		c-0.892,0.01-1.779,0.01-2.667-0.002C104.63,155.055,105.95,155.205,105.706,154.213z"/>
	<path fill="#F2D117" d="M111.259,154.416c0.506-0.181,0.682,0.008,0.522,0.562C111.269,155.153,111.096,154.965,111.259,154.416z"
		/>
	<path fill="#FED515" d="M96.384,155.648c0.263-0.339,0.673-0.463,1.065-0.606c0.015,0.21,0.044,0.63,0.061,0.841
		c0.706-0.026,0.805,0.646,1.191,1.06c0.493,0.045,0.983,0.035,1.476-0.033c0.048-0.261,0.153-0.789,0.203-1.053
		c1.044,0.052,0.864,1.373-0.165,1.151c-0.009,0.199-0.023,0.593-0.036,0.793c-0.595-0.012-1.188-0.015-1.783-0.022
		c0.011-0.219,0.031-0.656,0.041-0.869c-0.237-0.004-0.715-0.004-0.951-0.004c0.012,0.202,0.03,0.592,0.042,0.785
		c-0.793-0.066-1.102,0.259-0.93,0.973c0.218,0.038,0.655,0.106,0.876,0.146c0.008,0.196,0.019,0.591,0.027,0.792
		c-1.201,0.004-2.396,0.006-3.592,0.01c0.011-0.538-0.17-1.129,0.12-1.621c0.643-0.513,0.916,0.245,0.854,0.814
		c0.648,0.009,0.956-0.314,0.93-0.985c0.195-0.004,0.579-0.018,0.771-0.02c0.011-0.194,0.037-0.584,0.048-0.778
		c0.248-0.204,0.748-0.606,0.997-0.81C97.317,156.075,96.693,155.792,96.384,155.648z"/>
	<path fill="#FFDA15" d="M102.035,155.115c0.568-0.011,1.136-0.005,1.707,0.019c0.222,0.567-0.033,0.876-0.763,0.928
		c-0.125,0.234-0.372,0.702-0.5,0.935C101.639,156.813,102.214,155.703,102.035,155.115z"/>
	<path fill="#FED715" d="M92.035,156.06c0.587-0.037,1.178-0.075,1.769-0.108c0.016,0.58,0.178,1.19-0.041,1.758
		c-0.154,0.037-0.459,0.116-0.609,0.155c-0.019-0.684-0.406-1.024-1.061-1.06C92.077,156.617,92.05,156.248,92.035,156.06z"/>
	<path fill="#61412E" d="M116.543,156.875c0.206,0.004,0.621,0.017,0.827,0.022c0.031,0.212,0.087,0.635,0.117,0.847
		c-0.267,0.016-0.81,0.042-1.082,0.053C116.441,157.568,116.51,157.107,116.543,156.875z"/>
	<path fill="#FED216" d="M101.278,156.846c0.561,0.06,0.845,0.384,0.854,0.971c0.187-0.004,0.564-0.012,0.753-0.016
		c0.011,0.221,0.037,0.669,0.048,0.893c-0.241,0.008-0.722,0.025-0.959,0.032c0.015,0.503,0.003,1.011,0.082,1.507
		c0.408,0.318,0.885,0.581,0.989,1.15c-0.653,0.024-1.301,0.038-1.952,0.049c-0.008,0.946-0.012,1.896-0.042,2.838
		c-0.809-0.066-0.805-1.104-1.595-1.202c0.057-1.099-1.125-0.677-1.821-0.793c-0.007-0.659-0.451-0.899-1.045-0.96
		c0-0.186,0-0.568,0-0.755c0.527-0.022,1.055-0.041,1.581-0.061c0.116,0.264,0.349,0.786,0.466,1.051
		c1.299,0.206,0.701-1.54-0.244-1.101c0.015-0.586,0.029-1.169,0.049-1.749c0.217,0.009,0.646,0.023,0.861,0.033
		c0,0.601-0.003,1.204,0,1.81c0.621-0.005,1.245-0.01,1.869-0.012c0.051-0.663-0.255-0.996-0.917-1.002
		c-0.007-0.519-0.015-1.037-0.019-1.553C100.834,157.843,101.302,157.538,101.278,156.846z"/>
	<path fill="#F1D016" d="M103.054,157.133c0.542-0.171,0.73,0.009,0.564,0.521C103.073,157.825,102.885,157.651,103.054,157.133z"/>
	<path fill="#F9D914" d="M104.89,157.122c0.527-0.164,0.707,0.021,0.537,0.547C104.894,157.835,104.712,157.654,104.89,157.122z"/>
	<path fill="#FED316" d="M106.59,156.958c0.202-0.004,0.612-0.012,0.816-0.015c-0.003,0.213-0.012,0.639-0.016,0.854
		c1.22,0.021,2.438,0.025,3.656,0.02c0.012,0.228,0.031,0.688,0.041,0.918c0.576-0.004,1.151-0.004,1.729-0.004
		c0.019,0.237,0.055,0.712,0.073,0.945c0.228-0.01,0.675-0.03,0.9-0.04c0-0.899,0-1.788,0-2.686c0.206,0,0.617,0,0.824,0
		c0.002,0.593,0.011,1.184,0.02,1.775c0.284,0.018,0.854,0.054,1.139,0.07c-0.091,0.888-1.276,0.771-1.291,1.692
		c-1.739,0.024-3.476,0.011-5.21,0.002c-0.003-0.172-0.007-0.518-0.011-0.691c0.684-0.033,1.005-0.395,0.964-1.09
		c-0.636-0.005-1.268-0.005-1.9,0c-0.019,0.617-0.019,1.234,0.008,1.858c0.319,0.608,0.818,1.102,1.086,1.746
		c0.549,0.012,1.099,0.018,1.651,0.025c0.016-0.219,0.045-0.654,0.06-0.872c0.874,0,1.75,0,2.622,0.003
		c0.008,0.182,0.019,0.542,0.027,0.723c-0.662,0-1.04,0.352-1.073,1.021c-1.131,0.013-2.263,0.008-3.392-0.02
		c-0.042,0.561-0.083,1.12-0.139,1.686c-0.151,0.048-0.445,0.147-0.595,0.198c-0.087,0.207-0.263,0.616-0.349,0.823
		c-0.208,0.024-0.625,0.07-0.836,0.089c0,0.211,0,0.633,0,0.842c-0.2,0-0.594-0.004-0.79-0.004
		c-0.003-0.211-0.014-0.631-0.019-0.842c-0.244-0.021-0.729-0.053-0.971-0.066c-0.004-0.217-0.012-0.639-0.012-0.848
		c0.817-0.042,1.678,0.134,2.457-0.192c0.437-0.518,0.271-0.805-0.494-0.857c-0.112-0.718-1.142-0.801-0.981-1.588
		c0.184-0.05,0.557-0.145,0.741-0.193c0.022,0.258,0.067,0.774,0.091,1.027c0.252-0.004,0.756-0.013,1.012-0.021
		c-0.1-0.648-0.23-1.294-0.399-1.93c-0.658,0.096-1.476,0.371-1.629-0.541c0.523-0.207,1.271-0.294,1.042-1.06
		c-0.218-0.044-0.654-0.134-0.876-0.18C106.574,158.677,106.582,157.82,106.59,156.958z"/>
	<path fill="#F6D416" d="M103.991,157.93c0.609-0.207,0.82-0.006,0.631,0.618C104.014,158.755,103.802,158.548,103.991,157.93z"/>
	<path fill="#DFBF19" d="M103.019,158.907c0.61-0.214,0.821-0.011,0.625,0.606C103.031,159.723,102.821,159.523,103.019,158.907z"/>
	<path fill="#FED116" d="M104.63,159.66c0.12-0.301,0.369-0.905,0.488-1.208c0.147,0.261,0.444,0.783,0.59,1.043
		c0.412,0.161,0.854,0.314,1.003,0.782c-0.632,0.143-1.299,0.307-1.234,1.121c-0.546,0-1.091,0-1.633,0.004
		c0.004-0.594,0.004-1.188,0.008-1.779C104.046,159.634,104.435,159.649,104.63,159.66z"/>
	<path fill="#65442E" d="M91.211,160.488c0.218-0.008,0.659-0.017,0.877-0.021c0.007,1.238,0.007,2.479-0.012,3.719
		c-0.219-0.004-0.654-0.02-0.872-0.026C91.178,162.934,91.178,161.709,91.211,160.488z"/>
	<path fill="#8F6B27" d="M116.391,160.431c0.277,0.009,0.833,0.021,1.111,0.032c-0.007,0.255-0.015,0.766-0.02,1.018
		c-0.258,0.016-0.784,0.037-1.045,0.051C116.427,161.259,116.401,160.705,116.391,160.431z"/>
	<path fill="#FED815" d="M102.02,162.351c1.218-0.008,2.442,0,3.664,0.06c-0.027,0.196-0.087,0.586-0.117,0.784
		c-1.128,0.021-2.261,0.027-3.39,0.061C102.139,163.026,102.056,162.575,102.02,162.351z"/>
	<path fill="#FED715" d="M113.779,162.327c0.65,0.02,1.304,0.045,1.959,0.079c-0.072,0.583-0.383,0.941-1.002,0.91
		c0.005,0.587-0.333,0.884-0.895,0.943C113.813,163.612,113.793,162.972,113.779,162.327z"/>
	<path fill="#FED815" d="M99.258,164.295c0.368-0.556,1.365,0.037,0.906,0.608C99.792,165.419,98.841,164.835,99.258,164.295z"/>
	<path fill="#FED316" d="M101.245,164.021c0.812,0.364,1.4,1.095,1.809,1.869c0.562,0.038,0.844,0.347,0.839,0.93
		c-0.583,0-1.162,0.004-1.738,0.004c0.159-1.253-1.15-0.793-1.927-0.884c-0.149-0.64,0.261-0.905,0.817-1.047
		C101.098,164.674,101.196,164.238,101.245,164.021z"/>
	<path fill="#FAD416" d="M102.975,164.243c0.891-0.115,1.794-0.081,2.693-0.076c-0.004,0.556-0.275,0.868-0.817,0.941
		c-0.008,0.704-0.323,0.969-0.944,0.801c-0.029-0.217-0.083-0.643-0.111-0.86c-0.241-0.014-0.724-0.044-0.968-0.059
		C102.866,164.807,102.938,164.433,102.975,164.243z"/>
	<path fill="#FFD516" d="M110.156,164.223c0.903-0.056,1.805-0.052,2.709,0.004c-0.011,0.847-0.011,1.698,0,2.55
		c-0.904,0.037-1.806,0.037-2.703,0.015C110.167,165.932,110.164,165.077,110.156,164.223z"/>
	<path fill="#62412E" d="M91.211,165.031c2.099,0.016,4.202,0.007,6.301,0.011c0.002,2.101-0.008,4.201,0.012,6.307
		c-2.111,0.051-4.221,0.023-6.335,0.02C91.186,169.26,91.166,167.146,91.211,165.031z"/>
	<path fill="#7A582B" d="M111.202,165.054c0.553-0.461,1.143,0.524,0.61,0.9C111.259,166.403,110.676,165.431,111.202,165.054z"/>
	<path fill="#FED315" d="M92.065,166.039c1.499-0.094,2.999-0.069,4.5-0.052c0.011,1.498,0.038,2.996-0.057,4.496
		c-1.474-0.027-2.949-0.027-4.424-0.027C92.095,168.985,92.095,167.511,92.065,166.039z"/>
	<path fill="#63432E" d="M92.99,166.826c0.906,0,1.818,0.009,2.731,0.019c0,0.905,0,1.811,0,2.716c-0.911,0-1.825,0-2.735,0
		C92.985,168.647,92.985,167.735,92.99,166.826z"/>
	<path fill="#F1CC17" d="M107.297,167.694c-0.135-1.238,1.196-0.767,1.959-0.883c-0.009,0.617-0.021,1.237-0.033,1.858
		c-0.205,0-0.613,0.008-0.817,0.008c-0.023-0.226-0.061-0.677-0.083-0.904C108.068,167.752,107.557,167.715,107.297,167.694z"/>
	<path fill="#FED516" d="M110.156,167.766c0.564-0.005,1.129-0.016,1.692-0.026c0.02,0.23,0.057,0.681,0.075,0.906
		c-0.601-0.012-1.198-0.019-1.796-0.025C110.134,168.406,110.149,167.981,110.156,167.766z"/>
	<path fill="#DE4017" d="M118.692,168.301c0.135,0.132,0.413,0.392,0.549,0.523c-0.105,1.471,0.173,2.991-0.154,4.428
		c-1.333,0.101-2.668,0.041-4,0.008c0.064-0.171,0.193-0.504,0.261-0.674c1.049-0.019,2.099-0.008,3.151-0.004
		C118.497,171.151,118.504,169.72,118.692,168.301z"/>
	<path fill="#DE4017" d="M89.184,173.281c0.188-1.532-0.586-3.445,0.516-4.695c0.143,1.329,0.181,2.66,0.188,3.996
		c0.979-0.008,1.96-0.015,2.942,0.004c0.076,0.162,0.229,0.488,0.305,0.65C91.817,173.315,90.499,173.304,89.184,173.281z"/>
	<path fill="#FED815" d="M111.999,169.553c0.211,0.017,0.636,0.045,0.849,0.062c0.005,0.205,0.008,0.615,0.012,0.821
		c-0.218,0.013-0.654,0.041-0.869,0.052C111.992,170.253,111.996,169.787,111.999,169.553z"/>
	<path fill="#FED715" d="M114.675,169.608c0.228-0.011,0.692-0.021,0.92-0.028c-0.019,0.233-0.055,0.701-0.078,0.936
		c-0.208-0.021-0.624-0.062-0.832-0.079C114.683,170.228,114.677,169.813,114.675,169.608z"/>
	<path fill="#5C3C2F" d="M106.698,170.415c0.54-0.427,1.129,0.517,0.614,0.895C106.751,171.785,106.134,170.792,106.698,170.415z"/>
	<path fill="#5C3C2F" d="M108.305,170.654c0.357-0.597,1.362,0.018,0.896,0.588C108.832,171.767,107.877,171.201,108.305,170.654z"
		/>
	<path fill="#FED116" d="M90.65,177.212c7.762-3.276,16.753-3.509,24.679-0.662c6.545,2.286,12.203,6.725,16.341,12.242
		c-0.128,0.15-0.387,0.454-0.513,0.604c-4.05,5.301-9.628,9.428-15.934,11.633c-7.5,2.655-15.935,2.575-23.383-0.233
		c-4.792-1.779-9.134-4.689-12.697-8.349c-0.037-0.058-0.116-0.164-0.154-0.222c-0.079-2.305-0.003-4.606-0.035-6.91
		C82.254,181.862,86.237,179.056,90.65,177.212z"/>
	<path fill="#E04B1C" d="M91.32,177.884c0.557-0.189,1.159-0.147,1.743-0.172c7.775,0.032,15.548,0.006,23.32,0.017
		c1.321-0.146,2.61,0.917,2.637,2.258c0.128,1.408-1.218,2.589-2.581,2.483c-7.922,0.007-15.844-0.009-23.768,0.007
		c-1.027,0.062-2.186-0.325-2.606-1.345C89.401,179.944,90.086,178.36,91.32,177.884z"/>
	<path fill="#FED116" d="M106.16,178.546c3.154-0.023,6.306,0,9.458-0.02c0.789,0.016,1.81-0.068,2.289,0.719
		c0.709,0.859-0.008,2.384-1.145,2.327c-3.525,0.064-7.057,0.046-10.582-0.007l0.229-0.43c0.396-0.563,0.323-1.31,0.029-1.899
		C106.368,179.063,106.232,178.723,106.16,178.546z"/>
	<path fill="#F3FAFE" d="M100.506,179.165c0.975-0.35,1.422,0.879,1.975,1.432c0.016-0.592,0.211-1.114,0.587-1.575
		c0.342,0.654,0.692,1.303,1.125,1.904c0.03-0.621,0.058-1.238,0.08-1.851c0.552,0.109,1.256,0.017,1.595,0.575
		c0.41,0.661-0.165,1.662-0.957,1.548c-0.892-0.028-1.876-0.665-2.667,0.014c-0.158-0.232-0.316-0.467-0.475-0.7
		c-0.098,1.117-1.218,0.47-1.846,0.536c-0.33,0.044-0.989,0.139-1.32,0.184c0.112-0.734-0.267-1.711,0.414-2.242
		c0.031,0.594,0.052,1.188,0.068,1.783c0.169,0.006,0.512,0.006,0.68,0.006C99.845,180.188,99.749,179.328,100.506,179.165z"/>
	<path fill="#F2FAFD" d="M109.459,179.157c0.43-0.191,0.794,0.134,1.125,0.357c-0.345,0.056-1.042,0.161-1.392,0.214
		c0.023,0.612,0.192,1.14,0.905,1.172l0.072-0.381c-0.169-0.126-0.515-0.379-0.684-0.508c0.357-0.005,1.072-0.015,1.431-0.018
		c-0.131,1.056-1.033,1.457-1.985,1.111C108.892,180.463,108.557,179.344,109.459,179.157z"/>
	<path fill="#F4FCF8" d="M106.438,179.236c0.294,0.59,0.366,1.336-0.029,1.899C106.018,180.617,106.018,179.737,106.438,179.236z"/>
	<path fill="#F3F9EB" d="M106.883,179.024c0.396,0.362,0.79,0.732,1.181,1.101c0.027-0.287,0.076-0.854,0.102-1.142
		c0.703,0.617,0.358,1.604,0.319,2.393c-0.371-0.358-0.733-0.723-1.098-1.084c-0.016,0.224-0.049,0.682-0.068,0.906l-0.488-0.02
		C106.841,180.463,106.857,179.741,106.883,179.024z"/>
	<path fill="#DE4017" d="M100.631,179.644c0.562-0.414,1.121,0.602,0.621,0.981C100.598,181.37,99.672,179.816,100.631,179.644z"/>
	<path fill="#DE4017" d="M104.833,179.767c0.474-0.39,0.812,0.53,0.446,0.822C104.788,181.013,104.494,180.062,104.833,179.767z"/>
	<path fill="#E04B1C" d="M102.959,180.088"/>
	<path fill="#63432E" d="M84.82,185.229c1.236-0.184,2.494-0.08,3.743-0.099c10.656-0.004,21.31,0.011,31.968-0.008
		c0.473,0.111,1.441-0.195,1.513,0.508c0.368,0.718-0.49,1.286-1.133,1.126c-11.801-0.006-23.603,0.019-35.403-0.011
		C84.624,186.96,84.067,185.753,84.82,185.229z"/>
	<path fill="#352213" d="M131.156,189.396c0.153-0.015,0.464-0.046,0.623-0.063c0.175,2.66,0.036,5.331,0.096,7.994
		c-0.045,0.994,0.095,2.051-0.312,2.987c-2.93,2.528-6.17,4.732-9.69,6.348c-9.845,0.104-19.7,0.015-29.553,0.045
		c-2.212-0.085-4.443,0.153-6.643-0.143c-2.405-1.037-4.605-2.486-6.741-3.991c-0.009-3.368-0.411-6.792,0.209-10.125
		c3.562,3.657,7.904,6.571,12.697,8.349c7.449,2.809,15.883,2.889,23.384,0.232C121.528,198.826,127.106,194.699,131.156,189.396z"
		/>
	<path fill="#63422E" d="M88.273,189.86c9.875-0.113,19.765-0.041,29.64-0.035c0.808-0.119,1.2,0.848,0.741,1.446
		c-0.606,0.2-1.25,0.164-1.87,0.182c-9.413-0.057-18.828,0.039-28.238-0.05C87.626,191.549,87.473,190.105,88.273,189.86z"/>
	<path fill="#FED116" d="M131.561,200.314l0.266-0.229c0.05,2.215,0.02,4.43,0.023,6.648c-3.326-0.039-6.654,0.091-9.98-0.071
		C125.391,205.047,128.631,202.843,131.561,200.314z"/>
	<path fill="#FED116" d="M78.951,206.717c0.007-1.384,0.026-2.765-0.018-4.144c2.136,1.505,4.336,2.954,6.741,3.991
		C83.453,206.932,81.19,206.664,78.951,206.717z"/>
	<path id="Mano_1_" fill="#F9BB8A" d="M59.39,234.15c0.101-8.367,3.096-16.745,8.577-23.103c0.046,7.33-0.042,14.659,0.041,21.983
		c0.128,3.469,3.273,6.229,6.673,6.305c2.208-4.772,4.356-9.576,6.592-14.334c1.918-3.947,6.812-6.009,10.996-4.753
		c0.64,0.222,1.269,0.477,1.881,0.77c1.279,0.74,2.386,1.757,3.248,2.957c0.273,0.415,0.531,0.843,0.775,1.28
		c0.195,0.58,0.392,1.158,0.564,1.748c0.039,0.144,0.109,0.449,0.146,0.596c0.195,1.168,0.195,2.363,0.01,3.534
		c-0.168,0.634-0.38,1.266-0.62,1.881c-0.932,2.093-1.921,4.169-2.867,6.265c12.587-0.032,25.175,0.023,37.758-0.03
		c0.025,6.58-0.038,13.165,0.034,19.749H59.356C59.413,250.717,59.352,242.438,59.39,234.15z"/>
	<path fill="#605B58" d="M98.091,214.36c4.188-1.685,9.382-0.063,11.809,3.755c2.871,4.064,1.938,10.174-1.948,13.254
		c-2.661,2.205-6.441,2.738-9.68,1.646c0.241-0.616,0.452-1.246,0.62-1.88c1.938,0.35,4.018,0.546,5.857-0.316
		c3.167-1.313,5.2-4.901,4.609-8.29c-0.342-2.45-1.881-4.703-4.104-5.809c-2.818-1.534-6.539-1.019-8.886,1.146
		c-0.967,0.872-1.58,2.037-2.22,3.15c-0.613-0.293-1.241-0.547-1.881-0.769C93.299,217.593,95.375,215.328,98.091,214.36z"/>
	<path fill="#37322E" d="M96.368,217.868c2.347-2.164,6.067-2.68,8.886-1.147c2.223,1.106,3.762,3.358,4.104,5.811
		c0.591,3.389-1.442,6.976-4.609,8.29c-1.839,0.863-3.919,0.666-5.857,0.316c0.185-1.17,0.185-2.366-0.01-3.534
		c2.332-0.321,4.691-0.088,7.03-0.209c0.124-2.594,0.196-5.198-0.056-7.784c-2.685,0.039-5.375-0.056-8.062,0.073
		c-0.044,1.434-0.037,2.892-0.398,4.294c-0.862-1.2-1.968-2.219-3.248-2.956C94.788,219.905,95.401,218.739,96.368,217.868z"/>
	<path fill="#605B58" d="M97.794,219.682c2.687-0.13,5.377-0.034,8.062-0.073c0.252,2.588,0.181,5.192,0.056,7.785
		c-2.339,0.12-4.7-0.113-7.03,0.208c-0.038-0.148-0.109-0.45-0.146-0.596c2.25-0.091,4.502-0.081,6.756-0.045
		c0.053-2.261,0.057-4.526,0.027-6.789c-2.417-0.076-4.834-0.072-7.246-0.003c-0.042,1.693-0.121,3.391-0.101,5.087
		c-0.244-0.438-0.502-0.865-0.775-1.28C97.757,222.573,97.75,221.115,97.794,219.682z"/>
	<path fill="#37322E" d="M98.272,220.169c2.412-0.069,4.83-0.073,7.246,0.003c0.03,2.263,0.026,4.528-0.027,6.789
		c-2.253-0.036-4.506-0.046-6.756,0.045c-0.172-0.59-0.369-1.17-0.564-1.75C98.152,223.56,98.23,221.862,98.272,220.169z"/>
</g>
<g id="Capa_2">
	<g>
		<g>
			<path fill="#FFFFFF" d="M-41-11v285.469h507.5V-11H-41z M148.784,261.252c-69.78,0-126.347-56.566-126.347-126.346
				S79.004,8.56,148.784,8.56c69.778,0,126.346,56.566,126.346,126.346S218.563,261.252,148.784,261.252z"/>
		</g>
		<g>
			<path fill="none" stroke="#FFFFFF" stroke-miterlimit="10" d="M-41-11v285.469h507.5V-11H-41z M148.784,261.252
				c-69.78,0-126.347-56.566-126.347-126.346S79.004,8.56,148.784,8.56c69.778,0,126.346,56.566,126.346,126.346
				S218.563,261.252,148.784,261.252z"/>
		</g>
	</g>
</g>
<g id="Capa_5">
	<ellipse fill="#FFCF00" cx="100.441" cy="37.09" rx="11.578" ry="12.06"/>
</g>
<g id="oreja-up">
	<path fill="#002E6E" d="M113.073,40.685c1.227-2.435,2.759-4.769,4.688-6.979c0.028-0.354,0.046-0.709,0.095-1.063
		c-8.152-5.498-18.494-7.195-27.54-10.913c-4.001-1.436-8.312-2.942-12.606-1.925c-4.41,0.851-8.14,3.668-10.836,7.167l-0.502,1.185
		c-3.126,5.937-2.634,13.66,1.868,18.753c2.524,3.251,6.501,4.688,10.276,5.882c0.413,0.14,0.825,0.283,1.238,0.423
		c1.816,0.068,3.641,0.066,5.458,0.054c1.799-1.377,3.308-3.69,4.535-5.267c1.844-2.37,3.606-4.766,6.04-6.567
		c5.479-4.055,9.928-0.38,12.622,4.277C109.67,43.729,111.244,42.051,113.073,40.685z"/>
</g>
<g id="Capa_6">
	<g>
		
			<ellipse transform="matrix(-0.9272 0.3746 -0.3746 -0.9272 204.9581 388.8605)" display="none" opacity="0.2" fill="#424242" enable-background="new    " cx="64.689" cy="214.348" rx="19.492" ry="5.137"/>
		<path fill="#EF5350" d="M35.804,142.858c-15.773,6.372-23.392,24.323-17.02,40.096c6.372,15.771,45.904,31.395,45.904,31.395
			s17.583-38.7,11.209-54.471C69.526,144.105,51.573,136.487,35.804,142.858z M53.816,187.439
			c-8.85,3.574-18.922-0.701-22.497-9.549c-3.576-8.85,0.7-18.921,9.55-22.498c8.849-3.574,18.919,0.703,22.494,9.553
			C66.938,173.792,62.666,183.864,53.816,187.439z"/>
		<path fill="#E53935" d="M39.611,152.279c-10.57,4.271-15.677,16.302-11.406,26.87c4.27,10.567,16.299,15.673,26.87,11.403
			c10.565-4.271,15.673-16.3,11.403-26.866C62.208,153.116,50.177,148.01,39.611,152.279z M52.555,184.316
			c-7.125,2.879-15.234-0.563-18.112-7.688c-2.88-7.127,0.563-15.234,7.688-18.113c7.123-2.877,15.234,0.563,18.111,7.689
			C63.121,173.328,59.678,181.438,52.555,184.316z"/>
	</g>
</g>
</svg>
