<?xml version="1.0" encoding="utf-8"?>
<!-- Generator: Adobe Illustrator 16.0.0, SVG Export Plug-In . SVG Version: 6.00 Build 0)  -->
<!DOCTYPE svg PUBLIC "-//W3C//DTD SVG 1.1//EN" "http://www.w3.org/Graphics/SVG/1.1/DTD/svg11.dtd" [
	<!ENTITY ns_extend "http://ns.adobe.com/Extensibility/1.0/">
	<!ENTITY ns_ai "http://ns.adobe.com/AdobeIllustrator/10.0/">
	<!ENTITY ns_graphs "http://ns.adobe.com/Graphs/1.0/">
	<!ENTITY ns_vars "http://ns.adobe.com/Variables/1.0/">
	<!ENTITY ns_imrep "http://ns.adobe.com/ImageReplacement/1.0/">
	<!ENTITY ns_sfw "http://ns.adobe.com/SaveForWeb/1.0/">
	<!ENTITY ns_custom "http://ns.adobe.com/GenericCustomNamespace/1.0/">
	<!ENTITY ns_adobe_xpath "http://ns.adobe.com/XPath/1.0/">
]>
<svg version="1.1" xmlns:x="&ns_extend;" xmlns:i="&ns_ai;" xmlns:graph="&ns_graphs;"
	 xmlns="http://www.w3.org/2000/svg" xmlns:xlink="http://www.w3.org/1999/xlink" x="0px" y="0px" width="234px" height="237px"
	 viewBox="0 0 234 237" enable-background="new 0 0 234 237" xml:space="preserve">
<metadata>
	<sfw  xmlns="&ns_sfw;">
		<slices></slices>
		<sliceSourceBounds  width="500.083" height="307.77" x="-130.151" y="-48.379" bottomLeftOrigin="true"></sliceSourceBounds>
	</sfw>
</metadata>
<g id="Layer_1" display="none">
	<rect y="0.5" fill="#B8E5FA" width="234" height="237"/>
	<path display="inline" fill="#FFEDAC" d="M93.34,15.05c25.729-5.31,53.49-0.73,75.8,13.27c22.28,13.62,39.061,35.96,45.791,61.2
		c8.329,30.14,2.169,63.911-16.561,89c-2.39-0.02-4.771-0.039-7.16-0.039c-1.85-6.7-9.7-4.82-14.93-4.94
		c0.08-4.351-0.3-8.721,0.2-13.05c1.6-5.91,2.109-12.03,2.93-18.08c0.54-3.971-2.11-8.37-6.19-9.11
		c-6.42-1.17-12.95-1.48-19.45-1.989c-7.08-3.101-14.029-6.48-21.109-9.601c-3.11-1.35-7.33-3.14-6.971-7.25
		c0.241-6.35-0.42-12.79-2.909-18.69c19.409-0.06,38.83,0.03,58.239-0.03c6.03,0.35,11.461-5.3,10.75-11.32
		c-0.069-5.11-4.569-9.69-9.68-9.82c-6.51-0.36-13.029,0.14-19.54-0.23c0.41-5.35-0.7-11.95-6.39-14.09
		c-5.62-1.62-11.6-0.42-17.37-0.8c-0.34-6.47,1.36-14-3.359-19.32c-3.381-4.4-9.161-5.56-14.411-5.21
		c-6.29,0.3-13.95-1.4-18.729,3.84c-4.51,4.16-3.8,10.79-3.78,16.35c-2.08,0.83-4.22,1.57-6.14,2.74c-2.56,1.53-3.93,4.3-5.48,6.72
		c-17.11-7.03-35.46-10.46-53.78-12.47C48.11,33.3,69.73,19.83,93.34,15.05z"/>
	<path display="inline" fill="#FFFFFF" d="M102.29,38.79c4.78-5.24,12.44-3.54,18.729-3.84c5.25-0.35,11.03,0.81,14.411,5.21
		c4.72,5.32,3.02,12.85,3.359,19.32c5.771,0.38,11.75-0.82,17.37,0.8c5.689,2.14,6.8,8.74,6.39,14.09
		c6.511,0.37,13.03-0.13,19.54,0.23c5.11,0.13,9.61,4.71,9.68,9.82c0.711,6.02-4.72,11.67-10.75,11.32
		c-19.409,0.06-38.83-0.03-58.239,0.03c-6.45-15.25-21.09-25.05-35.89-31.17c1.55-2.42,2.92-5.19,5.48-6.72
		c1.92-1.17,4.06-1.91,6.14-2.74C98.49,49.58,97.78,42.95,102.29,38.79z"/>
	<path display="inline" fill="#FC9000" d="M20.69,72.1c3.34-7.12,7.6-13.77,12.42-19.97c18.32,2.01,36.67,5.44,53.78,12.47
		c14.8,6.12,29.44,15.92,35.89,31.17c2.489,5.9,3.15,12.34,2.909,18.69c-0.359,4.11,3.86,5.9,6.971,7.25
		c7.08,3.12,14.029,6.5,21.109,9.601l-0.319,1.05c-9.15-0.55-18.4-1.55-27.511-0.11c-11.919,1.89-23.069,8.87-29.43,19.21
		c-10.41,0.05-20.83,0.05-31.24,0.03c3.9-9.101,5.89-19.04,5.47-28.95c-0.49-12.33-1.07-24.66-1.58-37
		c-0.05-6.68-4.08-13.38-10.46-15.76c-3.78-1.62-7.95-0.88-11.89-0.46C38.1,70.29,29.4,71.27,20.69,72.1z"/>
	<path display="inline" fill="#002E6E" d="M46.81,69.32c3.94-0.42,8.11-1.16,11.89,0.46c6.38,2.38,10.41,9.08,10.46,15.76
		c0.51,12.34,1.09,24.67,1.58,37c0.42,9.91-1.57,19.85-5.47,28.95c-16.28,0.029-32.55,0-48.83,0.01
		c-8.99-25.66-7.61-54.88,4.25-79.4C29.4,71.27,38.1,70.29,46.81,69.32z"/>
	<path display="inline" fill="#002E6E" d="M88.87,120.14c7.43-0.99,14.8-2.55,22.26-3.25c2.44,0.78,2.53,4.61,0.09,5.36
		c-8.9,1.439-17.81,2.87-26.74,4.15c-1.98-0.601-2.94-3.28-1.44-4.84C84.77,120.48,86.93,120.561,88.87,120.14z"/>
	<path display="inline" fill="#F26000" d="M84.48,126.4c8.93-1.28,17.84-2.711,26.74-4.15c-1.79,4.76-7,6.74-11.57,7.8
		C94.47,130.99,88.1,130.8,84.48,126.4z"/>
	<path display="inline" fill="#FFCF00" d="M125.939,132.25c9.11-1.439,18.36-0.439,27.511,0.11c-0.061,3.609,0.899,7.54,3.83,9.89
		c2.789,2.39,6.689,2.51,9.84,4.189c3.84,4.221,3.561,11.57,9.36,14.051c-0.5,4.329-0.12,8.699-0.2,13.05
		c-0.62,1.93-1.88,3.529-3.25,4.99c-16.95-0.07-33.91-0.011-50.86-0.03c-0.06-6.42-2.101-12.88-6.38-17.74
		c-4.73-5.68-11.93-8.99-19.28-9.3C102.87,141.12,114.02,134.14,125.939,132.25z"/>
	<path display="inline" fill="#002E6E" d="M153.77,131.311c6.5,0.509,13.03,0.819,19.45,1.989c4.08,0.74,6.73,5.14,6.19,9.11
		c-0.82,6.05-1.33,12.17-2.93,18.08c-5.8-2.48-5.521-9.83-9.36-14.051c-3.15-1.68-7.051-1.8-9.84-4.189
		c-2.931-2.35-3.891-6.28-3.83-9.89L153.77,131.311z"/>
	<path display="inline" fill="#F26000" d="M16.44,151.5c16.28-0.01,32.55,0.02,48.83-0.01c10.41,0.02,20.83,0.02,31.24-0.03
		c7.35,0.31,14.55,3.62,19.28,9.3c4.279,4.86,6.32,11.32,6.38,17.74c-2.39,0-4.78,0-7.17,0c-1.22-5.62-3.3-11.42-7.88-15.181
		c-1.27-1.149-3.04-0.119-4.48-0.02c0.7,3.92,3.92,6.551,5.43,10.101c0.74,1.66,1.31,3.39,1.91,5.1c-2.94,0-5.88,0-8.81,0
		c-1.11-5.681-3.22-11.62-7.98-15.25c-1.75-1.77-5.25,0.45-3.62,2.71c2.81,3.84,5.59,7.771,6.56,12.54
		c-21.78,0.02-43.57-0.04-65.36,0.03C24.73,170.26,19.94,161.12,16.44,151.5z"/>
	<path display="inline" fill="#FC9000" d="M89.57,165.96c-1.63-2.26,1.87-4.479,3.62-2.71c4.76,3.63,6.87,9.569,7.98,15.25
		c-1.68-0.01-3.36-0.01-5.04,0C95.16,173.73,92.38,169.8,89.57,165.96z"/>
	<path display="inline" fill="#FC9000" d="M102.64,163.3c1.44-0.1,3.21-1.13,4.48,0.02c4.58,3.761,6.66,9.561,7.88,15.181
		c-1.67-0.01-3.34,0-5.02,0c-0.6-1.71-1.17-3.439-1.91-5.1C106.56,169.851,103.34,167.22,102.64,163.3z"/>
	<path display="inline" fill="#F24100" d="M176.28,173.54c5.229,0.12,13.08-1.76,14.93,4.94c-6.06,0.039-12.12,0-18.18,0.05
		C174.4,177.069,175.66,175.47,176.28,173.54z"/>
	<path display="inline" fill="#002E6E" d="M30.77,178.53c21.79-0.07,43.58-0.011,65.36-0.03c1.68-0.01,3.36-0.01,5.04,0
		c2.93,0,5.87,0,8.81,0c1.68,0,3.35-0.01,5.02,0c2.39,0,4.78,0,7.17,0c16.95,0.02,33.91-0.04,50.86,0.03
		c6.06-0.05,12.12-0.011,18.18-0.05c2.39,0,4.771,0.02,7.16,0.039c-14.17,19.3-35.17,33.5-58.439,39.23
		c-23.271,5.78-48.551,3.42-70.171-7.01C54.37,203.431,40.91,192.2,30.77,178.53z"/>
</g>
<g id="Capa_8" display="none">
	<path display="inline" fill="#47D5D7" d="M142.764,104.576c-0.33-5.585-3.965-10.084-8.584-13.419
		c-1.844-4.692-7.509-9.403-11.388-10.761c-16.943-5.931-34.445,14.836-32.092,30.482c1.219,8.106,9.149,13.237,16.63,14.526
		c8.189,1.411,16.718-0.438,24.03-4.227C137.511,117.991,143.198,111.933,142.764,104.576z"/>
</g>
<g id="Capa_5" display="none">
	<path display="inline" fill="#47D5D7" d="M147.445,102.082c0.249-2.248,0.087-4.536,0.055-6.915
		c-0.019-1.402-0.508-2.499-1.26-3.292c-0.031-0.076-0.057-0.158-0.089-0.232c-0.221-0.507-0.548-0.93-0.943-1.277
		c-0.198-7.359-0.373-14.79-2.634-20.915c-0.41-1.106-0.884-2.091-1.389-3.017c-0.666-1.065-1.398-2.061-2.191-2.99
		c-2.09-1.992-4.348-3.646-6.747-4.972c-3.809-1.508-8.039-1.844-12.022-1.875c-6.042-0.049-15.719-1.345-17.967,8.67
		c-1.997,8.895-1.104,18.431,0.292,27.416c0.985,1.632,2.041,3.139,3.189,4.488c-0.412,1.595-0.587,3.296-0.677,4.961
		c-0.025,0.466-0.031,0.934-0.032,1.401c-2.774,7.608-5.613,20.52,2.614,24.95c2.774,1.495,5.683,0.313,7.021-2.27
		c4.553,2.195,9.763,4.58,14.502,3.952c1.659-0.22,2.882-1.079,3.674-2.207c1.06,0.127,2.164,0.229,3.286,0.292
		c0.823,0.232,1.671,0.245,2.474,0.059c5.321-0.083,10.492-1.59,12.302-7.254C152.603,115.735,150.55,107.183,147.445,102.082z"/>
</g>
<g id="Capa_2">
	<path fill="#FEFEFE" d="M-130.151-21.891H299.5v35.982c-6.286-0.08-12.57-0.041-18.853-0.053c-1.412,0.007-2.695,0.92-4.123,0.631
		c-1.505-0.228-3.033-0.237-4.538-0.013c0.222,1.486,0.689,2.924,0.889,4.416c-0.205,9.868-0.135,19.754-0.141,29.634
		c-0.077,16.898-0.095,33.804-0.212,50.703c0.067,4.576,0.094,9.149,0.061,13.722c-0.104,2.49-0.459,4.962-0.389,7.461
		c-0.11,2.704,0.273,5.464-0.434,8.114c-0.132-36.317,0.02-72.64-0.063-108.955c-0.112-3.924-1.96-7.712-4.861-10.325
		c-2.666-2.447-6.265-3.728-9.856-3.806C140.797,5.616,24.615,5.616-91.571,5.625c-5.52-0.04-10.798,3.275-13.274,8.185
		c-0.286-0.146-0.856-0.439-1.14-0.588c-0.685,0.811-1.492,1.508-2.36,2.109c-0.021-0.483-0.039-0.971-0.056-1.451
		c-3.915,0.438-7.861-0.114-11.768,0.424c-3.319,0.184-6.703,1.145-9.982,0.154V-21.891z"/>
	<path fill="#34344E" d="M-104.845,13.81c2.476-4.91,7.754-8.225,13.274-8.185C24.615,5.616,140.797,5.616,256.98,5.62
		c3.592,0.079,7.19,1.359,9.856,3.806c2.901,2.612,4.749,6.401,4.861,10.325c0.082,36.314-0.069,72.637,0.063,108.955
		c-0.073,18.434-0.115,36.872-0.003,55.302c-0.067,4.153-0.161,8.313,0.043,12.462c-6.69-0.329-13.399-0.057-20.094-0.146
		c-92.655,0-185.307,0-277.962,0c-21.281,0.018-42.562-0.048-63.843,0.041c0.004-1.176,0.144-2.552-1.158-3.112
		c-1.536-0.962-2.691-2.796-4.683-2.751c-1.683-0.119-3.319,0.896-4.107,2.355c-0.519,1.086-0.557,2.315-0.732,3.484l-0.259,0.036
		c-1.766-0.059-3.533-0.08-5.304-0.044c0.004-8.938,0.087-17.869-0.026-26.799c0.099-19.743,0.047-39.491,0.021-59.233
		c0.057-30.048-0.01-60.093,0.026-90.144C-106.35,17.958-105.78,15.791-104.845,13.81z"/>
	<path fill="#F8F8F8" d="M-108.346,15.332c0.869-0.602,1.676-1.298,2.36-2.109c0.284,0.149,0.854,0.442,1.14,0.588
		c-0.935,1.98-1.504,4.148-1.474,6.348c-0.036,30.05,0.031,60.095-0.026,90.144c-1.653-3.297-0.75-7.102-0.994-10.635
		c0.051-16.972-0.036-33.943-0.08-50.909c-2.329,0.012-4.647-0.208-6.953-0.474c-2.934-0.343-5.828,0.474-8.755,0.441
		c-2.341-0.02-4.682-0.065-7.023-0.034V14.458c3.279,0.991,6.663,0.03,9.982-0.154c3.906-0.538,7.853,0.013,11.768-0.424
		C-108.384,14.361-108.366,14.849-108.346,15.332z"/>
	<path fill="#F8F8F8" d="M276.524,14.669c1.428,0.289,2.711-0.624,4.123-0.631c6.282,0.013,12.566-0.026,18.853,0.053v34.63
		c-8.923-0.043-17.844-0.031-26.766-0.017c0.006-9.879-0.064-19.766,0.141-29.634c-0.199-1.491-0.667-2.93-0.889-4.416
		C273.491,14.432,275.02,14.441,276.524,14.669z"/>
	<path fill="#FFFFFF" d="M-94.482,18.576c80.336-0.017,160.667-0.005,241.003-0.009c36.875-0.032,73.75,0.061,110.623-0.049
		c0.055,4.433-0.02,8.87,0.009,13.303c-20.002-0.145-39.997-0.006-59.999-0.079c-24.068-0.004-48.139,0.064-72.203-0.044
		c-16.178-0.074-32.355-0.039-48.532-0.013c-21.102,0.043-42.202,0.091-63.305,0.061c-2.148,0.03-4.3,0.172-6.435-0.104
		c-4.525-0.304-9.075-0.207-13.596,0.127c-0.395,0.007-1.188,0.021-1.582,0.029c0.033,0.746,0.07,1.492,0.113,2.241
		c0.42,0.104,0.844,0.214,1.276,0.319c-0.452,0.431-0.908,0.856-1.36,1.285c0.865,0.074,1.729,0.148,2.591,0.228
		c-1.222,1.482-2.257,3.35-4.192,3.995c-2.918,1.307-6.438,1.325-9.229-0.324c-1.718-0.896-2.834-2.592-3.541-4.341
		c-0.259-0.544,0.047-1.109,0.152-1.645c0.953,0.36,1.903,0.721,2.86,1.079c-0.005-0.209-0.011-0.627-0.011-0.833
		c-0.008-0.688-0.017-1.376-0.021-2.064c-0.386,0.017-1.148,0.051-1.534,0.074c-0.881,0.04-1.762,0.062-2.639,0.048
		c-3.078-0.205-6.157-0.174-9.233-0.131c-17.687,0.087-35.376,0.005-53.062,0.026c-2.723,0-5.446-0.091-8.155,0.166
		C-94.495,27.471-94.486,23.021-94.482,18.576z"/>
	<path fill="#F6F7F9" d="M-93.67,19.399c11.657-0.162,23.323-0.013,34.981-0.065c88.706,0.004,177.411-0.01,266.116,0.004
		c16.347,0.048,32.697-0.096,49.039,0.048c0.005,1.631,0.362,3.357-0.208,4.922c-1.325,0.444-2.72-0.214-4.073-0.157
		c-106.543-0.005-213.089,0.012-319.632,0.012c-8.755-0.105-17.516,0.125-26.271-0.057C-93.807,22.538-93.785,20.964-93.67,19.399z"
		/>
	<path fill="#96E6E8" d="M-94.482,31.92c2.709-0.257,5.432-0.166,8.155-0.166c17.686-0.021,35.375,0.061,53.062-0.026l0.259,0.233
		c-0.286,8.127,0.074,16.265-0.225,24.394c-0.487-1.978-0.464-4.021-0.464-6.042c0.03-2.859,0.048-5.717-0.153-8.571
		c-0.132,0.275-0.394,0.824-0.527,1.101c-3.188,0.201-6.233,1.305-9.43,1.412c-4.086,0.152-8.177-0.032-12.262,0.091
		c-2.109,0.123-4.051-0.859-6.129-1.008c-1.753-0.164-3.512-0.473-5.279-0.395c-1.854,0.083-3.345,1.706-5.258,1.413
		c-1.104-0.25-1.958-1.11-3.054-1.377c-1.229,0.283-2.18,1.368-3.494,1.332c-2.207,0.022-4.415,0.058-6.618-0.03
		c-1.099-0.025-1.705-1.113-2.463-1.754c0.058,0.596,0.136,1.188,0.188,1.784c-1.202-0.004-2.402-0.03-3.6-0.078
		c-0.101-0.268-0.312-0.812-0.412-1.084c-0.202,0.378-0.403,0.755-0.601,1.132c-0.088-0.701-0.17-1.402-0.258-2.105
		c-0.14,0.132-0.426,0.405-0.566,0.536c-0.14,4.515-0.162,9.037-0.113,13.551c-0.026,1.218-0.026,2.438-0.039,3.656
		c-0.018,3.135-0.12,6.273-0.084,9.414c0.014,3.055-0.012,6.115-0.021,9.17c-0.114,9.094-0.298,18.186-0.282,27.279l-0.192-0.334
		c-0.22-1.069-0.065-2.182-0.101-3.27C-94.469,78.762-94.429,55.341-94.482,31.92z"/>
	<path fill="#CDF2F3" d="M-33.265,31.728c3.076-0.043,6.155-0.074,9.233,0.131c0.118,1.579,0.201,3.157,0.22,4.741
		c-0.677,0.215-1.351,0.429-2.027,0.643c-0.402-0.175-0.806-0.355-1.204-0.53c-1.89,0.719-3.859,0.109-5.706-0.417
		c0.032-1.319,0.11-2.639,0.079-3.96c-0.083-0.095-0.249-0.284-0.336-0.375L-33.265,31.728z"/>
	<path fill="#DBF7F8" d="M-24.032,31.859c0.877,0.014,1.758-0.008,2.639-0.048c0.025,0.65,0.053,1.302,0.077,1.951
		c0.37,0.013,1.111,0.03,1.478,0.039c0,0.206,0.005,0.624,0.011,0.833c-0.957-0.358-1.907-0.719-2.86-1.079
		c-0.105,0.536-0.412,1.101-0.152,1.645c0.707,1.749,1.823,3.445,3.541,4.341c2.79,1.649,6.311,1.631,9.229,0.324
		c1.935-0.645,2.97-2.512,4.192-3.995c0.193-0.258,0.383-0.521,0.57-0.784c0.202,0.658,0.259,1.456,0.846,1.915
		c1.148,0.22,2.324,0.07,3.486,0.059c2.381-0.103,4.84,0.384,7.121-0.545c-0.049,1.604-0.268,3.289,0.403,4.801
		c0.789,1.36,1.972,2.66,3.634,2.813c4.656,0.391,9.335,0.15,13.998,0.105c18.699,0.025,37.389,0.006,56.083,0.006
		c13.306,0.193,26.617-0.177,39.924,0.109c1.679-0.009,3.459-0.759,4.375-2.214c0.538-1.398,0.255-2.95,0.352-4.419
		c0.03-1.078,0.143-2.156,0.232-3.231c0.285,1.886,0.573,3.78,1.064,5.625c0.367-0.553,0.741-1.109,1.113-1.663
		c1.087,1.338,2.832,1.018,4.353,0.896c2.626-0.272,5.271,0.268,7.894-0.155c0.064,0.145,0.202,0.43,0.272,0.574
		c1.173-0.371,2.397-0.665,3.645-0.577c1.852,0.012,3.544,0.911,5.376,1.049c2.108,0.188,4.205-0.475,6.317-0.167
		c1.696,0.259,3.395-0.052,5.076-0.308c1.474-0.275,2.93,0.373,4.409,0.17c1.259-0.241,2.472,0.335,3.724,0.373
		c9.322-0.043,18.642,0.185,27.965,0.303c0.367-0.39,0.732-0.785,1.104-1.171c0.056,7.612-0.042,15.228-0.023,22.84
		c0.005,2.248-0.159,4.501,0.084,6.741c-0.041,7.667-0.067,15.34-0.052,23.013c0.105,7.734-0.216,15.467,0.107,23.196
		c-0.14,11.958-0.116,23.915-0.053,35.877c-0.05,10.473-0.145,20.952-0.021,31.429c-47.253,0.048-94.515,0.003-141.771,0.034
		c-29.599,0.006-59.201-0.055-88.798,0.04c-0.114-23.008-0.052-46.017-0.102-69.02c-0.061-2.043-0.285-4.086-0.192-6.129
		c0.216-5.138-0.11-10.284,0.189-15.419c0.062-7.913,0.044-15.822-0.005-23.73c0.083-3.986,0.149-7.975-0.053-11.952
		c0.299-8.129-0.061-16.266,0.225-24.394c0.087,0.092,0.253,0.28,0.336,0.375c0.031,1.321-0.047,2.641-0.079,3.96
		c1.847,0.526,3.816,1.136,5.706,0.417c0.398,0.175,0.802,0.355,1.204,0.53c0.676-0.214,1.351-0.428,2.027-0.643
		C-23.831,35.016-23.914,33.438-24.032,31.859z"/>
	<path fill="#69DADC" d="M-19.503,31.754c3.542,0.109,7.09,0.132,10.628-0.052c-0.019,1.63,0.608,4.064-1.352,4.787
		c-2.418,0.219-4.857,0.044-7.281,0.067c-0.855,0.073-1.669-0.58-1.89-1.382C-19.547,34.039-19.495,32.894-19.503,31.754z"/>
	<path fill="#E6F7F7" d="M-6.916,31.768c4.521-0.333,9.071-0.431,13.596-0.127c2.135,0.276,4.287,0.134,6.435,0.104
		c0.08,0.25,0.237,0.75,0.316,0.996c17.608,0.066,35.214,0.026,52.821,0.047c3.469-0.052,6.949,0.263,10.4-0.191
		c-0.058-0.228-0.177-0.686-0.232-0.912c16.177-0.026,32.354-0.061,48.532,0.013c0.062,0.93,0.123,1.858,0.194,2.788
		c-0.09,1.075-0.202,2.153-0.232,3.231c-2.466-0.557-4.999-0.457-7.498-0.603c-6.65,0.061-13.301-0.54-19.944,0.035
		c-3.253,0.397-6.47-0.671-9.731-0.356c-1.737,0.224-3.469,0.101-5.148-0.376C71.312,35.814,60,36.252,48.711,36.134
		c-5.765-1.345-11.702,0.057-17.529-0.618c-3.897-0.583-7.837-0.039-11.75-0.465c-1.788,0.145-3.538-0.25-5.299-0.417
		c-1.978,0.203-4.039,0.057-5.902,0.838c-0.456-0.399-0.903-0.802-1.35-1.202c-0.148,2.348-0.184,4.701-0.333,7.046
		c-0.671-1.512-0.452-3.197-0.403-4.801c0.066-1.491,0.157-2.977,0.266-4.467c-3.634-0.197-7.289-0.329-10.92,0.012
		c-0.241,1.013-0.496,2.025-0.797,3.026c-0.188,0.263-0.377,0.526-0.57,0.784c-0.862-0.079-1.726-0.154-2.591-0.228
		c0.453-0.429,0.908-0.854,1.36-1.285c-0.432-0.105-0.855-0.215-1.276-0.319c0.542-0.17,1.087-0.338,1.636-0.504
		C-6.794,33.092-6.872,32.211-6.916,31.768z"/>
	<path fill="#D2E4E7" d="M13.114,31.745c21.103,0.03,42.203-0.018,63.305-0.061c0.056,0.227,0.175,0.684,0.232,0.912
		c-3.451,0.455-6.932,0.14-10.4,0.191c-17.607-0.021-35.213,0.019-52.821-0.047C13.351,32.495,13.194,31.996,13.114,31.745z"/>
	<path fill="#C7EFF0" d="M124.951,31.697c24.064,0.109,48.135,0.04,72.203,0.044c0.188,2.56,0.395,5.125,0.304,7.692
		c-0.372,0.386-0.737,0.782-1.104,1.171c-9.323-0.118-18.643-0.346-27.965-0.303c-1.252-0.038-2.465-0.614-3.724-0.373
		c-1.479,0.202-2.936-0.446-4.409-0.17c-1.682,0.256-3.38,0.567-5.076,0.308c-2.112-0.308-4.209,0.354-6.317,0.167
		c-1.832-0.138-3.524-1.037-5.376-1.049c-1.247-0.088-2.472,0.206-3.645,0.577c-0.07-0.144-0.208-0.429-0.272-0.574
		c-2.622,0.423-5.268-0.117-7.894,0.155c-1.521,0.123-3.266,0.443-4.353-0.896c-0.372,0.553-0.746,1.109-1.113,1.663
		c-0.491-1.845-0.779-3.739-1.064-5.625C125.074,33.555,125.013,32.627,124.951,31.697z"/>
	<path fill="#8DE3E5" d="M197.154,31.742c20.002,0.073,39.997-0.066,59.999,0.079c-0.022,50.256,0.017,100.511-0.055,150.772
		c-19.798-0.099-39.6,0.066-59.396-0.083c2.21-0.312,4.444-0.175,6.671-0.186c17.478-0.017,34.946,0.014,52.419-0.013
		c0.018-3.963,0.1-7.929-0.062-11.886c0.182-8.781,0.03-17.566-0.085-26.349c0.146-4.401,0.085-8.804,0.031-13.205
		c-0.025-0.716-0.031-1.425-0.04-2.136c0.059-4.551,0.236-9.123-0.125-13.665c0.348-6.284-0.026-12.579-0.082-18.871
		c0.391-5.483-0.19-10.987,0.077-16.475c-0.224-6.634,0.061-13.276-0.268-19.896c-0.359,0.158-0.711,0.32-1.057,0.483
		c-0.845-0.391-1.698-0.847-2.651-0.798c-4.093-0.036-8.138-0.816-12.233-0.772c-2.199,0.026-4.375,0.512-6.579,0.46
		c-2.097-0.03-4.207-0.688-6.279-0.141c-3.246,0.732-6.615,0.574-9.862-0.018c-3.175-0.34-6.468-0.539-9.581,0.286
		c-2.95,0.99-5.801-0.899-8.755-0.96c-0.103,0.627-0.173,1.259-0.265,1.884c-0.363,0.014-0.723,0.032-1.082,0.049
		c-0.113,3.1-0.105,6.2-0.143,9.303l-0.234-0.591c-0.243-2.24-0.079-4.494-0.084-6.741c-0.019-7.612,0.079-15.228,0.023-22.84
		C197.549,36.866,197.343,34.301,197.154,31.742z"/>
	<path fill="#7ED6D7" d="M-21.393,31.811c0.386-0.022,1.148-0.057,1.534-0.074c0.004,0.688,0.013,1.376,0.021,2.064
		c-0.367-0.009-1.107-0.026-1.478-0.039C-21.34,33.113-21.367,32.461-21.393,31.811z"/>
	<path fill="#75D4D1" d="M-8.498,31.797c0.394-0.009,1.187-0.022,1.582-0.029c0.044,0.443,0.122,1.324,0.167,1.766
		c-0.548,0.167-1.094,0.334-1.636,0.504C-8.428,33.289-8.465,32.543-8.498,31.797z"/>
	<path fill="#CCF2F2" d="M-4.51,32.061c3.632-0.341,7.287-0.209,10.92-0.012c-0.109,1.49-0.199,2.976-0.266,4.467
		c-2.28,0.929-4.739,0.442-7.121,0.545c-1.162,0.011-2.337,0.161-3.486-0.059c-0.586-0.459-0.644-1.257-0.846-1.915
		C-5.006,34.085-4.751,33.074-4.51,32.061z"/>
	<path fill="#85E4E8" d="M-15.654,33.004c1.083-0.268,2.341-0.242,3.07,0.723C-13.545,34.06-15.996,34.748-15.654,33.004z"/>
	<path fill="#FEFEFF" d="M6.881,34.27c0.447,0.4,0.894,0.803,1.35,1.202c1.863-0.781,3.924-0.635,5.902-0.838
		c1.761,0.167,3.512,0.562,5.299,0.417c3.912,0.426,7.852-0.118,11.75,0.465c5.827,0.675,11.764-0.727,17.529,0.618
		c11.289,0.118,22.601-0.319,33.88,0.281c1.68,0.478,3.411,0.601,5.148,0.376c3.262-0.315,6.479,0.753,9.731,0.356
		c6.644-0.575,13.294,0.026,19.944-0.035c2.499,0.146,5.032,0.046,7.498,0.603c-0.097,1.469,0.187,3.021-0.352,4.419
		c-0.916,1.455-2.696,2.205-4.375,2.214c-13.307-0.286-26.618,0.084-39.924-0.109c-18.694,0-37.384,0.02-56.083-0.006
		c-4.663,0.044-9.341,0.285-13.998-0.105c-1.663-0.153-2.845-1.454-3.634-2.813C6.697,38.971,6.732,36.618,6.881,34.27z"/>
	<path fill="#DEEBEC" d="M12.834,37.733c0.68-0.696,1.605-0.959,2.56-0.898c3.209,0.076,6.424-0.171,9.632,0.105
		c9.211-0.24,18.436-0.146,27.655-0.167c7.883,0.069,15.78-0.249,23.661,0.062c2.145,0.236,4.311-0.027,6.449,0.207
		c0.583,0.083,0.979,1.166,0.123,1.205c-1.718,0.448-3.517,0.026-5.265,0.093c-20.019,0.052-40.037-0.074-60.055-0.074
		C16.007,38.199,14.286,38.573,12.834,37.733z"/>
	<path fill="#8FE4E6" d="M-33.848,41.742c0.201,2.854,0.184,5.711,0.153,8.571c-0.312,0.614-0.641,1.219-0.973,1.819
		c-13.417,0.158-26.836-0.013-40.247,0.097c-3.214,0.434-6.429-0.184-9.647-0.044c-2.45,0.031-4.905-0.03-7.351,0.05
		c-0.614,1.335-1.271,2.661-1.811,4.028c-0.049-4.515-0.026-9.037,0.113-13.551c0.14-0.131,0.426-0.403,0.566-0.536
		c0.088,0.703,0.17,1.404,0.258,2.105c0.198-0.376,0.399-0.754,0.601-1.132c0.101,0.272,0.312,0.817,0.412,1.084
		c1.197,0.047,2.397,0.073,3.6,0.078c-0.053-0.597-0.131-1.188-0.188-1.784c0.758,0.641,1.364,1.729,2.463,1.754
		c2.203,0.088,4.411,0.052,6.618,0.03c1.313,0.036,2.265-1.049,3.494-1.332c1.096,0.267,1.951,1.127,3.054,1.377
		c1.913,0.293,3.403-1.329,5.258-1.413c1.767-0.078,3.526,0.231,5.279,0.395c2.078,0.149,4.02,1.131,6.129,1.008
		c4.085-0.124,8.176,0.061,12.262-0.091c3.197-0.107,6.243-1.211,9.43-1.412C-34.242,42.565-33.98,42.017-33.848,41.742z"/>
	<path fill="#FFFFFF" d="M149.198,43.583c4.628-1.86,10.239-1.279,14.258,1.721c3.447,2.377,5.597,6.342,6.16,10.445
		c0.646,3.099-0.533,6.169-1.9,8.895c-1.053,2.188-2.916,3.849-4.896,5.195c-1.604,1.153-3.634,1.306-5.414,2.065
		c0.313,10.535-0.06,21.083,0.149,31.624c-0.06,11.535,0.022,23.069-0.074,34.604c0.153,1.464-0.877,2.512-1.833,3.45
		c-23.069-0.091-46.142-0.098-69.213-0.057c-1.367-0.015-2.761,0.141-4.1-0.185c-1.345-0.402-1.683-1.973-1.687-3.196
		c0.061-28.076,0-56.156,0.039-84.229c-0.141-1.552,0.982-3.301,2.657-3.262c19.355-0.118,38.716,0.109,58.072-0.105l0.293-0.013
		C143.594,47.679,145.92,44.862,149.198,43.583z"/>
	<path fill="#F2F2F3" d="M-123.128,48.725c2.928,0.033,5.822-0.785,8.755-0.441c2.306,0.267,4.625,0.486,6.953,0.474
		c0.044,16.965,0.131,33.937,0.08,50.909c-2.794-0.285-5.608-0.874-8.405-0.282c-4.793,0.821-9.637-0.832-14.407,0.067V48.69
		C-127.81,48.66-125.469,48.705-123.128,48.725z"/>
	<path fill="#C9F2F2" d="M93.547,49.273c3.885-0.359,7.786,0.023,11.671-0.308c3.202-0.104,6.405,0.018,9.606-0.017
		c3.231,0.543,6.515,0.512,9.785,0.509c5.516-0.807,11.108-0.041,16.647-0.543c0.086,0.538,0.158,1.083,0.161,1.634
		c-19.356,0.215-38.717-0.013-58.072,0.105c-1.675-0.039-2.798,1.71-2.657,3.262c-0.039,28.073,0.021,56.153-0.039,84.229
		c0.004,1.224,0.342,2.794,1.687,3.196c1.339,0.325,2.732,0.17,4.1,0.185c23.071-0.041,46.144-0.034,69.213,0.057
		c0.256,0.03,0.765,0.084,1.018,0.114c-0.98,0.944-2.135,1.903-3.595,1.782c-4.846,0.046-9.676,0.405-14.512,0.466
		c-1.882,0.216-3.757-0.499-5.622-0.078c-1.222,0.256-2.423-0.294-3.646-0.252c-6.386,0.533-12.811,0.102-19.216,0.252
		c-4.917-0.363-9.838,0.149-14.761-0.15c-4.248,0.25-8.52-0.034-12.732-0.613c-1.136-0.084-1.715-1.167-2.187-2.053
		c-0.585-1.191-1.431-2.408-1.215-3.804c0.188-2.179,0.201-4.368,0.171-6.546c-0.018-2.057-0.668-4.038-0.723-6.096
		c1.139-1.805,0.78-4.037,0.56-6.04c-0.445-2.766-0.004-5.577-0.355-8.353c-0.215-1.84-0.122-3.704,0.36-5.497
		c0.32-3.604,0.097-7.238,0.153-10.856c0.14-1.275-0.912-2.28-0.851-3.533c0.159-2.784,0.943-5.512,0.886-8.312
		c-0.062-2.333,0.045-4.669-0.026-6.999c0.009-0.675-0.364-1.249-0.653-1.828c0.421-1.758,0.412-3.565,0.482-5.358
		c0.565-4.862-0.289-9.723-0.07-14.59c0.434-2.455,2.895-3.674,5.112-4.091C87.335,48.795,90.434,49.545,93.547,49.273z"/>
	<path fill="#F2F2F3" d="M272.734,48.705c8.922-0.015,17.843-0.027,26.766,0.017v50.864c-3.219-0.131-6.45,0.114-9.646-0.346
		c-5.788-0.697-11.54,0.837-17.332,0.167C272.64,82.509,272.657,65.604,272.734,48.705z"/>
	<path fill="#8CC34A" d="M160.652,50.132c0.737-1.297,2.796-1.144,3.546,0.066c0.382,1.017,0.149,2.13-0.526,2.964
		c-2.787,4.086-5.471,8.242-8.357,12.254c-0.778,1.349-2.855,1.398-3.559-0.044c-1.859-3.253-3.703-6.524-5.396-9.864
		c-0.971-1.698,1.244-3.885,2.87-2.732c2.162,1.968,2.631,5.225,4.688,7.287C156.096,56.708,158.359,53.408,160.652,50.132z"/>
	<path fill="#85E2E3" d="M-34.667,52.131c0.332-0.6,0.661-1.205,0.973-1.819c0,2.021-0.022,4.064,0.464,6.042
		c0.202,3.977,0.136,7.966,0.053,11.952l-0.525-0.629l-0.023-0.385c0.083-3.212,0.036-6.427-0.03-9.636
		c-0.544,0.71-1.18,1.482-2.166,1.464c-3.183,0.265-6.382,0.044-9.575,0.022c-1.354,0.013-2.651,0.5-4.007,0.556
		c-1.5-0.029-2.881-0.718-4.349-0.919c-1.518-0.281-2.613,1.833-4.1,0.996c-2.327-0.97-4.879-0.47-7.318-0.544
		c-2.065,0.062-4.099-0.303-6.146-0.473c-1.974-0.192-3.705,1.32-5.7,0.88c-4.73-0.814-9.536-0.144-14.292-0.568
		c-0.732-0.194-0.852,0.715-1.258,1.099c-0.365-0.087-0.732-0.165-1.096-0.249c0.013-1.219,0.013-2.438,0.039-3.656
		c0.54-1.367,1.197-2.692,1.811-4.028c2.446-0.08,4.901-0.019,7.351-0.05c3.218-0.14,6.433,0.478,9.647,0.044
		C-61.504,52.118-48.084,52.29-34.667,52.131z"/>
	<path fill="#47D5D7" d="M86.115,58.801c-0.324-1.684,0.373-4.123,2.521-3.842c17.204-0.026,34.406,0.013,51.613-0.026
		c-0.389,3.494,0.143,7.194,2.088,10.175c2.149,3.473,5.753,5.928,9.734,6.784c0.021,15.502-0.02,31,0.021,46.502
		c-0.052,0.816,0.078,1.779-0.554,2.419c-0.717,0.789-1.871,0.771-2.848,0.789c-2.951-0.025-5.897,0.009-8.847-0.012
		c0.273-5.266-1.313-10.436-1.021-15.684c1.418-0.916,1.727-2.635,1.611-4.204c-0.047-0.67-0.688-0.944-1.135-1.307
		c-0.105-2.771-0.482-5.529-1.038-8.247c-0.649-3.047-2.192-5.77-3.569-8.522c3.072-2.674,4.252-6.832,4.062-10.794
		c-0.168-2.963-0.188-6.428-2.419-8.682c-1.368-1.366-3.429-0.575-4.873,0.229c-2.939,1.753-5.257,4.38-7.196,7.164
		c-0.942,1.306-1.508,2.845-1.739,4.437c-1.219,0.014-2.434,0.093-3.648,0.17c0.325,0.128,0.648,0.255,0.982,0.377
		c-0.513,0.023-1.019,0.057-1.519,0.105c-0.371-2.04-1.095-4.029-2.401-5.659c-2.162-2.688-4.683-5.188-7.804-6.735
		c-0.246-0.184-0.74-0.548-0.985-0.733c-0.826-0.029-1.645-0.056-2.465-0.079c-0.232,0.307-0.461,0.618-0.68,0.935
		c-2.415,3.359-2.191,7.729-1.937,11.649c0.258,3.498,2.055,6.953,5.252,8.605c-2.465,4.199-3.938,8.86-5.195,13.539
		c-2.074,0.271-1.999,2.867-1.745,4.437c0.64,2.183,0.045,4.424-0.176,6.62c-0.562,4.103-0.391,8.25-0.473,12.378
		c-3.715-0.074-7.432,0.143-11.142-0.045c-1.192-0.014-2.516-0.926-2.449-2.22C86.115,99.158,86.137,78.976,86.115,58.801z"/>
	<path fill="#7DE0E3" d="M-33.756,57.656c0.066,3.209,0.114,6.424,0.03,9.636c-0.342,0.934-0.714,1.855-1.07,2.781
		c-4.599,0.245-9.206-0.005-13.81,0.095c-3.77,0.105-7.509-0.464-11.271-0.564c-2.948,0.217-5.918,0.958-8.874,0.401
		c-4.346-1.033-8.773,0.303-13.153,0.146c-1.228-0.071-2.372,0.437-3.578,0.557c-0.772-0.414-1.39-1.199-2.28-1.344
		c-0.218,0.553-0.42,1.114-0.6,1.685c-1.959-0.088-3.675-1.097-5.485-1.718c-0.036-3.141,0.066-6.279,0.084-9.414
		c0.363,0.084,0.73,0.162,1.096,0.249c0.407-0.384,0.526-1.292,1.258-1.099c4.756,0.424,9.562-0.246,14.292,0.568
		c1.996,0.44,3.727-1.072,5.7-0.88c2.047,0.17,4.081,0.535,6.146,0.473c2.438,0.075,4.991-0.426,7.318,0.544
		c1.487,0.838,2.582-1.276,4.1-0.996c1.468,0.202,2.849,0.891,4.349,0.919c1.355-0.056,2.653-0.543,4.007-0.556
		c3.193,0.022,6.393,0.242,9.575-0.022C-34.937,59.138-34.301,58.366-33.756,57.656z"/>
	<path fill="#77DFE2" d="M199.242,58.371c2.954,0.062,5.805,1.951,8.755,0.96c3.113-0.825,6.406-0.626,9.581-0.286
		c3.247,0.592,6.616,0.75,9.862,0.018c2.072-0.548,4.183,0.11,6.279,0.141c2.204,0.052,4.38-0.435,6.579-0.46
		c4.096-0.044,8.141,0.737,12.233,0.772c0.953-0.049,1.807,0.407,2.651,0.798c0.346-0.164,0.697-0.326,1.057-0.483
		c0.328,6.621,0.044,13.262,0.268,19.896c-0.745-0.776-1.687-1.285-2.682-1.654c-0.313-0.57-0.611-1.144-0.906-1.719
		c-1.174-0.021-2.338-0.025-3.51-0.025c-0.057,0.491-0.111,0.981-0.158,1.473c-5.596-0.413-11.222-0.341-16.818-0.118
		c-3.642,0.575-7.327,0.302-10.995,0.411c-2.498,0.079-4.954-0.715-7.452-0.459c-1.693,0.167-3.412,0.346-5.096-0.005
		c-2.981-0.701-5.95,0.575-8.958,0.247c-0.655-0.987-1.517-1.886-1.919-3.017c-0.247-1.742-0.067-3.507-0.261-5.253
		c0.037-3.103,0.029-6.203,0.143-9.303c0.359-0.017,0.719-0.035,1.082-0.049C199.069,59.629,199.14,58.998,199.242,58.371z"/>
	<path fill="#93C391" d="M104.688,63.429c0.82,0.023,1.639,0.05,2.465,0.079c0.245,0.185,0.739,0.549,0.985,0.733
		c-1.376-0.171-2.771-0.115-4.13,0.123C104.227,64.047,104.455,63.736,104.688,63.429z"/>
	<path display="none" fill="#FB8C00" d="M131.463,64.381c1.444-0.804,3.505-1.595,4.873-0.229c2.231,2.254,2.251,5.718,2.419,8.682
		c0.19,3.962-0.989,8.12-4.062,10.794c-0.75-1.508-1.79-2.856-3.003-4.012c0.756-2.276,1.914-4.446,2.283-6.826
		c-0.354-1.609-2.38-2.123-3.671-1.36c-1.144,1.711-1.566,3.771-2.384,5.634c-1.637-0.707-3.441-0.859-5.2-0.693l-0.191-0.39
		c0.231-1.591,0.797-3.13,1.739-4.437C126.206,68.761,128.523,66.135,131.463,64.381z"/>
	<path display="none" fill="#FFA624" d="M104.008,64.364c1.359-0.237,2.754-0.293,4.13-0.123c3.121,1.547,5.642,4.046,7.804,6.735
		c1.307,1.63,2.03,3.619,2.401,5.659c-1.866,0.492-3.672,1.214-5.347,2.171c0.083-2.385-1.399-4.485-2.367-6.577
		c-1.093-2.086-4.709-0.367-3.846,1.829c0.807,2.481,2.003,4.835,3.212,7.151c-0.988,1.056-1.919,2.174-2.672,3.41
		c-3.197-1.653-4.994-5.108-5.252-8.605C101.816,72.093,101.593,67.723,104.008,64.364z"/>
	<path fill="#71DFE0" d="M-34.796,70.073c0.356-0.926,0.729-1.847,1.07-2.781l0.023,0.385c0.152,3.167-0.348,6.305-0.523,9.458
		c-2.188,0.004-4.345,0.358-6.52,0.504c-1.668-0.216-3.327-0.992-5.037-0.51c-6.356,1.685-12.877-0.675-19.299,0.302
		c-3.022,0.549-6.099-0.011-9.119,0.488c-1.145,0.127-2.302,0.425-3.454,0.263c-1.466-0.329-2.912-1.096-4.455-0.812
		c-1.539,0.294-3.035,0.938-4.635,0.808c-2.38-0.114-4.774-0.101-7.123,0.324c0.009-3.055,0.035-6.116,0.021-9.17
		c1.81,0.621,3.525,1.63,5.485,1.718c0.18-0.57,0.382-1.132,0.6-1.685c0.89,0.145,1.508,0.93,2.28,1.344
		c1.206-0.12,2.35-0.628,3.578-0.557c4.38,0.156,8.807-1.18,13.153-0.146c2.955,0.557,5.926-0.184,8.874-0.401
		c3.762,0.1,7.501,0.669,11.271,0.564C-44.002,70.067-39.395,70.317-34.796,70.073z"/>
	<path fill="#63DBDD" d="M-33.703,67.677l0.525,0.629c0.049,7.908,0.067,15.817,0.005,23.73c-0.105,0.509-0.229,1.017-0.36,1.528
		c-0.465,1.056-0.728,2.182-0.833,3.335c-1.539-0.036-3.066-0.214-4.591-0.405c-1.623-0.196-3.233,0.186-4.845,0.309
		c-4.287,0.319-8.616-0.309-12.881,0.345c-2.284,0.405-4.542-0.398-6.831-0.314c-3.371,0.047-6.742,0.047-10.11,0.018
		c-2.779-0.062-5.52,0.718-8.298,0.408c-1.746-0.132-3.495-0.614-5.248-0.364c-0.64,0.351-1.101,0.99-1.79,1.253
		c-1.231,0.131-2.467-0.083-3.691-0.224c-0.172-0.249-0.509-0.749-0.679-0.999c-0.68,3.06-0.142,6.221-0.545,9.317
		c-0.07-0.12-0.206-0.347-0.276-0.461c-0.016-9.093,0.168-18.186,0.282-27.279c2.349-0.424,4.743-0.438,7.123-0.324
		c1.6,0.13,3.096-0.514,4.635-0.808c1.542-0.284,2.989,0.483,4.455,0.812c1.152,0.162,2.31-0.136,3.454-0.263
		c3.021-0.499,6.097,0.061,9.119-0.488c6.421-0.977,12.942,1.383,19.299-0.302c1.709-0.482,3.368,0.293,5.037,0.51
		c2.175-0.146,4.333-0.5,6.52-0.504C-34.05,73.982-33.55,70.844-33.703,67.677z"/>
	<path fill="#68DBDD" d="M197.519,69.015l0.234,0.591c0.193,1.746,0.014,3.512,0.261,5.253c0.402,1.131,1.264,2.03,1.919,3.017
		c3.008,0.328,5.977-0.948,8.958-0.247c1.684,0.351,3.402,0.172,5.096,0.005c2.498-0.255,4.954,0.538,7.452,0.459
		c3.668-0.109,7.354,0.164,10.995-0.411c5.597-0.223,11.223-0.294,16.818,0.118c0.047-0.492,0.102-0.982,0.158-1.473
		c1.172,0,2.336,0.004,3.51,0.025c0.295,0.575,0.594,1.149,0.906,1.719c0.995,0.369,1.937,0.877,2.682,1.654
		c-0.268,5.488,0.313,10.991-0.077,16.475c-0.155-1.398-0.301-2.801-0.34-4.212c-1.257,0.5-2.609,0.577-3.939,0.531
		c-2.2-0.075-4.359,0.507-6.556,0.341c-2.208-0.167-4.425,0-6.622-0.295c-2.059-0.253-4.063,0.571-6.119,0.382
		c-1.609-0.152-3.205-0.496-4.827-0.468c-9.313,0.149-18.637-0.132-27.953,0.052c-0.438,0.416-0.845,0.868-1.274,1.288
		c-0.26-0.652-0.512-1.31-0.758-1.964c-0.146,0.044-0.431,0.133-0.575,0.172C197.451,84.355,197.478,76.683,197.519,69.015z"/>
	<path display="none" fill="#FECDBE" d="M130.303,71.431c1.291-0.763,3.316-0.249,3.671,1.36c-0.369,2.38-1.527,4.55-2.283,6.826
		c-1.188-0.947-2.459-1.785-3.771-2.552C128.736,75.202,129.159,73.142,130.303,71.431z"/>
	<path display="none" fill="#FECDBE" d="M106.783,74.057c-0.863-2.196,2.753-3.915,3.846-1.829c0.968,2.092,2.45,4.192,2.367,6.577
		c-1.127,0.632-2.132,1.455-3.001,2.403C108.786,78.893,107.59,76.539,106.783,74.057z"/>
	<path fill="#03C4C7" d="M158.091,73.725c0.104,3.94-0.004,7.888,0.052,11.833c-0.113,0.547,0.237,0.995,0.457,1.451
		c-0.141,0.25-0.413,0.744-0.547,0.99c0.175,16.699,0.06,33.403,0.048,50.106C158.091,116.641,158.043,95.181,158.091,73.725z"/>
	<path fill="#A1BD73" d="M118.879,76.152c1.215-0.078,2.43-0.156,3.648-0.17l0.191,0.39c-0.951,0.07-1.907,0.137-2.857,0.157
		C119.527,76.407,119.204,76.28,118.879,76.152z"/>
	<path display="none" fill="#FF9E01" d="M119.861,76.529c0.95-0.021,1.906-0.087,2.857-0.157c1.759-0.167,3.563-0.014,5.2,0.693
		c1.313,0.767,2.583,1.604,3.771,2.552c1.213,1.156,2.253,2.503,3.003,4.012c1.377,2.752,2.92,5.475,3.569,8.522
		c0.556,2.718,0.933,5.477,1.038,8.247c-1.465,0.421-2.902,0.934-4.354,1.399c-0.384-0.644-0.77-1.281-1.17-1.907
		c-0.733-1.447-1.526-3.03-1.185-4.705c0.393-2.17,1.492-4.362,0.781-6.594c-0.343-1.206-1.468-1.893-2.495-2.46
		c-1.552-0.42-3.173-0.389-4.754-0.17c-2.178,0.1-3.77,1.814-4.513,3.74c-1.123,2.731-2.671,5.252-4.498,7.563
		c-1.641,1.745-3.276,3.494-4.753,5.38c-3.562-1.098-7.202-2.25-10.232-4.486c1.258-4.679,2.73-9.339,5.195-13.539
		c0.753-1.236,1.684-2.354,2.672-3.41c0.869-0.948,1.874-1.771,3.001-2.403c1.675-0.957,3.48-1.679,5.347-2.171
		C118.843,76.586,119.349,76.553,119.861,76.529z"/>
	<path display="none" fill="#554226" d="M125.841,82.198c1.251-0.513,2.546,0.518,2.092,1.867c-0.539,1.785-3.53,0.793-2.67-1.03
		c0.285,0.36,1.153,0.895,1.39,0.203C126.627,82.72,126.358,82.373,125.841,82.198z"/>
	<path fill="#F6F8FA" d="M118.283,82.282c0.215,0.083,0.645,0.255,0.86,0.338c0.48,0.592,0.63,1.162-0.268,1.459
		C118.726,83.632,118.427,82.729,118.283,82.282z"/>
	<path display="none" fill="#483E3C" d="M119.144,82.62l-0.158-0.276c1.984-0.413,2.66,2.498,0.809,2.995
		c-1.894,0.342-1.841-1.837-1.511-3.057c0.144,0.448,0.442,1.35,0.593,1.797C119.773,83.782,119.624,83.212,119.144,82.62z"/>
	<path fill="#F6F8FA" d="M125.263,83.035c0.145-0.209,0.435-0.625,0.578-0.837c0.518,0.175,0.786,0.522,0.812,1.04
		C126.416,83.93,125.548,83.396,125.263,83.035z"/>
	<path fill="#FEF4E1" d="M121.611,89.7c0.743-1.925,2.335-3.64,4.513-3.74c-0.207,1.065-0.379,2.389,0.678,3.081
		c0.979,0.186,1.999,0.181,2.977-0.021c0.983-0.601,0.829-1.925,1.1-2.89c1.027,0.567,2.152,1.254,2.495,2.46
		c0.711,2.232-0.389,4.424-0.781,6.594c-0.342,1.675,0.451,3.258,1.185,4.705c-1.092-0.984-1.816-2.263-2.411-3.587
		c-0.863,0.977-0.881,2.28-0.89,3.511c-0.152-0.043-0.461-0.131-0.615-0.171c0.062-0.961,0.067-1.916,0.084-2.873
		c1.162-0.901,2.635-2.581,1.343-4.003c-1.187,0.484-2.369,1.098-3.666,1.151c-1.759,0.086-3.397-0.667-4.993-1.294
		c-0.521,0.688-0.598,1.49-0.267,2.285c0.661,0.832,1.551,1.429,2.489,1.928c-0.034,1.245,0.131,2.485,0.412,3.702
		c-0.181-0.129-0.538-0.388-0.714-0.514c-0.269-1.021-0.299-2.185-0.922-3.06c-1.039-0.444-2.174-0.645-3.3-0.676
		c-1.324,0.013-2.276,1.069-3.268,1.807c0.014-0.207,0.038-0.627,0.054-0.833C118.94,94.952,120.488,92.432,121.611,89.7z"/>
	<path display="none" fill="#424240" d="M126.124,85.96c1.581-0.219,3.202-0.25,4.754,0.17c-0.271,0.965-0.116,2.289-1.1,2.89
		c-0.978,0.202-1.998,0.207-2.977,0.021C125.745,88.35,125.917,87.025,126.124,85.96z"/>
	<path fill="#56D7DA" d="M197.467,92.028c0.145-0.039,0.429-0.127,0.575-0.172c0.246,0.654,0.498,1.312,0.758,1.964
		c0.43-0.42,0.837-0.872,1.274-1.288c9.316-0.185,18.64,0.097,27.953-0.052c1.622-0.028,3.218,0.316,4.827,0.468
		c2.057,0.189,4.061-0.635,6.119-0.382c2.197,0.295,4.414,0.128,6.622,0.295c2.196,0.166,4.355-0.417,6.556-0.341
		c1.33,0.046,2.683-0.031,3.939-0.531c0.039,1.411,0.185,2.813,0.34,4.212c0.056,6.292,0.43,12.586,0.082,18.871
		c-0.627-3.056-0.378-6.186-0.513-9.286c-0.609,0.21-1.217,0.421-1.815,0.635c-0.033,0.711-0.071,1.417-0.103,2.131
		c-2.924-0.207-5.852-0.245-8.778-0.215c-2.335-0.478-4.689,0.176-7.031-0.188c-1.813-0.202-3.62,0.21-5.429,0.2
		c-9.198-0.129-18.399,0.036-27.596-0.025c-2.303-0.087-4.607,0-6.885,0.35c-0.078-1.314-0.184-2.629-0.332-3.936
		c-0.548,3.274-0.027,6.594-0.278,9.881l-0.179,0.604C197.251,107.496,197.572,99.762,197.467,92.028z"/>
	<path fill="#35B2B8" d="M-33.533,93.564c0.131-0.511,0.254-1.019,0.36-1.528c-0.299,5.135,0.027,10.281-0.189,15.419
		c-0.093,2.043,0.132,4.086,0.192,6.129c0.05,23.003-0.012,46.012,0.102,69.02c-12.197,0.203-24.398,0.026-36.591,0.08
		c-8.326-0.058-16.647,0.056-24.967-0.025l0.184-0.146c0.135-0.106,0.403-0.32,0.539-0.425c3.695,0.165,7.396,0.093,11.092,0.052
		c16.418-0.057,32.836,0.078,49.255-0.057c0.04-4.941,0.11-9.89-0.127-14.829c0.221-2.341,0.11-4.689-0.035-7.031
		c0.369-3.397,0.088-6.821,0.136-10.233c-0.087-3.734,0.167-7.466-0.114-11.192c0.188-3.183,0.118-6.368,0.075-9.552
		c0.083-4.876,0.28-9.756,0.022-14.626c0.228-3.354,0.004-6.721,0.013-10.081C-33.362,100.884-33.445,97.219-33.533,93.564z"/>
	<path display="none" fill="#42403E" d="M122.361,94.909c-0.331-0.795-0.254-1.597,0.267-2.285c1.596,0.627,3.234,1.381,4.993,1.294
		c1.297-0.054,2.479-0.667,3.666-1.151c1.292,1.422-0.181,3.102-1.343,4.003c-0.017,0.957-0.022,1.912-0.084,2.873
		c-0.064,0.21-0.206,0.631-0.271,0.843c0.128-1.635,0.221-3.28,0.081-4.92c-0.211-0.172-0.623-0.522-0.834-0.698
		c-1.289-0.069-2.583-0.026-3.871-0.017C124.091,94.865,123.225,94.886,122.361,94.909z"/>
	<path fill="#53D7D9" d="M-34.365,96.899c0.104-1.153,0.368-2.279,0.833-3.335c0.088,3.655,0.17,7.32-0.053,10.975
		c-0.434,1.264-0.509,2.623-0.915,3.88c-1.185,0.774-2.714,0.054-4.025-0.007c-2.075-0.513-4.061,0.562-6.133,0.482
		c-1.667,0.018-3.28-0.486-4.94-0.521c-1.439,0.035-2.829,0.548-4.276,0.477c-2.039-0.109-4.06-0.776-6.112-0.438
		c-2.17,0.342-4.362,0.443-6.555,0.365c-8.592-0.01-17.189-0.088-25.787,0.035c-0.145,0.867-0.289,1.735-0.434,2.607
		c-0.315-0.42-0.641-0.827-0.951-1.244c0.062,4.414-0.298,8.83-0.035,13.239c-0.442,3.411,0.421,6.936-0.587,10.268
		c-0.35-6.83-0.034-13.688-0.132-20.532c0.053-2.564-0.123-5.141,0.127-7.703l0.192,0.334c0.071,0.114,0.207,0.341,0.276,0.461
		c0.403-3.097-0.135-6.258,0.545-9.317c0.17,0.25,0.507,0.75,0.679,0.999c1.224,0.141,2.459,0.355,3.691,0.224
		c0.688-0.263,1.149-0.902,1.79-1.253c1.753-0.25,3.502,0.232,5.248,0.364c2.779,0.311,5.519-0.47,8.298-0.408
		c3.368,0.029,6.739,0.029,10.11-0.018c2.289-0.083,4.547,0.719,6.831,0.314c4.265-0.654,8.594-0.026,12.881-0.345
		c1.612-0.123,3.222-0.504,4.845-0.309C-37.432,96.685-35.904,96.863-34.365,96.899z"/>
	<path display="none" fill="#CF2E33" d="M122.361,94.909c0.863-0.023,1.729-0.044,2.604-0.058l-0.03,0.347
		c-0.027,0.543-0.059,1.091-0.084,1.639C123.912,96.338,123.022,95.741,122.361,94.909z"/>
	<path display="none" fill="#E06A69" d="M124.965,94.852c1.288-0.009,2.582-0.053,3.871,0.017c-1.324,1.418-0.035,3.807-1.582,5.038
		c-0.159-1.565-0.281-3.125-0.436-4.688c-0.632-0.007-1.258-0.017-1.884-0.021L124.965,94.852z"/>
	<path display="none" fill="#F05151" d="M124.935,95.198c0.626,0.003,1.252,0.013,1.884,0.021c0.154,1.563,0.276,3.123,0.436,4.688
		c1.547-1.231,0.258-3.62,1.582-5.038c0.211,0.175,0.623,0.526,0.834,0.698c0.14,1.64,0.047,3.285-0.081,4.92
		c-1.236,1.166-3.059,1.161-4.326,0.053c-0.281-1.217-0.446-2.457-0.412-3.702C124.876,96.29,124.907,95.741,124.935,95.198z"/>
	<path display="none" fill="#D3F2F1" d="M120.327,96.29c1.126,0.031,2.261,0.231,3.3,0.676c0.623,0.875,0.653,2.039,0.922,3.06
		c0.176,0.126,0.533,0.384,0.714,0.514c1.268,1.107,3.09,1.113,4.326-0.053c0.065-0.211,0.207-0.633,0.271-0.843
		c0.154,0.04,0.463,0.127,0.615,0.171c0.009-1.231,0.026-2.534,0.89-3.511c0.595,1.324,1.319,2.603,2.411,3.587
		c0.4,0.626,0.786,1.263,1.17,1.907c-7.255,2.354-15.208,3.077-22.586,0.847c1.477-1.886,3.112-3.635,4.753-5.38
		c-0.016,0.207-0.04,0.626-0.054,0.833C118.051,97.358,119.003,96.303,120.327,96.29z"/>
	<path fill="#9FB987" d="M100.383,102.594c-0.254-1.569-0.329-4.165,1.745-4.437c-1.688,1.259-2.25,3.911-0.839,5.576
		c-0.867,5.914-1.341,11.899-1.177,17.879l-0.378-0.021c0.082-4.127-0.089-8.275,0.473-12.378
		C100.428,107.018,101.022,104.776,100.383,102.594z"/>
	<path display="none" fill="#F44335" d="M102.128,98.157c3.03,2.236,6.671,3.388,10.232,4.486c7.378,2.23,15.331,1.507,22.586-0.847
		c1.452-0.465,2.89-0.978,4.354-1.399c0.447,0.363,1.088,0.636,1.135,1.307c0.115,1.569-0.193,3.288-1.611,4.204
		c-0.878,0.558-1.803,1.034-2.75,1.451c-3.351,1.158-6.865,1.731-10.387,2.008c-0.131-0.118-0.395-0.355-0.526-0.479
		c-0.092-0.112-0.275-0.341-0.368-0.46c0.873-0.1,1.758-0.257,2.64-0.328c-0.003-0.947-0.009-1.894-0.013-2.841
		c-2.433-0.127-4.857,0.145-7.286,0.162c-0.011,1-0.019,2-0.027,2.998c0.859-0.011,1.724-0.02,2.592-0.037
		c-0.038,0.262-0.122,0.779-0.162,1.038c-4.5-0.154-8.984-0.754-13.328-1.947c-2.828-0.789-5.502-2.072-7.919-3.74
		C99.878,102.068,100.439,99.416,102.128,98.157z"/>
	<path fill="#EAEAEC" d="M-130.151,99.451c4.77-0.899,9.614,0.754,14.407-0.067c2.796-0.591,5.61-0.003,8.405,0.282
		c0.244,3.533-0.659,7.338,0.994,10.635c0.026,19.742,0.078,39.49-0.021,59.233c-1.137-2.377-0.373-5.055-0.75-7.566
		c-0.545-4.572-0.154-9.175-0.325-13.765c-0.702,0.008-1.402-0.015-2.1,0.068c-0.641,0.33-1.109,0.928-1.766,1.23
		c-1.899,0.308-3.783-0.256-5.678-0.361c-2.065-0.137-4.086,0.685-6.155,0.354c-2.32-0.366-4.666-0.483-7.01-0.379V99.451z"/>
	<path fill="#ECECEE" d="M272.522,99.408c5.792,0.669,11.544-0.865,17.332-0.167c3.195,0.459,6.427,0.215,9.646,0.346v22.79
		c-6.721-0.093-13.443,0.013-20.165-0.026c-2.162-0.102-4.304-0.51-6.473-0.425c-0.125,8.895-0.128,17.79-0.076,26.685
		c-0.005,4.25-0.062,8.502-0.032,12.751c-0.695,6.851-0.231,13.747-0.415,20.623c-0.05,0.705-0.389,1.35-0.581,2.023
		c-0.112-18.43-0.07-36.868,0.003-55.302c0.707-2.65,0.323-5.41,0.434-8.114c-0.07-2.499,0.284-4.971,0.389-7.461
		C272.616,108.557,272.59,103.983,272.522,99.408z"/>
	<path fill="#FE9801" d="M101.289,103.733c2.417,1.667,5.091,2.951,7.919,3.74c-0.995,2.263-2.131,4.481-2.835,6.862
		c-0.689,2.205-1.221,4.471-1.379,6.786l-0.031,0.32c-1.608,0.259-3.234,0.167-4.851,0.171
		C99.948,115.632,100.422,109.647,101.289,103.733z"/>
	<path fill="#48D4D7" d="M-34.5,108.419c0.406-1.257,0.481-2.616,0.915-3.88c-0.009,3.359,0.215,6.727-0.013,10.081
		c-0.61,1.478-0.689,3.073-0.663,4.656c-4.393,1.481-9.005-1.08-13.358,0.517c-1.72,0.54-3.49-0.08-5.208-0.268
		c-2.547-0.412-5.143-0.372-7.687,0.031c-2.455,0.402-4.835-0.624-7.281-0.53c-1.723,0.009-3.148,1.484-4.915,1.064
		c-2.701-0.425-5.451-0.337-8.165-0.657c-0.135,0.504-0.271,1.004-0.407,1.508c-0.705,0.027-1.407,0.057-2.108,0.083
		c-0.009-0.464-0.018-0.924-0.026-1.386c-2.289-0.14-4.578,0.226-6.861,0.045c-0.865,0.035-1.5-0.583-2.162-1.03
		c-0.525,1.561-0.995,3.143-1.311,4.76c-0.263-4.41,0.097-8.825,0.035-13.239c0.311,0.417,0.636,0.824,0.951,1.244
		c0.145-0.872,0.29-1.74,0.434-2.607c8.597-0.123,17.195-0.045,25.787-0.035c2.193,0.078,4.384-0.023,6.555-0.365
		c2.052-0.338,4.073,0.329,6.112,0.438c1.447,0.071,2.836-0.442,4.276-0.477c1.661,0.035,3.273,0.539,4.94,0.521
		c2.073,0.08,4.059-0.996,6.133-0.482C-37.215,108.473-35.686,109.193-34.5,108.419z"/>
	<path fill="#44D3D6" d="M197.753,114.62c0.251-3.287-0.27-6.607,0.278-9.881c0.148,1.307,0.254,2.621,0.332,3.936
		c2.277-0.35,4.582-0.437,6.885-0.35c9.196,0.061,18.397-0.104,27.596,0.025c1.809,0.01,3.615-0.402,5.429-0.2
		c2.342,0.364,4.696-0.29,7.031,0.188c2.927-0.03,5.854,0.008,8.778,0.215c0.031-0.715,0.069-1.42,0.103-2.131
		c0.599-0.214,1.206-0.425,1.815-0.635c0.135,3.1-0.114,6.23,0.513,9.286c0.361,4.542,0.184,9.114,0.125,13.665
		c-0.207-0.895-0.458-1.773-0.705-2.655c-0.38,0.161-0.758,0.323-1.125,0.495c-2.903-2.043-6.552-0.859-9.812-1.023
		c-3.745-0.328-7.502-0.121-11.253-0.197c-1.835-0.139-3.434,1.137-5.269,0.922c-3.227-0.241-6.416-0.917-9.663-0.911
		c-3.939,0.013-7.887,0.039-11.827-0.022c-2.482-0.105-4.768,1.285-7.272,0.911c-0.111-0.67-0.195-1.337-0.294-2.003
		c-0.44,0.133-0.878,0.269-1.313,0.398c-0.052-0.195-0.163-0.588-0.213-0.785C197.741,120.783,197.908,117.701,197.753,114.62z"/>
	<path fill="#FCC32E" d="M120.134,105.421c2.429-0.017,4.854-0.289,7.286-0.162c0.004,0.947,0.01,1.894,0.013,2.841
		c-0.882,0.07-1.767,0.228-2.64,0.328c0.172-1.069-0.495-1.893-1.147-2.63c-0.509,0.781-0.841,1.654-0.947,2.584
		c-0.868,0.017-1.732,0.025-2.592,0.037C120.115,107.421,120.123,106.421,120.134,105.421z"/>
	<path fill="#FD9601" d="M136.074,107.359c0.947-0.417,1.872-0.894,2.75-1.451c-0.292,5.248,1.295,10.417,1.021,15.684
		c-0.646,0.008-1.295,0.017-1.929,0.033c-0.041-1.292-0.23-2.572-0.331-3.857c0.015-1.407-0.119-2.81-0.354-4.196
		C136.889,111.493,136.39,109.442,136.074,107.359z"/>
	<path fill="#FEDA37" d="M122.698,108.382c0.106-0.93,0.438-1.803,0.947-2.584c0.652,0.737,1.319,1.561,1.147,2.63
		c0.101,0.44-0.281,0.856-0.057,1.285c0.136,0.101,0.417,0.303,0.557,0.402c-0.32,0.532-0.644,1.059-0.961,1.593
		c-0.463,0.004-0.924,0.008-1.379,0.018c-0.158-0.684-0.321-1.373-0.453-2.056c0.009-0.062,0.027-0.185,0.036-0.251
		C122.576,109.161,122.66,108.645,122.698,108.382z"/>
	<path fill="#E1F2EC" d="M125.688,109.367c3.521-0.276,7.036-0.85,10.387-2.008c0.315,2.083,0.814,4.134,1.157,6.212
		c-0.347,0.772-0.619,1.614-1.215,2.236c-1.268,0.86-2.714-0.005-3.96-0.434c-1.745,0.732-4.729,1.46-5.614-0.802
		c0.854-1.535,0.473-3.617-1.149-4.456c-0.14-0.1-0.421-0.301-0.557-0.402c-0.225-0.429,0.157-0.845,0.057-1.285
		c0.093,0.12,0.276,0.348,0.368,0.46C125.293,109.012,125.557,109.249,125.688,109.367z"/>
	<path fill="#E2F2EC" d="M106.373,114.335c0.704-2.381,1.84-4.599,2.835-6.862c4.344,1.193,8.828,1.793,13.328,1.947
		c-0.009,0.066-0.027,0.189-0.036,0.251c-0.684,0.674-1.66,1.169-1.962,2.143c-0.102,0.706-0.066,1.421-0.05,2.13
		c-0.334,0.645-0.808,1.193-1.302,1.71c0.109,0.342,0.285,0.679,0.411,1.027c-1.6-0.921-3.296-1.934-5.198-1.942
		c-1.527,0.178-2.975,0.919-4.543,0.771c-1.107-0.109-2.211,0.07-3.245,0.478C106.524,115.436,106.447,114.882,106.373,114.335z"/>
	<path fill="#FDC02D" d="M120.538,111.814c0.302-0.974,1.278-1.469,1.962-2.143c0.132,0.683,0.295,1.372,0.453,2.056
		c0.455-0.01,0.916-0.013,1.379-0.018c0.317-0.535,0.641-1.061,0.961-1.593c1.622,0.839,2.003,2.921,1.149,4.456
		c-0.771,0.706-1.605,1.591-2.749,1.495c-1.442,0.12-2.408-1.123-3.205-2.123C120.472,113.235,120.437,112.52,120.538,111.814z"/>
	<path fill="#F0F1E6" d="M119.187,115.654c0.494-0.518,0.968-1.065,1.302-1.71c0.797,1,1.763,2.243,3.205,2.123
		c1.144,0.096,1.978-0.789,2.749-1.495c0.886,2.263,3.869,1.535,5.614,0.802c1.246,0.429,2.692,1.293,3.96,0.434
		c0.596-0.622,0.868-1.464,1.215-2.236c0.235,1.386,0.369,2.789,0.354,4.196c-0.227,1.201-0.403,2.416-0.421,3.645
		c-6.532,0.213-13.074,0.113-19.605,0.065c-4.185-0.303-8.413,0.358-12.565-0.356c0.158-2.315,0.689-4.581,1.379-6.786
		c0.074,0.547,0.151,1.101,0.238,1.652c1.034-0.408,2.138-0.587,3.245-0.478c1.568,0.149,3.016-0.592,4.543-0.771
		c1.902,0.008,3.599,1.021,5.198,1.942C119.472,116.333,119.296,115.996,119.187,115.654z"/>
	<path fill="#3AD1D4" d="M-34.261,119.276c-0.026-1.583,0.052-3.178,0.663-4.656c0.258,4.871,0.061,9.75-0.022,14.626
		c-0.352,0.695-0.575,1.539-1.202,2.051c-2.196,0.636-4.523-0.029-6.76,0.328c-0.797,0.285-1.285,1.207-2.188,1.237
		c-2.073,0.127-4.19,0.127-6.229-0.307c-4.623-1.601-9.593-1.415-14.417-1.411c-3.379,0.057-6.779-0.199-10.14,0.262
		c-2.972,0.443-5.988-0.152-8.957,0.361c-2.713,0.473-5.472-0.488-8.164,0.115c-1.115,0.867-2.174,2.12-2.056,3.624
		c0.035,3.512-0.062,7.022-0.026,10.535c0.039,6.493-0.268,12.987-0.188,19.483c-0.028,2.686,0.003,5.379-0.009,8.066
		c-0.062,2.832-0.088,5.664,0.052,8.497c-0.136,0.104-0.404,0.318-0.539,0.425c-0.12-15.678,0.026-31.353-0.053-47.028
		c0.013-0.606-0.018-1.226,0.158-1.804c1.009-3.332,0.145-6.856,0.587-10.268c0.315-1.617,0.786-3.199,1.311-4.76
		c0.662,0.447,1.297,1.065,2.162,1.03c2.283,0.181,4.572-0.185,6.861-0.045c0.009,0.462,0.017,0.922,0.026,1.386
		c0.701-0.026,1.403-0.056,2.108-0.083c0.137-0.504,0.272-1.004,0.407-1.508c2.714,0.32,5.464,0.232,8.165,0.657
		c1.767,0.42,3.191-1.055,4.915-1.064c2.446-0.093,4.827,0.933,7.281,0.53c2.544-0.403,5.139-0.443,7.687-0.031
		c1.718,0.188,3.488,0.808,5.208,0.268C-43.266,118.196-38.653,120.757-34.261,119.276z"/>
	<path fill="#1BCACD" d="M197.574,115.224l0.179-0.604c0.155,3.082-0.012,6.164,0.14,9.246c-0.6,5.195,0.396,10.375,0.203,15.574
		c-0.039,2.279,0.225,4.554,0.254,6.832c1.544-1.418,3.75-1.309,5.634-1.958c1.345-0.46,2.773-0.327,4.156-0.179
		c0.134,0.711,0.269,1.424,0.41,2.137c1.319,0.129,2.643,0.155,3.972,0.146c0.123-0.543,0.244-1.084,0.376-1.621
		c3.05,0.009,6.119-0.203,9.164,0.174c2.952,0.344,5.941,0.363,8.893,0.014c2.89-0.367,5.812-0.232,8.719-0.16
		c0.56,1.56,2.221,2.191,3.758,1.734c0.875-0.07,0.993-1.043,1.35-1.662c2.823-0.463,5.602,0.676,8.435,0.217
		c0.343-0.906,0.486-3.251,2.003-2.479c0.245-0.902,0.488-1.811,0.727-2.715c0.001,1.418,0.256,2.811,0.702,4.157
		c0.115,8.782,0.267,17.567,0.085,26.349c-0.605-1.403-0.697-2.924-0.711-4.428c-1.551-0.496-3.06-1.509-4.751-1.232
		c-1.89,0.254-3.778,0.592-5.696,0.535c-4.973-0.092-9.942-0.009-14.915-0.015c-3.218,0.028-6.444-1.091-9.632-0.252
		c-2.07,0.097-4.103,0.514-6.154,0.692c-5.345-0.813-10.771-0.455-16.15-0.299c-0.665-0.043-0.775-0.877-0.813-1.394
		c-0.282-4.305,0.392-8.664-0.387-12.933C197.458,139.139,197.435,127.182,197.574,115.224z"/>
	<path fill="#E9E9EB" d="M272.862,121.925c2.169-0.085,4.311,0.323,6.473,0.425c6.722,0.039,13.444-0.066,20.165,0.026v26.787
		c-3.509-0.04-7.017-0.032-10.521-0.053c-2.491-0.044-4.947,0.737-7.434,0.368c-2.914-0.348-5.818-0.829-8.759-0.869
		C272.734,139.715,272.737,130.819,272.862,121.925z"/>
	<path fill="#2CCED1" d="M197.893,123.865c0.05,0.197,0.161,0.59,0.213,0.785c0.46,2.951-0.279,5.998,0.597,8.9
		c0.473-0.672,0.692-1.465,0.851-2.258c3.199-0.262,6.417-0.07,9.628-0.157c3.089-0.116,6.138,0.621,9.231,0.478
		c2.054-0.031,4.075-0.543,6.134-0.434c5.956,0.678,11.986,0.563,17.94-0.022c3.458,0.101,6.915-0.237,10.37-0.102
		c0.75-1.007,1.65-1.886,2.945-2.109c0.292,0.638,0.596,1.276,0.876,1.926c0.054,4.401,0.115,8.804-0.031,13.205
		c-0.446-1.347-0.701-2.739-0.702-4.157c-0.238,0.904-0.481,1.813-0.727,2.715c-1.517-0.772-1.66,1.572-2.003,2.479
		c-2.833,0.459-5.611-0.68-8.435-0.217c-0.356,0.619-0.475,1.592-1.35,1.662c-1.537,0.457-3.198-0.175-3.758-1.734
		c-2.907-0.072-5.829-0.207-8.719,0.16c-2.951,0.35-5.94,0.33-8.893-0.014c-3.045-0.377-6.114-0.165-9.164-0.174
		c-0.132,0.537-0.253,1.078-0.376,1.621c-1.329,0.009-2.652-0.018-3.972-0.146c-0.142-0.713-0.276-1.426-0.41-2.137
		c-1.383-0.148-2.812-0.281-4.156,0.179c-1.884,0.649-4.09,0.54-5.634,1.958c-0.029-2.278-0.293-4.553-0.254-6.832
		C198.288,134.24,197.293,129.061,197.893,123.865z"/>
	<path fill="#37D0D4" d="M198.105,124.65c0.435-0.13,0.872-0.266,1.313-0.398c0.099,0.666,0.183,1.333,0.294,2.003
		c2.505,0.374,4.79-1.017,7.272-0.911c3.94,0.062,7.888,0.035,11.827,0.022c3.247-0.006,6.437,0.67,9.663,0.911
		c1.835,0.215,3.434-1.061,5.269-0.922c3.751,0.076,7.508-0.131,11.253,0.197c3.26,0.164,6.908-1.02,9.812,1.023
		c0.367-0.172,0.745-0.334,1.125-0.495c0.247,0.882,0.498,1.761,0.705,2.655c0.009,0.711,0.015,1.42,0.04,2.136
		c-0.28-0.649-0.584-1.288-0.876-1.926c-1.295,0.224-2.195,1.103-2.945,2.109c-3.455-0.136-6.912,0.202-10.37,0.102
		c-5.954,0.585-11.984,0.7-17.94,0.022c-2.059-0.109-4.08,0.402-6.134,0.434c-3.094,0.144-6.143-0.594-9.231-0.478
		c-3.211,0.087-6.429-0.104-9.628,0.157c-0.158,0.793-0.378,1.586-0.851,2.258C197.826,130.648,198.565,127.602,198.105,124.65z"/>
	<path fill="#2CCED1" d="M-34.822,131.297c0.627-0.512,0.851-1.355,1.202-2.051c0.043,3.184,0.114,6.369-0.075,9.552
		c-0.596,2.007-0.628,4.112-0.635,6.192c-2.132,0.17-4.253,0.41-6.38,0.594c-2.169,0.209-4.349-0.244-6.51,0.076
		c-2.591,0.412-4.959-1.285-7.55-0.986c-1.297,0.004-2.228,1.188-3.458,1.293c-3.281-0.918-6.723-1.117-10.106-1.207
		c-3.634,0.514-7.301,0.466-10.961,0.45c-2.394-0.087-4.621,1.283-7.024,0.866c-1.854-0.289-3.721-0.521-5.606-0.518
		c-0.255,0.395-0.509,0.795-0.764,1.193c-0.36-0.236-0.715-0.48-1.07-0.71c-0.036-3.513,0.061-7.023,0.026-10.535
		c-0.118-1.504,0.941-2.757,2.056-3.624c2.692-0.604,5.451,0.357,8.164-0.115c2.968-0.514,5.984,0.082,8.957-0.361
		c3.361-0.461,6.761-0.205,10.14-0.262c4.824-0.004,9.794-0.189,14.417,1.411c2.039,0.434,4.155,0.434,6.229,0.307
		c0.903-0.03,1.391-0.952,2.188-1.237C-39.345,131.268-37.018,131.933-34.822,131.297z"/>
	<path fill="#1BCACD" d="M-34.33,144.99c0.007-2.08,0.04-4.186,0.635-6.192c0.281,3.727,0.026,7.458,0.114,11.192
		c-0.048,3.412,0.232,6.836-0.136,10.233c-0.411,1.281-0.653,2.61-0.706,3.954c-2.731-0.261-5.497-0.42-8.22,0.049
		c-2.429,0.452-4.832-0.406-7.26-0.283c-4.091,0.314-8.181-0.138-12.276,0.038c-2.74,0.176-5.45-0.764-8.177-0.268
		c-2.669,0.446-5.37,0.159-8.058,0.26c-4.19,0.327-8.382-0.257-12.578,0.024c-0.702,0.992-1.709,1.634-2.955,1.527
		c-0.08-6.496,0.227-12.99,0.188-19.483c0.354,0.229,0.71,0.474,1.07,0.71c0.254-0.398,0.509-0.799,0.764-1.193
		c1.885-0.003,3.752,0.229,5.606,0.518c2.403,0.417,4.63-0.953,7.024-0.866c3.66,0.016,7.327,0.063,10.961-0.45
		c3.383,0.09,6.825,0.289,10.106,1.207c1.23-0.105,2.161-1.289,3.458-1.293c2.591-0.299,4.959,1.398,7.55,0.986
		c2.161-0.32,4.341,0.133,6.51-0.076C-38.583,145.4-36.462,145.16-34.33,144.99z"/>
	<path fill="#E3E3E6" d="M-111.308,149.502c0.657-0.303,1.125-0.9,1.766-1.23c0.698-0.083,1.398-0.061,2.1-0.068
		c0.171,4.59-0.22,9.192,0.325,13.765c0.377,2.512-0.387,5.189,0.75,7.566c0.114,8.93,0.03,17.861,0.026,26.799
		c1.771-0.036,3.538-0.015,5.304,0.044c-1.819,0.403-3.683,0.45-5.536,0.504c-0.479-0.638-0.883-1.416-1.609-1.793
		c-1.167-0.198-2.359,0.017-3.534,0.038c-2.207,0.138-4.417-0.092-6.625,0.011c-0.531,0.035-1.32,0.035-1.429,0.717
		c-0.447,1.316-0.833,2.653-1.333,3.95c-0.198-2.415-0.394-4.825-0.588-7.238c-0.048-0.967-0.59-1.797-1.139-2.551
		c-1.065-0.894-2.391-1.567-3.823-1.337c-1.482,0.031-2.517,1.206-3.499,2.166v-41.729c2.345-0.104,4.69,0.013,7.01,0.379
		c2.069,0.331,4.09-0.49,6.155-0.354C-115.091,149.246-113.207,149.81-111.308,149.502z"/>
	<path fill="#E3E3E5" d="M272.786,148.609c2.94,0.04,5.845,0.521,8.759,0.869c2.486,0.369,4.942-0.412,7.434-0.368
		c3.505,0.021,7.013,0.013,10.521,0.053v46.033c-2.772,0.215-5.498-0.582-8.256-0.345c-3.807,0.601-7.661,0.133-11.488,0.322
		c-2.3,0.234-4.316-1.444-6.636-0.84c-0.311,0.783-0.72,1.529-1.319,2.135c-0.204-4.148-0.11-8.309-0.043-12.462
		c0.192-0.674,0.531-1.318,0.581-2.023c0.184-6.876-0.28-13.772,0.415-20.623C272.725,157.111,272.781,152.859,272.786,148.609z"/>
	<path fill="#FFFFFF" d="M40.302,152.516c1.524-1.486,3.792-1.713,5.817-1.717c10.377,0.101,20.75-0.105,31.131-0.009
		c8.177-0.155,16.354,0.228,24.533,0.025c11.979,0.084,23.958-0.087,35.934,0.03c4.969-0.227,9.938,0.164,14.905-0.053
		c1.755-0.123,3.185,1.145,4.32,2.328c1.064,1.115,0.749,2.771,1.126,4.148c1.941,2.044,4.964,2.934,6.515,5.335
		c-2.196,0.307-4.411,0.005-6.617,0.102c-0.332,3.003,0.134,6.041-0.315,9.031c-0.462,2.455-3.217,3.57-5.466,3.56
		c-29.217,0.063-58.432-0.087-87.648,0.036c-7.027-0.088-14.065,0.056-21.092-0.088c-2.752-0.18-4.292-3.048-4.362-5.547
		c0-4.099,0.092-8.197-0.049-12.293C38.99,155.717,39.083,153.822,40.302,152.516z"/>
	<path fill="#06C5C8" d="M197.521,151.102c0.778,4.269,0.104,8.628,0.387,12.933c0.038,0.517,0.148,1.351,0.813,1.394
		c5.379-0.156,10.806-0.514,16.15,0.299c2.052-0.179,4.084-0.596,6.154-0.692c3.188-0.839,6.414,0.28,9.632,0.252
		c4.973,0.006,9.942-0.077,14.915,0.015c1.918,0.057,3.807-0.281,5.696-0.535c1.691-0.276,3.2,0.736,4.751,1.232
		c0.014,1.504,0.105,3.024,0.711,4.428c0.161,3.957,0.079,7.923,0.062,11.886c-17.473,0.026-34.941-0.004-52.419,0.013
		c-2.227,0.011-4.461-0.126-6.671,0.186l-0.202,0.021C197.377,172.054,197.472,161.574,197.521,151.102z"/>
	<path fill="#FFFFFF" d="M176.474,155.447c2.496-0.506,5.318-0.548,7.584,0.782c2.955,1.531,5.099,4.708,5.158,8.071
		c0.701,5.486-4.268,11.023-9.82,10.759c-4.898,0.126-9.713-3.914-10.011-8.896C168.794,161.481,172.032,156.839,176.474,155.447z"
		/>
	<path fill="#E8EDF1" d="M46.127,158.124c-0.99,0.019-0.512-1.547,0.409-1.228c13.731-0.025,27.461-0.048,41.193-0.013
		c3.235,0.101,6.484-0.261,9.706,0.152c-0.447,0.585-0.951,1.246-1.792,1.091C79.142,158.217,62.629,158.15,46.127,158.124z"/>
	<path fill="#36CFCE" d="M174.987,162.014c0.618-1.641,2.179-2.956,3.964-3.038c1.748-0.141,3.528-0.285,5.271,0.021
		c1.115,0.358,1.476,1.592,1.716,2.616c-0.601,0.153-1.204,0.28-1.81,0.382c-0.669,0.026-1.347-0.063-2.004-0.07
		c-0.016,0.325-0.042,0.975-0.057,1.297c-0.26,0-0.514-0.004-0.762-0.006c0.195-0.256,0.584-0.765,0.777-1.019
		c-0.954-0.832-1.801-1.999-3.147-2.17c-1.424-0.44-2.313,0.968-3.272,1.731L174.987,162.014z"/>
	<path fill="#DDF8F9" d="M175.664,161.759c0.96-0.764,1.849-2.172,3.272-1.731c1.347,0.171,2.193,1.338,3.147,2.17
		c-0.193,0.254-0.582,0.763-0.777,1.019c0.248,0.002,0.502,0.006,0.762,0.006c0.015-0.322,0.041-0.972,0.057-1.297
		c0.657,0.008,1.335,0.097,2.004,0.07l0.098-0.003l-0.204,0.255c-0.871,1.078-0.187,2.766-1.196,3.819
		c-1.447,2.178-5.011,2.239-6.507,0.093C175.238,164.955,175.558,163.228,175.664,161.759z"/>
	<path fill="#0BC6C9" d="M-34.423,164.178c0.053-1.344,0.294-2.673,0.706-3.954c0.145,2.342,0.255,4.69,0.035,7.031
		c-0.666,1.882-0.389,3.891-0.631,5.831c-3.578,1.303-7.493,0.942-11.232,0.983c-8.624-0.015-17.243,0.027-25.862,0.013
		c-4.787-0.521-9.649-0.744-14.432-0.062c-2.314,0.312-4.639,0.515-6.963,0.706c-0.386-0.381-0.771-0.764-1.152-1.135
		c0.012-2.688-0.019-5.381,0.009-8.066c1.245,0.106,2.253-0.535,2.955-1.527c4.195-0.281,8.387,0.303,12.578-0.024
		c2.688-0.101,5.389,0.187,8.058-0.26c2.728-0.496,5.437,0.443,8.177,0.268c4.095-0.176,8.185,0.276,12.276-0.038
		c2.429-0.123,4.832,0.735,7.26,0.283C-39.92,163.758-37.154,163.917-34.423,164.178z"/>
	<path fill="#36CFD0" d="M172.021,168.471c0.479-2.299,1.557-4.63,2.967-6.457l0.677-0.255c-0.106,1.469-0.426,3.196,0.655,4.4
		c1.496,2.146,5.06,2.085,6.507-0.093c1.01-1.054,0.325-2.741,1.196-3.819c0.909,2.019,2.015,4.009,2.27,6.247
		c-0.789,0.42-1.598,0.938-2.531,0.902c-3.072,0.065-6.144-0.005-9.215,0.03C173.57,169.558,172.783,168.962,172.021,168.471z"/>
	<path fill="#A6DCD9" d="M178.129,162.404c0.717-0.217,0.953,0.031,0.714,0.739C178.114,163.354,177.878,163.11,178.129,162.404z"/>
	<path fill="#E9EDF1" d="M46.519,164.56c-0.856,0.295-1.36-1.28-0.414-1.271c5.981-0.214,11.968-0.044,17.954-0.034
		c14.867,0.017,29.733-0.083,44.6,0.022c-0.026,0.262-0.074,0.788-0.1,1.051c-1.948,0.4-3.929,0.224-5.899,0.198
		C83.95,164.626,65.23,164.45,46.519,164.56z"/>
	<path fill="#96DCD9" d="M179.139,164.385c0.809-0.084,1.627-0.141,2.438,0.004C181.239,165.681,179.557,165.59,179.139,164.385z"/>
	<path fill="#03C4C7" d="M-34.313,173.086c0.242-1.94-0.035-3.949,0.631-5.831c0.238,4.939,0.167,9.888,0.127,14.829
		c-16.419,0.135-32.837,0-49.255,0.057c-3.697,0.041-7.397,0.113-11.092-0.052c-0.14-2.833-0.114-5.665-0.052-8.497
		c0.38,0.371,0.766,0.754,1.152,1.135c2.324-0.191,4.648-0.395,6.963-0.706c4.783-0.683,9.646-0.46,14.432,0.062
		c8.619,0.015,17.239-0.027,25.862-0.013C-41.806,174.028-37.891,174.389-34.313,173.086z"/>
	<path fill="#6976C5" d="M-130.151,190.844c0.981-0.96,2.017-2.135,3.499-2.166c1.433-0.23,2.758,0.443,3.823,1.337
		c-0.04,1.166-0.088,2.332-0.123,3.505c-0.241-0.927-0.448-2.116-1.539-2.382c-1.324-0.554-2.688,0.907-2.376,2.229
		c0.648,8.471,1.369,16.947,2.008,25.427c0.272,2.325,0.188,4.7,0.776,6.979c0.442,0.628,1.245,0.844,1.858,1.255
		c0.5-0.452,1.044-0.857,1.451-1.398c0.172-0.85,0.12-1.723,0.106-2.578c0.868,1.811,1.079,3.802,1.07,5.788
		c-2.656,0.39-5.611-0.686-8.049,0.647h-0.067c-0.59-10.947-1.787-21.858-2.437-32.807V190.844z"/>
	<path fill="#686EBA" d="M-122.953,193.52c0.035-1.173,0.083-2.339,0.123-3.505c0.548,0.754,1.091,1.584,1.139,2.551
		c0.194,2.413,0.39,4.823,0.588,7.238c0.618,9.92,1.714,19.809,2.292,29.733c-2.945,0.023-5.896,0.026-8.837-0.052
		c2.438-1.333,5.393-0.258,8.049-0.647c0.009-1.986-0.202-3.978-1.07-5.788c-0.767-6.58-1.046-13.218-1.683-19.817
		C-122.541,199.992-123.023,196.765-122.953,193.52z"/>
	<path fill="#F15350" d="M-100.045,192.856c0.788-1.46,2.424-2.475,4.107-2.355c1.992-0.045,3.147,1.789,4.683,2.751
		c-0.132,0.085-0.386,0.257-0.517,0.346c0.03,0.791,0.066,1.591,0.009,2.394c-1.434,11.23-3.179,22.429-4.5,33.672
		c-2.949-0.011-5.914-0.143-8.855,0.169l0.026-0.37c1.192-11.063,2.999-22.063,4.314-33.121
		C-100.602,195.172-100.563,193.942-100.045,192.856z"/>
	<path fill="#FFFFFF" d="M-126.868,193.366c-0.312-1.321,1.052-2.782,2.376-2.229c1.091,0.266,1.297,1.455,1.539,2.382
		c-0.07,3.245,0.412,6.473,0.601,9.713c0.637,6.6,0.916,13.237,1.683,19.817c0.014,0.855,0.066,1.729-0.106,2.578
		c-0.407,0.541-0.951,0.946-1.451,1.398c-0.613-0.411-1.416-0.627-1.858-1.255c-0.588-2.278-0.504-4.653-0.776-6.979
		C-125.499,210.313-126.219,201.837-126.868,193.366z"/>
	<path fill="#F6F7F9" d="M-91.772,193.598c0.131-0.089,0.385-0.261,0.517-0.346c1.301,0.561,1.162,1.937,1.158,3.112
		c21.281-0.089,42.562-0.023,63.843-0.041c92.655,0,185.307,0,277.962,0c6.694,0.089,13.403-0.184,20.094,0.146
		c-0.049,10.222-0.088,20.457-0.074,30.68c-0.031,2.534-0.904,4.981-2.011,7.233c-2.61,3.957-7.014,7.041-11.87,7.104
		c-12.86,0.31-25.723-0.146-38.58,0.108c-18.846-0.097-37.693,0.069-56.535-0.049c-5.757-0.171-11.514,0.215-17.27,0.009
		c-23.333-0.109-46.663,0.035-69.994,0c-15.042,0.003-30.089-0.034-45.131,0.003c-36.112-0.034-72.221-0.007-108.333,0.071
		c-4.057,0.01-8.108,0.019-12.157-0.1c-0.185-2.981,0.706-6.354-1.132-8.971c-0.961-1.512-2.626-2.355-4.296-2.844l-0.681-0.052
		c1.321-11.243,3.065-22.441,4.5-33.672C-91.707,195.188-91.742,194.389-91.772,193.598z"/>
	<path fill="#DDDCE0" d="M273.12,194.334c2.319-0.604,4.336,1.074,6.636,0.84c3.827-0.189,7.682,0.278,11.488-0.322
		c2.758-0.237,5.483,0.56,8.256,0.345v39.862c-9.365-0.22-18.744,0.25-28.101-0.251c0.246,0.364,0.498,0.731,0.751,1.105
		c-0.719-0.031-1.432-0.058-2.144-0.082c-0.102-0.483-0.197-0.971-0.291-1.449c1.106-2.252,1.979-4.699,2.011-7.233
		c-0.014-10.223,0.025-20.458,0.074-30.68C272.4,195.863,272.81,195.117,273.12,194.334z"/>
	<path fill="#DDDDE1" d="M-111.715,195.126c1.175-0.021,2.367-0.236,3.534-0.038c0.727,0.377,1.13,1.155,1.609,1.793
		c0.363,2.901,0.166,5.83,0.2,8.746c0.032,7.956,0.088,15.91,0.01,23.867c-4.152,0.035-8.299-0.071-12.448,0.043
		c-0.578-9.925-1.674-19.813-2.292-29.733c0.5-1.297,0.886-2.634,1.333-3.95c0.109-0.682,0.898-0.682,1.429-0.717
		C-116.132,195.034-113.922,195.264-111.715,195.126z"/>
	<path fill="#F6F8FA" d="M-101.037,196.377l0.259-0.036c-1.315,11.058-3.122,22.058-4.314,33.121
		c-0.317,0.012-0.956,0.023-1.271,0.032c0.078-7.957,0.022-15.911-0.01-23.867c-0.035-2.916,0.163-5.845-0.2-8.746
		C-104.719,196.827-102.856,196.78-101.037,196.377z"/>
	<path fill="#DDDDE2" d="M-130.151,196.679c0.649,10.948,1.846,21.859,2.437,32.807c-0.814,0.023-1.62-0.108-2.437-0.098V196.679z"
		/>
	<path fill="#34344E" d="M84.861,211.637c2.342-0.793,5.02-0.521,7.161,0.724c3.098,1.754,5.032,5.512,4.428,9.058
		c-0.618,4.967-5.973,8.681-10.838,7.375c-3.954-0.825-6.997-4.661-6.91-8.694C78.629,216.328,81.267,212.743,84.861,211.637z"/>
	<path fill="#E3B782" d="M-130.151,229.388c0.816-0.011,1.623,0.121,2.437,0.098h0.067c2.941,0.078,5.892,0.075,8.837,0.052
		c4.149-0.114,8.296-0.008,12.448-0.043c0.315-0.009,0.954-0.021,1.271-0.032l-0.026,0.37c-1.109,0.109-2.222,0.192-3.336,0.201
		c-7.234-0.162-14.463,0.118-21.697-0.004V229.388z"/>
	<path fill="#FFB242" d="M-105.118,229.832c2.941-0.312,5.906-0.18,8.855-0.169l0.681,0.052c-1.409,1.235-2.338,2.971-2.535,4.843
		c-0.228,2.485,0.035,4.985-0.017,7.476c0.004,1.925-0.807,3.766-0.583,5.704c0.302,3.342-0.053,6.682-0.018,10.026
		c-0.054,2.351-0.57,4.694-0.179,7.041c0.752,4.754-0.137,9.578,0.521,14.336c0.325,2.232,0.229,4.491,0.205,6.738h-12.683
		c0.032-3.328,0.479-6.655,0.225-9.982c-0.15-1.64-1.023-3.249-0.54-4.905c0.487-1.729,0.943-3.482,0.814-5.292
		c-0.157-5.107,0.269-10.248-0.394-15.332c-0.162-1.446-0.013-2.892,0.07-4.338c0.167-1.791-0.798-3.486-0.494-5.278
		c0.468-2.953,0.236-5.983,0.968-8.898c0.679-0.509,2.069-0.673,1.767-1.819C-107.339,230.024-106.227,229.941-105.118,229.832z"/>
	<path fill="#FFA92E" d="M-95.582,229.715c1.669,0.488,3.335,1.332,4.296,2.844c1.837,2.617,0.947,5.989,1.132,8.971
		c-0.044,8.212,0.017,16.422-0.027,24.63c-0.148,2.478-0.123,4.954-0.004,7.433c-0.044,4.095-0.074,8.193-0.149,12.287h-7.854
		c0.024-2.247,0.12-4.506-0.205-6.738c-0.659-4.758,0.231-9.582-0.521-14.336c-0.391-2.347,0.125-4.69,0.179-7.041
		c-0.035-3.345,0.32-6.685,0.018-10.026c-0.223-1.938,0.588-3.779,0.583-5.704c0.052-2.49-0.211-4.99,0.017-7.476
		C-97.919,232.686-96.99,230.95-95.582,229.715z"/>
	<path fill="#FFB64D" d="M-130.151,230.029c7.234,0.122,14.463-0.158,21.697,0.004c0.302,1.146-1.088,1.311-1.767,1.819
		c-0.732,2.915-0.5,5.945-0.968,8.898c-0.304,1.792,0.661,3.487,0.494,5.278c-0.083,1.446-0.231,2.892-0.07,4.338
		c0.663,5.084,0.237,10.225,0.394,15.332c0.129,1.81-0.328,3.563-0.814,5.292c-0.483,1.656,0.39,3.266,0.54,4.905
		c0.253,3.327-0.193,6.654-0.225,9.982h-19.281V230.029z"/>
	<path fill="#D9D8DD" d="M257.846,241.486c4.856-0.063,9.26-3.147,11.87-7.104c0.094,0.479,0.189,0.966,0.291,1.449
		c0.712,0.024,1.425,0.051,2.144,0.082c-0.253-0.374-0.505-0.741-0.751-1.105c9.356,0.501,18.735,0.031,28.101,0.251v32.42
		c-47.047,0.08-94.098,0-141.146,0.04c-4.317-0.053-8.633,0.056-12.94-0.104c0.213-4.947,0.213-9.912,0.07-14.851
		c-0.557-3.665,0.28-7.335-0.022-11.009c5.756,0.206,11.513-0.18,17.27-0.009c18.842,0.118,37.689-0.048,56.535,0.049
		C232.123,241.34,244.985,241.796,257.846,241.486z"/>
	<path fill="#D9D8DD" d="M-90.154,241.529c4.049,0.118,8.101,0.109,12.157,0.1c36.112-0.078,72.22-0.105,108.333-0.071
		c0.009,8.631,0.049,17.259-0.044,25.882c-24.261,0.135-48.528,0.029-72.791,0.084c-15.042-0.04-30.084,0.051-45.125-0.055
		c-0.786-0.073-1.541,0.168-2.304,0.299c-0.1,6.038-0.031,12.075,0.009,18.111h-0.416c0.075-4.094,0.104-8.192,0.149-12.287
		c-0.118-2.479-0.144-4.955,0.004-7.433C-90.137,257.951-90.198,249.741-90.154,241.529z"/>
	<path fill="#E2E3E5" d="M30.336,241.558c15.042-0.037,30.089,0,45.131-0.003c23.331,0.035,46.661-0.109,69.994,0
		c0.303,3.674-0.534,7.344,0.022,11.009c0.143,4.938,0.143,9.903-0.07,14.851c4.308,0.16,8.623,0.052,12.94,0.104
		c47.049-0.04,94.1,0.04,141.146-0.04v0.448c-51.309,0.056-102.622-0.054-153.926,0.048l-0.373,0.029
		c-0.113,2.148-0.034,4.307-0.061,6.46c-0.348-0.399-0.689-0.797-1.026-1.192c-2.434-0.119-4.826,0.441-7.256,0.397
		c-2.301-0.102-4.643,0.6-6.893-0.144c-1.933-0.622-3.919,0.042-5.864,0.201c-1.631,0.162-3.188-0.521-4.811-0.521
		c-1.648,0.048-3.195,0.863-4.861,0.744c-3.193-0.205-6.378-0.56-9.575-0.705c-9.632,0.737-19.308,0.316-28.961,0.442
		c-3.162-0.049-6.338,0.162-9.484-0.227c-2.71-0.401-5.332,0.719-8.035,0.652c-2.781-0.08-5.547-0.521-8.327-0.396
		c-1.412,0.059-2.828,0.423-4.235,0.159c-3.077-0.72-6.247-0.221-9.37-0.259c-1.871,0.084-3.822-0.18-5.598,0.574
		c-0.067-2.056-0.045-4.119-0.141-6.169l-0.376-0.021c-10.961-0.242-21.921-0.016-32.887-0.063c-24.849,0-49.702,0.014-74.557-0.013
		c-4.271-0.109-8.549,0.118-12.811-0.159c0.763-0.131,1.518-0.372,2.304-0.299c15.04,0.105,30.083,0.015,45.125,0.055
		c24.263-0.055,48.53,0.051,72.791-0.084C30.385,258.816,30.345,250.188,30.336,241.558z"/>
	<path fill="#FFFFFF" d="M-89.927,267.768c4.262,0.277,8.54,0.05,12.811,0.159c24.854,0.026,49.708,0.013,74.557,0.013
		c10.966,0.047,21.926-0.18,32.887,0.063c-0.009,2.459,0.21,4.928-0.031,7.376c-0.035,0.795-0.724,1.303-1.232,1.821
		c-1.561,1.379-3.144,2.73-4.701,4.117c-1.866,1.502-3.62,3.142-5.559,4.563H-89.918C-89.958,279.843-90.027,273.806-89.927,267.768
		z"/>
	<path fill="#ECEEF1" d="M30.328,268.002l0.376,0.021c0.096,2.05,0.074,4.113,0.141,6.169c1.775-0.754,3.727-0.49,5.598-0.574
		c3.123,0.038,6.293-0.461,9.37,0.259c1.407,0.264,2.823-0.101,4.235-0.159c2.779-0.125,5.546,0.315,8.327,0.396
		c2.704,0.066,5.325-1.054,8.035-0.652c3.146,0.389,6.322,0.178,9.484,0.227c9.653-0.126,19.329,0.295,28.961-0.442
		c3.197,0.146,6.382,0.5,9.575,0.705c1.666,0.119,3.213-0.696,4.861-0.744c1.623,0,3.18,0.684,4.811,0.521
		c1.945-0.159,3.932-0.823,5.864-0.201c2.25,0.743,4.592,0.042,6.893,0.144c2.43,0.044,4.822-0.517,7.256-0.397
		c0.337,0.396,0.679,0.793,1.026,1.192c0.026-2.153-0.053-4.312,0.061-6.46l0.373-0.029c0.084,2.588-0.146,5.19,0.097,7.773
		c0.788,1.6,2.41,2.59,3.554,3.933c-0.41,0.553-0.821,1.107-1.23,1.669c-2.253-0.544-4.511-1.225-6.853-1.012
		c-2.932-0.251-5.757,0.811-8.68,0.675c-5.1,0.176-10.153-0.904-15.244-0.671c-2.034,0.652-4.13-0.009-6.205,0.181
		c-1.644,0.109-3.265-0.167-4.888-0.351c-1.363-0.158-2.615,0.657-3.979,0.535c-1.483-0.088-2.956-0.321-4.442-0.26
		c-6.826,0.303-13.652-0.175-20.479,0.172c-2.414,0.215-4.791-0.595-7.201-0.264c-2.4,0.279-4.816,0.117-7.218,0.332
		c-2.056,0.215-4.116-0.21-6.173-0.003c-1.613,0.161-3.23,0.009-4.835-0.127c-4.792-0.435-9.566,0.925-14.354,0.293
		c-2.669-0.358-5.334,0.456-8.005,0.085c-1.701-0.277-3.424-0.08-5.074,0.381c1.557-1.387,3.14-2.738,4.701-4.117
		c0.509-0.519,1.198-1.026,1.232-1.821C30.538,272.93,30.319,270.461,30.328,268.002z"/>
	<path fill="#FFFFFF" d="M145.574,267.975c51.304-0.102,102.617,0.008,153.926-0.048v17.952H155.158
		c-2.153-1.894-4.017-4.077-5.934-6.198c-1.144-1.343-2.766-2.333-3.554-3.933C145.429,273.165,145.658,270.563,145.574,267.975z"/>
	<path fill="#F6F7F9" d="M149.225,279.681c1.917,2.121,3.78,4.305,5.934,6.198H18.805c1.939-1.421,3.693-3.061,5.559-4.563
		c1.65-0.461,3.373-0.658,5.074-0.381c2.67,0.371,5.335-0.443,8.005-0.085c4.788,0.632,9.562-0.728,14.354-0.293
		c1.605,0.136,3.223,0.288,4.835,0.127c2.058-0.207,4.117,0.218,6.173,0.003c2.402-0.215,4.818-0.053,7.218-0.332
		c2.41-0.331,4.787,0.479,7.201,0.264c6.826-0.347,13.652,0.131,20.479-0.172c1.486-0.062,2.959,0.172,4.442,0.26
		c1.364,0.122,2.616-0.693,3.979-0.535c1.623,0.184,3.244,0.46,4.888,0.351c2.075-0.189,4.171,0.472,6.205-0.181
		c5.091-0.233,10.145,0.847,15.244,0.671c2.923,0.136,5.748-0.926,8.68-0.675c2.342-0.213,4.6,0.468,6.853,1.012
		C148.403,280.788,148.814,280.233,149.225,279.681z"/>
	<path fill="#47D5D7" d="M147.85,107.588c0.009-0.472-0.04-0.949-0.194-1.417c-0.065-0.198-0.156-0.387-0.229-0.583
		c0.318-0.993,0.301-2.072-0.207-3.099c-0.089-0.388-0.208-0.781-0.401-1.179c-0.19-0.393-0.376-0.783-0.562-1.171
		c0.146-1.676-0.475-3.428-2.232-4.623c-0.369-0.251-0.769-0.584-1.179-0.964c-0.278-0.306-0.577-0.602-0.897-0.886
		c-1.088-1.137-2.19-2.493-3.046-3.648c-0.339-0.457-0.751-1.042-1.175-1.673c3.832-0.477,5.781-5.083,4.136-7.792
		c-0.084-0.631-0.31-1.275-0.711-1.909c-0.73-1.155-1.617-2.126-2.604-2.973c1.46-1.173,2.342-3.086,1.774-5.167
		c-0.201-0.738-0.584-1.502-0.972-2.274c0.147-1.962-0.512-4.089-1.865-5.92c-2.574-3.483-8.641-2.969-9.267,1.567
		c-0.325,0.224-0.628,0.478-0.899,0.762c-0.049-0.001-0.098-0.001-0.146-0.002c-2.135-0.037-4.234-0.093-6.334,0.375
		c-0.768,0.171-1.388,0.479-1.896,0.871c-2.409-1.178-4.828-2.335-7.313-3.367c-3.913-1.625-9.979-1.733-12.194,2.682
		c-2.226,4.435-3.209,10.421-2.139,15.483c-0.035,1.295,0.38,2.499,1.177,3.42c0.717,1.213,1.876,2.298,3.216,2.689
		c-0.097,0.373-0.202,0.744-0.313,1.113c-1.88,0.551-3.459,2.081-3.541,4.595c-0.008,0.247-0.037,0.479-0.064,0.712
		c-3.058,1.798-5.82,2.628-7.919,5.765c-1.777,2.655-0.562,5.215,1.552,6.488c-0.145,0.449-0.279,0.904-0.39,1.373
		c-1.476,6.272,8.166,8.935,9.643,2.658c0.66-2.804,2.463-4.811,4.104-7.105c0.85-1.188,1.49-2.465,1.968-3.797
		c2.901-3.465,4.104-7.419,5.261-11.765c0.175-0.656,0.218-1.269,0.166-1.839c2.947-0.495,5.893-1.03,8.891-1.148
		c-0.851,1.685-0.805,3.785,0.92,5.527c0.748,0.756,1.154,1.696,1.5,2.676c-0.121,0.338-0.194,0.714-0.242,1.108
		c-1.306,1.392-1.779,3.435-0.373,5.538c0.151,0.227,0.31,0.434,0.468,0.641c0.71,3.82,3.92,6.41,7.087,8.528
		c1.82,1.218,3.763,2.256,5.666,3.337c0.666,0.378,1.501,0.879,2.237,1.346c0.677,1.163,1.845,1.888,3.131,2.146
		C145.621,116.55,150.459,111.5,147.85,107.588z"/>
	<path fill="#FE9801" d="M138.486,116.174c0.085-1.164-0.19-2.351-0.812-3.318c-0.471-0.853-1.194-1.559-2.169-1.969
		c-0.199-0.115-0.416-0.21-0.641-0.297c-0.437-0.331-0.954-0.582-1.543-0.74c-0.107-0.103-0.234-0.188-0.353-0.28
		c-0.786-0.704-1.857-1.154-3.22-1.154c-0.242,0-0.473,0.019-0.696,0.045c-0.088-0.101-0.177-0.203-0.263-0.302
		c-0.835-0.973-1.813-1.79-2.903-2.466c-2.384-1.481-5.893-1.932-8.638-1.818c-0.282,0.012-0.547,0.048-0.804,0.096
		c-0.358-0.19-0.721-0.373-1.091-0.543c-5.075-2.327-10.693-0.912-12.009,5.077c-0.311,1.416-0.108,2.647,0.476,3.668
		c-0.563,1.23-0.633,2.701-0.225,4.002h-1.013v5.43h36.333v-5.43H138.486z"/>
</g>
<g id="dog-head">
	<path fill="#5B360A" d="M112.414,84.887c-0.022-4.348,0-8.697-0.005-13.043c0.091-0.833-0.446-1.511-1.002-2.06
		c-0.28-0.083-0.563-0.157-0.846-0.224c-0.681,0.21-1.385,0.332-2.088,0.467c-0.364,0.072-0.782,0.129-1.185,0.231
		c0.236,0.069,0.477,0.126,0.719,0.166c-1.764,0.876-3.236,2.297-4.059,4.105c-1.576,3.122-0.802,6.708-0.997,10.06
		c-0.016,1.212-0.021,2.513,0.651,3.575c0.639,1.109,1.742,1.853,2.937,2.255l0.365,0.024c1.889,0.292,3.924-0.558,4.877-2.242
		C112.427,87.221,112.442,86.015,112.414,84.887z"/>
	<path fill="#FC9000" d="M136.264,89.74c-0.013-3.79-0.01-7.578,0-11.366c0.027-1.658-0.232-3.35-0.997-4.835
		c-0.889-1.834-2.486-3.19-4.237-4.168c-2.355-0.911-4.905-0.822-7.375-0.708c-3.046,0.223-6.104,0.075-9.151,0.084
		c-1.091,0.136-2.111,0.573-3.096,1.037c0.556,0.549,1.093,1.227,1.002,2.06c0.005,4.346-0.018,8.695,0.005,13.043
		c0.028,1.128,0.013,2.333-0.632,3.315c-0.953,1.685-2.988,2.534-4.877,2.242c0.004,1.367,0.004,2.729,0.004,4.094
		c-0.066,2.164,0.145,4.341-0.115,6.491c-0.356,1.812-1.723,3.212-3.392,3.857c0.989,1.89,1.618,3.936,2.59,5.833
		c0.649,1.268,1.416,2.235,2.411,2.935c2.311-0.019,4.661,0.712,6.978,1.001c2.237-0.76,4.394-1.758,6.411-2.987
		c-1.32-0.628-2.698-1.279-3.657-2.425c-1.063-1.279-1.88-2.853-1.963-4.541c-0.124-2.094,0.035-4.191,0.035-6.288
		c-0.402-2.323-0.191-4.689-0.242-7.034c-0.046-1.553,0.403-3.163,1.521-4.281c0.976-1.118,2.458-1.515,3.867-1.735
		c0.377-0.346,0.756-0.799,1.322-0.762c2.068-0.055,4.151-0.086,6.22,0.016c0.727,0.028,0.985,0.763,1.173,1.343
		c1.813,0.88,3.07,2.761,3.077,4.792c-0.007,2.458,0.156,4.936-0.156,7.383c0.152,0.343,0.305,0.69,0.457,1.034l0.05,0.112
		C134.834,96.262,136.518,93.147,136.264,89.74z"/>
	<path fill="#002E6E" d="M131.029,69.37c1.234,0.179,2.266,0.891,3.268,1.585c2.711,1.654,4.215,4.897,4.134,8.02
		c-0.015,2.292,0.006,4.582-0.006,6.874c0.026,1.558-0.826,3.083-2.161,3.892c-0.013-3.79-0.01-7.578,0-11.366
		c0.027-1.658-0.232-3.35-0.997-4.835C134.378,71.705,132.78,70.349,131.029,69.37z"/>
	<path fill="#002E6E" d="M116.31,82.274c0.541-0.4,1.468-0.211,1.721,0.456c0.417,0.758-0.396,1.805-1.231,1.576
		C115.848,84.204,115.524,82.79,116.31,82.274z"/>
	<path fill="#002E6E" d="M131.699,82.134c0.772-0.311,1.738,0.331,1.539,1.202c-0.029,1-1.515,1.349-2.021,0.502
		C130.746,83.277,131.069,82.413,131.699,82.134z"/>
	<path fill="#8097B7" d="M122.296,85.146c2.102-0.044,4.208-0.069,6.307-0.008c0.642-0.113,0.553,0.56,0.63,0.975
		c-2.312,0.158-4.632,0.08-6.941,0.048C122.291,85.907,122.294,85.399,122.296,85.146z"/>
	<path fill="#FC7F00" d="M132.988,98.137c0.152,0.343,0.305,0.69,0.457,1.034c-2.586,5.165-6.762,9.468-11.653,12.499
		c-1.32-0.628-2.698-1.279-3.657-2.425c-1.063-1.279-1.88-2.853-1.963-4.541c-0.124-2.094,0.035-4.191,0.035-6.288
		c0.667,0.7,1.426,1.5,2.478,1.462c3.819,0.059,7.641,0.009,11.461,0.021C131.399,100.017,132.396,99.149,132.988,98.137z"/>
	<path fill="#873AE2" d="M105.693,99.976c0.071-0.551,0.599-0.896,1.109-0.99c0.767,0.061,1.359,0.618,2.034,0.93
		c0.326,0.169,0.705,0.222,1.021,0.418c0.309,0.186,0.648,0.312,0.98,0.451c2.874,1.161,5.881,1.98,8.93,2.534
		c2.369,0.407,4.764,0.697,7.171,0.734c0.7-0.02,1.407,0.055,2.108-0.039c0.713-0.091,1.455-0.061,2.158,0.097l0.051,0.03
		c-0.007,0.038-0.012,0.115-0.016,0.152c0.148,0.197,0.374,0.401,0.301,0.676c-0.092,0.568-0.221,1.132-0.278,1.71
		c-0.059,0.395-0.069,0.839-0.342,1.158c-0.244,0.31-0.667,0.342-1.014,0.464c0.074,0.019,0.224,0.057,0.298,0.076l0.002,0.023
		c-0.806-0.037-1.606,0.084-2.409,0.129c-0.169,0-0.337-0.015-0.505-0.029c-0.139-0.11-0.39-0.167-0.459,0.045
		c-1.069-0.018-2.142-0.009-3.202-0.15c-0.233-0.564-0.696-1.023-1.271-1.24c-0.145-0.064-0.29-0.128-0.438-0.193
		c0.001-0.097,0.002-0.193,0.005-0.29c0.493,0.026,0.986,0.074,1.479,0.086c0.577-0.05,0.969-0.723,0.807-1.266
		c-0.082-0.377-0.374-0.717-0.773-0.755c-1.04-0.166-2.091-0.255-3.134-0.394c-0.618-0.09-1.2,0.505-1.134,1.119
		c0.029,0.581,0.576,1.046,1.15,1.028c-0.006,0.172,0.131,0.417-0.059,0.531c-0.353,0.218-0.699,0.447-0.993,0.742
		c-0.61-0.101-1.215-0.333-1.839-0.247c-2.158-0.435-4.277-1.043-6.354-1.775c-0.906-0.336-1.82-0.658-2.69-1.081
		c-0.894-0.376-1.731-0.883-2.644-1.22c-0.01-0.023-0.028-0.063-0.037-0.086c-0.075-0.056-0.151-0.109-0.228-0.16
		c-0.106-0.182-0.198-0.378-0.234-0.587C105.338,101.72,105.555,100.854,105.693,99.976z"/>
	<path fill="#FCC02E" d="M119.175,105.462c-0.066-0.614,0.516-1.209,1.134-1.119c1.043,0.138,2.094,0.228,3.134,0.394
		c0.399,0.039,0.691,0.378,0.773,0.755c0.162,0.542-0.229,1.215-0.807,1.266c-0.477-0.129-0.968-0.179-1.454-0.252
		c-0.078-0.452,0.081-1.029-0.35-1.338c-0.308-0.158-0.825-0.235-1.024,0.123c-0.139,0.384-0.181,0.803-0.133,1.209
		c-0.03-0.003-0.091-0.008-0.123-0.01C119.751,106.508,119.204,106.043,119.175,105.462z"/>
	<path fill="#FDD737" d="M120.581,105.291c0.199-0.357,0.717-0.28,1.024-0.123c0.431,0.309,0.271,0.886,0.35,1.338
		c0.486,0.073,0.978,0.123,1.454,0.252c-0.493-0.012-0.986-0.06-1.479-0.086c-0.003,0.096-0.004,0.192-0.005,0.29
		c0.147,0.065,0.293,0.129,0.438,0.193c-0.16,0.013-0.32,0.034-0.48,0.056c0.016,0.433,0.116,0.896-0.061,1.311
		c-0.124,0.31-0.503,0.346-0.794,0.325c-0.326-0.017-0.487-0.354-0.546-0.632c-0.062-0.382,0.02-0.77-0.01-1.155
		c-0.004-0.187-0.009-0.374-0.023-0.559C120.4,106.094,120.442,105.675,120.581,105.291z"/>
	<path fill="#FCC02C" d="M121.882,107.211c0.16-0.022,0.32-0.043,0.48-0.056c0.574,0.216,1.037,0.675,1.271,1.24
		c0.138,0.32,0.224,0.671,0.19,1.022c-0.044,0.552-0.15,1.139-0.52,1.573c-0.589,0.664-1.521,1.054-2.406,0.87
		c-0.563-0.033-1.01-0.406-1.429-0.744c-0.307-0.382-0.526-0.848-0.588-1.338c-0.044-0.676,0.129-1.345,0.521-1.9
		c0.251-0.386,0.654-0.639,1.069-0.818c0.029,0.385-0.052,0.773,0.01,1.155c0.059,0.278,0.22,0.615,0.546,0.632
		c0.291,0.021,0.67-0.015,0.794-0.325C121.998,108.106,121.897,107.644,121.882,107.211z"/>
	<path fill="#FFCF00" d="M133.145,90.754c-0.007-2.03-1.264-3.911-3.077-4.792c-0.932,1.466-2.357,2.507-3.503,3.79
		c0.044,1.579-0.042,3.158,0.032,4.738c0.001,0.068,0.008,0.138,0.016,0.207c-0.517,0-1.034-0.01-1.552-0.026
		c-0.072-0.021-0.143-0.039-0.214-0.05c0.006-0.044,0.013-0.088,0.013-0.131c0.063-1.564-0.012-3.128,0.018-4.69
		c-1.014-1.053-2.091-2.038-3.087-3.103c-0.385-0.335-0.342-0.881-0.438-1.333c-1.409,0.22-2.892,0.617-3.867,1.735
		c-1.117,1.119-1.566,2.729-1.521,4.281c0.051,2.345-0.16,4.711,0.242,7.034c0.667,0.7,1.426,1.5,2.478,1.462
		c3.819,0.059,7.641,0.009,11.461,0.021c1.254,0.118,2.25-0.75,2.843-1.762C133.301,95.69,133.138,93.212,133.145,90.754z"/>
	<path fill="#002E6E" d="M125.542,94.428c0.569-0.301,0.879,0.337,1.224,0.68c1.043,1.144,2.983,1.147,4.009-0.024
		c0.329-0.333,0.683-0.997,1.217-0.629c0.526,0.431-0.042,1.117-0.391,1.466c-1.632,1.782-4.717,1.544-6.076-0.48
		C125.259,95.141,125.209,94.7,125.542,94.428z"/>
	<path fill="#002E6E" d="M119.442,94.255c0.569-0.343,0.88,0.381,1.225,0.77c1.043,1.296,2.985,1.3,4.009-0.026
		c0.328-0.379,0.684-1.131,1.216-0.713c0.529,0.49-0.041,1.264-0.389,1.66c-1.633,2.02-4.718,1.749-6.077-0.544
		C119.161,95.061,119.111,94.562,119.442,94.255z"/>
	<path fill="#002E6E" d="M128.895,84.619c-2.068-0.102-4.151-0.071-6.22-0.016c-0.566-0.038-0.945,0.416-1.322,0.762
		c0.096,0.452,0.053,0.998,0.438,1.333c0.996,1.064,2.073,2.05,3.087,3.103c-0.029,1.562,0.046,3.126-0.018,4.69
		c-0.003,0.19-0.042,0.389-0.108,0.576c0.611,0.081,1.001,0.481,1.167,0.966c0.283-0.335,0.479-0.741,0.612-1.188
		c0.021-0.073,0.046-0.14,0.076-0.205c-0.006-0.05-0.009-0.1-0.01-0.148c-0.074-1.58,0.012-3.16-0.032-4.738
		c1.146-1.283,2.571-2.324,3.503-3.79C129.88,85.382,129.621,84.647,128.895,84.619z"/>
	<path fill="#8097B7" d="M122.296,85.146c2.102-0.044,4.208-0.069,6.307-0.008c0.642-0.113,0.553,0.56,0.63,0.975
		c-2.312,0.158-4.632,0.08-6.941,0.048C122.291,85.907,122.294,85.399,122.296,85.146z"/>
</g>
<g id="Lentes-bg">
	<path fill="#FFFFFF" d="M115.808,79.848c-2.566,0.343-5.153-0.106-7.845-0.617c-0.479,0.243-0.89,0.52-1.236,0.819
		c0.141,0.789,0.097,1.606-0.103,2.379c0.924,0.677,1.517,1.678,1.779,2.771c1.379,0.614,3.146,1.002,5.112,1.002
		c0.98,0,1.916-0.097,2.781-0.266C114.91,84.294,114.746,81.713,115.808,79.848z"/>
	<ellipse display="none" fill="#CE8432" cx="133.08" cy="79.138" rx="7.908" ry="4.073"/>
	<path fill="#FFFFFF" d="M136.991,79.954c-2.565,0.263-5.154-0.082-7.844-0.474c-0.479,0.187-0.891,0.399-1.237,0.628
		c0.14,0.606,0.099,1.233-0.102,1.826c0.923,0.521,1.516,1.288,1.776,2.127c1.38,0.471,3.146,0.769,5.114,0.769
		c0.981,0,1.916-0.073,2.782-0.203C136.095,83.366,135.93,81.384,136.991,79.954z"/>
</g>
<g id="Lentes">
	<g>
		<path d="M94.552,78.477c16.406-0.004,32.813-0.006,49.216-0.062c0.002,1.106,0.002,2.213,0,3.317
			c-0.505,0.003-1.008,0.003-1.509,0.006c-0.004,0.521-0.007,1.043-0.007,1.567c-0.6,0.002-1.202,0.002-1.804,0.008
			c-0.002,0.601-0.002,1.201-0.002,1.8c-3.957,0.003-7.915,0-11.878,0c-0.003-0.579-0.005-1.162-0.005-1.745
			c-0.523,0-1.049-0.002-1.569-0.002c-0.003-0.524-0.006-1.048-0.006-1.572c-1.104,0-2.208,0-3.313,0
			c-0.003,0.582-0.003,1.162-0.006,1.745c-0.522,0-1.046,0.002-1.568,0.002c0,0.524-0.004,1.049-0.004,1.572
			c-0.582,0-1.162,0.003-1.744,0.006c0,0.519,0,1.04,0,1.562c-3.961,0.011-7.922,0.005-11.882,0.003
			c0-0.504-0.004-1.007-0.004-1.506c-0.6-0.002-1.2-0.002-1.8-0.002c-0.006-0.604-0.006-1.207-0.008-1.807
			c-0.525-0.002-1.047-0.002-1.568-0.002c-0.002-0.524-0.004-1.048-0.008-1.572c-0.597,0-1.194,0-1.795-0.003
			c-0.003-0.516-0.005-1.034-0.005-1.55c-2.852-0.038-5.706-0.008-8.557-0.015c-0.003,0.483-0.007,0.967-0.01,1.454
			c-1.124,0-2.249,0-3.372,0c0.002-0.505,0-1.011,0-1.518c1.065,0,2.132,0,3.198,0.003C94.546,79.601,94.549,79.038,94.552,78.477z
			 M106.666,80.046c0,0.58,0,1.162,0,1.745c0.54,0,1.082,0,1.623,0c0-0.583,0-1.163,0-1.745
			C107.748,80.046,107.206,80.046,106.666,80.046z M109.985,80.046c0,0.58,0,1.162,0,1.745c0.582,0,1.165,0,1.747,0
			c0-0.583,0-1.166,0-1.745C111.15,80.046,110.567,80.046,109.985,80.046z M128.565,80.046c0,0.6,0,1.203,0.003,1.802
			c0.582,0,1.163,0.003,1.742,0.003c0,0.504,0,1.005,0.003,1.509c0.541,0.002,1.084,0.002,1.629,0.002c0-0.503,0-1.007,0-1.511
			c0.581,0,1.166-0.003,1.748-0.003c0-0.6,0-1.202,0-1.802c-0.604,0-1.204,0-1.807,0c0,0.583-0.003,1.165-0.003,1.748
			c-0.521-0.003-1.046-0.003-1.567-0.003c0-0.58-0.003-1.163-0.003-1.745C129.729,80.046,129.15,80.046,128.565,80.046z
			 M108.356,81.857c-0.002,0.563-0.002,1.124-0.002,1.687c0.523-0.006,1.049-0.012,1.57-0.015c0-0.562,0-1.121,0-1.681
			C109.399,81.852,108.878,81.854,108.356,81.857z M111.787,81.794c0,0.6,0,1.202,0,1.801c0.583,0.003,1.166,0.003,1.747,0.003
			c0,0.525,0,1.05,0,1.573c0.604,0,1.205,0,1.807,0c0-0.6,0-1.2-0.003-1.8c-0.578-0.003-1.16-0.006-1.74-0.006
			c-0.004-0.524-0.007-1.048-0.007-1.572C112.991,81.794,112.387,81.794,111.787,81.794z M133.69,81.791c0,0.524,0,1.051,0,1.575
			c0.522,0,1.051,0,1.575,0c-0.002-0.524-0.002-1.048-0.002-1.572C134.737,81.794,134.213,81.791,133.69,81.791z M109.985,83.599
			c0,0.525,0,1.052,0.003,1.577c0.56,0,1.121-0.003,1.683-0.003c0-0.523,0.005-1.048,0.005-1.57
			C111.111,83.599,110.548,83.599,109.985,83.599z"/>
	</g>
</g>
<g id="Capa_3">
	<g>
		<g>
			<path fill="#FFFFFF" d="M-40.267,2.096v230.456h409.699V2.096H-40.267z M112.943,221.882
				c-56.332,0-101.998-45.665-101.998-101.997S56.611,17.887,112.943,17.887s101.998,45.666,101.998,101.998
				S169.275,221.882,112.943,221.882z"/>
		</g>
		<g>
			<path fill="none" stroke="#FFFFFF" stroke-miterlimit="10" d="M-40.267,2.096v230.456h409.699V2.096H-40.267z M112.943,221.882
				c-56.332,0-101.998-45.665-101.998-101.997S56.611,17.887,112.943,17.887s101.998,45.666,101.998,101.998
				S169.275,221.882,112.943,221.882z"/>
		</g>
	</g>
</g>
</svg>
