<?xml version="1.0" encoding="utf-8"?>
<!-- Generator: Adobe Illustrator 16.0.0, SVG Export Plug-In . SVG Version: 6.00 Build 0)  -->
<!DOCTYPE svg PUBLIC "-//W3C//DTD SVG 1.1//EN" "http://www.w3.org/Graphics/SVG/1.1/DTD/svg11.dtd" [
	<!ENTITY ns_extend "http://ns.adobe.com/Extensibility/1.0/">
	<!ENTITY ns_ai "http://ns.adobe.com/AdobeIllustrator/10.0/">
	<!ENTITY ns_graphs "http://ns.adobe.com/Graphs/1.0/">
	<!ENTITY ns_vars "http://ns.adobe.com/Variables/1.0/">
	<!ENTITY ns_imrep "http://ns.adobe.com/ImageReplacement/1.0/">
	<!ENTITY ns_sfw "http://ns.adobe.com/SaveForWeb/1.0/">
	<!ENTITY ns_custom "http://ns.adobe.com/GenericCustomNamespace/1.0/">
	<!ENTITY ns_adobe_xpath "http://ns.adobe.com/XPath/1.0/">
]>
<svg version="1.1" xmlns:x="&ns_extend;" xmlns:i="&ns_ai;" xmlns:graph="&ns_graphs;"
	 xmlns="http://www.w3.org/2000/svg" xmlns:xlink="http://www.w3.org/1999/xlink" x="0px" y="0px" width="284px" height="284px"
	 viewBox="0 0 284 284" enable-background="new 0 0 284 284" xml:space="preserve">
<metadata>
	<sfw  xmlns="&ns_sfw;">
		<slices></slices>
		<sliceSourceBounds  height="284" width="284" bottomLeftOrigin="true" y="0" x="0"></sliceSourceBounds>
	</sfw>
</metadata>
<g id="Layer_1">
	<rect display="none" fill="#B8E5FA" width="284" height="284"/>
	<path fill="#F24B52" d="M149.97,55.73c28.61,3.61,55.141,20.12,71.42,43.87c3.44,5.22,6.95,10.52,9.03,16.45
		c-3.23-2.24-6.56-4.54-10.55-5.12c-7.601-2.94-15.83-2.65-23.81-2.28c-0.591-3.94-1.91-7.98-5.101-10.59
		c-5.87-5.53-16.26-4.57-21.1,1.86c-2.12,2.53-2.71,5.86-3.341,9c-3.529,0.44-6.819,1.85-10,3.35c-1.729-0.52-3.5-0.91-5.27-1.3
		c-0.41-13.28,1.78-27.34-4.23-39.75c1.041-3.48,1.67-7.07,2.271-10.65C150.15,59.07,150.23,57.4,149.97,55.73z"/>
	<g id="Dude">
		<path fill="#F3C9A3" d="M169.86,99.92c4.84-6.43,15.229-7.39,21.1-1.86c3.19,2.61,4.51,6.65,5.101,10.59
			c-9.83,0.72-19.7,0.24-29.541,0.27C167.15,105.78,167.74,102.45,169.86,99.92z"/>
		<path fill="#F3C9A3" d="M52.47,221.13c2.73-5.44,8.88-8.5,14.87-7.779c6.47,1.199,11.57,6.83,11.9,13.439
			c0.01,5.61-3.11,10.891-8.21,13.32c-6.5,2.93-14.85,0.3-18.18-6.08C50.66,230.11,50.75,225.2,52.47,221.13z"/>
		<path fill="#F3C9A3" d="M99.71,185.76c0.31-2.19,0.73-4.38,1.81-6.329c2.63,0.67,5.22,1.449,7.84,2.159
			c2.43,0.591,4.89,1.05,7.34,1.54c0.07,0.521,0.22,1.551,0.29,2.07C111.23,185.39,105.47,185.58,99.71,185.76z"/>
		<path fill="#F1B590" d="M51.42,77.48c1.85,0.01,3.71,0.02,5.56,0.02c-1.21,5.07-2.05,10.25-1.91,15.48
			c0.14,10.34-0.09,20.68,0.08,31.02c0.43,11.86,4.29,24.36,13.56,32.29c8.05,8.061,20.17,8.891,30.91,8.891
			c0.48,1.27,0.96,2.55,1.44,3.829c-1.99-0.38-4.22-1.12-6.16-0.12c-2.93,1.421-3.69,6.16-0.94,8.13
			c2.01,1.181,4.35,1.591,6.58,2.17c0.25,0.061,0.74,0.181,0.98,0.241c-1.08,1.949-1.5,4.139-1.81,6.329
			c-9.5,0.36-19,0.521-28.5,0.99c1.11-7.2,2.24-14.399,3.38-21.6c-10.55-0.601-20.94-4.771-28.41-12.34
			c-4.13-4.011-7.12-9.021-9.48-14.23c-0.67-0.23-2.01-0.7-2.68-0.93c-7.52-2.5-11.03-12.11-7.46-19.06
			c1.4-3.15,4.23-5.24,7.18-6.81c0.03,5.54-0.03,11.09,0.06,16.64c1.97-0.72,4.41-1.33,5.16-3.58c1.01-3.41,0.43-7.04,0.51-10.55
			c5.12-0.79,10.08-3.7,11.88-8.8C54.54,96.56,54.16,86.49,51.42,77.48z"/>
		<path fill="#FFC39F" d="M56.98,77.5c25.54-0.01,51.07,0.02,76.6-0.02c-2.74,9.02-3.14,19.11,0.09,28.05
			c1.81,5.09,6.77,7.96,11.88,8.81c-5.69,2.83-10.45,7.42-13.1,13.25c-5.09,10.08-2.59,21.66-3.22,32.479
			c-4.74,2.37-9.84,3.911-15.05,4.791c0.32,2.57,0.65,5.13,1.01,7.7c-0.5-0.121-1.49-0.36-1.99-0.48
			c-3.42-0.72-6.82-1.55-10.17-2.54c-0.49-0.14-1.47-0.4-1.97-0.53c-0.48-1.279-0.96-2.56-1.44-3.829
			c-10.74,0-22.86-0.83-30.91-8.891c-9.27-7.93-13.13-20.43-13.56-32.29c-0.17-10.34,0.06-20.68-0.08-31.02
			C54.93,87.75,55.77,82.57,56.98,77.5z"/>
		<path fill="#5B360A" d="M46.9,51c7.35-14.92,21.74-26.3,38.15-29.44c16.33-3.39,33.79,1.82,46.16,12.85
			c-0.82-2.73-1.63-5.48-2.25-8.27c8.44,4.42,15.609,11.7,18.59,20.88c1.61,4.34,1.44,9.01,1.74,13.55
			c-0.601,3.58-1.229,7.17-2.271,10.65c6.011,12.41,3.82,26.47,4.23,39.75c1.77,0.39,3.54,0.78,5.27,1.3
			c1.8,1.77,3.53,3.96,3.24,6.65c0.021,14.03-0.06,28.07,0.021,42.11c0.09,3.64,0.03,7.53-2.04,10.7
			c-3.08,5.439-9.65,8.18-15.75,7.239l-1.18-0.08c-3.85-1.3-7.42-3.7-9.48-7.279c-2.17-3.43-2.15-7.63-2.1-11.541
			c0.63-10.819-1.87-22.399,3.22-32.479c2.65-5.83,7.41-10.42,13.1-13.25c-5.11-0.85-10.07-3.72-11.88-8.81
			c-3.23-8.94-2.83-19.03-0.09-28.05c-25.53,0.04-51.06,0.01-76.6,0.02c-1.85,0-3.71-0.01-5.56-0.02
			c2.74,9.01,3.12,19.08-0.07,28.01c-1.8,5.1-6.76,8.01-11.88,8.8c-0.08,3.51,0.5,7.14-0.51,10.55c-0.75,2.25-3.19,2.86-5.16,3.58
			c-0.09-5.55-0.03-11.1-0.06-16.64c0.04-11.25-0.04-22.51,0.03-33.76c-0.01-7.5,2.62-15.01,7.62-20.64
			C43.25,55.27,45.79,53.7,46.9,51z"/>
	</g>
	<path display="none" fill="#FC9000" d="M73.01,85.05c2.85-1.86,7.13,0.64,7.21,3.98c0.27,3.16-2.66,5.08-4.68,6.98
		c-2.31-2.36-4.76-4.56-7.32-6.63C69.73,87.85,71.17,86.2,73.01,85.05z"/>
	<path display="none" fill="#FC7700" d="M60.91,96.57c2.32-2.52,4.79-4.88,7.31-7.19c2.56,2.07,5.01,4.27,7.32,6.63
		c-2.43,2.55-4.9,5.08-7.53,7.44C65.67,101.13,63.3,98.84,60.91,96.57z"/>
	<path display="none" fill="#F4D9B7" d="M67.26,92.29c1.6-0.57,2.16-0.02,1.68,1.64C67.33,94.48,66.77,93.94,67.26,92.29z"/>
	<path display="none" fill="#F4D7B3" d="M64.26,95.26c1.62-0.54,2.17,0,1.64,1.64C64.26,97.43,63.72,96.88,64.26,95.26z"/>
	<path display="none" fill="#F1FFFF" d="M71.28,95.29c1.46-0.04,1.54,2.44,0.03,2.39C69.91,97.68,69.82,95.26,71.28,95.29z"/>
	<path display="none" fill="#FC9000" d="M56.52,101.6c0.88-2.1,2.82-3.47,4.39-5.03c2.39,2.27,4.76,4.56,7.1,6.88
		c-2.08,1.83-3.88,4.89-7.05,4.57C57.81,108.12,55.4,104.5,56.52,101.6z"/>
	<path display="none" fill="#F1FFFF" d="M68.34,98.35c1.32,0.64,1.34,1.32,0.04,2.02C67.06,99.72,67.04,99.05,68.34,98.35z"/>
	<path fill="#FC7700" d="M88.21,108.15c2.87-0.17,5.74-0.17,8.61-0.02c0.28,4.52,0.1,9.05,0.29,13.58c1.13,1.22,3.31,2.19,2.83,4.2
		c-0.75,3.69-5.27,2.34-7.97,2.65c-2.23-0.27-5.59,0.74-6.66-1.93c-1.23-2.2,1.25-3.66,2.57-4.96
		C88.09,117.17,87.87,112.65,88.21,108.15z"/>
	<path fill="#FC9000" d="M156.52,112.27c3.181-1.5,6.471-2.91,10-3.35c9.841-0.03,19.711,0.45,29.541-0.27
		c7.979-0.37,16.209-0.66,23.81,2.28c5.649,3.16,10.811,7.54,13.68,13.46c2.47,4.8,3.311,10.26,3.22,15.61
		c-0.029,12.23-0.039,24.46,0,36.689c0.82,11-4.609,21.061-8.939,30.811l-0.16-0.36c-0.489-1.109-0.98-2.229-1.47-3.34
		c1-7.899,0.48-15.899,0.5-23.83c-0.02-6.56-4.08-12.63-9.931-15.47c-0.609-1.88-1.439-4.25-3.789-4.34
		c-6.681-0.33-13.4-0.229-20.08-0.05c-1.831-0.12-3.051,1.34-4.271,2.459c-4.55,0.711-9.33,1.991-12.479,5.601
		c-3.61,3.61-5.061,8.811-4.91,13.82c0.16,7.57-0.521,15.21,0.779,22.71c0,6.77-0.51,13.54-0.109,20.3
		c0.271,5.45,2.9,10.53,6.34,14.66c3.09,3.7,7.54,5.8,11.8,7.83c-18.5,11.27-40.54,16.649-62.15,14.89
		c-20.64-1.42-40.72-9.37-56.87-22.27c5.1-2.43,8.22-7.71,8.21-13.32c14.41-0.08,28.82-0.05,43.23,0
		c8.6,0.779,17.46-4.979,19.16-13.65c0.84-6.939,0.16-13.97,0.37-20.95c0-4.409,0-8.81-0.01-13.22c6.1,0.94,12.67-1.8,15.75-7.239
		c2.07-3.17,2.13-7.061,2.04-10.7c-0.08-14.04,0-28.08-0.021-42.11C160.05,116.23,158.319,114.04,156.52,112.27z"/>
	<path fill="#002E6E" d="M219.87,110.93c3.99,0.58,7.319,2.88,10.55,5.12c8.75,5.34,13.6,15.81,13.35,25.89
		c-0.05,7.4,0.011,14.791-0.02,22.19c0.08,5.03-2.67,9.95-6.98,12.56c-0.039-12.229-0.029-24.459,0-36.689
		c0.091-5.35-0.75-10.81-3.22-15.61C230.681,118.47,225.52,114.09,219.87,110.93z"/>
	<path fill="#492A09" d="M69.16,117.06c2.68-1.89,6.91,0.6,6.35,3.92c-0.02,3.4-4.84,5.13-7.07,2.62
		C66.45,121.88,66.88,118.35,69.16,117.06z"/>
	<path fill="#492A09" d="M111.28,117.12c2.41-1.73,6.28-0.05,6.48,2.92c0.7,3.22-3.21,5.91-6.02,4.3
		C108.94,123.09,108.67,118.73,111.28,117.12z"/>
	<path fill="#002E6E" d="M78.53,131.47c2.46-1.24,3.8,1.38,5.29,2.79c4.5,4.69,12.89,4.7,17.31-0.1c1.42-1.37,2.95-4.09,5.25-2.58
		c2.28,1.77-0.18,4.58-1.68,6.01c-7.05,7.311-20.37,6.33-26.24-1.97C77.31,134.39,77.1,132.58,78.53,131.47z"/>
	<path display="none" fill="#FC7F00" d="M174.28,137.4c3.52-0.77,7.17-0.35,10.75-0.41c11.33,0.03,22.659,0.06,33.989-0.02
		c1.75,0.13,3.67-0.12,5.291,0.71c0.77,1.34,1.339,3.39-0.051,4.57c-1.149,1-2.86,0.63-4.25,0.79c-14.67-0.14-29.35,0.12-44.02-0.13
		C172.8,143.689,171.63,138.41,174.28,137.4z"/>
	<path fill="#F24B52" d="M34.02,137.65c0.67,0.23,2.01,0.7,2.68,0.93c2.36,5.21,5.35,10.22,9.48,14.23
		c7.47,7.569,17.86,11.739,28.41,12.34c-1.14,7.2-2.27,14.399-3.38,21.6c-1.3,8.86-2.6,17.73-3.87,26.601
		c-5.99-0.721-12.14,2.339-14.87,7.779C34.85,197.601,27.73,166.431,34.02,137.65z"/>
	<path display="none" fill="#FC7F00" d="M168.311,145.319c2.509-0.609,5.14-0.409,7.709-0.459c13.98,0.18,27.971-0.05,41.95,0.06
		c3.91,0.09,7.87-0.42,11.74,0.33c2.74,1.28,1.521,6.21-1.68,5.65c-15.33,0.28-30.67,0.02-46.011,0.09
		c-4.6-0.13-9.239,0.34-13.81-0.25C166.4,149.58,166.319,146.21,168.311,145.319z"/>
	<path fill="#002E6E" d="M172.35,152.59c1.75-1.29,4.74-0.68,5.561,1.471c1.34,2.449-1.28,5.829-3.979,5.09
		C170.86,158.819,169.819,154.26,172.35,152.59z"/>
	<path fill="#002E6E" d="M222.03,152.14c2.5-1,5.619,1.07,4.97,3.88c-0.09,3.23-4.89,4.351-6.52,1.62
		C218.96,155.83,220,153.04,222.03,152.14z"/>
	<path fill="#F24B52" d="M114.18,164.86c5.21-0.88,10.31-2.421,15.05-4.791c-0.05,3.911-0.07,8.111,2.1,11.541
		c2.06,3.579,5.63,5.979,9.48,7.279c-7.03,4.811-14.73,8.86-23.31,9.9c-0.17-1.2-0.34-2.4-0.51-3.59c-0.07-0.52-0.22-1.55-0.29-2.07
		c-0.49-3.529-0.96-7.061-1.51-10.569C114.83,169.99,114.5,167.431,114.18,164.86z"/>
	<path display="none" fill="#002E6E" d="M188.63,162.569c1.22-1.119,2.439-2.579,4.271-2.459c6.68-0.18,13.399-0.28,20.08,0.05
		c2.35,0.09,3.18,2.46,3.789,4.34c-3.01,4.73-7.609,8.09-11.31,12.23c0.14,5.1-0.141,10.2,0.101,15.3
		c0.009,2.06,1.279,4.38,3.52,4.58c3.609,0.409,7.28-0.171,10.89,0.34c2.771,0.22,2.8,5.13,0.04,5.189
		c-5.779,0.021-12.29,1.351-17.22-2.489c-4.81,3.77-11.15,2.52-16.8,2.53c-2.921,0.43-3.36-4.271-0.95-5.07
		c3.91-0.86,7.96,0.05,11.899-0.57c1.961-0.49,2.991-2.63,3.011-4.51c0.21-5.05-0.03-10.1,0.06-15.141
		c-3.27-3.399-6.75-6.579-9.97-10.02C188.8,165.79,188.939,164.03,188.63,162.569z"/>
	<path fill="#8097B7" d="M191.681,161.86c6.779-0.141,13.579-0.221,20.359-0.03c2.07-0.36,1.779,1.81,2.029,3.15
		c-7.459,0.51-14.949,0.26-22.409,0.159C191.66,164.319,191.67,162.681,191.681,161.86z"/>
	<path display="none" fill="#FFCF00" d="M176.15,168.17c3.149-3.609,7.93-4.89,12.479-5.601c0.31,1.461,0.17,3.221,1.41,4.301
		c3.22,3.44,6.7,6.62,9.97,10.02c-0.09,5.041,0.15,10.091-0.06,15.141c-0.02,1.88-1.05,4.02-3.011,4.51
		c-3.939,0.62-7.989-0.29-11.899,0.57c-2.41,0.8-1.971,5.5,0.95,5.07c5.649-0.011,11.99,1.239,16.8-2.53
		c4.93,3.84,11.44,2.51,17.22,2.489c2.76-0.06,2.73-4.97-0.04-5.189c-3.609-0.511-7.28,0.069-10.89-0.34
		c-2.24-0.2-3.511-2.521-3.52-4.58c-0.241-5.1,0.039-10.2-0.101-15.3c3.7-4.141,8.3-7.5,11.31-12.23
		c5.851,2.84,9.911,8.91,9.931,15.47c-0.02,7.931,0.5,15.931-0.5,23.83c-1.92,3.27-5.131,6.07-9.181,5.69
		c-12.33-0.04-24.67,0.12-37-0.07c-3.399,0.12-5.85-2.46-8-4.72c-1.3-7.5-0.619-15.14-0.779-22.71
		C171.09,176.98,172.54,171.78,176.15,168.17z"/>
	<path fill="#F1B590" d="M94.9,168.89c1.94-1,4.17-0.26,6.16,0.12c0.5,0.13,1.48,0.391,1.97,0.53c-0.92,3.19-1.75,6.41-2.49,9.649
		c-2.23-0.579-4.57-0.989-6.58-2.17C91.21,175.05,91.97,170.311,94.9,168.89z"/>
	<path fill="#FFC39F" d="M103.03,169.54c3.35,0.99,6.75,1.82,10.17,2.54c-0.79,3.33-1.27,6.98-3.84,9.51
		c-2.62-0.71-5.21-1.489-7.84-2.159c-0.24-0.061-0.73-0.181-0.98-0.241C101.28,175.95,102.11,172.73,103.03,169.54z"/>
	<path display="none" fill="#F1FFFF" d="M104.47,172.09c1.61-0.479,2.16,0.091,1.63,1.729
		C104.48,174.29,103.94,173.71,104.47,172.09z"/>
	<path fill="#FFC39F" d="M113.2,172.08c0.5,0.12,1.49,0.359,1.99,0.48c0.55,3.509,1.02,7.04,1.51,10.569
		c-2.45-0.49-4.91-0.949-7.34-1.54C111.93,179.061,112.41,175.41,113.2,172.08z"/>
	<path display="none" fill="#F1FFFF" d="M108.54,173.16c1.59-0.54,2.13,0.021,1.62,1.69C108.58,175.38,108.04,174.811,108.54,173.16
		z"/>
	<path display="none" fill="#F1FFFF" d="M103.28,176.53c1.62-0.53,2.18,0.02,1.66,1.65C103.31,178.7,102.76,178.15,103.28,176.53z"
		/>
	<path display="none" fill="#F4DABA" d="M108.24,177.4c1.29,0.72,1.24,1.369-0.15,1.95C106.79,178.63,106.84,177.98,108.24,177.4z"
		/>
	<path fill="#15BBDC" d="M117.5,188.79c8.58-1.04,16.28-5.09,23.31-9.9l1.18,0.08c0.01,4.41,0.01,8.811,0.01,13.22
		c-7.05,4.211-14.83,7.261-23.03,8.261c1.14,8.78,2.34,17.56,3.5,26.34c-14.41-0.05-28.82-0.08-43.23,0
		c-0.33-6.609-5.43-12.24-11.9-13.439c1.27-8.87,2.57-17.74,3.87-26.601c9.5-0.47,19-0.63,28.5-0.99
		c5.76-0.18,11.52-0.37,17.28-0.56C117.16,186.39,117.33,187.59,117.5,188.79z"/>
	<path fill="#F24B52" d="M118.97,200.45c8.2-1,15.98-4.05,23.03-8.261c-0.21,6.98,0.47,14.011-0.37,20.95
		c-1.7,8.671-10.56,14.43-19.16,13.65C121.31,218.01,120.11,209.23,118.97,200.45z"/>
	<path fill="#FC7F00" d="M226.2,203.8c0.489,1.11,0.98,2.23,1.47,3.34c-8.351,16.671-21.82,30.561-37.62,40.351
		c-4.26-2.03-8.71-4.13-11.8-7.83c-3.439-4.13-6.069-9.21-6.34-14.66c-0.4-6.76,0.109-13.53,0.109-20.3c2.15,2.26,4.601,4.84,8,4.72
		c12.33,0.19,24.67,0.03,37,0.07C221.069,209.87,224.28,207.069,226.2,203.8z"/>
	<path fill="#FFC39F" d="M105.838,182.797c0,1.529-1.239,2.769-2.768,2.769l0,0c-1.529,0-2.768-1.239-2.768-2.769v-17.459
		c0-1.529,1.239-2.769,2.768-2.769l0,0c1.529,0,2.768,1.239,2.768,2.769V182.797z"/>
</g>
<g id="Capa_4" display="none">
	<path display="inline" fill="#F34334" d="M135.751,216.457c-0.019-1.776,1.498-3.104,3.068-3.625
		c2.458-0.15,4.583,1.351,6.858,2.036c1.115,0.39,2.335,0.39,3.423,0.869c1.059,0.455,2.189,0.697,3.302,0.989
		c9.62,2.398,19.502,3.658,29.4,4.052c7.684,0.233,15.393,0.089,23.026-0.866c2.214-0.372,4.484-0.451,6.659-1.061
		c2.22-0.607,4.582-0.838,6.88-0.654l0.172,0.067c0.006,0.124,0.016,0.372,0.022,0.495c0.555,0.554,1.359,1.103,1.253,2.003
		c-0.041,1.843-0.197,3.686-0.123,5.535c-0.01,1.278,0.159,2.69-0.569,3.82c-0.632,1.092-1.956,1.379-3,1.921
		c0.242,0.027,0.733,0.082,0.979,0.109l0.016,0.074c-2.567,0.243-5.05,0.98-7.572,1.48c-0.537,0.071-1.074,0.102-1.612,0.132
		c-0.484-0.289-1.303-0.355-1.438,0.348c-3.388,0.418-6.778,0.922-10.2,0.946c-0.993-1.681-2.664-2.928-4.571-3.357
		c-0.491-0.139-0.982-0.277-1.471-0.418c-0.04-0.308-0.08-0.611-0.117-0.915c1.573-0.142,3.155-0.206,4.725-0.387
		c1.806-0.418,2.746-2.72,1.989-4.368c-0.43-1.158-1.501-2.104-2.788-2.046c-3.363-0.064-6.73,0.122-10.094,0.147
		c-1.996-0.012-3.578,2.132-3.087,4.045c0.341,1.828,2.285,3.057,4.095,2.74c0.062,0.55,0.599,1.263,0.053,1.714
		c-1.02,0.845-2.016,1.724-2.817,2.786c-1.975-0.046-3.99-0.517-5.931,0.037c-7.024-0.418-14.013-1.401-20.908-2.792
		c-3.018-0.661-6.052-1.275-8.994-2.228c-3.005-0.793-5.882-2.021-8.917-2.688c-0.04-0.065-0.119-0.188-0.16-0.252
		c-0.261-0.145-0.522-0.276-0.787-0.405c-0.42-0.531-0.794-1.109-1.003-1.758C135.403,222.139,135.705,219.3,135.751,216.457z"/>
	<path display="inline" fill="#FCC02E" d="M180.882,227.83c-0.491-1.913,1.091-4.057,3.087-4.045
		c3.363-0.025,6.73-0.212,10.094-0.147c1.287-0.059,2.358,0.888,2.788,2.046c0.757,1.648-0.184,3.95-1.989,4.368
		c-1.566-0.2-3.146-0.139-4.718-0.154c-0.446-1.395-0.2-3.29-1.705-4.079c-1.038-0.365-2.713-0.377-3.186,0.845
		c-0.268,1.281-0.215,2.623,0.119,3.886c-0.098,0.006-0.298,0.016-0.396,0.021C183.167,230.887,181.223,229.658,180.882,227.83z"/>
	<path display="inline" fill="#FDD737" d="M185.253,226.663c0.473-1.222,2.147-1.21,3.186-0.845
		c1.505,0.789,1.259,2.685,1.705,4.079c1.572,0.016,3.151-0.046,4.718,0.154c-1.569,0.181-3.151,0.245-4.725,0.387
		c0.037,0.304,0.077,0.607,0.117,0.915c0.488,0.141,0.979,0.279,1.471,0.418c-0.504,0.113-1.002,0.252-1.498,0.388
		c0.239,1.366,0.767,2.788,0.39,4.18c-0.253,1.038-1.441,1.318-2.365,1.38c-1.039,0.092-1.705-0.904-2.009-1.762
		c-0.372-1.179-0.283-2.444-0.547-3.647c-0.093-0.59-0.199-1.177-0.323-1.761C185.038,229.286,184.985,227.944,185.253,226.663z"/>
	<path display="inline" fill="#FCC02C" d="M190.227,232.159c0.496-0.136,0.994-0.274,1.498-0.388
		c1.907,0.43,3.578,1.677,4.571,3.357c0.577,0.955,1.004,2.027,1.059,3.154c0.111,1.766,0.035,3.671-0.945,5.21
		c-1.566,2.364-4.343,4.011-7.231,3.827c-1.802,0.146-3.375-0.839-4.853-1.724c-1.143-1.075-2.046-2.448-2.457-3.972
		c-0.439-2.119-0.196-4.321,0.805-6.251c0.627-1.336,1.785-2.313,3.022-3.064c0.264,1.203,0.175,2.469,0.547,3.647
		c0.304,0.857,0.97,1.854,2.009,1.762c0.924-0.062,2.112-0.342,2.365-1.38C190.993,234.947,190.466,233.525,190.227,232.159z"/>
</g>
<g id="Capa_6">
	<path fill="#873AE2" d="M138.079,209.737c0.232-1.779,1.934-2.893,3.578-3.193c2.478,0.195,4.392,1.995,6.572,3
		c1.06,0.546,2.279,0.717,3.3,1.35c0.995,0.604,2.091,1.005,3.163,1.454c9.281,3.75,18.985,6.397,28.826,8.182
		c7.65,1.313,15.379,2.252,23.146,2.369c2.266-0.06,4.547,0.181,6.807-0.124c2.305-0.295,4.699-0.193,6.971,0.313l0.162,0.092
		c-0.012,0.125-0.036,0.374-0.047,0.498c0.478,0.632,1.205,1.293,0.973,2.179c-0.301,1.837-0.716,3.658-0.901,5.518
		c-0.189,1.277-0.22,2.713-1.106,3.74c-0.785,1.003-2.148,1.104-3.27,1.498c0.238,0.062,0.721,0.186,0.964,0.247l0.005,0.077
		c-2.6-0.118-5.186,0.271-7.779,0.415c-0.547-0.003-1.088-0.05-1.63-0.094c-0.444-0.357-1.253-0.539-1.485,0.146
		c-3.447-0.059-6.908-0.031-10.334-0.487c-0.756-1.82-2.251-3.301-4.098-3.999c-0.473-0.208-0.943-0.415-1.412-0.625
		c0.004-0.313,0.006-0.623,0.012-0.932c1.593,0.081,3.184,0.237,4.778,0.277c1.864-0.164,3.128-2.333,2.603-4.088
		c-0.268-1.219-1.205-2.314-2.5-2.438c-3.354-0.535-6.748-0.822-10.113-1.27c-1.994-0.292-3.877,1.629-3.655,3.61
		c0.083,1.875,1.855,3.378,3.71,3.315c-0.017,0.558,0.421,1.347-0.189,1.721c-1.138,0.701-2.258,1.44-3.209,2.391
		c-1.967-0.323-3.916-1.077-5.934-0.798c-6.965-1.403-13.814-3.369-20.514-5.729c-2.924-1.085-5.873-2.126-8.68-3.491
		c-2.893-1.215-5.598-2.849-8.539-3.94c-0.031-0.07-0.093-0.204-0.125-0.275c-0.24-0.18-0.482-0.349-0.729-0.515
		c-0.345-0.59-0.638-1.222-0.756-1.898C136.933,215.37,137.633,212.573,138.079,209.737z"/>
	<path fill="#FCC02E" d="M181.606,227.451c-0.222-1.981,1.661-3.902,3.655-3.61c3.365,0.447,6.76,0.734,10.113,1.27
		c1.295,0.124,2.232,1.22,2.5,2.438c0.525,1.755-0.738,3.924-2.603,4.088c-1.539-0.421-3.126-0.58-4.696-0.816
		c-0.25-1.457,0.263-3.318-1.131-4.318c-0.986-0.511-2.66-0.759-3.305,0.397c-0.447,1.242-0.583,2.592-0.426,3.9
		c-0.099-0.008-0.301-0.025-0.398-0.033C183.462,230.829,181.689,229.326,181.606,227.451z"/>
	<path fill="#FDD737" d="M186.141,226.899c0.645-1.156,2.318-0.908,3.305-0.397c1.394,1,0.881,2.861,1.131,4.318
		c1.57,0.236,3.157,0.396,4.696,0.816c-1.595-0.04-3.186-0.196-4.778-0.277c-0.006,0.309-0.008,0.618-0.012,0.932
		c0.469,0.21,0.939,0.417,1.412,0.625c-0.52,0.042-1.037,0.11-1.553,0.177c0.047,1.399,0.375,2.896-0.197,4.234
		c-0.4,1.002-1.627,1.116-2.56,1.047c-1.052-0.055-1.577-1.145-1.761-2.043c-0.205-1.231,0.061-2.484-0.034-3.725
		c-0.011-0.603-0.034-1.205-0.075-1.807C185.558,229.491,185.693,228.142,186.141,226.899z"/>
	<path fill="#FCC02C" d="M190.342,233.093c0.516-0.066,1.033-0.135,1.553-0.177c1.847,0.698,3.342,2.179,4.098,3.999
		c0.443,1.036,0.72,2.169,0.617,3.303c-0.139,1.782-0.482,3.675-1.679,5.077c-1.897,2.143-4.905,3.4-7.769,2.81
		c-1.82-0.106-3.256-1.313-4.609-2.404c-0.991-1.236-1.701-2.737-1.898-4.317c-0.143-2.181,0.411-4.349,1.684-6.137
		c0.814-1.248,2.109-2.062,3.452-2.64c0.095,1.24-0.171,2.493,0.034,3.725c0.184,0.898,0.709,1.988,1.761,2.043
		c0.933,0.069,2.159-0.045,2.56-1.047C190.717,235.988,190.389,234.492,190.342,233.093z"/>
</g>
<g id="Capa_5" display="none">
	<path display="inline" fill="#873AE2" d="M139.358,210.249c-0.29,0.194-0.855,0.573-1.137,0.758
		c-1.951,1.444-2.234,3.889-1.79,6.122c5.507,6.491,12.483,11.484,19.241,16.565c1.598-3.001,3.291-5.951,5.017-8.879
		c-1.04-0.719-2.071-1.453-3.145-2.122c-2.161-0.847-4.484-1.452-6.307-2.967C147.285,216.565,143.294,213.443,139.358,210.249z"/>
	<path display="inline" fill="#FED116" d="M168.141,226.097c-2.234-1.33-4.967-3.241-7.452-1.281
		c-1.726,2.928-3.419,5.878-5.017,8.879c0.05,3.732,4.146,4.692,6.703,6.38c3.476,1.677,6.62,4.902,10.774,4.265
		c1.757-2.871,3.484-5.757,5.145-8.686c0.17-1.419,0.524-3.29-0.983-4.137C174.423,229.436,171.148,227.977,168.141,226.097z"/>
	<path display="inline" fill="#873AE2" d="M173.021,232.492c-3.355-1.879-6.598-3.952-9.969-5.799
		c-0.581,0.976-1.169,1.969-1.767,2.951c1.92,1.775,4.138,3.146,6.388,4.452c1.298,0.751,0,2.983-1.411,2.322
		c-2.508-0.693-4.436-2.572-6.46-4.12c-0.29,0.54-0.871,1.629-1.162,2.178c4.154,2.507,8.428,4.806,12.598,7.274
		c1.62-2.532,3.146-5.122,4.404-7.84c-0.622-0.339-1.864-1.016-2.492-1.347C173.116,232.54,173.053,232.508,173.021,232.492z"/>
	<path display="inline" fill="#873AE2" d="M196.73,244.403c-6.3-2.581-12.461-5.484-18.437-8.75
		c-1.66,2.929-3.388,5.814-5.145,8.686c6.557,3.29,13.129,6.549,19.903,9.371c1.072-0.668,2.072-1.443,3.169-2.049
		c0.984,0.211,1.701,1.009,2.541,1.509c0.807-1.516,1.887-3.112,1.427-4.919C199.988,246.339,198.302,245.186,196.73,244.403z"/>
	<path display="inline" fill="#F3FAFE" d="M193.013,247.484c-0.637,0.686-1.267,1.363-1.92,2.049
		c0.653,0.621,1.273,1.266,1.911,1.896c0.63-0.654,1.274-1.292,1.92-1.92C194.278,248.839,193.642,248.161,193.013,247.484z"/>
	<path display="inline" fill="#38322E" d="M209.634,252.459c-0.742-0.676-1.509-1.329-2.275-1.982
		c-0.58,0.693-1.161,1.396-1.75,2.097c0.63,0.597,1.251,1.201,1.863,1.806c0.727-0.612,1.452-1.227,2.17-1.821L209.634,252.459z"/>
	<path display="inline" fill="#362212" d="M198.763,253.17c-0.84-0.5-1.557-1.298-2.541-1.509c-1.097,0.605-2.097,1.381-3.169,2.049
		c-1.864,1.146-4.009,2.08-5.227,4.009c-1.677,2.274-2.016,5.218-1.798,7.969c1.113,4.911,5.814,8.813,10.936,8.37
		c5.952-0.202,10.79-6.218,9.613-12.089c-0.468-4.202-3.951-7.007-7.564-8.63L198.763,253.17z"/>
	<path display="inline" fill="#B1A7A1" d="M199.616,255.33c-4.088-0.78-8.773,0.259-10.91,4.164
		c0.338,0.241,1.024,0.732,1.363,0.982c0.402-0.613,1.208-1.839,1.604-2.442c1.145-0.517,2.322-0.92,3.483-1.348
		c0.734-0.896,2.267-0.944,2.653,0.306l0.598-0.079C198.899,256.444,199.303,255.92,199.616,255.33z"/>
	<path display="inline" fill="#F3FAFE" d="M201.552,257.13c-0.079-1.137-0.805,0.082-0.83,0.54
		c-0.758,2.653-0.726,5.428-0.823,8.153c1.235,0.839,2.404,1.774,3.565,2.71c1.273-2.581,1.936-5.668,0.508-8.347
		c-1.169,0.128-2.307-0.597-2.508-1.798C201.488,258.073,201.536,257.444,201.552,257.13z"/>
	<path display="inline" fill="#E9EAE9" d="M197.811,256.992c-0.387-1.25-1.919-1.202-2.653-0.306
		C195.819,256.767,197.149,256.913,197.811,256.992z"/>
	<path display="inline" fill="#B1A7A2" d="M201.794,256.977l-0.242,0.153c-0.016,0.314-0.063,0.943-0.088,1.259
		c0.201,1.201,1.339,1.926,2.508,1.798C204.036,258.905,202.73,257.75,201.794,256.977z"/>
	<path display="inline" fill="#EEE09A" d="M200.722,257.67c-0.579-0.186-1.733-0.573-2.313-0.757l-0.598,0.079
		c-0.661-0.079-1.991-0.226-2.653-0.306c-1.161,0.428-2.339,0.831-3.483,1.348c0.442,2.596,0.758,5.209,0.991,7.829
		c2.348-0.79,4.88-0.815,7.233-0.04C199.996,263.098,199.964,260.323,200.722,257.67z"/>
	<path display="inline" fill="#9D7925" d="M199.505,257.936c-2.211-0.007-4.437-0.007-6.654-0.007
		c0.057,2.146,0.049,4.306,0.016,6.458c2.227-0.006,4.443-0.006,6.662,0C199.513,262.234,199.505,260.082,199.505,257.936z"/>
	<path display="inline" fill="#F3FAFE" d="M192.665,265.863c-0.233-2.62-0.549-5.233-0.991-7.829
		c-0.396,0.604-1.202,1.829-1.604,2.442c-0.339-0.25-1.025-0.741-1.363-0.982c-1.058,2.959-1.098,6.225,0.499,9.007
		C190.343,267.598,191.479,266.687,192.665,265.863z"/>
	<path display="inline" fill="#FED116" d="M199.898,265.823c-2.354-0.775-4.886-0.75-7.233,0.04
		c-1.186,0.823-2.322,1.734-3.46,2.638c1.752,1.975,4.073,3.669,6.823,3.661c2.952,0.219,5.556-1.5,7.436-3.629
		C202.303,267.598,201.134,266.662,199.898,265.823z"/>
</g>
<g id="Capa_2" display="none">
</g>
<g id="Capa_3">
	<path fill="#FFCF00" d="M226.7,179.97c-0.02-6.56-4.08-12.63-9.931-15.47c-3.01,4.73-7.609,8.09-11.31,12.23
		c0.14,5.1-0.141,10.2,0.101,15.3c0.001,0.221,0.023,0.444,0.053,0.668c-1.67-0.002-3.339-0.033-5.009-0.085
		c-0.234-0.07-0.463-0.125-0.687-0.161c0.013-0.142,0.031-0.283,0.032-0.422c0.21-5.05-0.03-10.1,0.06-15.141
		c-3.27-3.399-6.75-6.579-9.97-10.02c-1.24-1.08-1.101-2.84-1.41-4.301c-4.55,0.711-9.33,1.991-12.479,5.601
		c-3.61,3.61-5.061,8.811-4.91,13.82c0.16,7.57-0.521,15.21,0.779,22.71c2.15,2.26,4.601,4.84,8,4.72c12.33,0.19,24.67,0.03,37,0.07
		c4.05,0.38,7.261-2.421,9.181-5.69C227.2,195.9,226.681,187.9,226.7,179.97z"/>
	<path fill="#002E6E" d="M202.153,191.829c1.84-0.974,2.841,1.088,3.955,2.196c3.364,3.692,9.637,3.699,12.941-0.078
		c1.062-1.078,2.205-3.22,3.925-2.029c1.705,1.391-0.134,3.604-1.256,4.729c-5.271,5.754-15.229,4.982-19.617-1.549
		C201.242,194.129,201.085,192.703,202.153,191.829z"/>
	<path fill="#002E6E" d="M182.466,191.269c1.839-1.106,2.842,1.23,3.956,2.488c3.364,4.183,9.636,4.193,12.939-0.088
		c1.063-1.223,2.206-3.648,3.926-2.303c1.705,1.579-0.135,4.086-1.256,5.36c-5.271,6.521-15.229,5.646-19.617-1.756
		C181.555,193.873,181.396,192.26,182.466,191.269z"/>
	<path fill="#002E6E" d="M212.98,160.16c-6.681-0.33-13.4-0.229-20.08-0.05c-1.831-0.12-3.051,1.34-4.271,2.459
		c0.31,1.461,0.17,3.221,1.41,4.301c3.22,3.44,6.7,6.62,9.97,10.02c-0.09,5.041,0.15,10.091-0.06,15.141
		c-0.007,0.616-0.13,1.257-0.353,1.858c1.978,0.266,3.237,1.552,3.772,3.12c0.913-1.085,1.545-2.393,1.976-3.838
		c0.07-0.234,0.154-0.452,0.246-0.661c-0.016-0.161-0.03-0.321-0.031-0.479c-0.241-5.1,0.039-10.2-0.101-15.3
		c3.7-4.141,8.3-7.5,11.31-12.23C216.16,162.62,215.33,160.25,212.98,160.16z"/>
	<path fill="#8097B7" d="M191.681,161.86c6.779-0.141,13.579-0.221,20.359-0.03c2.07-0.36,1.779,1.81,2.029,3.15
		c-7.459,0.51-14.949,0.26-22.409,0.159C191.66,164.319,191.67,162.681,191.681,161.86z"/>
</g>
</svg>
