<?xml version="1.0" encoding="utf-8"?>
<!-- Generator: Adobe Illustrator 16.0.0, SVG Export Plug-In . SVG Version: 6.00 Build 0)  -->
<!DOCTYPE svg PUBLIC "-//W3C//DTD SVG 1.1//EN" "http://www.w3.org/Graphics/SVG/1.1/DTD/svg11.dtd" [
	<!ENTITY ns_extend "http://ns.adobe.com/Extensibility/1.0/">
	<!ENTITY ns_ai "http://ns.adobe.com/AdobeIllustrator/10.0/">
	<!ENTITY ns_graphs "http://ns.adobe.com/Graphs/1.0/">
	<!ENTITY ns_vars "http://ns.adobe.com/Variables/1.0/">
	<!ENTITY ns_imrep "http://ns.adobe.com/ImageReplacement/1.0/">
	<!ENTITY ns_sfw "http://ns.adobe.com/SaveForWeb/1.0/">
	<!ENTITY ns_custom "http://ns.adobe.com/GenericCustomNamespace/1.0/">
	<!ENTITY ns_adobe_xpath "http://ns.adobe.com/XPath/1.0/">
]>
<svg version="1.1" xmlns:x="&ns_extend;" xmlns:i="&ns_ai;" xmlns:graph="&ns_graphs;"
	 xmlns="http://www.w3.org/2000/svg" xmlns:xlink="http://www.w3.org/1999/xlink" x="0px" y="0px" width="600px" height="600px"
	 viewBox="0 0 600 600" enable-background="new 0 0 600 600" xml:space="preserve">
<metadata><?xpacket begin="﻿" id="W5M0MpCehiHzreSzNTczkc9d"?>
<x:xmpmeta xmlns:x="adobe:ns:meta/" x:xmptk="Adobe XMP Core 5.3-c011 66.145661, 2012/02/06-14:56:27        ">
   <rdf:RDF xmlns:rdf="http://www.w3.org/1999/02/22-rdf-syntax-ns#">
      <rdf:Description rdf:about=""
            xmlns:xmp="http://ns.adobe.com/xap/1.0/"
            xmlns:xmpGImg="http://ns.adobe.com/xap/1.0/g/img/">
         <xmp:CreatorTool>Adobe Illustrator CS6 (Windows)</xmp:CreatorTool>
         <xmp:CreateDate>2017-11-11T17:21:39-04:00</xmp:CreateDate>
         <xmp:ModifyDate>2017-11-11T17:21:39-04:00</xmp:ModifyDate>
         <xmp:MetadataDate>2017-11-11T17:21:39-04:00</xmp:MetadataDate>
         <xmp:Thumbnails>
            <rdf:Alt>
               <rdf:li rdf:parseType="Resource">
                  <xmpGImg:width>256</xmpGImg:width>
                  <xmpGImg:height>256</xmpGImg:height>
                  <xmpGImg:format>JPEG</xmpGImg:format>
                  <xmpGImg:image>/9j/4AAQSkZJRgABAgEASABIAAD/7QAsUGhvdG9zaG9wIDMuMAA4QklNA+0AAAAAABAASAAAAAEA&#xA;AQBIAAAAAQAB/+4ADkFkb2JlAGTAAAAAAf/bAIQABgQEBAUEBgUFBgkGBQYJCwgGBggLDAoKCwoK&#xA;DBAMDAwMDAwQDA4PEA8ODBMTFBQTExwbGxscHx8fHx8fHx8fHwEHBwcNDA0YEBAYGhURFRofHx8f&#xA;Hx8fHx8fHx8fHx8fHx8fHx8fHx8fHx8fHx8fHx8fHx8fHx8fHx8fHx8fHx8f/8AAEQgBAAEAAwER&#xA;AAIRAQMRAf/EAaIAAAAHAQEBAQEAAAAAAAAAAAQFAwIGAQAHCAkKCwEAAgIDAQEBAQEAAAAAAAAA&#xA;AQACAwQFBgcICQoLEAACAQMDAgQCBgcDBAIGAnMBAgMRBAAFIRIxQVEGE2EicYEUMpGhBxWxQiPB&#xA;UtHhMxZi8CRygvElQzRTkqKyY3PCNUQnk6OzNhdUZHTD0uIIJoMJChgZhJRFRqS0VtNVKBry4/PE&#xA;1OT0ZXWFlaW1xdXl9WZ2hpamtsbW5vY3R1dnd4eXp7fH1+f3OEhYaHiImKi4yNjo+Ck5SVlpeYmZ&#xA;qbnJ2en5KjpKWmp6ipqqusra6voRAAICAQIDBQUEBQYECAMDbQEAAhEDBCESMUEFURNhIgZxgZEy&#xA;obHwFMHR4SNCFVJicvEzJDRDghaSUyWiY7LCB3PSNeJEgxdUkwgJChgZJjZFGidkdFU38qOzwygp&#xA;0+PzhJSktMTU5PRldYWVpbXF1eX1RlZmdoaWprbG1ub2R1dnd4eXp7fH1+f3OEhYaHiImKi4yNjo&#xA;+DlJWWl5iZmpucnZ6fkqOkpaanqKmqq6ytrq+v/aAAwDAQACEQMRAD8A7Zl7pXYq7FXYq7FXYq7F&#xA;XYq7FXYq7FXYq7FXYq7FXYq7FXYq7FXYq7FXYq7FXYq7FXYq7FXYq7FXYq7FXYq7FXYq7FXYq7FX&#xA;Yq7FXYq7FXYq7FXYq7FXYq7FXYq7FXYq7FXYq7FXYq7FXYq7FXYq7FXYq7FXYq7FXYq7FXYq7FXY&#xA;q7FXYq7FXYq7FXYq7FXYq7FXYq7FXYq7FXYq7FXYq7FXYq7FXYq7FXYq7FXYq7FXYq7FXYq7FXYq&#xA;7FXYq7FXYq7FXYq7FXYq7FXYq7FXYq8o1T/nI/yTbFksba8v2HRwixRn6Xbn/wAJkeMOUNLLqkMn&#xA;/OUEYciPy2WTsWveJ+4QN+vBxs/yfmj9M/5yZ0CaRV1LR7mzU7F4ZEuAPnyEJpjxsTpD0L1Xy/5g&#xA;0rzBpMOq6VKZ7K45enIVZDVGKsOLhTswIyYLjSiYmimOLF2KuxV2KuxV2KuxV2KuxV2KuxV2KuxV&#xA;2KuxV2KuxV2KuxV2KuxV2KuxV2KuxV2KuxV2KvjbWfJutp5h1S0tbN2itryeFHICIRHKygguQKbe&#xA;OY8pAF3eOEpRBAUx5E8y0/3nUe3qJ/XI+IG3wJIC+8u6zZPwuLZgSKjiVeo6fsk4RIFhLGRzfWn5&#xA;X6cNP/L3QLYLxJs452WlKNcfvmr71k3zIjydNmNzLKMLW7FXYq7FXYq7FXYq7FXYq7FXYq7FXYq7&#xA;FXYq7FXYq7FXYq7FXYq7FXYq7FXYq7FXYq7FXifmtbseabziUFv68vqqwPOpPw8TWlPHbMDJ9Rem&#xA;0393H3MY0TW0vJ57YzpdSIzyJLAp9NYuVI1djtzPtgkGyE7R19p1veen6tRwJoRsSD2wA0mUAXtn&#xA;k6aSXyzp/qRmIxxLCoPdYvgVt/FVrmdjNxec1UBHIQE5ybjuxV2KuxV2KuxV2KuxV2KuxV2KuxV2&#xA;KuxV2KuxV2KuxV2KuxV2KuxV2KuxV2KuxV2KuxV595/8p3z3TazpsLXAcD67bJvJVRQSIv7XwijA&#xA;fPxzGzYr3DtdBqxEcEvg85/SFhDVK+mQfiTgykHvUUzGdwE/8p+Ur/zJew3FxE0GhQsHd3FDPQ/Z&#xA;TxBpQnt88tx4ifc4Wr1Yxih9X3PZwAAABQDYAZmvPt4q7FXYq7FVJbq2ZgqyoWOwAYVrkBliTVhv&#xA;lpsoFmMq9xVcm0OxVIfM/mZdJRYYVEl5KOShvsqvTkadfbLcePidR2p2p+XAjHeZ+xicfnDzK86q&#xA;k/qM7ALCIkPIk0Cii8t8u8KLzse2dUZbSvyofqt6pa6Vex6JHdaoUttRYcmtlNRTw/1tx8swyRe3&#xA;J7rBin4IllqOTuQuFDsVdirsVdirsVdirsVdirsVdirsVdirsVdirsVdirsVRNrpt5dxmS3QSICV&#xA;JDLsR23OVQzQlfCbo18XIOlyCrHPd5R5q/LLzJd+Yr+5j0aaVJZSyyKahthuKNmNkiTIu700hHGA&#xA;eb0nyv5Y1m18v2NvJaGF44gGiJRSpqdqVzKxmoh1OpwylkJA2V5Y3ileJxSSM8XWoND9GGGWMro3&#xA;XNxsmGUK4hVrcm1uxVjPmvzTPpcsdraKpuGXm7uKhVJIAA23NM03afaUsJEIfVzeu9nPZ6GricuU&#xA;ngBoAdT+piuo+a9Yv7b6vNIqRk1cRjiWHgd+maLUdp5sseGR28ntND7O6TTZPEhG5dL3r3eaQPJd&#xA;i5REjUwndpKmo+jMB3tCmXaL54u7REt71DcwLsJK/vQPp2bN1o+2Z4wIz9Uft/a8f2r7JYs5M8J8&#xA;OZ6fwn9X42Z3aXdvd20dzbuHhkFVYZ0+LLHJESibBfN9Tpp4Mhx5BUo82GanqkWk+ef0hdWgvYoP&#xA;TeOBm4jaMAMDQ/ZbcbdczIxuFB4vVZxh7Q45x4oivu5/AstHmD8sNPL+aLRFbUpVPpWK7SLL+1+7&#xA;6Rk13bp4e9NTPpPJ6KJ0GOR1ER6z08/d09/yYromvaxr/nA6hePX9049Ja8I4v2UUf61MslARi6z&#xA;S9oS1OqN9Afd7mbZS752KuxV2KuxV2KuxV2KuxV2KuxV2KuxV2KuxV2KuxVomgJ8N8hkmIRMj0Fs&#xA;8cDOQiOppkflBSNILnrJK7fqH8M0nYg/cWesiXp+0v7yu4BO827r3YqwfXFMPmGcDZZeLfeo/jnO&#xA;xyHF2jX8M/1frdlqMYyaG+sf1/qUs6l5NjOv+dIbCZrW0jE9wm0jMfgU+G25Pjml13a4xS4YDikP&#xA;k9f2N7Ky1MBkykwgeQH1Hz8h3MJ1XVbrU7r6zchRJxCUQUFBXxJ8c5zU6mWaXFLm+g9ndnY9Jj8P&#xA;HfDd7qNtZXlzy+rQST8Kc/TVnpXpWgOURiTyDlzywh9RA96b6j5L16zX1FgN1AekkAL/AHr9ofdT&#xA;Lp6aceluDg7VwZNieE+aFg8ta3PBJNHaPSI0ZGHF+ldlahP0ZEYJkXTdPX4YyAMhuzDyLBe2+n3E&#xA;N1FJDSXlGkispoVFacqeGdL2HxDHIHvfPfbM45Z4SiQSY7170Z5i8twavGrBvSuoxSOWlQR14t7Z&#xA;v4T4XzvtLs2OpF8pjr+gsTHkLWzJxPogV/vOW36uWW+LF0Q7H1dcNjh9/wCy2X+X/L9vpFuyq3q3&#xA;ElPVmIpWnQKOwGUznxO/7P7Ojpo7byPMptkHYuxV2KuxV2KuxV2KuxV2KuxV2KuxV2KuxV2KuxV2&#xA;KqV03GBvfb781nbGXg00vPb5/sdn2Ri49RHy3+X7WXeWE46HbeJ5k/S5ynsiNaaPx+8uz7QN5pfj&#xA;ommbJw3Yqw3zgoXU4ZvFaH/YkH/jbOZ7a/d58eT8ek27js4eJinj/G4SzUJ2gsLmdN2iieRR7qpI&#xA;zp8+ThxykOkSfseX0WEZM8McuUpxB+Jp5AzMzFmNWY1JPUk5wBNvuYAAockw0DRLjWdRSygYJUF5&#xA;JG3CovU0HXrTLMWMzNBxtZq44MfGd2U/lV/vVqH/ABjj/W2ZWh5l0vtH9MPeU5vNc1mbVzbWbSxQ&#xA;eu9tC8Fr9YiRo0RjJdyVHpoxlAXjvSp7bbcRFPJk7oKz81azqd0EblpiC1+sJKIPXtWK1LGaZqem&#xA;DT4R4ftV2x4QzkJAA9CndjdveWNvdvF6LXEaytF/KXANM2WghUT73S9rzucR3RV6ZlzyRjzNOsx4&#xA;ZzvhF07JtZDsVdirsVdirsVdirsVdirsVdirsVdirsVdirsVdirsVdiqEv2+FV8TX7s5n2jy+mEP&#xA;Mn8fN6T2dxeqc/cPx8md6InDSLNf+Klb/ghX+ObTQRrBD+qGOrN5Ze9G5luO4kDc7YqxDzcodY5v&#xA;5ZGUfJh/zbnP+0MPRCXca+f9js+xp+uQ7x939qWKqzW3FxyWReLjxBFDm50Mxl08Sesa/QXQawHD&#xA;qZVsYysfeHlmt6LdaVeNDKpMRJ9Gbsy9vp8RnJazSSwTo8uh7313srtXHrMQnE+r+KPcf1dxQKX+&#xA;p2DC70yUw3cRDIR+0AQSpHQhqdDlGOZibDn5sEMseGYuLIPyv8zWS6zLYGGdpLxFQMkZZY2BO0lN&#xA;wN+tKZl6PaRHe6ft7TyliEgR6fPn7nol/wCWtJu/VkEkkEsyCOeSCVo1kCig9VEKo9B4jNlxGnkB&#xA;9VkWotoejiBY7mCG8lSnFmT4FAFBxRiyig6U2y3BgnM7fNhq9bCA9XIco9fx70R/nTN7DGIx4Q8p&#xA;lzGczM8yuOxIzn8uWRAiTfC9jgwQiTOIrippupzeaYyOMcXN5PWiIyyEeV/2tZe4rsVdirsVdirs&#xA;VdirsVdirsVdirsVdirsVdirsVdirsVaeGKRQHFffuM4P2h1BOpofwgD9P6XrOxgYYb/AJxv9H6G&#xA;tW/MKTy5Z20Ulp9eZ6rEDJ6RCoB1IR69R2zN0Ha8o4fWOKjQ6bAB2Gn7H/NZZcJ4QBZ67ljdz+e+&#xA;opWmgsVG9UuAf+Zdcy/5b/o/a53+hEn/ACv+x/al0v8AzkEQ1JdEcN4Ncb/jHj/LX9H7V/0GE/5X&#xA;/Y/tZFb+aZfMOjWd76Ato5w0gh5cyCrsg+Ki+FemartXXyzVGqjzcbB2ZHS5JC+Ija/kUbZNWGn8&#xA;pI/jm89n8vFgMf5svv3ea7excOcS/nBUnt4J4zFPGssZ6o4DD7jm7nCMhUhYdRhzTxS4oExl3g0k&#xA;ureUdMurJ4rSGO2uKho5QKbjsadjmt1XZWKcCIARl3vQdne02ow5hLLKWTHyI/SPNmv5daGmkeWI&#xA;ImjjW7laSS6kj/bbmwUk0BNEAGHQ6Y4cYifq6t/avaEdXmOSBJhtV+7f7bTS8thDcPciBZ4JQFuE&#xA;4guP8pdt/cZljHG7rd1c8kx1Jj3JZqWhGNfXs6vCd+B+0Ad9vHLYycHLp63jyS20tvXnEZqBuWI6&#xA;gDJEtEI2aVLqxuIAZKB0rQkGlAe5BzUR0BM9/peky9qCOO4j1IXNwBTzJJJsuxQ7FXYq7FXYq7FX&#xA;Yq7FXYq7FXYq7FXYq7FXYq7FXYq7FV+eW63N4mac++Re40+Pgxxj3B5t5+v0k1ooWCx2saozE0FT&#xA;8R3/ANkBl2nFRex7Hw8OG+sixcXtmSAJ4yT0HNf65fTtqKo8ccgKuoYHqCK42h6d5Tsrc+WrFQvA&#xA;KrAcdqD1GyrXS4ZR/qD9LxOpzS8fJ/W/QE3gtjDy+LkDTalM3Xs1n9c4d4v5f2vPdveqEZdxr5/2&#xA;Kudg8w7FWW6B/wAcqH5t/wASOVS5uz030BMMi3qdxOsSVO5OyjxxYylSUiNA5cKA7bEjvTJuNQu0&#xA;v1ebZIR/rN+oZKIaM8uiWZJx3Yq7FXYq7FXYq7FXYq7FXYq7FXYq7FXYq7FXYq7FXYq2OuYuuzeH&#xA;gnLuifn0b9Lj48sY95czKilmNFUEk+wzy4B7gC9niuv3DXov7hus3qSUPbqQM2sRVB7zBj4Ixj3M&#xA;n/L3TFg8h3l06DndieVHpuFRCg/FCc6nszABp5SI52+fe0+uJ7QhjiT6OEH4m/uLGc5d9Eep+UP+&#xA;Ucsvk/8AxNsj2pH+7P8Atf8AvpPA6g/4Tm/r/wC9im56HJdh5eDVR89vn+113aePiwS8t1ueivIL&#xA;ZZY4o2kkYJGgLMx2AA74sZSEQSdgE+8i61Bq2jPNApWKCeSFSerUAfkR2rz6ZDLHhLkdk62OoxGU&#xA;eQkR+Pm35k88aJ5euI7e/wDVMsqeoixIG+GpXqSvcYwxGXJHaHbOHSSEcl2RewYXrn5v2916dvp9&#xA;myQl0MtxOQHChgW4IhNDTvy+jL46aubz2q9q4yIGOPpsWZc68gP1sng1g+n+8XmafC603ykxejjn&#xA;2Qc8zTStI3Vu3gMkA1SlZtTxYuxV2KuxV2KuxV2KuxVMNL0iW+Jct6cCmhbqSfAZGUqb8OAz9ycD&#xA;y3pwFCZCfEsP4DIcZcr8rBTl8sWpH7qZ0P8AlUYfhxw8bE6QdCg5fLN4tfTkRx2rVT+oj8cPGGo6&#xA;SXRBy6Pqce7QMR/k0b/iNclxBqOCY6IWSKSM0kQofBgQfxwtZBHNbih2KuxV2Ku5Ku7Gg8c03b/F&#xA;+VlXeL+bsuyQDnHxSvzXefVdAunB+KRfST5yfCfwrnBYY3IPddnYuPPEd2/yeT3C8oJF8VYfeM2I&#xA;ezD1G20/9HeThY0o0FiyP/r+mS5+lq53ePFwYOHuj+h8V1Gp8fXHJ/Oybe69vseZZwj7S9S8oH/n&#xA;XLIez/8AEzlna0f3eE/0T9757mP+F5x/TH3BN2dFpyNATTNXpzIZImPMEIyREokHlTWeqvCME88a&#xA;3JJcnTIWpDFQz0/ac7gfJf15k4odXkO3teZT8GP0jn5n9jO/yY/5Re6/5jpP+TMWY+p+r4PQ+yX+&#xA;LS/4Yf8AcxY5+dKMNbsH/ZNsQPmJGr+vLdNyLqPa4fvoH+j+kvPMyXknrOjSmXSbNzuTCm/WtFAr&#xA;mFLm+l6b+6j7gjci3uxV2KuxV2KuxV2KuxV2Ks00yEQ6fAlKHgCR7tufxOUnm7bFGohE4Gx2KuxV&#xA;2KuIBFCKjwOKoaXTNPlHx26b9wOJ+8Uw2Ws4onohJfLmnP8AZ5x/6rV/4lXDxlqOlgUJL5WbcxXA&#xA;PgGWn4g/wyXG1nSdxQkvl7Uk+yqyf6rD/jbjh4w1HTTCDuNOvIVPrQMF/aNKr942wSjGYMTuCwEZ&#xA;wIlyIeWeZ9fF5d3OmRxOi6fcGOR2IIdgoI409n75w2r0P5edXd/c+qezmXxoHKRXIfrQWg2YvNYt&#xA;LciqtIC48VX4m/AYdDi8TNGPn927s+2dT4GkyT6iO3vOw+0vTtX/AOOVe/8AGCX/AIgc7fL9B9xf&#xA;G9J/ew/rD73kWefPuzLZPMz6H5a0jhbNcG4E32ZBGRwceINa883uTQePgxG+GgXznPn4Ndn2v1D7&#xA;kR5O85Lr+qz2jWj28ltF6hLuHr8QWmwHjlnZ/ZAx5ROUuLh8urg9q64+DwxFcRpmedI8q8n14ONa&#xA;v+fX15KV8ORp+GZsOQfOe0L/ADE7/nH73qX5LS10K+ir9m65U/1o1H/GuYmp5h7T2Rl+4mP6f6Al&#xA;X52qovdKenxGOUE+wZafryel5FwfbAevGfI/oeYyvxPEddjX5iuXkuh0+kiAJHfq9W8ssW0CwJ/3&#xA;yo+7bMWXN7bSf3UfcmeRch2KuxV2KuxV2KuxVeYZB7/LKRqIHq58+zc0RdX7nRRtJMkQ+07BR8ya&#xA;ZdbhCJumR+afMMPl7Rn1GSIzBGSNIQ3EsWNOtD0G+a/V6kYYcRFvTdnaE6nKMYNebGrL85PLM1Bc&#xA;w3Nq3diquv3q3L/hcwYds4jzBDt8vsvqI/SYy+z8fNPrLz55PvKCHVYFJ6CYmE/8lAmZcNfhlykP&#xA;u+91uXsfVY+eOXw3+606guLe4QSQSpLGejowYfeMyoyB3Bt104SiakKKpkmLsVdirsVdirsVdiry&#xA;f82vJ1haINfsIhC88oXUEQUVnZfhlp2Pw8W8dvfND2zp9hkHuL2PstrdzgPL6h+kMb/L+09TU57k&#xA;iqwR0B8Gc7fgDlXYWK8pl/NH3p9tNTw6eOPrOX2R/aQzTV/+OVe/8YJf+IHOmy/QfcXzvSf3sP6w&#xA;+95Fnnz7snd5o97qVpoESAi3kSSL1gpZUcyMfip0B2zrtHEnDD3Pl/aeaMNXnPXi/QF3kkR6P5ln&#xA;ttS/0e6kj+rxgg/EzOpUVA79j0zMw+mVF1mtPi47hvW/2PS8y3SMD8+aWsN3HqEewufhlX/LUbH6&#xA;RmThltTx/tBpBGYyD+Ln7wyb8ntVtraz1KCQOX9SOT4VqKFSP4Zia7KIUS7z2LjxxyRHMEH53+pB&#xA;fnBqNveXWmiFJKRJLykZaIeRWgU+I47/AEZLQ5YzBpo9tMUoTxgg8jv06be/v94ebz/3h+S/qGZb&#xA;p8X0R9w+56n5QYN5csSDX4GH3OwzGnzep0R/dRTjIuU7FXYq7FXYq7FXYqjM0z26vp0Kyajbk9mr&#xA;/wACKj8RmTgyV6XW67SiRExzHNI/zrveGkafZg0M87Sn3ESU/wCZua3tudQjHvP3f2vQeymK8s59&#xA;0a+Z/Y8gznHuXYqvhnnhfnDI0TjoyEqfvGESI5MZQEhRFp1ZeevN9nT0dVnIHQSt6w+6UPmTDXZo&#xA;8pH7/vcDL2RpcnPHH4bfdSfWf5x+aIaC4jtrpe5ZCjfejAfhmZDtnKOdF1uX2X00vpMo/H9afWX5&#xA;22bUF7pkkfi0Miyf8Kwj/XmXDtuP8Ufk6zL7JzH0TB94r9ae2X5q+Tbmge5ktWP7M8TfrTmv45lw&#xA;7WwS617w67L7OauHKIl7j+uk/svMWg31Pqmo28xPRElQt9K15ZmQ1OOf0yB+LrMuhz4/qhIfAphl&#xA;ziuxVg35wXkcPlZbY/buZkC/JPiP8M1XbE6w13l6L2Zxk6ni/mxLFvIVp6WjtORvcSEg/wCSnwj8&#xA;Qcn2Ji4cPF/OP3fguB7Zanj1YgP4Ij5nf7qTrV/+OVe/8YJf+IHNrl+g+4vNaT+9h/WH3vIs8+fd&#xA;noWkavaad5Tt5JZUWYRSNDCzAM5DtQAE1O/hncdli8EB5PintXm8LU55/wA39QYpoby3fmK1kmYv&#xA;JJOsjsT1Knl/DNxMDhfLez8s56qJJNylv5vUcxHv2J/mF/vDaf8AGU/8Ry7Dzec9pP7uHv8A0IH8&#xA;u9asNO1C4ivJBClyihJXNFDISaMe1a9TmL2nglOAMd6Y+yPaOLT5pRyHhEwNzysd7J/Ndzo99pV+&#xA;I54ZvRiEhZGVwshrw3FaFiKZq9JDJDLHYiz/AGvcds6jS6nQZhxwlwRvmDR/h+JOzyef+8PyX9Qz&#xA;o3znF9EfcPueneSGB8tWg/lMgP8AyMY/xzHnzen7PP7kfH709yDmOxV2KuxV2KuxV2KozNM9uvik&#xA;McqSDqhDD6DhBo2iUbFMI/Oa+E2v2lqpqtvbBj/rSsSf+FVc1XbU7yAdweh9lsPDglL+dL7h/a8t&#xA;8xHVf0W40pxHfFl9N240ABq32gw6CmbPs/Q44YBkkOKUu/eg8V2127qdX2rPSQkYYMI34SYmUtus&#xA;aPM7dNkB5Tu/NE4uY9cjRfRKiKQKAXLVJ3Q8KDboMOu0MMmGU4gAx7tmXZfbuTRa/FppSnOGc0RK&#xA;Rlw9xBNnc892c2mh2gtY7rU75bKOf+5jCGWRhSvIqv2RnHGZugLfTMmrlxGOOPGRz3oKWpaOlvbJ&#xA;e2dwt5YSMUEwUoyuP2XRtxhjOzR2LPBqjKRhMcMx0/UUsyxy3Yq2qMxooqcQLUml5t5gKlfuoclw&#xA;FiJhE2et6zY0+p31xbgdopXQbewNMnDPOP0yI+LTl0mLJ9cIy94D038qfMfmPV9QvI9QvWubS3hB&#xA;COqVEjuOJ5ABuit3ze9k6nLkkRI2AHkfaPQ6fBjicceGUpefKu75IX87rtDJpVoD8aCaVx7NxVf+&#xA;InK+3J/TH3tvsnj/ALyfuDH/ACb5nSFY9LuyFjrS2l8Cxrxb6Tscl2T2iI1iny6H9Di+1HYBmTqc&#xA;W5/iHu6j9IZbq/8Axyr3/jBL/wAQOdDl+g+4vCaT+9h/WH3vIs8+fdkDa6JbWuq399rGhXt1eX4h&#xA;fy/rsZaSztoo1AlSWjhY2biwXkDUnanU9z2SP3cPc+H+3GTbUAHfiH+6iyTyv/x37L/jJ/A5uMn0&#xA;l8v7K/xmHvepZhvoTE/zC/3htP8AjKf+I5dh5vOe0n93D3/oYLmS8g6ppTseuKbUp/7w/Jf1DK3f&#xA;Yvoj7h9z0ryIxPl2IeDyAf8ABVzHyc3pezv7oMhyDnOxVi3mfVb1dZsNKt5GhSZo2ldCQzB340qN&#xA;wBTNB2nrJjLHFE1yv4vbezvZWGWmyanIBMjioHcCh3MjuZmiQEDcnMjtfXT08ImPMl0HZWihqJy4&#xA;vpAVEYOgYdCK5sdNmGXHGY/iDrtRhOLIYHoV2XNLsVRmaZ7d2KvKfPV99d803staqhSEf88o1Q/i&#xA;pzntfk4sxP42e17Hw+Hpoj3n5m0lisrG8PpXVy1oF+JJwpcVpShUb98zcHbBhhGMxuuReV7Q9jyd&#xA;dLWYJ0cn1QrY7c7vvAUVtI7WsKTC4ANTMOVGPsGVKf8AA5lavtjHLCceMG5c7/tLq+xvY7WHtAav&#xA;WyhWP6IxN/PYcufmWR+TdEvtU1ApFp31i3CS87xlLRxSemwRXWoDVYg7b5qNJhMz9NgPb9s6vwce&#xA;0+GR5Drz/Hkj9dsINH0K4tZhCt5eTIVWAuVKR78uMm696023zG1EsUpjw7oc3D7Ky582QSmbEQd/&#xA;ew/IvSuxVOdN0y7un+r2cLTTceTKvWg6n8cysWInaIsuBqNRGA4pmgnGt+V5tM06yuG9Rp51ZriP&#xA;j8MVACASPn3zJzaYwiD1LgaTtAZsko7UOXmxa8jCsHH7XX55gZA7nFLo9X/JSy4aRqN4RT151iHu&#xA;Ikr/AMzc3/YkKhKXefu/teL9q8t5YQ7o38z+xS/Mjy+NYvXmgNLy2UJHU/C6gVKnwNTsczO0Oz/H&#xA;jxR+sfb5Om7F7e/J5jCf91I794Pf+sfLz5PJG8btHIpR0JVlIoQRsQRnIyiQaPN9QhMSAlE2CyvR&#xA;/NJl0u40y+f94YJFt7hj1+Ejg3v4HN9oe1LgceTnWx/Q8R2x7N1mjnwDbiHFEdN+Y8u8fgRLNA9y&#xA;zq4/8l4v/GOP/k8M7zsr+6h7nwT24+vUf1h/ugxfy9J6euWLdKzIv/BHj/HNrPkXzfs6VaiH9YPV&#xA;sw30Vif5hf7w2n/GU/8AEcuw83nPaT+7h7/0MFzJeQdiqlP/AHh+S/qGVu/xfRH3D7nov5fMDoJF&#xA;a8Z3BHhsp/jlGTm9H2af3XxTfXb69sNGvb2xs5NQvLeF5LexiBZ5XA+FFChmNT4CuVEuyhHiICI/&#xA;LyDzH5h8uJqnmDTW0C7llYR2EgYyeioAEjq4jZCzcvhI6UPfIcbl/k/Nd+Yvmfyf5KtdOS/tXe+1&#xA;iX6nZXMcSSOhBXk7uxUqo5/s7+AzB1uLixyMQOOuf7Xa6PIYGMLPBfLp8kvaR3oHYkDxzhcmec6E&#xA;pE13vTQwwgSYgAlM41VUVV6AbZ6Ho8cYYoxjyp8/1eQzyyMudrsyXHdiqMzTPbuxViWtflZqFzeX&#xA;F3bX8TvcSvIY5UZAvMk05KZK06dMwc/Y0pSMhIbnr+C7bSe1GOEBCUCOEAbG/wBTH7v8t/NluTxt&#xA;luFH7cUiEfcxRvwzCn2Vnj0v3F22L2i0k+cuH3g/osJJd6LrFmpa6sZ4FH7Ukbqv3kUzDngyQ+qJ&#xA;Hwdni1mHJ9E4y9xC2w1TU9Pdnsbqa1dtmMLslR78SK5HHllD6SQyzafHlFTiJe8Wo3FxcXErTXEr&#xA;zSvu0kjFmJ9yanIE2bbIQjEVEUPJTxZOxVN7K+uYGW4tZnhlpTnGxU+4qMyoTI3BpwcuGMvTIWPN&#xA;lPmDzxc3S/V9Pdks5IPSuFkReTMwIffc9DTrmdqNaZbR5U6bRdkRh6sg9QlYo/JhF64JVB1G5zV5&#xA;C9FiHV7n+WVl9V8mWNRR5+cz/wCzc8f+EAzquzIcOCPnu+c9v5ePVz8qH2frQF3L6t1NJ/O7EfIn&#xA;NuHjpm5EsX81+V01GM3dooW/QbgbCUDsf8odj9Hy0/afZoyjjh9f3/teq9nPaA6WQxZT+5P+x/Z3&#xA;j4jz51IDGWEg4FCQ4bahHWtc5Mgg11fURMEWDs7Al6FDEJfIZU9rZn/4Alv4Z3fZf9zD3PhXtjDi&#xA;y6ge/wCzdglpKIbuGU9I5Fc/7Eg5uDyfKMM+GYl3EPYcwX05if5hf7w2n/GU/wDEcuw83nPaT+7h&#xA;7/0MFzJeQdiqlP8A3h+S/qGVu/xfRH3D7noH5ct/uHuF8Lgn70T+mUZOb0PZZ/dn3/qZbG7Ruroa&#xA;MpDKfAjfK3Zg1umOpef7HSrFLm+gkarrGRDxNSQTUBivh0yMcRJ2ZarteGngJTB51sg4/wAz/Id9&#xA;6f1wtEY2EkX1mAvwcbBgUEgU79cJwSDHD2/pcnKVfBI9d1Hy/fzynSdQiiViCPSZQ3QciFcbb+2c&#xA;v2t2RwDxMcTz3AH2vT9kdv4p5OCcokVsSaVtJE8cPpSyvPx3WV6Voe3wgZb2Fqssicch6Yj5eTDt&#xA;/Bi2ywoGXd180fnSPNOxVGZpnt1W1TnOg7A1P0b5PGLkGrPLhgU2zPdOpyzwxCsjhfCvXCAxlMR5&#xA;lbHd20jcUkBbw6H8cSCxjlieRULvRdIvDW7soJ26cpI0ZvvIrlE9Pjn9UQfg5uLWZsf0TlH3EpLd&#xA;/lx5TuAxW1a3dt+UUjj7lYsv4ZiT7KwS6V7i7LF7Q6uH8XF7wP2FJrv8obFj/oeoSxDwmRZPxUx5&#xA;iT7Ej/DIj37/AKnZYvazIPrgD7jX60luvyo8wxcjBNb3Cj7IDMjn6GXj/wANmJPsbKORBdli9qdP&#xA;L6hKP2/p/Qk9x5O822O76dMR/wAVATD/AJJl8xJaHPD+E/Df7nY4+19Jl5Tj8fT99JXcNewuYp0a&#xA;GQdVdSrD6DmPIyGx2c7GISFxNhDbk+JOVtz6Us7f9GeX4LcbGztVj+mOMD9YzusGPhjGPcA+Qa3N&#xA;xznPvJLE8y3QOxV5t+bfknWNVgtdQ0QjlBPHJqVoNmmjVlPJWJpVKVK9/mKHBzaTGJHLXqp3uh7W&#xA;zGEdOT+74hXz5e5IM4h9hemaJB9Y8pRQf79t3T/guQzuuzTWCHufEvabHx6nPHvMh9jzXN0+OPXd&#xA;MnE+nWsw/wB2RI30lRmDIUX0vS5OPFGXfEfcxz8wv94bT/jKf+I5bh5uj9pP7uHv/QwXMl5B2KqU&#xA;/wDeH5L+oZW7/F9EfcPuZ5+W7H9HXa9hMD96j+mU5ebv+y/oPvZflTtEw0rRdL1ZJ4dRt1uYk4lU&#xA;etATyFRToaZEyI5NkNJizgxyR4gx/wA3eQ/LFnJALO2a39UMWKyO24IpTmXzUdp9r5dPKNUQbcjT&#xA;ex+izg0DAjuJ/SxK48j2r/3Ny0Z/ylDfqKZiY/ak/wAUPkUz9hq+jKf84fqZJ5ctItM01LJpObKz&#xA;MZKcQeRr4ntmXh7fwZZUbgfPl822Ps7n0+OgROu79Sc5uQbdaRTsVRmaZ7dGacBzc9wKffmRp+Zc&#xA;PWnYIueURQvId+IrT3zLAdZOXCCWK6hcOzAuxLMat40zRdvangEYA89yPJyuw8HGZZJC+gJ70PHZ&#xA;66NVW/ZSNGmg4xEtWkit/KOhO+/cZnaTPkzZPEFjEY9e+/x8EazT4MOjEDvqBk3I7iO/u5e4sq0y&#xA;5aaEq5q8exPiD0zYSFOBpshkN+iomoWEhcR3MTmOQwOFdTxlVeTRmh2cLuV60yLkIjFXYq7FVkkU&#xA;UqFJUV0PVWAIP0HAYg7FlGRibBopa3k7yzdTxl9NgVgwYNGojNQa78ONfpzGlocMv4R9zn4+1tVA&#xA;UMkvib+9O9el4aZIO7lVH0mv6hmZHm6fUmoFiWWusdiqE1S6htrCeWVwiLGzMzGgCgEkn2AzB7Q1&#xA;IxY6/ilsB73Y9mac5MwPKMdyXh/+JvLv/Vztf+Ryf1zk/wAhn/ml9b/lnSf6pF6DJ5507Qfy+0/V&#xA;4E/SZuXW00+C3YH17h3dRGHHIDdGr8s67RRMMMQedPlfa1ZtbkMT6TK7YvcQX0EzR39obC8FDNZM&#xA;yyGJmHLhzSqtSvUdc3MDYt8g12n8HPOHdL7On2PSPJ9x63l+2r9qLlGf9ixp+BGY2Uep7LsXJxaa&#xA;PlY+1LvP0c8tvZxRQyS1d2JiQvSgA3p48sOI009t6aWWMQO89GHppWpvXhY3TU60gc/qy2WaMeZA&#xA;dDDsTNP6RI+6Jc+k6mm72N2vzgcfrwRzwPIg/FM+w88BcoyHviUzg/LjVr23ju21D6p6y8hbvB8S&#xA;joK/EO2+a/N2lGEjGrp63Qey2XLhjPjEbHIhknlHyvqegyXSXN6l1bzBDEFUqQwG5I/ty6GYZIiQ&#xA;DPH2fPS5JQlISZJhchOfLE8a3UsLMA8ihkU9+B3p/wAFleSQsBztHAkSPQUgvO0iteQIGqUQ8h4E&#xA;mucn7Q/XD3F6fsgjhl72IahdywelFboJLm4bjErVCigqzNTsBmgiLd9ixiVk/SFe3FwIgLhleXfk&#xA;UBVeu1AScifJrmRe3Jde67Dpdi004L0IWFB+0xrtXt0zoOyu1vChKE96+n9Tp9V2EdXmiYVG/qPl&#xA;3+Z6fJMtPuZLqxguJI/SeVA5jO9KivtnWYMhnASIqw8lrcEcOaWOJ4hE1aaZq3rUVpzfvWHiv6jl&#xA;+nO7iawekHzRV9GZLSVR1pUD5b/wzLuty6nLAyiQHm9l5gure+H6S0WaaDluYmL1Wvgo6/7LNDpe&#xA;z9FORJyCZPSRr9RK6rtrXYQBLBKMR1gOLb4AgfNnWiefPLGr8rGOKW3MSVa3nioAqkD9kuO+dD4B&#xA;gABydbpu2sGpkY78XM8QUfKulzadZyxSX02pD1XMV1cKquULsyrReyBgtTuafRgk52ACyRyYvrXl&#xA;DyvqfO1l1K9t4f0hNqEqJ6ZRnnqs0dfTZuDhiOtQOhpkXIQk3krXRfSXmjebXUiwvora2kd0T67e&#xA;yzzeu6BipCtcgiqkgotNsVemIOKKORagA5Hcn3OKrsVdiqvZLWav8oJ/hiqA813UaR20DNRpGLBe&#xA;54in/G2Th3uHqzyj1KSLbysQKAV8SBlc9TEAkbnuWHZ2YncUEWND1H/fJI/1l/rmqn2hq/4cPzkH&#xA;Kj2di6z+xiHmP8tvPer6jcelrAtdJnjZBa+jG7KHVUeJvjUOjDk3Kqup7kdMPLPUZalPD6wdvUK+&#xA;92GAY8QMYy9J57POPNX/ADihqPxTeV7og9RZXxWnj8M6fgGX5tmVpdZqbrLj+II/X+lryYsfOMmQ&#xA;aJ+W8n/Kr9O8peaVfTNTs5JZ0aORDLBKLqV4pY3Qsp+Fux6HN5EWHR5svh5SUNf+U73TLIXE+sz6&#xA;9cu5NzdXO8oAUBe7HiOPc5lYTWxeP9otMJy8aA8pV9/6PkyDyDdenZXMcpCxeoGRierFaMPwGOYb&#xA;s/Z3IRjkDyv+39DKvrlr/v1fvymnovEj3qUXmby5BLJDdXkSyVA4tXYitd6bZpu0s0LAvcW9P2No&#xA;sxgZxHpNdR5oa/8ANvlsFUtLyMsSeTfFQfeM0+TWzx/3XM9XeS7KlmFZRsDfNZb+eNMjdVuLyKSE&#xA;7GgqQP8AYjMTFqs3F69wW89mERqAqvNBT+fvL8srPHfwxoT8K7g0G24Iy6XaWqG0PTEeQ/S457Bh&#xA;ImU4mUj5/qKM0vzRo2oM0UF3HJKo5EKT08fxzoOytbPNEiY9Q+15ntnsz8qRIfRLvRWseXvPfrwa&#xA;jpUcMf1Ms0MYkPruHXi3IGicadq1yrXDUSmJQAqHLvLuuxfyWPDLHlMuLKBxGto91db86r4JheaD&#xA;r5s0uriBTME5TQxv6jhiKt89/DNb2rptRnqRiPSOQNlHZ5wYDKMZE8R5kV7ktbyF5oeSDUriaISR&#xA;AlbKL4iquPiUsaBmp4H5ZiT7GzRhYAPle/4+LtR2xpxcADR/iKHqPHNP4cu4s/Fj3hckdjLIv1oI&#xA;wjIdFcVAboDv7HOi7D7OkZnJOPpra+90PbHawxx8PHOpHnR6d1ptnWvJozNM9uq2jcbhD4mn37ZZ&#xA;iNSDTqI3Aptmc6hLzo1qL+K8jqjRyLIyD7JKmv0Zqp9k4zlGSPpIN10/Y50dfMQMDvtSO1GKG+aI&#xA;uvH069OprTav0ZtgadZkwiZF9HKqooVRRRsAMDYBWwQU+iaZMxZoQrHclCV/AbYpQUvlW1P91M6f&#xA;6wDf804qhz5d1OA1trkfQWQ/hXFW0/xRAwFGkFe/Fwfp64qyIVoK9e+KouzKokkrmiqNz7Dc4CaS&#xA;BZoJFqF19bufVKgBRxj8QuYWTIZHydrhwRhv/F3ofK29Su45JYgFmkiKbgoxXbw2zI0+SpV0Lre0&#xA;tIMkDIbSj3ID6vcf8tk//BnNjs8twH+cXfV7j/lsn/4M47LwH+cVF9LjdizyuzHqzGp/HDbE4QeZ&#xA;a/Q8H87fh/TG0eAGho0AFA7AfR/TDaBp4hv9Dwfzt+H9MFp8ANrpMS14yOtdzSgyBhE8wG+E8kRU&#xA;ZyA95cdLQihlcj54PDh/NHyZeNl/1Sf+mLX6Hg/nb8P6YfDj3BHiZf58/wDTF36Hg/nb8P6Y+HHu&#xA;C+Jl/nz/ANMWv0NBWvNq+O39MMYgcgwycUxUpSPvLf6Hg/nb8P6ZK2rwA79Dwfzt+H9MbXwA79Dw&#xA;fzt+H9MbXwA79Dwfzt+H9MbXwA4aPBX7bfh/TG18AI4AAADoNhgb0bmme3bVirBh1BqMIKCLFJ1m&#xA;xdG7FXYq7FXYq7FXYq7FXYquvQy6S5H7TCvyrT+GVZvpcjS/WEizCdq7FWmNFJ8MnjFyAadRMRxy&#xA;J7kJm2eOdirsVdirsVdirsVdirsVdirsVdirsVdirsVdirsVRmaZ7d2Kp0OgzYjk6OXNvCh2KuxV&#xA;2KuxV2KuxV2Kou69FNOYTbJwp717U965DJXCbbcN8YpikVxHJUA0cbMh6g5royBd3KBC93RBViFH&#xA;icJNMQCeSg06yr8B+D9eZ+kgK4nn+1s8+PwyKA+1ZmW6d2KuxV2KuxV2KuxV2KuxV2KuxV2KuxV2&#xA;KuxV2KuxVGZpnt3YqnebJ0TsVdirsVdirsVdirsVbReTqviQMVQ2u3DNciAH4IwDT3O/6sxM8t6d&#xA;lpIVG+9I7qyWY81PGTx7H55iTx27HHlMduiHXTJi37yQU8RUn8aZWMJ6tp1A6BEPDHEiqgoN9+5z&#xA;aaIUCHme2zconruszNdG7FXYq7FXYq7FXYq7FXYq7FXYq7FXYq7FXYq7FXYqjM0z26pbLynQe9fu&#xA;3yeMXINeaVQJTfM90zsVdirsVdirsVdirsVVbVazr7b/AHYqgddgKXSy/syj8V2/VmJnjRt2Wjnc&#xA;a7ktyhy2mZVUsxoB1OJKQLQ0knM1H2e2bPBARj73k9dnOTIb2rZblzhuxV2KuxV2KuxV2KuxV2Ku&#xA;xV2KuxV2KuxV2KuxV2KozNM9ujdOj3aQ9vhH8cyNPHq4WsnsIo7Mp17sVdirsVdirsVdirsVRNgv&#xA;7xm8BT78VSDWpXvZ2Ktx9IkQkdqf1zXZzxF3WliMY9/NKf0hcRkpKgLD6MxvFI5ud4ETuCovNc3T&#xA;BB0/lHT6ciZGTYIRgLRYj9IBCakDrm70orGA8T2rX5iRHWvudmQ692KuxV2KuxV2KuxV2KuxV2Ku&#xA;xV2KuxV2KuxV2KuxVHxRPI4VRufwzURiSaD2s5iIsprHGsaBF6DM6MaFOnnMyNlfkmDsVdirsVdi&#xA;rsVdirsVRtitI2bxP6sVY1OvCeRK14sy1HsaZrpc3eQNgFSaNH+0ob5iuRIBZiRHJwCIuwCgeG2S&#xA;hCzQa8uURiZS5BDM3JifHNtCPCKePzZTkmZHq1kmp2KuxV2KuxV2KuxV2KuxV2KuxV2KuxV2KuxV&#xA;2KuxVkcUMcS0Qdep7nMaMBHk77JllM2VTJNbsVdirsVdirsVdirsVdiqtdXLWunBl2kf4VPhWpr9&#xA;2V5Z8Ib9Pj45b8mJXDTW0pmT4o3+2p8fHNZImJvo76AExR5hb+lI6fYav0YPGCfyx71OK4muLkVF&#xA;EUMeI6DYiuSwTJyBq1mKMcEge5WzevCOxV2KuxV2KuxV2KuxV2KuxV2KuxV2KuxV2KuxV2KuxV//&#xA;2Q==</xmpGImg:image>
               </rdf:li>
            </rdf:Alt>
         </xmp:Thumbnails>
      </rdf:Description>
      <rdf:Description rdf:about=""
            xmlns:xmpTPg="http://ns.adobe.com/xap/1.0/t/pg/"
            xmlns:stDim="http://ns.adobe.com/xap/1.0/sType/Dimensions#"
            xmlns:xmpG="http://ns.adobe.com/xap/1.0/g/">
         <xmpTPg:NPages>1</xmpTPg:NPages>
         <xmpTPg:HasVisibleTransparency>False</xmpTPg:HasVisibleTransparency>
         <xmpTPg:HasVisibleOverprint>False</xmpTPg:HasVisibleOverprint>
         <xmpTPg:MaxPageSize rdf:parseType="Resource">
            <stDim:w>8.333333</stDim:w>
            <stDim:h>8.333333</stDim:h>
            <stDim:unit>Inches</stDim:unit>
         </xmpTPg:MaxPageSize>
         <xmpTPg:PlateNames>
            <rdf:Seq>
               <rdf:li>Cyan</rdf:li>
               <rdf:li>Magenta</rdf:li>
               <rdf:li>Yellow</rdf:li>
               <rdf:li>Black</rdf:li>
            </rdf:Seq>
         </xmpTPg:PlateNames>
         <xmpTPg:SwatchGroups>
            <rdf:Seq>
               <rdf:li rdf:parseType="Resource">
                  <xmpG:groupName>Grupo de muestras por defecto</xmpG:groupName>
                  <xmpG:groupType>0</xmpG:groupType>
               </rdf:li>
            </rdf:Seq>
         </xmpTPg:SwatchGroups>
      </rdf:Description>
      <rdf:Description rdf:about=""
            xmlns:dc="http://purl.org/dc/elements/1.1/">
         <dc:format>image/svg+xml</dc:format>
         <dc:title>
            <rdf:Alt>
               <rdf:li xml:lang="x-default">hero</rdf:li>
            </rdf:Alt>
         </dc:title>
      </rdf:Description>
      <rdf:Description rdf:about=""
            xmlns:xmpMM="http://ns.adobe.com/xap/1.0/mm/"
            xmlns:stRef="http://ns.adobe.com/xap/1.0/sType/ResourceRef#"
            xmlns:stEvt="http://ns.adobe.com/xap/1.0/sType/ResourceEvent#">
         <xmpMM:RenditionClass>proof:pdf</xmpMM:RenditionClass>
         <xmpMM:DocumentID>xmp.did:AC6596201CC7E711ACAEDE58EA37B687</xmpMM:DocumentID>
         <xmpMM:InstanceID>xmp.iid:AC6596201CC7E711ACAEDE58EA37B687</xmpMM:InstanceID>
         <xmpMM:OriginalDocumentID>uuid:417d6d49-79d5-4f47-8842-d3fe3f24176f</xmpMM:OriginalDocumentID>
         <xmpMM:DerivedFrom rdf:parseType="Resource">
            <stRef:instanceID>uuid:53b180dc-7b45-4354-a7d1-5542c6a8a2eb</stRef:instanceID>
            <stRef:documentID>uuid:417d6d49-79d5-4f47-8842-d3fe3f24176f</stRef:documentID>
            <stRef:originalDocumentID>uuid:417d6d49-79d5-4f47-8842-d3fe3f24176f</stRef:originalDocumentID>
            <stRef:renditionClass>proof:pdf</stRef:renditionClass>
         </xmpMM:DerivedFrom>
         <xmpMM:History>
            <rdf:Seq>
               <rdf:li rdf:parseType="Resource">
                  <stEvt:action>saved</stEvt:action>
                  <stEvt:instanceID>xmp.iid:AC6596201CC7E711ACAEDE58EA37B687</stEvt:instanceID>
                  <stEvt:when>2017-11-11T17:21:39-04:00</stEvt:when>
                  <stEvt:softwareAgent>Adobe Illustrator CS6 (Windows)</stEvt:softwareAgent>
                  <stEvt:changed>/</stEvt:changed>
               </rdf:li>
            </rdf:Seq>
         </xmpMM:History>
      </rdf:Description>
      <rdf:Description rdf:about=""
            xmlns:pdf="http://ns.adobe.com/pdf/1.3/">
         <pdf:Producer>Adobe PDF library 10.01</pdf:Producer>
      </rdf:Description>
   </rdf:RDF>
</x:xmpmeta>
                                                                                                    
                                                                                                    
                                                                                                    
                                                                                                    
                                                                                                    
                                                                                                    
                                                                                                    
                                                                                                    
                                                                                                    
                                                                                                    
                                                                                                    
                                                                                                    
                                                                                                    
                                                                                                    
                                                                                                    
                                                                                                    
                                                                                                    
                                                                                                    
                                                                                                    
                                                                                                    
                           
<?xpacket end="w"?>
	</metadata>
<g id="Layer_1">
	<g>
		<path fill="#B1DFDC" d="M469.201,213.065c-0.077,0.282-0.144,0.566-0.241,0.845C469.149,213.627,469.216,213.338,469.201,213.065z
			"/>
		<path fill="#B1DFDC" d="M0,0v313.53c8.36-0.891,17.19,1.22,23.52,6.96c4.61,3.71,7.03,9.26,9.41,14.52
			c1.6-12.07,4.3-23.97,6.271-35.99c1.24-6.11,1.64-12.59,4.68-18.16c3.59-6.58,10.7-10.7,18.03-11.52
			c12.331-1.6,24.45,1.85,36.42,4.28c29.96,5.44,59.93,10.86,89.91,16.17c13.11,2.37,26.18,5.03,39.39,6.8
			c6.84,1.06,13.85,2.64,19.68,6.561c0.03-3.851,0.17-7.71-0.17-11.55c-2.94-5.27-6.57-10.17-9.01-15.71
			c-0.26-5.41,1.24-10.66,2.31-15.91c3.79-17,7.48-34.03,11.14-51.06c4.2-20.19,9.16-40.23,13.07-60.47
			c0.48-0.39,1.44-1.17,1.91-1.57c5.95-2.71,12.7-0.91,19-1.41c-0.01-3.47,0.01-6.94-0.02-10.41c-0.02-1.59-0.04-3.17-0.07-4.76
			c-3.167-1.039-6.125-2.634-8.733-4.665c0.817-1.54,0.975-3.465,0.081-4.991c-2.757-4.706-3.796-10.05-4.239-15.433
			c0.445-3.292,0.391-6.498-0.384-9.603c-0.078-5.533,0.086-11.253,0.97-16.584c2.057-12.4,15.867-10.261,25.424-10.194
			c5.101,0.036,10.535-0.031,14.956,2.862c3.646,2.386,3.834,8.437,3.986,12.229c0.612,15.253-5.041,28.54-11.559,41.785
			c-2.787,0.316-5.349,2.661-4.294,6.123c0.48,1.578,0.838,2.831,1.778,3.993c-0.009,3.216,0.01,6.432-0.007,9.648
			c6.28,0.19,12.59-0.41,18.84,0.33c2.989,2.53,6.239,4.87,8.779,7.88c0.94,2.76,1.28,5.68,2.091,8.49
			c4.439,24.83,10.06,49.44,14.8,74.22c2.04,9.89,3.819,19.82,6.18,29.64c0.7,3.79,2.25,7.68,1.05,11.53
			c-2.18,4.8-4.64,9.47-6.949,14.21c-0.31,4.89-0.08,9.791-0.141,14.68c-0.01,2.439,0.021,4.89,0.07,7.35
			c1.811,0.49,3.68,0.881,5.391,1.681c0.27,1.689,0.159,3.39,0.05,5.089c-4,33.241,1.3,66.65,6.75,99.411
			c1.399,7.17,2.39,14.489,4.84,21.42c0.27,0.08,0.819,0.26,1.09,0.34c-0.08,1.63-0.16,3.26-0.24,4.899
			c10.46,0.221,20.99-0.79,31.38,0.61c0.17-0.13,0.5-0.38,0.67-0.5c1.69-0.22,3.4-0.319,5.11-0.33c0.3-4.439,0.29-8.89,0.25-13.34
			c0-0.95-0.01-1.899-0.01-2.85c6.64-1.07,13.43-0.69,20.119-0.311c0.241,2.73,0.601,5.45,0.841,8.19
			c-0.07,0.479-0.16,0.959-0.271,1.439c2.601-1.81,5.53-3.23,8.75-3.42c0.341-2.59,1.23-5.05,2.4-7.37
			c-4.07,0.5-8.18,0.61-12.271,0.33c-12.859-0.99-25.72,0.57-38.59,0.11c-0.02-2.17,0.08-4.36,0.931-6.381
			c0.959-7.88,0.149-15.859,0.399-23.789c0.02-28.021-0.029-56.04,0-84.06c-0.1-1.341,0.12-2.851-0.87-3.91
			c-8.239-9.771-9.63-24.701-3.87-36.041c2.811-5.85,7.67-10.29,11.841-15.15c2.079-2.46,4.239-4.87,6.739-6.93
			c-0.109-10.86,0.051-21.75-0.8-32.59c-1.149-0.56-2.28-1.12-3.42-1.68c-4.61-1.58-7.21-5.83-8.851-10.14
			c-12.14,3.5-25.68-4.15-30.27-15.65c-3.82-8.96-1.94-19.96,4.56-27.2c5.131-6.09,13.141-9.26,21.021-9.24
			c-0.18-2.15-0.38-4.31-0.35-6.47c-0.19-4.68,2.99-9.06,7.14-11c-0.479-0.05-0.95-0.1-1.42-0.16c5.109-1.92,10.729-2.04,15.88-0.2
			c3.229-4.51,8.21-8,13.86-8.38c4.67-0.24,9.689-0.45,13.89,2c3.67,1.8,5.68,6,9.811,7.02c6.08,2.04,11.91,5.93,14.91,11.76
			c2.81,4.91,3.06,10.74,1.869,16.17c1.08,10.03-0.93,20.77-7.67,28.57c-5.779,7.23-14.81,10.99-23.88,11.68
			c5.39,3.71,10.851,7.34,16.03,11.34c6.24,3.21,11.56,7.83,17.39,11.68c2.91-5.74,4.63-12,7.64-17.7
			c0.337-1.823,2.192-0.935,2.262,0.315c0.973-3.559,0.434-7.394,0.999-11.036c0.67-3.68-1.181-7.05-2.771-10.22
			c0.85-0.89,1.71-1.78,2.57-2.67c2.7,1.23,4.25,3.71,5.4,6.32c0.539,0.05,1.609,0.14,2.14,0.19c0.92-3.88,1.85-7.76,2.81-11.62
			c2.881,0.56,5.66,1.48,8.34,2.66c-0.12,2.27-0.22,4.54-0.34,6.81c1.42-0.21,2.9-0.78,4.301-0.12c0.789,4.74-3.471,8.28-3.91,12.84
			c-0.01,4.75-4.641,6.93-6.75,10.64c0.5,0.3,1.51,0.91,2.02,1.22c-0.58,0.81-1.33,1.42-2.24,1.84c0.311,0.28,0.91,0.84,1.211,1.12
			c-3.431,9.15-7.161,18.2-10.75,27.29c-1.92,4.94-8.58,7.43-13.101,4.46c-5.87-3.7-11.25-8.13-17.16-11.78
			c0.011,0.45,0.04,1.34,0.05,1.79c1.3,1.99,2.931,3.83,3.74,6.1c-0.51,1.08-1.19,2.07-1.87,3.05c0.721-0.46,2.15-1.37,2.87-1.83
			c1.74,5.16,3.48,10.33,4.71,15.64c1.73,7.96,0.61,16.18,1.62,24.23c1.561,42.07,3.54,84.13,5.16,126.199
			c0.49,0.431,1.47,1.291,1.96,1.721c-0.12,1.81-0.21,3.62-0.33,5.439c-1.87,0-3.75,0.03-5.62,0.051
			c0.13,5.13-0.66,10.28,0.11,15.399c4.399-2.63,9.75-3.17,14.71-2.069c4.439,1.409,8.25,4.989,8.939,9.77
			c0.431,0.069,1.28,0.22,1.711,0.3c0.199,0.061,0.609,0.181,0.81,0.24c2.229-0.34,4.479-0.59,6.75-0.51
			c0.2,0.45,0.6,1.35,0.81,1.789c0.66-1.029,1.36-2.02,2.061-3.02c1.4-2.649,3.08-5.21,5.72-6.8c-0.42,0.08-1.26,0.24-1.68,0.319
			c4.739-2.31,3.439-8.38,4.2-12.739c-0.34-9.34-1.141-18.69,0.05-28.011c0.88-0.189,1.77-0.369,2.67-0.529
			c-0.46-0.15-1.38-0.46-1.841-0.62c0.141-3.601,0.701-7.16,1.271-10.71c-3.819-0.54-7.87-1.29-10.83-3.96
			c-2.64-2.061-3.979-5.2-5.2-8.21c0.3-0.43,0.9-1.29,1.2-1.721c-0.359-0.31-1.09-0.909-1.46-1.209c0.32-2.221,0.33-5.171,2.81-6.16
			c2.261-0.71,4.661,0.31,6.96,0.51c3.141,0.42,6.29,1.34,9.48,1.021c3.34-1.62,6.07-4.25,9.31-6.07c-1.829-4-1.8-8.521-0.399-12.65
			c0.109,0.63,0.33,1.891,0.439,2.521c2.011-4.62,5.871-10.99,11.73-9.82c0.29,0.261,0.88,0.771,1.17,1.021
			c-0.27,5.2-1.55,10.3-1.59,15.52c2.96,0.42,6.13,0.65,8.58,2.601c0.46,0.02,1.39,0.06,1.85,0.069c0.83-3.4,1.37-6.88,1.62-10.37
			c0.25-2.02-0.44-4.46,1.06-6.119c1.23-1.7,4.121-1.341,5.36,0.199c4.98,5.61,7.88,14.7,3.03,21.28c-2.76,3.2-0.101,7.109,1,10.42
			c1.3,4.71,7.33,5.63,8.82,10.25c1.939,3.97-1.2,9.47-5.811,9.09c-0.55,3.47-1.09,6.93-1.67,10.391
			c0.42,0.129,1.24,0.39,1.66,0.529c6.29,1.49,12.13,4.729,16.87,9.12c3.89,3.609,5.819,8.66,7.93,13.4
			c2.53-2.101,4.511-4.8,7.3-6.591c0.721,0.42,2.16,1.261,2.891,1.67c0.85,6.16-5.16,9.88-10.08,11.871
			c-0.2,4.14-1.59,8.149-3.92,11.569c3.939,0.2,9.67-1.069,11.5,3.58c1.96,3.859-2.21,7.9-6.12,7.21
			c-54.34,0.04-108.69,0.04-163.04,0c-46.13,0.16-92.27-0.26-138.39,0.2c7.15,9.35,6.51,23.449-0.57,32.66
			c-2.82,3.65-6.03,6.989-8.93,10.58c1.67,2.56,3.29,5.17,4.6,7.95c2.38,5.319,2.35,11.459,0.74,16.989
			c-1.31,5.39-5.63,9.19-8.44,13.79c2.34,3.18,4.19,6.721,5.09,10.591c1.47,7.239,0.39,15.119-3.79,21.319
			c-2.16,3.14-4.49,6.181-6.25,9.59l0.62,1.05c4.12,5.171,2.62,12.041,2.43,18.11H600V0H0z"/>
	</g>
	<g id="Niggas_Head" display="none">
		<path display="inline" fill="#6D4C43" d="M316.029,90.86c1.551,0.41,3.091,0.86,4.651,1.3c-0.53,7.01,1.079,14.3-1.611,21.03
			c-2.52,7.41-8.459,13.19-15.52,16.33c-0.04,1.49-0.08,2.97-0.09,4.46c-5.69,2.49-11.96,2.45-17.92,1.08
			c-0.02-1.59-0.04-3.17-0.07-4.76c-8.35-2.74-15.25-9.32-18.11-17.67c0.3,0.06,0.9,0.17,1.2,0.23c2.02,2.79,3.81,5.83,6.54,8.01
			c5.57,5,13.59,6.61,20.83,5.28c10.3-1.76,18.53-11,19.849-21.24C316.17,100.23,315.9,95.54,316.029,90.86z"/>
		<path display="inline" fill="#8D6C63" d="M285.54,135.06c5.96,1.37,12.23,1.41,17.92-1.08c-0.029,3.83,0.01,7.66-0.01,11.49
			c-5.96-0.02-11.92-0.02-17.89,0C285.55,142,285.57,138.53,285.54,135.06z"/>
		<path display="inline" fill="#1F1F1F" d="M263.01,70.02c19.9-5.21,41.82-7.57,61.19,0.93c-1.19,7.4-2.5,14.78-3.52,22.21
			c-1.561-0.44-3.101-0.89-4.651-1.3c-12.569-3.05-25.799-3.66-38.549-1.4c-3.88,0.54-7.73,1.27-11.44,2.53
			C265.26,85.31,263.69,77.72,263.01,70.02z"/>
		<path display="inline" fill="#8D6C63" d="M277.48,89.46c12.75-2.26,25.98-1.65,38.549,1.4c-0.129,4.68,0.141,9.37-0.25,14.05
			c-1.319,10.24-9.549,19.48-19.849,21.24c-7.24,1.33-15.26-0.28-20.83-5.28c-2.73-2.18-4.52-5.22-6.54-8.01
			c-0.3-0.06-0.9-0.17-1.2-0.23c-2.02-0.47-4.4-0.42-5.91-2.05c-2.38-2.21-2.66-6.27-0.57-8.76c1.28-1.71,3.48-2.21,5.37-2.94
			c2.14,0.78,4.05,2.02,5.9,3.33C274.09,98.03,276.19,93.9,277.48,89.46z"/>
		<path display="inline" fill="#534642" d="M266.04,91.99c3.71-1.26,7.56-1.99,11.44-2.53c-1.29,4.44-3.39,8.57-5.33,12.75
			c-1.85-1.31-3.76-2.55-5.9-3.33C266.21,96.58,266.2,94.28,266.04,91.99z"/>
		<path display="inline" fill="#201F1D" d="M305.09,99.94c1.29-0.36,2.63-0.46,4-0.3c0.341,1.41,1.24,3.16,0.1,4.47
			c-1.209,1.47-3.229,0.61-4.779,0.37C304.46,102.95,304.029,101.25,305.09,99.94z"/>
		<path display="inline" fill="#221F1D" d="M293.84,99.68c1.64,0.12,4.38-0.81,4.86,1.51c1.41,2.47-2.3,5.06-4.37,3.37
			C292.53,103.46,293.6,101.27,293.84,99.68z"/>
	</g>
	<path fill="#02BFA6" d="M490.02,118.01c7.631-1.84,16.8-0.51,22.07,5.77c-5.33,5.03-10.68,10.02-15.99,15.06
		c-3.1-2.34-6.17-4.72-9.22-7.13c-1.77,2.08-3.479,4.2-5.14,6.36c0.93,0.8,1.87,1.6,2.829,2.38c0.041,1.98-0.949,4.61,0.991,6.02
		c3.02,2.63,6.229,5.06,9.5,7.38c1.42,1.19,3.509,1.34,5.029,0.21c6.41-4.43,10.63-11.55,17.57-15.28c0.15,2.52,0.3,5.04,0.35,7.56
		c-2.83,12.94-18.97,20.04-30.75,14.47c-8.5-3.56-14.18-12.68-13.67-21.87C473.87,129.39,480.811,120.55,490.02,118.01z"/>
	<path fill="#FEFFFF" d="M512.09,123.78c1.311-1.28,2.62-2.58,3.939-3.87c2.101,1.79,4.061,3.75,5.9,5.83
		c-1.61,1.58-3.229,3.16-4.869,4.7c-5.44,5.07-10.75,10.27-16.101,15.43c-1.59,1.4-3.57,3.48-5.891,2.39
		c-3.829-2.12-6.979-5.25-10.5-7.81c-0.959-0.78-1.899-1.58-2.829-2.38c1.66-2.16,3.37-4.28,5.14-6.36
		c3.05,2.41,6.12,4.79,9.22,7.13C501.41,133.8,506.76,128.81,512.09,123.78z"/>
	<path fill="#FE5722" d="M403.09,138.61c3.229-4.51,8.21-8,13.86-8.38c4.67-0.24,9.689-0.45,13.89,2c3.67,1.8,5.68,6,9.811,7.02
		c6.08,2.04,11.91,5.93,14.91,11.76c2.81,4.91,3.06,10.74,1.869,16.17c-6,0.92-11.52-2.09-16.92-4.23
		c-0.399,1.52-0.79,3.05-1.18,4.58c-5.69,0.69-11.22-0.92-16.7-2.18c-1.101-0.58-2.21-1.15-3.319-1.71
		c-1.95-0.97-3.881-1.96-5.771-3.03c0.399,1.86,2.029,4.44-0.261,5.71c-2.489,2.3-5.949,0.22-8.789-0.04l0.06,1.44
		c-0.021,10.38,0.03,20.75-0.14,31.12c-2.87,0.79-6.36,3.05-9.04,0.62c-1.81-2.16-2.42-5.08-4.12-7.33
		c0.529,0.22,1.61,0.65,2.15,0.87c0.08-4.73,0.09-9.47-0.061-14.2c-4.43,1.52-6.521,6.09-5.05,10.47
		c-1.3,8.54,5.399,15.85,12.68,19.2c-2.34,3.33-2.38,7.49-2.44,11.4c-0.789-0.3-2.359-0.9-3.149-1.2
		c-4.61-1.58-7.21-5.83-8.851-10.14c-12.14,3.5-25.68-4.15-30.27-15.65c-3.82-8.96-1.94-19.96,4.56-27.2
		c5.131-6.09,13.141-9.26,21.021-9.24c-0.18-2.15-0.38-4.31-0.35-6.47c-0.19-4.68,2.99-9.06,7.14-11c-0.479-0.05-0.95-0.1-1.42-0.16
		C392.319,136.89,397.939,136.77,403.09,138.61z"/>
	<path fill="#25A599" d="M500.96,145.87c5.351-5.16,10.66-10.36,16.101-15.43c2.299,4.91,3.219,10.8,0.949,15.9
		c-0.05-2.52-0.199-5.04-0.35-7.56c-6.94,3.73-11.16,10.85-17.57,15.28c-1.521,1.13-3.609,0.98-5.029-0.21
		c-3.271-2.32-6.48-4.75-9.5-7.38c-1.94-1.41-0.95-4.04-0.991-6.02c3.521,2.56,6.671,5.69,10.5,7.81
		C497.39,149.35,499.37,147.27,500.96,145.87z"/>
	<path fill="#DF2901" d="M418.05,140.36c3.229-0.3,6.58-1.03,9.79-0.22c1.32,0.28,2.61,3.44,0.271,3.13
		c-1.331-0.15-2.61-0.47-3.9-0.77c0.55,1.54,0.94,3.13,1.09,4.77c-2.271-0.56-3.54-2.61-5.319-3.94
		C419.39,142.43,416.75,141.65,418.05,140.36z"/>
	<path fill="#FFFFFF" d="M266.56,146.88c5.95-2.71,12.7-0.91,19-1.41c5.97-0.02,11.93-0.02,17.89,0c6.28,0.19,12.59-0.41,18.84,0.33
		c0.399,7.05,1.79,13.99,2.47,21.01c0.2,4.74,0.12,9.52-0.74,14.2c-1.42,7.78-1.85,15.71-3.619,23.43
		c-9.181,2.73-18.53,4.79-27.8,7.15c-3.77,1-7.99,1.23-11.02,3.98c-0.46,0.04-1.38,0.12-1.84,0.16c-1.92,0.13-3.84,0.34-5.74,0.55
		c-1.22-0.72-2.44-1.43-3.67-2.11c-0.36-0.2-1.1-0.61-1.47-0.82c-1.57-0.95-3.22-1.84-4.51-3.17c-0.39-4.56,0.36-9.11,0.87-13.63
		c1.28-16.31,2.71-32.61,4.17-48.9C268.77,146.43,267.83,146.17,266.56,146.88z"/>
	<path fill="#FEB64C" d="M322.29,145.8c2.989,2.53,6.239,4.87,8.779,7.88c0.94,2.76,1.28,5.68,2.091,8.49
		c4.439,24.83,10.06,49.44,14.8,74.22c-2.22,0.1-4.479-0.02-6.54-0.92c-5.239-2.09-10.54-4.04-15.859-5.92
		c0.14-4.22-0.761-8.37-0.9-12.57c0.74-1.91,2.15-3.45,3.5-4.96c0.39-0.26,1.18-0.79,1.57-1.05c0.589-8.09-1.53-15.99-2.201-24
		c-0.879-6.73-1.59-13.48-2.77-20.16C324.08,159.79,322.689,152.85,322.29,145.8z"/>
	<g>
		<path fill="#583E34" d="M247.14,291.6c1.94-0.02,3.87-0.02,5.81-0.07c-0.54,4.61-1.91,9.05-3.37,13.43
			c-0.57-0.45-1.7-1.36-2.27-1.81C247.34,299.3,247.48,295.44,247.14,291.6z"/>
		<path fill="#FDB74C" d="M238.13,275.89c3.79,1.74,7.22,4.17,11.03,5.87c2.27,1.07,4.76,0,7.09-0.31
			c-0.93,3.41-1.58,6.94-3.3,10.08c-1.94,0.05-3.87,0.05-5.81,0.07C244.2,286.33,240.57,281.43,238.13,275.89z"/>
		<path fill="#FEB64D" d="M266.56,146.88c1.27-0.71,2.21-0.45,2.83,0.77c-1.46,16.29-2.89,32.59-4.17,48.9
			c-0.51,4.52-1.26,9.07-0.87,13.63c1.29,1.33,2.94,2.22,4.51,3.17c-6.07,0.99-11.6-2.85-17.28-4.43
			c4.2-20.19,9.16-40.23,13.07-60.47C265.13,148.06,266.09,147.28,266.56,146.88z"/>
		<path fill="#FFD650" d="M251.58,208.92c5.68,1.58,11.21,5.42,17.28,4.43c0.37,0.21,1.11,0.62,1.47,0.82
			c-0.35,4.24-1.32,8.72,0.78,12.69c-0.04,0.33-0.13,0.98-0.17,1.31c-5.4,17.6-9.76,35.53-14.69,53.28
			c-2.33,0.31-4.82,1.38-7.09,0.31c-3.81-1.7-7.24-4.13-11.03-5.87c-0.26-5.41,1.24-10.66,2.31-15.91
			C244.23,242.98,247.92,225.95,251.58,208.92z"/>
	</g>
	<path fill="#FFC39B" d="M413.54,160.61c1.89,1.07,3.82,2.06,5.771,3.03c-0.311,1.95-0.65,3.9-0.94,5.85
		c-4.67,1.48-9.54,0.28-13.82-1.77l-0.06-1.44c2.84,0.26,6.3,2.34,8.789,0.04C415.569,165.05,413.939,162.47,413.54,160.61z"/>
	<path fill="#FFC59F" d="M440.51,162.95c5.4,2.14,10.92,5.15,16.92,4.23c1.08,10.03-0.93,20.77-7.67,28.57
		c-5.779,7.23-14.81,10.99-23.88,11.68c-2.229,0.2-3.93,1.79-5.7,3c-0.86-0.14-1.71-0.28-2.56-0.41
		c-1.63-3.11-5.101-4.22-8.351-4.62c0-0.86,0-2.59,0-3.45c5.561,1.19,11.131,3.53,16.9,2.37c9.13-1.16,18.561-6.17,22.48-14.84
		c3-2.45,4.149-6.14,3.789-9.93c0.25-3.13,0.791-7.64-2.879-9c-8.98-1.05-19.82,1.95-26.931-5.2c5.48,1.26,11.01,2.87,16.7,2.18
		C439.72,166,440.11,164.47,440.51,162.95z"/>
	<path fill="#FEDFB3" d="M419.311,163.64c1.109,0.56,2.219,1.13,3.319,1.71c7.11,7.15,17.95,4.15,26.931,5.2
		c3.67,1.36,3.129,5.87,2.879,9c-2.22-3.65-6.399-6.74-10.85-5.06c-3.109,0.5-4.08,5.33-7.35,4.63
		c-2.391-2.12-4.601-5.14-8.171-4.96c-6.739-0.86-12.159,6.87-9.209,12.97c1.12,3.96,5.209,5.38,8.909,5.66l0.961,0.23
		c1.35,1.09,2.6,2.35,4.089,3.27c1.831,0.65,3.831,0.36,5.741,0.43c0.06-0.59,0.17-1.76,0.219-2.34c-2.52-0.57-5-1.31-7.279-2.53
		c3.54-1.79,5.12-5.55,5.51-9.31c0.88,1.79,1.78,3.57,2.69,5.34c-1.33,1.02-2.671,2.01-3.99,3.03c0.56,0.38,1.7,1.14,2.26,1.52
		c1.931-0.65,3.87-1.34,5.88-1.78c2.271-0.34,4.551-0.67,6.801-1.17c-3.92,8.67-13.351,13.68-22.48,14.84
		c-5.77,1.16-11.34-1.18-16.9-2.37c-1.68-0.93-3.27-2.03-4.859-3.11c0.17-10.37,0.119-20.74,0.14-31.12
		c4.28,2.05,9.15,3.25,13.82,1.77C418.66,167.54,419,165.59,419.311,163.64z"/>
	<path fill="#E2F2EF" d="M324.76,166.81c1.18,6.68,1.891,13.43,2.77,20.16c0.671,8.01,2.79,15.91,2.201,24
		c-0.391,0.26-1.181,0.79-1.57,1.05c-1.71,1.11-3.42,2.24-5.091,3.4c-13.829,0.08-27.669-0.13-41.489,0.15
		c3.03-2.75,7.25-2.98,11.02-3.98c9.27-2.36,18.62-4.42,27.8-7.15c1.77-7.72,2.199-15.65,3.619-23.43
		C324.88,176.33,324.96,171.55,324.76,166.81z"/>
	<path fill="#8D6D5C" d="M416.86,187.13c-2.95-6.1,2.47-13.83,9.209-12.97c3.57-0.18,5.78,2.84,8.171,4.96
		c3.27,0.7,4.24-4.13,7.35-4.63c4.45-1.68,8.63,1.41,10.85,5.06c0.36,3.79-0.789,7.48-3.789,9.93c-2.25,0.5-4.53,0.83-6.801,1.17
		c-0.149-1.4-0.27-2.78-0.38-4.17c4.32,3.09,10.091-2.73,6.94-6.97c-2.341-3.78-7.721-2.32-9.391,1.31
		c1.26,0.21,2.51,0.44,3.78,0.69c-1.521,0.26-3.021,0.58-4.51,0.9c-0.39-0.45-0.771-0.91-1.15-1.36c-0.72,0.48-1.43,0.98-2.13,1.49
		c-0.39,3.76-1.97,7.52-5.51,9.31c-1.24,0.34-2.49,0.66-3.73,0.94C422.069,192.51,417.98,191.09,416.86,187.13z"/>
	<path fill="#FCE0B5" d="M423.4,177.54c4.05-1.59,8.59,2.2,8.109,6.42c-0.19,4.65-6.27,7.36-9.84,4.32
		C417.68,185.64,418.87,178.87,423.4,177.54z"/>
	<path fill="#FCDFB3" d="M439.02,180.82c1.67-3.63,7.05-5.09,9.391-1.31c3.15,4.24-2.62,10.06-6.94,6.97
		c-0.7-0.86-1.359-1.77-2.01-2.64c1.601-0.03,3.16,0.42,4.71,0.78c-0.23-1.16-0.689-2.19-1.37-3.11
		C441.529,181.26,440.279,181.03,439.02,180.82z"/>
	<path fill="#FFDDB0" d="M388.29,189.27c-1.471-4.38,0.62-8.95,5.05-10.47c0.15,4.73,0.141,9.47,0.061,14.2
		c-0.54-0.22-1.621-0.65-2.15-0.87C390.24,191.19,389.25,190.24,388.29,189.27z"/>
	<path fill="#1F1F1F" d="M422.34,184.87c-2.08-3.27,4.439-5.12,5.229-1.79c0.03,0.44,0.091,1.33,0.11,1.77
		c-0.9-0.47-1.8-0.93-2.699-1.41C424.1,183.92,423.21,184.39,422.34,184.87z"/>
	<path fill="#F5926B" d="M435.01,182.54c0.7-0.51,1.41-1.01,2.13-1.49c0.38,0.45,0.761,0.91,1.15,1.36
		c0.29,0.36,0.88,1.07,1.17,1.43c0.65,0.87,1.31,1.78,2.01,2.64c0.11,1.39,0.23,2.77,0.38,4.17c-2.01,0.44-3.949,1.13-5.88,1.78
		c-0.56-0.38-1.7-1.14-2.26-1.52c1.319-1.02,2.66-2.01,3.99-3.03C436.79,186.11,435.89,184.33,435.01,182.54z"/>
	<path fill="#1F1F1F" d="M438.29,182.41c1.489-0.32,2.989-0.64,4.51-0.9c0.681,0.92,1.14,1.95,1.37,3.11
		c-1.55-0.36-3.109-0.81-4.71-0.78C439.17,183.48,438.58,182.77,438.29,182.41z"/>
	<path fill="#FFC59D" d="M480.35,184.03c2.881,0.56,5.66,1.48,8.34,2.66c-0.12,2.27-0.22,4.54-0.34,6.81
		c1.42-0.21,2.9-0.78,4.301-0.12c0.789,4.74-3.471,8.28-3.91,12.84c-0.01,4.75-4.641,6.93-6.75,10.64
		c-0.58,0.86-0.82,1.82-0.73,2.88c-2.21-0.12-4.449,0.08-6.62-0.38c-2.739-0.76-4.6-3.02-6.479-4.99l0.8-0.46
		c1.33-3.79,0.63-7.95,1.24-11.88c0.67-3.68-1.181-7.05-2.771-10.22c0.85-0.89,1.71-1.78,2.57-2.67c2.7,1.23,4.25,3.71,5.4,6.32
		c0.539,0.05,1.609,0.14,2.14,0.19C478.46,191.77,479.39,187.89,480.35,184.03z"/>
	<path fill="#F5BB97" d="M412.34,186.26c2.49-1.82,4.96,3.45,1.61,3.55C411.58,190.47,411.21,187.72,412.34,186.26z"/>
	<path fill="#DF2901" d="M400.97,208.47c-7.28-3.35-13.979-10.66-12.68-19.2c0.96,0.97,1.95,1.92,2.96,2.86
		c1.7,2.25,2.311,5.17,4.12,7.33c2.68,2.43,6.17,0.17,9.04-0.62c1.59,1.08,3.18,2.18,4.859,3.11c0,0.86,0,2.59,0,3.45
		C406.2,205.32,403.21,206.35,400.97,208.47z"/>
	<path fill="#F2B691" d="M411.8,191.63c1.351-0.09,3.64-0.69,3.561,1.51c-0.021,1.61-2.141,1.25-3.12,1.92
		C412.13,194.21,411.91,192.49,411.8,191.63z"/>
	<path fill="#EE8C64" d="M425.77,192.79c1.24-0.28,2.49-0.6,3.73-0.94c2.279,1.22,4.76,1.96,7.279,2.53
		c-0.049,0.58-0.159,1.75-0.219,2.34c-1.91-0.07-3.91,0.22-5.741-0.43c-1.489-0.92-2.739-2.18-4.089-3.27L425.77,192.79z"/>
	<path fill="#FFFFFF" d="M400.97,208.47c2.24-2.12,5.23-3.15,8.3-3.07c3.25,0.4,6.721,1.51,8.351,4.62
		c0.819,2.13,1.659,4.35,3.56,5.77c3.11,2.56,5.801,5.64,9.15,7.89c0.97-0.12,1.949-0.28,2.92-0.48
		c-3.63-4.95-8.71-8.52-13.07-12.77c1.771-1.21,3.471-2.8,5.7-3c5.39,3.71,10.851,7.34,16.03,11.34c2.93,3.98,9.63,6.25,8.79,12.1
		c-1.89,4.49-6.41,7.11-9.87,10.31c0.3,0.41,0.89,1.22,1.189,1.62c1.3,1.99,2.931,3.83,3.74,6.1c-0.51,1.08-1.19,2.07-1.87,3.05
		c-6.95,4.46-15.51,4.86-23.52,4.69c0.02,9.15,0.1,18.31,0.85,27.43c0.41,8.98,0.181,17.991,0.891,26.97
		c0.6,1.779-1.48,2.37-2.78,2.38c-5.21-0.23-10.43,0.08-15.63-0.26c-0.521-0.15-1.55-0.439-2.061-0.58
		c-0.159-8.859-0.02-17.74-0.79-26.58c-0.649-11.01,0.08-22.09-1.25-33.06c-0.109-10.86,0.051-21.75-0.8-32.59
		c-1.149-0.56-2.28-1.12-3.42-1.68c0.79,0.3,2.36,0.9,3.149,1.2C398.59,215.96,398.63,211.8,400.97,208.47z"/>
	<path fill="#B4DCDA" d="M417.62,210.02c0.85,0.13,1.699,0.27,2.56,0.41c4.36,4.25,9.44,7.82,13.07,12.77
		c-0.971,0.2-1.95,0.36-2.92,0.48c-3.35-2.25-6.04-5.33-9.15-7.89C419.279,214.37,418.439,212.15,417.62,210.02z"/>
	<path fill="#F3CB8D" d="M323.069,215.42c1.671-1.16,3.381-2.29,5.091-3.4c-1.35,1.51-2.76,3.05-3.5,4.96
		c0.14,4.2,1.04,8.35,0.9,12.57c-0.25,0.02-0.75,0.06-1.011,0.08c0.64,10.47-1.22,20.88-0.86,31.34
		c0.141,26.17-0.3,52.349,0.221,78.52l-0.78,1.27c-0.46-37.229-0.101-74.47-0.17-111.71c0.101-4.36,0.12-8.72,0-13.08
		c-14.41-0.29-28.83,0.4-43.22-0.24c0.46-0.04,1.38-0.12,1.84-0.16C295.4,215.29,309.24,215.5,323.069,215.42z"/>
	<path fill="#74AB97" d="M466.939,212.75c0.41-2.22,3.08-0.42,2.021,1.16l-0.8,0.46C467.86,213.96,467.25,213.16,466.939,212.75z"/>
	<path fill="#E0F2F0" d="M459.3,230.45c2.91-5.74,4.63-12,7.64-17.7c0.311,0.41,0.921,1.21,1.221,1.62
		c1.88,1.97,3.74,4.23,6.479,4.99c2.171,0.46,4.41,0.26,6.62,0.38l0.51,0.18c0.311,0.28,0.91,0.84,1.211,1.12
		c-3.431,9.15-7.161,18.2-10.75,27.29c-1.92,4.94-8.58,7.43-13.101,4.46c-5.87-3.7-11.25-8.13-17.16-11.78
		c0.011,0.45,0.04,1.34,0.05,1.79c-0.3-0.4-0.89-1.21-1.189-1.62c3.46-3.2,7.98-5.82,9.87-10.31c0.84-5.85-5.86-8.12-8.79-12.1
		C448.15,221.98,453.47,226.6,459.3,230.45z"/>
	<path fill="#D7D8AC" d="M270.33,214.17c1.23,0.68,2.45,1.39,3.67,2.11c-0.95,3.53-2.05,7.02-2.89,10.58
		C269.01,222.89,269.98,218.41,270.33,214.17z"/>
	<path fill="#C55432" d="M274,216.28c1.9-0.21,3.82-0.42,5.74-0.55c14.39,0.64,28.81-0.05,43.22,0.24c0.12,4.36,0.101,8.72,0,13.08
		l-1.271,0.04l0.011-0.8c0.11-3.88,0.06-7.77-0.32-11.64c-14.36,0.24-28.74-0.29-43.07,0.64c-1.05,0-2.1,0-3.14,0
		c-1.25,3.68-2.59,7.34-4.23,10.88c0.04-0.33,0.13-0.98,0.17-1.31C271.95,223.3,273.05,219.81,274,216.28z"/>
	<path fill="#FE5722" d="M275.17,217.29c1.04,0,2.09,0,3.14,0c14.37,4.01,28.91,7.38,43.39,11l-0.011,0.8
		c-0.029,66.5,0.021,133,0.061,199.51c-7.73,0.101-15.46,0.07-23.19,0.011c-0.01-2.271-0.02-4.53,0.03-6.791
		c0.16-4.039,0.3-8.089-0.02-12.119c-0.16-5.65,0.08-11.3-0.2-16.94c-2.79,2.801-5.38,5.771-7.91,8.79
		c-7.48-7.86-14.76-15.91-22.42-23.59c-5.65-5.67-10.54-12.12-16.79-17.16c-0.2-1.819-0.36-3.63-0.46-5.449
		c1.44-5.781,2.24-11.69,3.33-17.54c-0.28,3.759-0.55,7.52-0.7,11.29c0.94-7.581,3.63-15.021,2.91-22.73
		c0.92-7.681-0.73-16.09-6.75-21.41c1.46-4.38,2.83-8.82,3.37-13.43c1.72-3.14,2.37-6.67,3.3-10.08
		c4.93-17.75,9.29-35.68,14.69-53.28C272.58,224.63,273.92,220.97,275.17,217.29z"/>
	<path fill="#DF2901" d="M278.31,217.29c14.33-0.93,28.709-0.4,43.07-0.64c0.38,3.87,0.431,7.76,0.32,11.64
		C307.22,224.67,292.68,221.3,278.31,217.29z"/>
	<path fill="#7FB39F" d="M481.99,216.86c0.5,0.3,1.51,0.91,2.02,1.22c-0.58,0.81-1.33,1.42-2.24,1.84l-0.51-0.18
		C481.17,218.68,481.41,217.72,481.99,216.86z"/>
	<path fill="#C36F4D" d="M321.689,229.09l1.271-0.04c0.069,37.24-0.29,74.48,0.17,111.71c0.11,3.32,0.149,6.65,0.189,9.971
		c-0.06,25.95,0.03,51.89-0.04,77.839l-1.529,0.03C321.71,362.09,321.66,295.59,321.689,229.09z"/>
	<path fill="#B1DFDC" d="M324.55,229.63c0.261-0.02,0.761-0.06,1.011-0.08c-0.61,11.17,0.989,22.28,1.009,33.43
		c1.4,9.53,0.891,19.19,1.861,28.77c0.029,3.13-0.051,6.26-0.341,9.38c-0.64,4.2-3.22,8.95-0.17,12.81
		c1.23,2.091,4.37,5.291,6.53,2.531c2.26-2.07-0.561-4.521-1.171-6.66c-0.51-1.34,0-1.961,1.531-1.851
		c2.969,3.3,5.029,7.44,8.75,10.04c-5.721,4.51-8.48,11.61-9.891,18.55c-3.54-0.38-7.17,0.33-9.76,2.94
		c-0.521-26.171-0.08-52.35-0.221-78.52C323.33,250.51,325.189,240.1,324.55,229.63z"/>
	<path fill="#FFD650" d="M325.561,229.55c5.319,1.88,10.62,3.83,15.859,5.92c2.061,0.9,4.32,1.02,6.54,0.92
		c2.04,9.89,3.819,19.82,6.18,29.64c0.7,3.79,2.25,7.68,1.05,11.53c-4.779-0.1-7.52,5.03-12.199,5.19
		c-4.74,0.23-9.49-0.05-14.221,0.25c-0.08,2.92-0.01,5.84,0.2,8.75h-0.539c-0.971-9.58-0.461-19.24-1.861-28.77
		C326.55,251.83,324.95,240.72,325.561,229.55z"/>
	<path fill="#DF2901" d="M277.87,241.88c6.86-0.62,13.77-0.29,20.65-0.19c-0.12,0.55-0.35,1.64-0.47,2.19
		c-2.64,0.34-5.48-0.35-7.96,0.81c-1.17,4.67-2.34,9.34-3.39,14.04c-2.07,8.83-4.36,17.62-6.54,26.42
		c1.1-6.37,0.22-12.81-0.39-19.18C279.36,257.92,278.17,249.93,277.87,241.88z"/>
	<path fill="#D1D3C6" d="M290.09,244.69c2.79,0.22,5.6,0.25,8.4-0.02c0.12,42.79,0.11,85.58,0,128.36c-2.46-0.82-3.98-2.95-5.34-5
		c1.26,0.59,2.55,1.159,3.84,1.72c0.39-27.92,0.02-55.84,0.18-83.76c-0.32-13.29,0.4-26.59-0.19-39.88
		c-1.87,0.06-3.73,0.12-5.59,0.18c-1.21,4.62-2.32,9.27-3.57,13.89c-0.28-0.36-0.84-1.09-1.12-1.45
		C287.75,254.03,288.92,249.36,290.09,244.69z"/>
	<path fill="#8D6D63" d="M299.48,244.94c0.37,35.68,0.05,71.379,0.16,107.07c-0.1,7.021,0.2,14.051-0.17,21.06
		c-0.29-34.68-0.03-69.369-0.13-104.06C299.46,260.99,299.14,252.96,299.48,244.94z"/>
	<path fill="#B1DFDC" d="M291.39,246.29c1.86-0.06,3.72-0.12,5.59-0.18c0.59,13.29-0.13,26.59,0.19,39.88
		c-0.16,27.92,0.21,55.84-0.18,83.76c-1.29-0.561-2.58-1.13-3.84-1.72c-8.54-7.92-15.91-17.021-24.25-25.141
		c-0.78-0.909-1.91-1.62-2.25-2.82c1.31-5.739,3-11.399,4.16-17.18c3.25-12.54,6.23-25.16,9.35-37.74
		c2.18-8.8,4.47-17.59,6.54-26.42c0.28,0.36,0.84,1.09,1.12,1.45C289.07,255.56,290.18,250.91,291.39,246.29z"/>
	<path fill="#00C1A6" d="M443.89,251.95c0.721-0.46,2.15-1.37,2.87-1.83c1.74,5.16,3.48,10.33,4.71,15.64
		c-0.13,5.58,0.44,11.54-1.95,16.74c-3.02,5.75-9.68,7.46-15.18,9.88c-0.24,41.71-0.14,83.42,0,125.13c0,1.88-0.05,3.76-0.12,5.63
		c-10.38,0.91-20.81,0.23-31.21,0.41c-5.89-0.06-11.84,0.511-17.649-0.73c0.959-7.88,0.149-15.859,0.399-23.789
		c0.02-28.021-0.029-56.04,0-84.06c-0.1-1.341,0.12-2.851-0.87-3.91c-8.239-9.771-9.63-24.701-3.87-36.041
		c2.811-5.85,7.67-10.29,11.841-15.15c2.079-2.46,4.239-4.87,6.739-6.93c1.33,10.97,0.601,22.05,1.25,33.06
		c0.771,8.84,0.631,17.721,0.79,26.58c0.511,0.141,1.54,0.43,2.061,0.58c1,4.6,0.56,9.32,0.75,13.99
		c1.43,5.979,8.93,10.199,14.52,6.97c0.841-0.49,1.67-1,2.49-1.54c0.71,2.03,0.351,6.101,3.66,4.88c1.59-1.81,3.14-3.94,3.409-6.391
		c-0.6-2.739-1.279-5.479-1.069-8.3c-0.19,1.791-0.399,3.58-0.649,5.37c-0.121-1.79-0.15-3.59-0.221-5.37
		c-2.29-2.459-4.63-4.859-7.021-7.209c-0.06-0.53-0.18-1.601-0.239-2.141c1.3-0.01,3.38-0.601,2.78-2.38
		c-0.71-8.979-0.48-17.99-0.891-26.97c-0.75-9.12-0.83-18.28-0.85-27.43C428.38,256.81,436.939,256.41,443.89,251.95z"/>
	<path fill="#24A699" d="M449.52,282.5c2.391-5.2,1.82-11.16,1.95-16.74c1.73,7.96,0.61,16.18,1.62,24.23
		c1.561,42.07,3.54,84.13,5.16,126.199c0.49,0.431,1.47,1.291,1.96,1.721c-0.12,1.81-0.21,3.62-0.33,5.439
		c-1.87,0-3.75,0.03-5.62,0.051c-6.21,0.039-12.41,0-18.62,0.02c-0.079,1.78-0.149,3.561-0.35,5.34c-4.07,0.5-8.18,0.61-12.271,0.33
		c-12.859-0.99-25.72,0.57-38.59,0.11c-0.02-2.17,0.08-4.36,0.931-6.381c5.81,1.241,11.76,0.671,17.649,0.73
		c10.4-0.18,20.83,0.5,31.21-0.41c8.32-0.609,16.681-0.12,25.021-0.359c-0.101-1.771,0.229-3.67-0.641-5.3
		c-8.02-0.931-16.22-0.711-24.26,0.029c-0.14-41.71-0.24-83.42,0-125.13C439.84,289.96,446.5,288.25,449.52,282.5z"/>
	<path fill="#FFFFFF" d="M43.88,280.86c3.59-6.58,10.7-10.7,18.03-11.52c12.331-1.6,24.45,1.85,36.42,4.28
		c29.96,5.44,59.93,10.86,89.91,16.17c13.11,2.37,26.18,5.03,39.39,6.8c6.84,1.06,13.85,2.64,19.68,6.561
		c0.57,0.449,1.7,1.359,2.27,1.81c6.02,5.32,7.67,13.729,6.75,21.41c-0.92,3.78-1.79,7.569-2.21,11.44
		c-1.09,5.85-1.89,11.759-3.33,17.54c-0.25,0.109-0.73,0.319-0.97,0.43c0.17,2.84,0.15,5.72-0.39,8.539
		c-5.13,27.721-9.88,55.5-15.13,83.19c-0.26,1.63-0.53,3.271-0.8,4.91c-3.71,6.55-10.15,11.36-12.47,18.73
		c-3.3,8.88-0.77,18.78,4.44,26.38c-0.44,0.58-1.31,1.739-1.74,2.32c-4.84,6.46-10.96,12.699-11.91,21.119
		c-1.43,7.5,1.41,14.79,5.21,21.11c-2.78,5.43-7.48,9.83-9.05,15.87c-1.65,6.65-1.08,13.86,1.74,20.13
		c-3.4,7.47-10.61,13.239-11.01,21.92h-8.88c9.16-53.28,19.28-106.39,28.66-159.64c1.78-7.55,2.31-15.36,4.76-22.73
		c4.54-24.89,9.2-49.779,13.36-74.74c-24.76-3.95-49.37-8.84-74.07-13.14c-29.04-5.29-58.1-10.46-87.13-15.74
		c-7.85-1.3-15.63-3.109-23.55-3.97c-3.97,21.85-7.89,43.71-11.83,65.561c-1-5.661-0.91-11.44-1.61-17.131
		c-0.74-8.03-2.78-15.89-5.49-23.46c1.6-12.07,4.3-23.97,6.271-35.99C40.44,292.91,40.84,286.43,43.88,280.86z"/>
	<path fill="#FEB64C" d="M342.99,282.75c4.68-0.16,7.42-5.29,12.199-5.19c-2.18,4.8-4.64,9.47-6.949,14.21
		c-6.421-0.02-12.84,0-19.271-0.02c-0.21-2.91-0.28-5.83-0.2-8.75C333.5,282.7,338.25,282.98,342.99,282.75z"/>
	<path fill="#6D4C43" d="M328.431,291.75h0.539c6.431,0.02,12.85,0,19.271,0.02c-0.31,4.89-0.08,9.791-0.141,14.68
		c-2.539-3.27-4.619-7.22-8.449-9.16c-3.101-1.8-6.631-2.53-10.121-3.08c-0.479,2.31-0.96,4.61-1.439,6.92
		C328.38,298.01,328.46,294.88,328.431,291.75z"/>
	<path fill="#8D6D63" d="M329.529,294.21c3.49,0.55,7.021,1.28,10.121,3.08c3.83,1.94,5.91,5.891,8.449,9.16
		c-0.01,2.439,0.021,4.89,0.07,7.35c1.811,0.49,3.68,0.881,5.391,1.681c0.27,1.689,0.159,3.39,0.05,5.089
		c-3.44-0.449-6.91-1.039-10.05-2.569c-3.721-2.6-5.781-6.74-8.75-10.04c-1.531-0.11-2.041,0.511-1.531,1.851
		c0.61,2.14,3.431,4.59,1.171,6.66c-2.16,2.76-5.3-0.44-6.53-2.531c-3.05-3.859-0.47-8.609,0.17-12.81
		C328.569,298.82,329.05,296.52,329.529,294.21z"/>
	<path fill="#FE5722" d="M51.86,310.04c7.92,0.86,15.7,2.67,23.55,3.97c29.03,5.28,58.09,10.45,87.13,15.74
		c24.7,4.3,49.31,9.189,74.07,13.14c-4.16,24.961-8.82,49.851-13.36,74.74c-61.54-11.24-123.13-22.16-184.67-33.41
		c0.58-2.859,1.15-5.72,1.45-8.619C43.97,353.75,47.89,331.89,51.86,310.04z"/>
	<path fill="#FDC69F" d="M403.7,313.16c5.2,0.34,10.42,0.029,15.63,0.26c0.06,0.54,0.18,1.61,0.239,2.141
		c2.391,2.35,4.73,4.75,7.021,7.209c0.07,1.78,0.1,3.58,0.221,5.37c0.25-1.79,0.459-3.579,0.649-5.37
		c-0.21,2.82,0.47,5.561,1.069,8.3c-0.27,2.45-1.819,4.581-3.409,6.391c-3.31,1.221-2.95-2.85-3.66-4.88
		c-0.82,0.54-1.649,1.05-2.49,1.54c-0.359-0.12-1.06-0.351-1.42-0.46c0.69-3.41,1.811-7.08,0-10.35
		c-1.8-5.261-7.899-6.121-12.6-7.09c-0.3,3.629-0.62,7.279-0.5,10.93C404.26,322.48,404.7,317.76,403.7,313.16z"/>
	<path fill="#FECDBE" d="M0,313.53c8.36-0.891,17.19,1.22,23.52,6.96c4.61,3.71,7.03,9.26,9.41,14.52
		c2.71,7.57,4.75,15.43,5.49,23.46c0.7,5.69,0.61,11.47,1.61,17.131c-0.3,2.899-0.87,5.76-1.45,8.619
		c-1.44,10.45-4.36,20.6-7.86,30.521c-3.59,16.52,1.35,33.14,4.34,49.34c2.22,10.17,3.67,20.521,3.67,30.939
		c0.57,21.331-2.56,43.03-11.19,62.65c-4.37,10.16-10.8,19.511-19.25,26.69c-2.46,2.12-5.43,3.5-8.29,4.979V313.53z"/>
	<path fill="#FEE0B3" d="M404.95,316.221c4.7,0.969,10.8,1.829,12.6,7.09c1.811,3.27,0.69,6.939,0,10.35
		c0.36,0.109,1.061,0.34,1.42,0.46c-5.59,3.229-13.09-0.99-14.52-6.97C404.33,323.5,404.65,319.85,404.95,316.221z"/>
	<path fill="#00C1A6" d="M343.561,318c3.14,1.53,6.609,2.12,10.05,2.569c-4,33.241,1.3,66.65,6.75,99.411
		c1.399,7.17,2.39,14.489,4.84,21.42c-0.11,3.199,0.43,7.289-2.94,9.08c-4.55,3.14-9.6-0.761-12.699-4.091
		c-1.801-2.5-3.421-5.13-4.761-7.89c-0.739-1.561-1.439-3.14-2.23-4.67l-0.709-0.04c-0.07-2.34-0.541-4.65-1.48-6.8
		c-0.59,0.18-1.78,0.52-2.37,0.699c0.79-0.489,1.601-0.97,2.43-1.42c-0.459-1.45-0.899-2.89-1.399-4.319
		c-0.43-0.03-1.31-0.09-1.75-0.12c0.35-0.19,1.05-0.55,1.399-0.74c-3.42-15.81-4.5-31.989-5.959-48.07
		c-0.411-6.13-0.37-12.279-0.461-18.419c-0.02-1.841-0.029-3.681-0.02-5.521c0.04-2.36,0.13-4.71,0.36-7.061
		c0.3-1.839,0.669-3.659,1.06-5.47C335.08,329.61,337.84,322.51,343.561,318z"/>
	<path fill="#EA7651" d="M254.12,337.811c0.42-3.871,1.29-7.66,2.21-11.44c0.72,7.71-1.97,15.149-2.91,22.73
		C253.57,345.33,253.84,341.569,254.12,337.811z"/>
	<path fill="#1F1F1F" d="M323.91,339.49c2.59-2.61,6.22-3.32,9.76-2.94c-0.391,1.811-0.76,3.631-1.06,5.47
		c-2.13,0.091-4.94,0.221-5.16,2.971c-0.52,2.91,2.48,3.99,4.8,4.09c-0.01,1.84,0,3.68,0.02,5.521c-3.47,0.1-6.619-1.341-8.95-3.87
		c-0.04-3.32-0.079-6.65-0.189-9.971L323.91,339.49z"/>
	<path fill="#8F8262" d="M71.74,339.71c1.43-2.271,4.57-1.09,6.74-0.93c8.97,1.539,15.25,11.58,12.41,20.3
		c-1.18,3.609-3.3,8.09-7.47,8.76c1.97-2.93,4.97-5.3,5.95-8.8c0.64-3.71,0.7-7.721-0.93-11.2c-1.48-2.22-3.23-4.32-5.47-5.81
		C79.74,339.63,75.47,340.42,71.74,339.71z"/>
	<path fill="#1AB8A0" d="M61.51,348.49c0.71-4.61,5.53-7.04,9.36-8.87l0.87,0.09c3.73,0.71,8-0.08,11.23,2.32
		c2.24,1.489,3.99,3.59,5.47,5.81c-0.61-0.31-1.83-0.95-2.45-1.26c-4.7-3.21-10.311-4.311-15.92-4.5c-0.08,0.43-0.24,1.29-0.33,1.72
		c-0.62-0.119-1.87-0.38-2.5-0.5c-1.54,1.66-3.04,3.37-4.67,4.95C62.31,348.311,61.78,348.431,61.51,348.49z"/>
	<path fill="#FD5722" d="M512.859,350.28c2.011-4.62,5.871-10.99,11.73-9.82c-0.32,5.729-1.45,11.359-2.32,17.021
		c-2.819,0.43-5.63,0.899-8.42,1.439C512.67,356.181,512.4,353.22,512.859,350.28z"/>
	<path fill="#E0CAAA" d="M524.59,340.46c0.29,0.261,0.88,0.771,1.17,1.021c-0.27,5.2-1.55,10.3-1.59,15.52
		c2.96,0.42,6.13,0.65,8.58,2.601c-3.34,0.149-6.58-0.971-9.88-0.86c-1.56,3-1.24,6.5-1.271,9.77c-0.359-0.079-1.08-0.22-1.439-0.3
		c0.35-3.31,0.76-6.609,1.29-9.899c-2.921,0.529-5.83,1.109-8.631,2.1c-1.829-4-1.8-8.521-0.399-12.65
		c0.109,0.63,0.33,1.891,0.439,2.521c-0.459,2.939-0.189,5.9,0.99,8.64c2.79-0.54,5.601-1.01,8.42-1.439
		C523.14,351.819,524.27,346.189,524.59,340.46z"/>
	<path fill="#1F1F1F" d="M70.07,342.08c5.609,0.189,11.22,1.29,15.92,4.5c-1.34,3.22-2.71,6.439-3.62,9.82
		c-1.83-5.73-9.03-5.511-13.94-5.961c0.44-2.209,0.891-4.42,1.311-6.64C69.83,343.37,69.99,342.51,70.07,342.08z"/>
	<path fill="#E4F4F2" d="M327.45,344.99c0.22-2.75,3.03-2.88,5.16-2.971c-0.23,2.351-0.32,4.7-0.36,7.061
		C329.931,348.98,326.931,347.9,327.45,344.99z"/>
	<path fill="#D7CD9A" d="M537.279,343.181c1.23-1.7,4.121-1.341,5.36,0.199c4.98,5.61,7.88,14.7,3.03,21.28
		c-2.76,3.2-0.101,7.109,1,10.42c1.3,4.71,7.33,5.63,8.82,10.25c1.939,3.97-1.2,9.47-5.811,9.09c-4.14-0.8-8.29-1.57-12.449-2.27
		c-0.521-2.19-0.9-4.44-1.82-6.511c-0.92-2.149-3.28-2.939-5.12-4.06c-0.351-0.479-1.07-1.43-1.431-1.899
		c2.351,0.959,5.07,1.609,6.721,3.699c1.779,2.271,2.4,5.16,3.3,7.851c4.04,0.459,7.97,1.8,12.04,1.989
		c5.439-1.939,3.7-9.65-0.57-12c-1.229-0.83-2.47-1.619-3.74-2.34c-1.319-3.52-2.83-6.97-3.84-10.59
		c-0.56-1.06,0.041-2.021,0.66-2.87c5.551-6.67,3.131-18.2-4.26-22.51c-1.03,2.109-2.061,4.22-2.95,6.39
		C536.47,347.28,535.779,344.84,537.279,343.181z"/>
	<path fill="#05BEA4" d="M67.24,343.3c0.63,0.12,1.88,0.381,2.5,0.5c-0.42,2.22-0.87,4.431-1.311,6.64
		c-0.41,2.161-0.77,4.33-1,6.521c0.85,1.81,1.83,3.57,2.92,5.25c-0.26,1.18-0.53,2.359-0.79,3.55c-0.17,0.68-0.5,2.051-0.66,2.74
		l-0.42-1.51c-0.07-0.28-0.23-0.851-0.31-1.13c-1.03-0.641-2.15-1.19-3.37-1.26c-0.53-0.061-1.59-0.181-2.12-0.25
		c-0.37-1.29-0.91-2.521-1.339-3.781l-0.911-0.109c-0.17-3.92-0.2-7.84,0.061-11.75c0.25-0.06,0.77-0.16,1.02-0.22
		c0.27-0.06,0.8-0.18,1.061-0.24C64.2,346.67,65.7,344.96,67.24,343.3z"/>
	<path fill="#FEB64C" d="M539.17,342.91c7.391,4.31,9.811,15.84,4.26,22.51c-0.619,0.85-1.22,1.811-0.66,2.87
		c1.01,3.62,2.521,7.07,3.84,10.59c-3.09-0.38-6.199,0.189-8.67,2.15c0.351,0.39,1.03,1.15,1.371,1.53
		c3.079-0.33,6.18-0.341,9.259-0.061c0.45-0.319,1.331-0.96,1.78-1.28c4.271,2.35,6.01,10.061,0.57,12
		c-4.07-0.189-8-1.53-12.04-1.989c-0.899-2.69-1.521-5.58-3.3-7.851c-1.65-2.09-4.37-2.74-6.721-3.699
		c-2.1-1.211-4-2.721-5.699-4.421c0.74-2.47,0.65-5.07-1.561-6.75c0.03-3.27-0.289-6.77,1.271-9.77c3.3-0.11,6.54,1.01,9.88,0.86
		c0.46,0.02,1.39,0.06,1.85,0.069c0.83-3.4,1.37-6.88,1.62-10.37C537.109,347.13,538.14,345.02,539.17,342.91z"/>
	<path fill="#02BFA4" d="M85.99,346.58c0.62,0.31,1.84,0.95,2.45,1.26c1.63,3.479,1.57,7.49,0.93,11.2c-0.98,3.5-3.98,5.87-5.95,8.8
		L83,368.4c-1,0.01-2,0.039-3,0.039c-1.86-0.039-3.72-0.069-5.57-0.069l0.271-1.02c0.229-0.841,0.69-2.511,0.92-3.341
		c2.07-1.44,4.07-2.949,6-4.56c0.2-0.061,0.61-0.2,0.82-0.261c-0.03-0.93-0.05-1.859-0.07-2.789
		C83.28,353.02,84.65,349.8,85.99,346.58z"/>
	<path fill="#FFD355" d="M96.56,355.7c3.44-8.811,15.64-12.11,23.09-6.32c7.07,4.78,8.47,15.79,2.89,22.221
		c-1.97,2.56-4.92,4.02-7.81,5.289c-1.82-2.689-3.69-6.399-7.62-5.479l0.06-0.26c0.08-0.351,0.24-1.07,0.31-1.431
		c3.61,1.08,7.52,0.94,11.01-0.489c2.2-1.23,3.74-4.13,2.3-6.48c2.25-0.819,2-3.38,1.59-5.3c-1.58-2.3-3.79-4.09-5.81-5.99
		c-1.84-1.97-4.75-0.92-6.87-0.029c-1.24-0.311-2.46-0.73-3.73-0.82c-1.72,0.659-2.44,2.42-3.32,3.89
		C100.59,354.75,98.56,355.15,96.56,355.7z"/>
	<path fill="#8D6C63" d="M67.43,356.96c0.23-2.19,0.59-4.359,1-6.521c4.911,0.45,12.11,0.23,13.94,5.961
		c0.02,0.93,0.04,1.859,0.07,2.789c-0.21,0.061-0.62,0.2-0.82,0.261c-2.65,0.6-5.01,2.1-7.66,2.61
		C70.95,361.84,69.4,358.83,67.43,356.96z"/>
	<path fill="#FE6B40" d="M180.43,355.431c5.3-3.53,12.15-4.811,18.31-3.021c6.06,1.229,11.02,5.521,14.38,10.54
		c5.08,7.72,4.43,18.21-0.15,25.989c-4.89,6.851-13.66,12.421-22.29,10.091c-4.13,1.06-7.87-1.57-11.29-3.5
		c-5.24-2.87-8.36-8.45-10.02-14c-1.41-6.41-0.03-13.15,2.96-18.91c0.27-0.12,0.82-0.351,1.1-0.47
		C174.81,359.05,177.56,357.05,180.43,355.431z"/>
	<path fill="#B1DFDC" d="M323.279,428.569c0.07-25.949-0.02-51.889,0.04-77.839c2.331,2.529,5.48,3.97,8.95,3.87
		c0.091,6.14,0.05,12.289,0.461,18.419c1.459,16.081,2.539,32.261,5.959,48.07c-0.35,0.19-1.05,0.55-1.399,0.74
		c-2.511,1.08-4.92,2.83-5.87,5.489c-1.98,4.631,0.92,10.44,5.7,11.851c2.55,1,5.19-0.05,7.68-0.67c1.34,2.76,2.96,5.39,4.761,7.89
		c-5.841,0.3-11.681,0.221-17.531,0.13c-2.399,0.021-4.96-0.189-7.09,1.131c-0.68-0.271-1.35-0.53-2.009-0.78
		c-0.07-6.051-0.03-12.101-0.081-18.14c-8.1,0.089-16.189,0.01-24.29,0.06v-0.18c7.73,0.06,15.459,0.09,23.19-0.011L323.279,428.569
		z"/>
	<path fill="#D82E00" d="M114.06,353.3c1.43-0.36,1.93,0.15,1.5,1.511C114.13,355.16,113.63,354.66,114.06,353.3z"/>
	<path fill="#B1DFDC" d="M249.82,355.78c0.24-0.11,0.72-0.32,0.97-0.43c0.1,1.819,0.26,3.63,0.46,5.449
		c6.25,5.04,11.14,11.49,16.79,17.16c7.66,7.68,14.94,15.729,22.42,23.59c2.26,2.49,4.63,4.881,7.1,7.181
		c-0.28,4.909,1.44,10.589-1.89,14.8c-3.16,4.17-6.01,8.55-9.08,12.789c-1.85-0.1-3.07,1.581-1.73,3.091
		c-5.7-0.29-11.29,1.271-16.99,1.2c1.39,0.31,2.77,0.64,4.17,0.97c-4.12-0.17-8.49-0.44-12.19,1.71c-0.97,0.96-1.89,1.979-2.82,2.99
		c-4.16-0.08-8.32,0.02-12.47,0.37c-3.44-0.15-7.02-0.641-10.26,0.859c5.25-27.69,10-55.47,15.13-83.19
		C249.97,361.5,249.99,358.62,249.82,355.78z"/>
	<path fill="#534642" d="M67.43,356.96c1.97,1.87,3.521,4.88,6.53,5.101c2.65-0.511,5.01-2.011,7.66-2.61
		c-1.93,1.61-3.93,3.119-6,4.56c-1.89-0.17-3.94-0.24-5.27-1.8C69.26,360.53,68.28,358.77,67.43,356.96z"/>
	<path fill="#FFDBAE" d="M108.46,359.54c2.06-0.17,4.12-0.06,5.93,1.061c1.94,1.369,4.79,0.27,6.4,2.149
		c1.44,2.351-0.1,5.25-2.3,6.48c-3.49,1.43-7.4,1.569-11.01,0.489c-0.29-0.67-0.89-2.01-1.19-2.68c0.14-0.58,0.42-1.75,0.57-2.33
		C107.34,362.97,107.93,361.26,108.46,359.54z"/>
	<path fill="#FFFFFF" d="M512.819,360.41c2.801-0.99,5.71-1.57,8.631-2.1c-0.53,3.29-0.94,6.59-1.29,9.899
		c-2.771,0.19-5.091,3.46-3.25,5.92c1.15,2.54,4.159,1.26,6.25,1.13c1.699,1.7,3.6,3.21,5.699,4.421
		c0.36,0.47,1.08,1.42,1.431,1.899c0.22,3.13-0.61,6.18-1.69,9.09c-7.899-1.2-15.74-2.73-23.67-3.66c-1.46-0.31-2.92-0.56-4.38-0.8
		c-3.819-0.54-7.87-1.29-10.83-3.96c-2.64-2.061-3.979-5.2-5.2-8.21c0.3-0.43,0.9-1.29,1.2-1.721c4.511,1.471,8.49-2.419,8.31-6.859
		c3.141,0.42,6.29,1.34,9.48,1.021C506.85,364.86,509.58,362.23,512.819,360.41z"/>
	<path fill="#FFDDB0" d="M102.44,362.46c0.63-0.399,1.27-0.8,1.91-1.2c-0.05,1.2-0.11,2.41-0.16,3.63l-0.79-0.149l-0.4-0.08
		C102.79,363.931,102.6,363.189,102.44,362.46z"/>
	<path fill="#7C8464" d="M70.35,362.21c1.33,1.56,3.38,1.63,5.27,1.8c-0.23,0.83-0.69,2.5-0.92,3.341
		c-1.7-0.581-3.43-1.091-5.14-1.591C69.82,364.569,70.09,363.39,70.35,362.21z"/>
	<path fill="#8D6D5C" d="M109.62,365c0.32-1.23,0.84-3.16,2.4-3.189c1.5-0.48,2.42,1.149,3.47,1.89c0.89-0.381,1.79-0.75,2.69-1.131
		c1.33,1.37,1.94,3.091,1.45,4.971c-1.02,0-2.05,0-3.07,0.01c-0.4-0.41-1.21-1.21-1.61-1.61c-0.52,0.301-1.54,0.911-2.06,1.221
		C111.68,366.64,110.2,366.351,109.62,365z"/>
	<path fill="#FCE0B5" d="M112.17,363.181c1.65-0.601,2.29,2.079,0.68,2.479C111.3,366.17,110.59,363.54,112.17,363.181z"/>
	<path fill="#FEE4D8" d="M117.04,364.189c1.31-0.52,2.38,1.721,0.89,2.171C116.61,366.88,115.54,364.64,117.04,364.189z"/>
	<path fill="#FEE4D8" d="M192.43,364.48c1.24-0.42,2.67-0.48,3.86,0.159c2.32,2.421,0.07,5.87-0.03,8.721
		c2.36,0.43,4.72,0.899,7.09,1.32c0.7,1.5,1.7,3.459,0.12,4.81c-2.44,1.66-5.52-0.12-8.2-0.221c-0.88,2.86-0.19,7.761-4.18,8.291
		c-0.7-0.341-2.11-1.011-2.82-1.351c0.11-2.7,0.33-5.391,0.61-8.07c-2.51-0.459-4.97-1.1-7.42-1.81c0.01-1.57,0.07-3.141,0.17-4.69
		c2.91-0.17,5.82-0.06,8.72,0.211C190.86,369.36,190.9,366.61,192.43,364.48z"/>
	<path fill="#DDC577" d="M64.8,364.601c1.22,0.069,2.34,0.619,3.37,1.26c0.08,0.279,0.24,0.85,0.31,1.13
		C67.11,368.319,63.94,366.4,64.8,364.601z"/>
	<path fill="#D23000" d="M101.73,364.52l1.27,0.141l0.4,0.08c0.39,0.779,1.17,2.32,1.56,3.1c0.65-1.04,1.28-2.08,1.9-3.13
		c-0.15,0.58-0.43,1.75-0.57,2.33c0.3,0.67,0.9,2.01,1.19,2.68c-0.07,0.36-0.23,1.08-0.31,1.431
		C104.19,370.14,102.58,367.38,101.73,364.52z"/>
	<path fill="#1F1F1F" d="M484.26,371.11c0.32-2.221,0.33-5.171,2.81-6.16c2.261-0.71,4.661,0.31,6.96,0.51
		c0.181,4.44-3.799,8.33-8.31,6.859C485.36,372.01,484.63,371.41,484.26,371.11z"/>
	<path fill="#FFD164" d="M69.56,365.76c1.71,0.5,3.44,1.01,5.14,1.591l-0.271,1.02c1.85,0,3.71,0.03,5.57,0.069
		c-3.01,2.841-7.58,0.921-11.24,0.621l0.14-0.561C69.06,367.811,69.39,366.439,69.56,365.76z"/>
	<path fill="#1F1F1F" d="M516.91,374.13c-1.841-2.46,0.479-5.729,3.25-5.92c0.359,0.08,1.08,0.221,1.439,0.3
		c2.211,1.68,2.301,4.28,1.561,6.75C521.069,375.39,518.061,376.67,516.91,374.13z"/>
	<path fill="#FFFEF8" d="M101.82,373.819c1.66-1.009,3.35-2.069,5.29-2.409c3.93-0.92,5.8,2.79,7.62,5.479
		C110.31,377.939,104.92,377.54,101.82,373.819z"/>
	<path fill="#F35D20" d="M537.939,381.03c2.471-1.961,5.58-2.53,8.67-2.15c1.271,0.721,2.511,1.51,3.74,2.34
		c-0.449,0.32-1.33,0.961-1.78,1.28c-3.079-0.28-6.18-0.27-9.259,0.061C538.97,382.181,538.29,381.42,537.939,381.03z"/>
	<path fill="#B0DFDC" d="M530.29,381.58c1.84,1.12,4.2,1.91,5.12,4.06c0.92,2.07,1.3,4.32,1.82,6.511
		c-2.881-0.48-5.761-0.98-8.631-1.48C529.68,387.76,530.51,384.71,530.29,381.58z"/>
	<path fill="#EEEEEE" d="M30.72,414.74c3.5-9.921,6.42-20.07,7.86-30.521c61.54,11.25,123.13,22.17,184.67,33.41
		c-2.45,7.37-2.98,15.181-4.76,22.73c-9.38,53.25-19.5,106.359-28.66,159.64H0v-10.66c2.86-1.479,5.83-2.859,8.29-4.979
		c8.45-7.18,14.88-16.53,19.25-26.69c8.63-19.62,11.76-41.319,11.19-62.65c0-10.419-1.45-20.77-3.67-30.939
		C32.07,447.88,27.13,431.26,30.72,414.74z"/>
	<path fill="#02BFA6" d="M500.55,386.21c1.46,0.24,2.92,0.49,4.38,0.8c5.271,2.86,11.23,4.03,16.66,6.54
		c5.471,2.5,11.15,4.54,16.561,7.17c-3.82,0.22-7.641,0.47-11.471,0.48c-3.729-0.71-7.49-1.261-11.279-1.5
		c-4.771-0.69-9.511-1.54-14.28-2.16c-0.46-0.15-1.38-0.46-1.841-0.62C499.42,393.319,499.98,389.76,500.55,386.21z"/>
	<path fill="#23A599" d="M504.93,387.01c7.93,0.93,15.771,2.46,23.67,3.66c2.87,0.5,5.75,1,8.631,1.48
		c4.159,0.699,8.31,1.47,12.449,2.27c-0.55,3.47-1.09,6.93-1.67,10.391c-7.029-1.57-14.29-2-21.33-3.61
		c3.83-0.011,7.65-0.261,11.471-0.48c-5.41-2.63-11.09-4.67-16.561-7.17C516.16,391.04,510.2,389.87,504.93,387.01z"/>
	<path fill="#1F1F1F" d="M290.46,401.55c2.53-3.02,5.12-5.989,7.91-8.79c0.28,5.641,0.04,11.29,0.2,16.94l-1.01-0.97
		C295.09,406.431,292.72,404.04,290.46,401.55z"/>
	<path fill="#FFFFFF" d="M501.12,397.54c4.77,0.62,9.51,1.47,14.28,2.16c0.129,12.75-1.331,25.45-1.011,38.22
		c0.03-3.7-0.06-7.39-0.28-11.08c-2.93,4.1-6.649,7.83-11.869,8.61c-1.95-2.46-2.961-5.47-3.641-8.49
		c-0.39,3.729-0.83,7.46-1.03,11.21c-0.43,0.08-1.27,0.25-1.689,0.33s-1.26,0.24-1.68,0.319c4.739-2.31,3.439-8.38,4.2-12.739
		c-0.34-9.34-1.141-18.69,0.05-28.011C499.33,397.88,500.22,397.7,501.12,397.54z"/>
	<path fill="#FEB64C" d="M514.39,437.92c-0.32-12.77,1.14-25.47,1.011-38.22c4.25,3.01,9.689,2.45,14.56,3.56
		c6.53,0.91,13.06,2.69,19.71,2.08c6.29,1.49,12.13,4.729,16.87,9.12c3.89,3.609,5.819,8.66,7.93,13.4c0,2.31,0.08,4.63,0.11,6.95
		c-0.2,4.14-1.59,8.149-3.92,11.569c-2.58,1.689-5.44,3.32-8.631,3.23c-5.76,0.109-11.529-0.061-17.289,0.029
		c-0.32-0.31-0.98-0.909-1.311-1.209c-3.71-4.2-9.29-5.421-14.64-5.541c2.94-3.739,7.79-3.09,11.989-3.39
		c0.29-0.17,0.86-0.52,1.15-0.689c-1.32-1.341-2.75-2.561-4.029-3.91c-0.141-3.5,0.779-7.2,3.08-9.91
		c1.85-2.101,4.859-2.19,7.39-2.88c0.18-0.99,0.36-1.971,0.54-2.94c-3.4,0.149-7.131,0.46-9.65,3.05c-4.05,3.4-4.3,9.03-5.06,13.87
		c-5.12,1.521-10.881,5.391-9.89,11.51c-0.031,0.49-0.091,1.45-0.121,1.931l-0.25-0.011c-2.12-1.72-3.89-4.069-6.52-5.01
		c-3.38-0.68-7.02-0.59-10.189,0.88c0.549-1.5,1.119-2.989,1.68-4.479C510.72,439.89,512.55,438.89,514.39,437.92z"/>
	<path fill="#BDC778" d="M515.4,399.7c3.789,0.239,7.55,0.79,11.279,1.5c7.04,1.61,14.301,2.04,21.33,3.61
		c0.42,0.129,1.24,0.39,1.66,0.529c-6.65,0.61-13.18-1.17-19.71-2.08C525.09,402.15,519.65,402.71,515.4,399.7z"/>
	<path fill="#B1DFDC" d="M54.68,422.75c5.45-12.49,22.17-17.98,34.1-11.47c8.04,3.7,13.48,12,14.39,20.7
		c0.15,7.159-1.86,14.77-7.11,19.899c-3.35,3.06-7.18,6-11.83,6.61c0.53-2.54,0.46-5.141,0.27-7.7c0.29-0.03,0.87-0.101,1.16-0.14
		c0.36-1.87,0.64-3.761,0.92-5.631c1.96,0.28,3.97,0.8,5.96,0.471c2.13-0.65,3.79-2.23,5.56-3.521c-0.64-0.569-1.28-1.15-1.91-1.729
		c1.91,0.63,3.31-0.91,3.06-2.75c-0.45-2.351-3.25-2.101-5.03-2.641c-1.64-0.369-3.33-0.669-4.88-1.33
		c-1.72-1.589-2.84-3.7-4.21-5.56c0.86-1.95,2.1-3.82,2.28-5.979c-0.36-2.211-1.4-4.221-2.24-6.271c-0.91-0.17-1.81-0.36-2.72-0.55
		c-0.76,3.2-1.49,6.42-2.14,9.65c-2.32-0.45-4.66-0.801-6.98-1.28c0.64-3.431,1.14-6.891,1.31-10.37c-3.88,0.14-6.8,3.31-7.98,6.79
		c-0.28,2.14-0.089,4.33-0.41,6.48c-0.74,1.739-2.04,3.149-3.17,4.639c-2.47,0.681-4.83,1.711-7.01,3.07
		c0.31,1.891,0.12,4.11,1.729,5.5c-0.32,1.971-0.64,3.96-1.17,5.9c-0.35,0.3-1.06,0.891-1.41,1.18
		C51.29,439.431,50.77,430.16,54.68,422.75z"/>
	<path fill="#D4BC92" d="M297.56,408.73l1.01,0.97c0.32,4.03,0.18,8.08,0.02,12.119c-2.96,4.381-7.27,8.211-8.48,13.53
		c0.82,2.29,3,3.47,4.99,4.62c-0.48,0.6-0.97,1.2-1.46,1.79c-1.37-2.82-4.59-3.829-7.05-5.44c3.07-4.239,5.92-8.619,9.08-12.789
		C299,419.319,297.28,413.64,297.56,408.73z"/>
	<path fill="#FDB74E" d="M66.66,419.95c1.181-3.48,4.1-6.65,7.98-6.79c-0.17,3.479-0.67,6.939-1.31,10.37
		c2.32,0.479,4.66,0.83,6.98,1.28c0.24,0.09,0.73,0.279,0.97,0.37c-1.2,2.56-1.81,5.369-3.12,7.88c-1.73,2.34-4.82,2.67-7.46,3.229
		c-2.9,0.08-4.61,2.529-6.42,4.44c-2.15-0.42-4.33-0.69-6.48-1.091c-1.61-1.39-1.42-3.609-1.729-5.5c2.18-1.359,4.54-2.39,7.01-3.07
		c1.13-1.489,2.43-2.899,3.17-4.639C66.57,424.28,66.38,422.09,66.66,419.95z"/>
	<path fill="#FC5723" d="M82.45,415.16c0.91,0.189,1.81,0.38,2.72,0.55c0.84,2.05,1.88,4.06,2.24,6.271
		c-0.18,2.159-1.42,4.029-2.28,5.979c-1.18-1.06-2.49-1.97-3.85-2.779c-0.24-0.091-0.73-0.28-0.97-0.37
		C80.96,421.58,81.69,418.36,82.45,415.16z"/>
	<path fill="#058E7E" d="M434.34,417.51c8.04-0.74,16.24-0.96,24.26-0.029c0.87,1.63,0.54,3.529,0.641,5.3
		c-8.34,0.239-16.7-0.25-25.021,0.359C434.29,421.27,434.34,419.39,434.34,417.51z"/>
	<path fill="#F55C1E" d="M539.26,422.22c2.52-2.59,6.25-2.9,9.65-3.05c-0.18,0.97-0.36,1.95-0.54,2.94
		c-2.53,0.689-5.54,0.779-7.39,2.88c-2.301,2.71-3.221,6.41-3.08,9.91c1.279,1.35,2.709,2.569,4.029,3.91
		c-0.29,0.17-0.86,0.52-1.15,0.689c-4.199,0.3-9.049-0.35-11.989,3.39c-1.58,1.49-3.07,3.07-4.479,4.71
		c-0.991-6.119,4.77-9.989,9.89-11.51C534.96,431.25,535.21,425.62,539.26,422.22z"/>
	<path fill="#FBB751" d="M290.11,435.35c1.21-5.319,5.52-9.149,8.48-13.53c-0.05,2.261-0.04,4.521-0.03,6.791v0.18
		c-0.02,2.529-0.07,5.08-0.12,7.62c0.86,0.39,1.72,0.771,2.58,1.159c-0.18,0.381-0.56,1.12-0.75,1.5
		C297.08,437.39,293.96,434.811,290.11,435.35z"/>
	<path fill="#1F1F1F" d="M331.42,427.319c0.95-2.659,3.359-4.409,5.87-5.489c0.44,0.03,1.32,0.09,1.75,0.12
		c0.5,1.43,0.94,2.869,1.399,4.319c-0.829,0.45-1.64,0.931-2.43,1.42c-2.23,1.16-2.14,5.13,0.34,5.961
		c0.881,0.03,2.631,0.1,3.511,0.14l0.709,0.04c0.791,1.53,1.491,3.109,2.23,4.67c-2.489,0.62-5.13,1.67-7.68,0.67
		C332.34,437.76,329.439,431.95,331.42,427.319z"/>
	<path fill="#F95823" d="M574.47,427.86c2.53-2.101,4.511-4.8,7.3-6.591c0.721,0.42,2.16,1.261,2.891,1.67
		c0.85,6.16-5.16,9.88-10.08,11.871C574.55,432.49,574.47,430.17,574.47,427.86z"/>
	<path fill="#FEDFB3" d="M435.29,428.76c0.2-1.779,0.271-3.56,0.35-5.34c6.21-0.02,12.41,0.02,18.62-0.02
		c0.13,5.13-0.66,10.28,0.11,15.399c-2.13,2.09-3.78,4.631-4.29,7.62h-0.24c-0.32,0-0.979,0-1.3,0
		c-1.511-7.07-8.74-11.16-15.65-10.29C433.23,433.54,434.12,431.08,435.29,428.76z"/>
	<path fill="#FFC49E" d="M436.38,429.11c0.28-1.5-0.22-3.63,1.57-4.33c5.069-0.431,10.17-0.2,15.239,0.15
		c0.141,2.759,0.07,5.529-0.25,8.279C447.27,432.59,441.74,430.99,436.38,429.11z"/>
	<path fill="#FFFFFF" d="M78.16,433.061c1.31-2.511,1.92-5.32,3.12-7.88c1.36,0.81,2.67,1.72,3.85,2.779
		c1.37,1.859,2.49,3.971,4.21,5.56c1.55,0.661,3.24,0.961,4.88,1.33c-0.04,1.99,0.08,4.211,1.97,5.391
		c0.63,0.579,1.27,1.16,1.91,1.729c-1.77,1.29-3.43,2.87-5.56,3.521c-1.99,0.329-4-0.19-5.96-0.471
		c-1.33-0.239-2.65-0.439-3.98-0.63c-3.61-0.829-7.24-1.579-10.91-2.12c-0.96-1.859-1.13-3.93-0.99-5.979
		C73.34,435.73,76.43,435.4,78.16,433.061z"/>
	<path fill="#B2DFDC" d="M502.24,435.45c5.22-0.78,8.939-4.511,11.869-8.61c0.221,3.69,0.311,7.38,0.28,11.08
		c-1.84,0.97-3.67,1.97-5.479,2.99C506.43,439.42,504.12,437.65,502.24,435.45z"/>
	<path fill="#E0F3F5" d="M338.35,433.65c-2.479-0.831-2.57-4.801-0.34-5.961c0.59-0.18,1.78-0.52,2.37-0.699
		c0.939,2.149,1.41,4.46,1.48,6.8C340.98,433.75,339.23,433.681,338.35,433.65z"/>
	<path fill="#FC5723" d="M497.569,438.17c0.2-3.75,0.641-7.48,1.03-11.21c0.68,3.021,1.69,6.03,3.641,8.49
		c1.88,2.2,4.189,3.97,6.67,5.46c-0.561,1.49-1.131,2.979-1.68,4.479c-0.74,0.53-1.471,1.07-2.19,1.62c-2-1.22-3.95-2.69-6.31-3.079
		c-2.931-0.461-5.82,0.509-8.57,1.369c1.4-2.649,3.08-5.21,5.72-6.8C496.3,438.42,497.14,438.25,497.569,438.17z"/>
	<path fill="#1F201F" d="M116.63,429.22c0.48-0.03,1.44-0.09,1.92-0.12c-0.32,2.131-0.7,4.261-1.05,6.391
		c1.51,0.149,3.1,0.35,3.43,2.1c-1.9-0.25-3.79-0.58-5.66-0.97C115.73,434.16,116.19,431.689,116.63,429.22z"/>
	<path fill="#1F1F1F" d="M298.56,428.79c8.1-0.05,16.19,0.029,24.29-0.06c0.051,6.039,0.011,12.089,0.081,18.14
		c-1.331-0.51-2.641-1.03-3.931-1.59c-5.87-2.841-12.04-5.011-17.98-7.711c-0.859-0.389-1.72-0.77-2.58-1.159
		C298.49,433.87,298.54,431.319,298.56,428.79z"/>
	<path fill="#1C201D" d="M124.58,430.03c3.72,1.18-1.62,6.789,2.32,7.39c1.88-1.43,1.42-4.359,2.07-6.48
		c2.96,0.471,0.98,3.95,0.76,5.83c-0.55,3.37-6.66,2.32-6.21-0.95C123.63,433.85,124.15,431.939,124.58,430.03z"/>
	<path fill="#FFC59D" d="M403.45,430.23c6.64-1.07,13.43-0.69,20.119-0.311c0.241,2.73,0.601,5.45,0.841,8.19
		c-7.19-0.671-14.08-2.94-20.95-5.03C403.46,432.13,403.45,431.181,403.45,430.23z"/>
	<path fill="#1F1F1F" d="M134.09,432.52c0.44-0.119,1.32-0.339,1.76-0.459c-0.34,2.659-0.82,5.31-1.31,7.949
		c-0.48-0.079-1.43-0.25-1.91-0.329C133.13,437.29,133.32,434.83,134.09,432.52z"/>
	<path fill="#1F1F1F" d="M139.93,433.95c1.88-1.75,6,0.47,4.52,3.13c-0.89-0.57-2.94-3.58-3.78-1.36
		c-1.3,2.021-0.63,4.61,2.08,4.521c-0.4-0.71-1.22-2.13-1.63-2.84c0.86,0.09,2.57,0.26,3.42,0.35c0.08,1.569-0.41,4.15-2.55,3.73
		C137.72,442.02,137.08,435.931,139.93,433.95z"/>
	<path fill="#FEDFB3" d="M403.46,433.08c6.87,2.09,13.76,4.359,20.95,5.03c-0.07,0.479-0.16,0.959-0.271,1.439
		c-1.89,1.87-2.989,4.28-3.479,6.881c-5.811,0.069-11.631,0.109-17.45-0.011C403.51,441.98,403.5,437.53,403.46,433.08z"/>
	<path fill="#1F1F1F" d="M148.7,434.319c0.52,0.361,1.04,0.75,1.54,1.161c-0.24,2.539-0.9,5.039-1.46,7.529
		c-0.36-0.26-1.09-0.779-1.46-1.04C147.47,439.37,148.13,436.84,148.7,434.319z"/>
	<path fill="#1C201F" d="M94.22,434.85c1.78,0.54,4.58,0.29,5.03,2.641c0.25,1.84-1.15,3.38-3.06,2.75
		C94.3,439.061,94.18,436.84,94.22,434.85z"/>
	<path fill="#291E0A" d="M290.11,435.35c3.85-0.539,6.97,2.04,10.16,3.72c-0.34,0.611-1.01,1.831-1.35,2.44
		c-1.32-0.399-2.59-0.94-3.82-1.54C293.11,438.819,290.93,437.64,290.11,435.35z"/>
	<path fill="#261F11" d="M284.86,439.41c-1.34-1.51-0.12-3.19,1.73-3.091c2.46,1.611,5.68,2.62,7.05,5.44
		C290.84,444.189,287.67,440.17,284.86,439.41z"/>
	<path fill="#FEB64C" d="M424.14,439.55c2.601-1.81,5.53-3.23,8.75-3.42c6.91-0.87,14.14,3.22,15.65,10.29
		c-9.3,0.12-18.59,0.11-27.88,0.011C421.15,443.83,422.25,441.42,424.14,439.55z"/>
	<path fill="#BCE1D3" d="M64.28,440.73c1.811-1.911,3.52-4.36,6.42-4.44c-0.14,2.05,0.03,4.12,0.99,5.979
		C69.21,441.819,66.75,441.23,64.28,440.73z"/>
	<path fill="#FDB64C" d="M454.37,438.8c4.399-2.63,9.75-3.17,14.71-2.069c4.439,1.409,8.25,4.989,8.939,9.77
		c-9.31-0.03-18.63,0.15-27.939-0.08C450.59,443.431,452.24,440.89,454.37,438.8z"/>
	<path fill="#FFD752" d="M300.27,439.069c0.19-0.38,0.57-1.119,0.75-1.5c5.94,2.7,12.11,4.87,17.98,7.711
		c-2.2,0.979-4.59,1.39-6.99,1.27c-17.4-0.239-34.8,0.09-52.19-0.18c0-0.771,0.02-2.31,0.03-3.08c3.7-2.15,8.07-1.88,12.19-1.71
		c-1.4-0.33-2.78-0.66-4.17-0.97c5.7,0.07,11.29-1.49,16.99-1.2c2.81,0.76,5.98,4.779,8.78,2.35c0.49-0.59,0.98-1.19,1.46-1.79
		c1.23,0.6,2.5,1.141,3.82,1.54C299.26,440.9,299.93,439.681,300.27,439.069z"/>
	<path fill="#27A696" d="M57.8,439.64c2.15,0.4,4.33,0.671,6.48,1.091c2.47,0.5,4.93,1.089,7.41,1.539
		c3.67,0.541,7.3,1.291,10.91,2.12c-5.75,1.641-12.76-2.25-17.24,3.18c-2.95-0.479-5.84-1.289-8.73-2.029
		C57.16,443.6,57.48,441.61,57.8,439.64z"/>
	<path fill="#80CDC5" d="M365.2,441.4c0.27,0.08,0.819,0.26,1.09,0.34c-0.08,1.63-0.16,3.26-0.24,4.899
		c10.46,0.221,20.99-0.79,31.38,0.61c0.061,1.13,0.15,2.26,0.28,3.39c1.359,0.471,2.771,0.771,4.21,0.78
		c24.69,0.011,49.38,0.011,74.07-0.02c1.43-0.061,2.87-0.271,4.26-0.62c0.13-1.25,0.22-2.49,0.29-3.74
		c2.229-0.34,4.479-0.59,6.75-0.51c0.2,0.45,0.6,1.35,0.81,1.789l0.09,1.301c11.91-0.021,23.83,0.13,35.75-0.101l0.25,0.011
		c6.41,0.15,12.82,0.069,19.221,0.1l0.02-1.199c0.33,0.3,0.99,0.899,1.311,1.209c5.76-0.09,11.529,0.08,17.289-0.029
		c3.19,0.09,6.051-1.541,8.631-3.23c3.939,0.2,9.67-1.069,11.5,3.58c1.96,3.859-2.21,7.9-6.12,7.21
		c-54.34,0.04-108.69,0.04-163.04,0c-46.13,0.16-92.27-0.26-138.39,0.2c-2.03-2.24-4.12-4.431-6.29-6.53
		c18.66-0.439,37.34,0.13,56-0.31c0.15-0.72,0.46-2.16,0.62-2.88c2.13-1.32,4.69-1.11,7.09-1.131
		c5.851,0.091,11.69,0.17,17.531-0.13c3.1,3.33,8.149,7.23,12.699,4.091C365.63,448.689,365.09,444.6,365.2,441.4z"/>
	<path fill="#FECDBE" d="M257.03,446.28c0.93-1.011,1.85-2.03,2.82-2.99c-0.01,0.771-0.03,2.31-0.03,3.08
		c2.74,1.649,5.57,3.17,8.5,4.47c2.17,2.1,4.26,4.29,6.29,6.53c7.15,9.35,6.51,23.449-0.57,32.66c-2.82,3.65-6.03,6.989-8.93,10.58
		c-6.02,4.479-13.53,7.12-21.08,6.529c-7.08-0.939-13.42-4.81-18.56-9.609c-5.21-7.6-7.74-17.5-4.44-26.38
		c2.32-7.37,8.76-12.181,12.47-18.73c3.68-1.92,7.31-3.97,11.06-5.77C248.71,446.3,252.87,446.2,257.03,446.28z"/>
	<path fill="#FFFFFD" d="M490.16,445.3c2.75-0.86,5.64-1.83,8.57-1.369c2.359,0.389,4.31,1.859,6.31,3.079
		c0.72-0.55,1.45-1.09,2.19-1.62c3.17-1.47,6.81-1.56,10.189-0.88c2.63,0.94,4.399,3.29,6.52,5.01
		c-11.92,0.23-23.84,0.08-35.75,0.101l-0.09-1.301C488.76,447.29,489.46,446.3,490.16,445.3z"/>
	<path fill="#FFFFFF" d="M524.311,447.6c1.409-1.64,2.899-3.22,4.479-4.71c5.35,0.12,10.93,1.341,14.64,5.541l-0.02,1.199
		c-6.4-0.03-12.811,0.051-19.221-0.1C524.22,449.05,524.279,448.09,524.311,447.6z"/>
	<path fill="#06BEA4" d="M65.36,447.569c4.48-5.43,11.49-1.539,17.24-3.18c1.33,0.19,2.65,0.391,3.98,0.63
		c-0.28,1.87-0.56,3.761-0.92,5.631c-0.29,0.039-0.87,0.109-1.16,0.14c-3.76-0.2-7.42-1.07-11.1-1.75
		c-0.43,1.641-0.88,3.279-1.34,4.92c0.31-1.84,0.73-3.649,1.27-5.42C70.66,448.319,68,448.01,65.36,447.569z"/>
	<path fill="#BDBDBD" d="M115.33,444.3c1.44-0.86,3.15-0.369,4.7-0.189c20.93,3.88,41.88,7.64,62.85,11.32
		c2.27,0.369,5.02,1.839,4.9,4.5c0.51,3.159-2.69,5.97-5.76,5.109c-21.23-3.859-42.46-7.771-63.72-11.51
		c-1.84-0.42-4.26-0.711-5.04-2.73C111.99,448.48,113.04,445.48,115.33,444.3z"/>
	<path fill="#FFFFF6" d="M312.01,446.55c2.4,0.12,4.79-0.29,6.99-1.27c1.29,0.56,2.6,1.08,3.931,1.59
		c0.659,0.25,1.329,0.51,2.009,0.78c-0.16,0.72-0.47,2.16-0.62,2.88c-18.659,0.439-37.339-0.13-56,0.31
		c-2.93-1.3-5.76-2.82-8.5-4.47C277.21,446.64,294.61,446.311,312.01,446.55z"/>
	<path fill="#FDB74E" d="M55.22,446.72c0.35-0.289,1.06-0.88,1.41-1.18c2.89,0.74,5.78,1.55,8.73,2.029
		c2.64,0.44,5.3,0.75,7.97,0.971c-0.54,1.771-0.96,3.58-1.27,5.42c0.46-1.641,0.91-3.279,1.34-4.92c-0.31,2.521-0.67,5.05-1.2,7.55
		c-0.291,0.96-0.6,1.92-0.93,2.88C64.78,457.21,58.02,453.28,55.22,446.72z"/>
	<path fill="#83CBC2" d="M234.3,447.51c3.24-1.5,6.82-1.01,10.26-0.859c-3.75,1.8-7.38,3.85-11.06,5.77
		C233.77,450.78,234.04,449.14,234.3,447.51z"/>
	<path fill="#F35A22" d="M398.1,446.75c1.69-0.22,3.4-0.319,5.11-0.33c5.819,0.12,11.64,0.08,17.45,0.011
		c9.29,0.1,18.58,0.109,27.88-0.011c0.32,0,0.979,0,1.3,0c0.37,1.12,0.74,2.25,1.12,3.391c-16.641-0.03-33.28,0.029-49.92-0.041
		C398.99,450.27,398.561,448.23,398.1,446.75z"/>
	<path fill="#D23000" d="M449.84,446.42h0.24c9.31,0.23,18.63,0.05,27.939,0.08c0.431,0.069,1.28,0.22,1.711,0.3
		c-0.061,1.71-0.74,3.4-2.771,2.99c-8.67,0.1-17.34-0.04-26,0.021C450.58,448.67,450.21,447.54,449.84,446.42z"/>
	<path fill="#8D6D5C" d="M397.43,447.25c0.17-0.13,0.5-0.38,0.67-0.5c0.461,1.48,0.891,3.52,2.94,3.02
		c16.64,0.07,33.279,0.011,49.92,0.041c8.66-0.061,17.33,0.079,26-0.021c2.03,0.41,2.71-1.28,2.771-2.99
		c0.199,0.061,0.609,0.181,0.81,0.24c-0.07,1.25-0.16,2.49-0.29,3.74c-27.51,0.43-55.02-0.6-82.54-0.141
		C397.58,449.51,397.49,448.38,397.43,447.25z"/>
	<path fill="#FFFFFF" d="M73.4,449.04c3.68,0.68,7.34,1.55,11.1,1.75c0.19,2.56,0.26,5.16-0.27,7.7
		c-3.08,2.479-7.47,0.76-11.13,1.149c-0.22-0.76-0.68-2.29-0.9-3.05C72.73,454.09,73.09,451.561,73.4,449.04z"/>
	<path fill="#FEAE91" d="M397.71,450.64c27.521-0.459,55.03,0.57,82.54,0.141c-1.39,0.35-2.83,0.56-4.26,0.62
		c-24.69,0.03-49.38,0.03-74.07,0.02C400.48,451.41,399.069,451.11,397.71,450.64z"/>
	<path fill="#FEAE91" d="M223.73,499.851c0.43-0.581,1.3-1.74,1.74-2.32c5.14,4.8,11.48,8.67,18.56,9.609
		c7.55,0.591,15.06-2.05,21.08-6.529c1.67,2.56,3.29,5.17,4.6,7.95c-6.22,6.149-14.63,11.56-23.79,9.77
		C235.48,517.33,228.24,508.561,223.73,499.851z"/>
	<path fill="#FECDBE" d="M211.82,520.97c0.95-8.42,7.07-14.659,11.91-21.119c4.51,8.71,11.75,17.479,22.19,18.479
		c9.16,1.79,17.57-3.62,23.79-9.77c2.38,5.319,2.35,11.459,0.74,16.989c-1.31,5.39-5.63,9.19-8.44,13.79
		c-3.79,5.21-8.89,9.65-15.17,11.5c-9.95,3.53-21.32-0.17-28.43-7.68c-0.7,0.56-1.38,1.14-2.06,1.729
		c3.89,6.761,9.08,12.99,15.73,17.18c5.92,3.771,13.52,2.961,19.83,0.661c6.39-2.32,11.27-7.411,15.19-12.8
		c1.47,7.239,0.39,15.119-3.79,21.319c-2.16,3.14-4.49,6.181-6.25,9.59c-4.24,5.011-9.62,9.591-16.22,10.96
		c-8.06,1.81-17.29,0.591-23.62-5.06c-2.84-2.29-4.74-5.801-8.33-7.06c0.94,8.259,7.13,14.509,12.51,20.319h-22.69
		c0.4-8.681,7.61-14.45,11.01-21.92c-2.82-6.27-3.39-13.479-1.74-20.13c1.57-6.04,6.27-10.44,9.05-15.87
		C213.23,535.76,210.39,528.47,211.82,520.97z"/>
	<path fill="#FFAE91" d="M246.84,550.84c6.28-1.85,11.38-6.29,15.17-11.5c2.34,3.18,4.19,6.721,5.09,10.591
		c-3.92,5.389-8.8,10.479-15.19,12.8c-6.31,2.3-13.91,3.109-19.83-0.661c-6.65-4.189-11.84-10.419-15.73-17.18
		c0.68-0.59,1.36-1.17,2.06-1.729C225.52,550.67,236.89,554.37,246.84,550.84z"/>
	<path fill="#FFAD91" d="M208.89,579.681c3.59,1.259,5.49,4.77,8.33,7.06c6.33,5.65,15.56,6.869,23.62,5.06
		c6.6-1.369,11.98-5.949,16.22-10.96l0.62,1.05c0.83,2.95,1.71,5.93,1.77,9.021c-0.12,3.529-2.51,6.35-4.48,9.09H221.4
		C216.02,594.189,209.83,587.939,208.89,579.681z"/>
	<path fill="#FAD1C5" d="M257.68,581.89c4.12,5.171,2.62,12.041,2.43,18.11h-5.14c1.97-2.74,4.36-5.561,4.48-9.09
		C259.39,587.819,258.51,584.84,257.68,581.89z"/>
</g>
<g id="New-Head">
	<g id="Niggas-Head">
		<path fill="#1F1F1F" d="M262.52,70.52c19.9-5.21,41.81-7.57,61.18,0.93c-1.3,9.94-4.19,19.78-3.54,29.87l-0.45-0.43
			c-0.17-2.36,0.229-4.81-0.46-7.1c-3.91-2.09-8.46-2.37-12.75-3.21c-13.67-1.95-27.72-0.97-40.98,2.88
			C264.76,85.78,263.17,78.21,262.52,70.52z"/>
		<path fill="#8D6C63" d="M265.52,92.46c13.26-3.85,27.31-4.83,40.98-2.88c1.721,3.96,3.471,7.91,5.18,11.88
			c2.561-1.01,5.25-1.82,8.03-1.57l0.45,0.43c2.13,1.77,4.22,4.27,3.51,7.26c-0.34,2.59-2.65,4.01-4.641,5.31
			c-1.869-0.17-3.75-0.33-5.619-0.47c-2.96,5.47-7.33,10.54-13.26,12.83c-8.99,3.7-20.36,1.85-27.09-5.37
			c-2.25-2.44-4-5.31-6.38-7.64C264.7,105.85,266.29,99.02,265.52,92.46z"/>
		<path fill="#534642" d="M306.5,89.58c4.29,0.84,8.84,1.12,12.75,3.21c0.689,2.29,0.29,4.74,0.46,7.1
			c-2.78-0.25-5.47,0.56-8.03,1.57C309.971,97.49,308.221,93.54,306.5,89.58z"/>
		<path fill="#201E1F" d="M270.83,102.36c1.11-1.27,2.58-3.47,4.52-2.08c2.15,0.65,2.22,4.52-0.11,4.95
			C273.03,106.51,271.56,104.07,270.83,102.36z"/>
		<path fill="#1F1E1D" d="M282.89,100.87c1.75-2.38,5.92,0.02,4.92,2.67c-0.041,1.7-2.291,1.57-3.32,2.4
			C283.19,104.66,281.1,102.69,282.89,100.87z"/>
		<path fill="#221E1B" d="M290.971,106.08c0.879-0.73,2.739,0.16,2.289,1.34c-1.38,4.77-7.289,6.76-11.7,5.1
			c-1.36-0.08-1.94-3.27-0.03-2.8c2.14-0.11,4.48,0.5,6.43-0.7C289.07,108.15,289.93,107.01,290.971,106.08z"/>
		<path fill="#6D4C43" d="M266.68,112.24c2.38,2.33,4.13,5.2,6.38,7.64c6.73,7.22,18.1,9.07,27.09,5.37
			c5.93-2.29,10.3-7.36,13.26-12.83c1.869,0.14,3.75,0.3,5.619,0.47c-2.76,7.62-8.489,13.95-15.989,17.13
			c-0.04,1.44-0.069,2.89-0.09,4.34c-5.61,2.76-11.95,2.56-17.91,1.19c-0.01-1.57-0.03-3.13-0.04-4.7
			C276.42,127.95,269.15,121.08,266.68,112.24z"/>
		<path fill="#8D6C63" d="M285.04,135.55c5.96,1.37,12.3,1.57,17.91-1.19c-0.021,3.86,0.021,7.73-0.011,11.6
			c-5.93,0.01-11.859-0.04-17.799,0.04C285.05,142.51,285.04,139.03,285.04,135.55z"/>
	</g>
	<g id="Niggas-Arm" display="none">
		<path display="inline" fill="#FDB74F" d="M260.609,146.65c2.011-0.94,4.25-1.24,6.44-1.52c-0.43,7.96-1.3,15.9-2.13,23.83
			c1.16,0.15,2.32,0.33,3.48,0.54c-3.23-0.52-6.7,0.15-9.791-0.99c-2.189-1.95,0.19-4.86,0.541-7.13c0.89-2.53-2.75-4.46-4.631-2.9
			c-3.359,2.66-2.569,7.67-5.379,10.73c-1.73-0.08-3.471-0.14-5.201-0.21c3.771-5.51,8.141-10.58,11.98-16.03
			C257.45,150.85,258.58,148.36,260.609,146.65z"/>
		<path display="inline" fill="#8D6C62" d="M254.52,158.48c1.881-1.56,5.521,0.37,4.631,2.9c-0.351,2.27-2.73,5.18-0.541,7.13
			c3.091,1.14,6.561,0.47,9.791,0.99c3.14,1.3,2.949,5.23,2.039,7.94c-1.369,4.37-1.299,10.08-5.989,12.44
			c-5.95,0.6-11.95,0.34-17.9-0.2c-0.979-6.72-2.521-15.02,2.591-20.47C251.95,166.15,251.16,161.14,254.52,158.48z"/>
		<path display="inline" fill="#FFD651" d="M243.939,169c1.73,0.07,3.471,0.13,5.201,0.21c-5.111,5.45-3.57,13.75-2.591,20.47
			c0.69,6.32,2.271,13.08,7.36,17.38c2.63,1.23,6.4,0.11,7.25-2.87c1.199-4.43-0.551-9.12,0.88-13.54
			c1.05,1.33,2.08,2.68,3.069,4.06c0.211,5.65,0.261,11.32-0.129,16.96c-0.98,2.52-1.721,5.47-4.08,7.08
			c-5.03,3.54-10.99,5.27-16.601,7.61c-4.89,1.78-9.69,4.12-14.87,4.85c-4.3-1.29-7.63-4.71-11.36-7.13
			c-0.57-5.86-1.44-11.73-1.14-17.63c-0.03-1.74,1.27-3.07,2.16-4.43C227.48,191.09,235.3,179.73,243.939,169z"/>
		<path display="inline" fill="#FEB74C" d="M246.55,189.68c5.95,0.54,11.95,0.8,17.9,0.2c0.239,1.6,0.479,3.21,0.659,4.83
			c-0.989-1.38-2.02-2.73-3.069-4.06c-1.431,4.42,0.319,9.11-0.88,13.54c-0.85,2.98-4.62,4.1-7.25,2.87
			C248.82,202.76,247.24,196,246.55,189.68z"/>
	</g>
</g>
</svg>
