<?xml version="1.0" encoding="utf-8"?>
<!-- Generator: Adobe Illustrator 16.0.0, SVG Export Plug-In . SVG Version: 6.00 Build 0)  -->
<!DOCTYPE svg PUBLIC "-//W3C//DTD SVG 1.1//EN" "http://www.w3.org/Graphics/SVG/1.1/DTD/svg11.dtd" [
	<!ENTITY ns_extend "http://ns.adobe.com/Extensibility/1.0/">
	<!ENTITY ns_ai "http://ns.adobe.com/AdobeIllustrator/10.0/">
	<!ENTITY ns_graphs "http://ns.adobe.com/Graphs/1.0/">
	<!ENTITY ns_vars "http://ns.adobe.com/Variables/1.0/">
	<!ENTITY ns_imrep "http://ns.adobe.com/ImageReplacement/1.0/">
	<!ENTITY ns_sfw "http://ns.adobe.com/SaveForWeb/1.0/">
	<!ENTITY ns_custom "http://ns.adobe.com/GenericCustomNamespace/1.0/">
	<!ENTITY ns_adobe_xpath "http://ns.adobe.com/XPath/1.0/">
]>
<svg version="1.1" xmlns:x="&ns_extend;" xmlns:i="&ns_ai;" xmlns:graph="&ns_graphs;"
	 xmlns="http://www.w3.org/2000/svg" xmlns:xlink="http://www.w3.org/1999/xlink" x="0px" y="0px" width="234px" height="237px"
	 viewBox="0 0 234 237" enable-background="new 0 0 234 237" xml:space="preserve">
<metadata>
	<sfw  xmlns="&ns_sfw;">
		<slices></slices>
		<sliceSourceBounds  height="237" width="234" bottomLeftOrigin="true" y="0" x="0"></sliceSourceBounds>
	</sfw>
</metadata>
<g id="Layer_1">
	<rect y="0.5" display="none" fill="#B8E5FA" width="234" height="237"/>
	<path fill="#FFEDAC" d="M93.34,15.05c25.729-5.31,53.49-0.73,75.8,13.27c22.28,13.62,39.061,35.96,45.791,61.2
		c8.329,30.14,2.169,63.911-16.561,89c-2.39-0.02-4.771-0.039-7.16-0.039c-1.85-6.7-9.7-4.82-14.93-4.94
		c0.08-4.351-0.3-8.721,0.2-13.05c1.6-5.91,2.109-12.03,2.93-18.08c0.54-3.971-2.11-8.37-6.19-9.11
		c-6.42-1.17-12.95-1.48-19.45-1.989c-7.08-3.101-14.029-6.48-21.109-9.601c-3.11-1.35-7.33-3.14-6.971-7.25
		c0.241-6.35-0.42-12.79-2.909-18.69c19.409-0.06,38.83,0.03,58.239-0.03c6.03,0.35,11.461-5.3,10.75-11.32
		c-0.069-5.11-4.569-9.69-9.68-9.82c-6.51-0.36-13.029,0.14-19.54-0.23c0.41-5.35-0.7-11.95-6.39-14.09
		c-5.62-1.62-11.6-0.42-17.37-0.8c-0.34-6.47,1.36-14-3.359-19.32c-3.381-4.4-9.161-5.56-14.411-5.21
		c-6.29,0.3-13.95-1.4-18.729,3.84c-4.51,4.16-3.8,10.79-3.78,16.35c-2.08,0.83-4.22,1.57-6.14,2.74c-2.56,1.53-3.93,4.3-5.48,6.72
		c-17.11-7.03-35.46-10.46-53.78-12.47C48.11,33.3,69.73,19.83,93.34,15.05z"/>
	<path fill="#FFFFFF" d="M102.29,38.79c4.78-5.24,12.44-3.54,18.729-3.84c5.25-0.35,11.03,0.81,14.411,5.21
		c4.72,5.32,3.02,12.85,3.359,19.32c5.771,0.38,11.75-0.82,17.37,0.8c5.689,2.14,6.8,8.74,6.39,14.09
		c6.511,0.37,13.03-0.13,19.54,0.23c5.11,0.13,9.61,4.71,9.68,9.82c0.711,6.02-4.72,11.67-10.75,11.32
		c-19.409,0.06-38.83-0.03-58.239,0.03c-6.45-15.25-21.09-25.05-35.89-31.17c1.55-2.42,2.92-5.19,5.48-6.72
		c1.92-1.17,4.06-1.91,6.14-2.74C98.49,49.58,97.78,42.95,102.29,38.79z"/>
	<path fill="#FC9000" d="M20.69,72.1c3.34-7.12,7.6-13.77,12.42-19.97c18.32,2.01,36.67,5.44,53.78,12.47
		c14.8,6.12,29.44,15.92,35.89,31.17c2.489,5.9,3.15,12.34,2.909,18.69c-0.359,4.11,3.86,5.9,6.971,7.25
		c7.08,3.12,14.029,6.5,21.109,9.601l-0.319,1.05c-9.15-0.55-18.4-1.55-27.511-0.11c-11.919,1.89-23.069,8.87-29.43,19.21
		c-10.41,0.05-20.83,0.05-31.24,0.03c3.9-9.101,5.89-19.04,5.47-28.95c-0.49-12.33-1.07-24.66-1.58-37
		c-0.05-6.68-4.08-13.38-10.46-15.76c-3.78-1.62-7.95-0.88-11.89-0.46C38.1,70.29,29.4,71.27,20.69,72.1z"/>
	<path fill="#002E6E" d="M46.81,69.32c3.94-0.42,8.11-1.16,11.89,0.46c6.38,2.38,10.41,9.08,10.46,15.76
		c0.51,12.34,1.09,24.67,1.58,37c0.42,9.91-1.57,19.85-5.47,28.95c-16.28,0.029-32.55,0-48.83,0.01
		c-8.99-25.66-7.61-54.88,4.25-79.4C29.4,71.27,38.1,70.29,46.81,69.32z"/>
	<path fill="#002E6E" d="M88.87,120.14c7.43-0.99,14.8-2.55,22.26-3.25c2.44,0.78,2.53,4.61,0.09,5.36
		c-8.9,1.439-17.81,2.87-26.74,4.15c-1.98-0.601-2.94-3.28-1.44-4.84C84.77,120.48,86.93,120.561,88.87,120.14z"/>
	<path fill="#F26000" d="M84.48,126.4c8.93-1.28,17.84-2.711,26.74-4.15c-1.79,4.76-7,6.74-11.57,7.8
		C94.47,130.99,88.1,130.8,84.48,126.4z"/>
	<path fill="#FFCF00" d="M125.939,132.25c9.11-1.439,18.36-0.439,27.511,0.11c-0.061,3.609,0.899,7.54,3.83,9.89
		c2.789,2.39,6.689,2.51,9.84,4.189c3.84,4.221,3.561,11.57,9.36,14.051c-0.5,4.329-0.12,8.699-0.2,13.05
		c-0.62,1.93-1.88,3.529-3.25,4.99c-16.95-0.07-33.91-0.011-50.86-0.03c-0.06-6.42-2.101-12.88-6.38-17.74
		c-4.73-5.68-11.93-8.99-19.28-9.3C102.87,141.12,114.02,134.14,125.939,132.25z"/>
	<path fill="#002E6E" d="M153.77,131.311c6.5,0.509,13.03,0.819,19.45,1.989c4.08,0.74,6.73,5.14,6.19,9.11
		c-0.82,6.05-1.33,12.17-2.93,18.08c-5.8-2.48-5.521-9.83-9.36-14.051c-3.15-1.68-7.051-1.8-9.84-4.189
		c-2.931-2.35-3.891-6.28-3.83-9.89L153.77,131.311z"/>
	<path fill="#F26000" d="M16.44,151.5c16.28-0.01,32.55,0.02,48.83-0.01c10.41,0.02,20.83,0.02,31.24-0.03
		c7.35,0.31,14.55,3.62,19.28,9.3c4.279,4.86,6.32,11.32,6.38,17.74c-2.39,0-4.78,0-7.17,0c-1.22-5.62-3.3-11.42-7.88-15.181
		c-1.27-1.149-3.04-0.119-4.48-0.02c0.7,3.92,3.92,6.551,5.43,10.101c0.74,1.66,1.31,3.39,1.91,5.1c-2.94,0-5.88,0-8.81,0
		c-1.11-5.681-3.22-11.62-7.98-15.25c-1.75-1.77-5.25,0.45-3.62,2.71c2.81,3.84,5.59,7.771,6.56,12.54
		c-21.78,0.02-43.57-0.04-65.36,0.03C24.73,170.26,19.94,161.12,16.44,151.5z"/>
	<path fill="#FC9000" d="M89.57,165.96c-1.63-2.26,1.87-4.479,3.62-2.71c4.76,3.63,6.87,9.569,7.98,15.25
		c-1.68-0.01-3.36-0.01-5.04,0C95.16,173.73,92.38,169.8,89.57,165.96z"/>
	<path fill="#FC9000" d="M102.64,163.3c1.44-0.1,3.21-1.13,4.48,0.02c4.58,3.761,6.66,9.561,7.88,15.181c-1.67-0.01-3.34,0-5.02,0
		c-0.6-1.71-1.17-3.439-1.91-5.1C106.56,169.851,103.34,167.22,102.64,163.3z"/>
	<path fill="#F24100" d="M176.28,173.54c5.229,0.12,13.08-1.76,14.93,4.94c-6.06,0.039-12.12,0-18.18,0.05
		C174.4,177.069,175.66,175.47,176.28,173.54z"/>
	<path fill="#002E6E" d="M30.77,178.53c21.79-0.07,43.58-0.011,65.36-0.03c1.68-0.01,3.36-0.01,5.04,0c2.93,0,5.87,0,8.81,0
		c1.68,0,3.35-0.01,5.02,0c2.39,0,4.78,0,7.17,0c16.95,0.02,33.91-0.04,50.86,0.03c6.06-0.05,12.12-0.011,18.18-0.05
		c2.39,0,4.771,0.02,7.16,0.039c-14.17,19.3-35.17,33.5-58.439,39.23c-23.271,5.78-48.551,3.42-70.171-7.01
		C54.37,203.431,40.91,192.2,30.77,178.53z"/>
</g>
<g id="Capa_2">
	<g>
		<path fill="#BDDBFF" d="M92.351,142.992l-6.096-8.158v20.287c4.195,0,7.596-3.401,7.596-7.597
			C93.851,145.826,93.293,144.258,92.351,142.992z"/>
		<path fill="#D1E7F8" d="M80.16,142.992c-0.943,1.266-1.5,2.834-1.5,4.532c0,4.195,3.401,7.597,7.596,7.597v-20.287L80.16,142.992z
			"/>
	</g>
</g>
</svg>
